<svg xmlns="http://www.w3.org/2000/svg" width="22" height="22">
    <defs>
        <clipPath id="clip-path">
            <path id="패스_251939" data-name="패스 251939" d="M1594.937 3168.838c-.272 0-.492.321-.492.716s.22.717.492.717.493-.322.493-.716-.221-.717-.493-.717zm6.412-4.837c.114 0 .226 0 .339.008q.213.008.425.028c.055 0 .112.01.167.015a7.153 7.153 0 0 0-3.075 1.575c-1.275 1.136-2.131 3.535-2.549 4.638-.181.478-.388 1.042-.641 1.605a15.8 15.8 0 0 1-2.184 4.064 7.676 7.676 0 0 1-2.365 1.752 6.9 6.9 0 0 1-2.972.7 8.012 8.012 0 0 1-1.083-.076 7.677 7.677 0 0 1-1.034-.219.159.159 0 0 1-.027-.294 15.149 15.149 0 0 0 1.714-1.01s.939-.662.283-1.364a8.922 8.922 0 0 1-2.347-6.116 9.1 9.1 0 0 1 1.595-5.16 3.167 3.167 0 0 0-.046.153 3.652 3.652 0 0 0-.123.948 3.575 3.575 0 0 0 2.9 3.521c.051.009.1.017.155.024s.079.011.119.014a3.182 3.182 0 0 0 .5.022 6.119 6.119 0 0 0 3.322-1.676c.7-.565 1.5-1.19 2.161-1.643a10.753 10.753 0 0 1 1.483-.835 8.312 8.312 0 0 1 2.212-.61 8.134 8.134 0 0 1 1.071-.065zm1.266.473A9.1 9.1 0 0 1 1595 3178.4a8.888 8.888 0 0 1-2.467-.349c-.027-.005-.05-.014-.074-.021a10.513 10.513 0 0 1-.343-.11l-.078-.025a8.117 8.117 0 0 0 1.811-1.337c.107-.105.211-.212.31-.323a15.13 15.13 0 0 0 2.263-4.187c.228-.511.418-1.015.587-1.46l.062-.163.069-.183c.431-1.145 1.233-3.276 2.36-4.28a6.788 6.788 0 0 1 2.847-1.468z" transform="translate(-1586 -3164)" style="clip-rule:evenodd;fill:none"/>
        </clipPath>
        <clipPath id="clip-path-2">
            <path id="사각형_646" data-name="사각형 646" class="cls-2" d="M0 0h1008.159v2534.421H0z"/>
        </clipPath>
        <style>
            .cls-2{fill:none}
        </style>
    </defs>
    <g id="login-whale" transform="translate(-575 -544)">
        <path id="사각형_647" data-name="사각형 647" class="cls-2" transform="translate(575 544)" d="M0 0h22v22H0z"/>
        <g id="그룹_4079" data-name="그룹 4079" transform="translate(-1009 -2616)">
            <g id="그룹_4078" data-name="그룹 4078" transform="translate(1586 3164)" style="clip-path:url(#clip-path)">
                <g id="그룹_4077" data-name="그룹 4077" transform="translate(-571.082 -1138.672)">
                    <g id="그룹_4076" data-name="그룹 4076" style="clip-path:url(#clip-path-2)">
                        <path id="사각형_645" data-name="사각형 645" transform="translate(567.187 1135.153)" style="fill:#fff" d="M0 0h25.71v21.815H0z"/>
                    </g>
                </g>
            </g>
        </g>
    </g>
</svg>
