<svg xmlns="http://www.w3.org/2000/svg" width="307" height="183.2" viewBox="0 0 307 183.2">
    <defs>
        <style>
            .prefix__cls-1{fill:#ddd}.prefix__cls-2{fill:#fff}.prefix__cls-3{fill:#434dfe}.prefix__cls-6{fill:#eee}.prefix__cls-7{fill:#bbb}.prefix__cls-8{fill:#999}.prefix__cls-9{opacity:.5}
        </style>
    </defs>
    <g id="prefix__그룹_1325" transform="translate(.5 .1)">
        <g id="prefix__그룹_1125" transform="translate(28.218 -.5)">
            <g id="prefix__그룹_1121">
                <path id="prefix__패스_1670" d="M29.708 15.749h-.99v-9.9a4.463 4.463 0 0 0-4.457-4.459H5.446A4.461 4.461 0 0 0 .99 5.846V10.8H0V5.846A5.453 5.453 0 0 1 5.446.4h18.815a5.453 5.453 0 0 1 5.446 5.446z" class="prefix__cls-1"/>
            </g>
            <g id="prefix__그룹_1122" transform="translate(28.718)">
                <path id="prefix__패스_1671" d="M29.708 15.749h-.99v-9.9a4.463 4.463 0 0 0-4.457-4.459H5.446A4.461 4.461 0 0 0 .99 5.846v9.9H0v-9.9A5.453 5.453 0 0 1 5.446.4h18.815a5.453 5.453 0 0 1 5.446 5.446z" class="prefix__cls-1"/>
            </g>
            <g id="prefix__그룹_1123" transform="translate(57.435)">
                <path id="prefix__패스_1672" d="M29.708 15.749h-.99v-9.9a4.463 4.463 0 0 0-4.457-4.459H5.446A4.461 4.461 0 0 0 .99 5.846v9.9H0v-9.9A5.453 5.453 0 0 1 5.446.4h18.815a5.453 5.453 0 0 1 5.446 5.446z" class="prefix__cls-1"/>
            </g>
            <g id="prefix__그룹_1124" transform="translate(86.153)">
                <path id="prefix__패스_1673" d="M29.708 15.749h-.99v-9.9a4.463 4.463 0 0 0-4.457-4.459H5.446A4.461 4.461 0 0 0 .99 5.846v9.9H0v-9.9A5.453 5.453 0 0 1 5.446.4h18.815a5.453 5.453 0 0 1 5.446 5.446z" class="prefix__cls-1"/>
            </g>
        </g>
        <g id="prefix__그룹_1126" transform="translate(-.5 -.5)">
            <path id="prefix__패스_1674" d="M29.213 12.778V5.846A4.952 4.952 0 0 0 24.261.895H5.446A4.953 4.953 0 0 0 .495 5.846V173.2a9.9 9.9 0 0 0 9.9 9.9H296.6a9.9 9.9 0 0 0 9.9-9.9V25.651a9.9 9.9 0 0 0-9.9-9.9H32.183a2.971 2.971 0 0 1-2.97-2.972z" class="prefix__cls-2"/>
            <path id="prefix__패스_1675" d="M296.6 183.6H10.4A10.409 10.409 0 0 1 0 173.2V5.846A5.453 5.453 0 0 1 5.446.4h18.815a5.453 5.453 0 0 1 5.446 5.446v6.932a2.478 2.478 0 0 0 2.476 2.476H296.6a10.409 10.409 0 0 1 10.4 10.4V173.2a10.409 10.409 0 0 1-10.4 10.4zM5.446 1.39A4.461 4.461 0 0 0 .99 5.846V173.2a9.419 9.419 0 0 0 9.41 9.408h286.2a9.419 9.419 0 0 0 9.407-9.407V25.652a9.419 9.419 0 0 0-9.407-9.407H32.183a3.47 3.47 0 0 1-3.466-3.466V5.846a4.461 4.461 0 0 0-4.456-4.456H5.446z" class="prefix__cls-2"/>
        </g>
        <g id="prefix__그룹_1128" transform="translate(-.5 -.5)">
            <path id="prefix__패스_1677" d="M296.6 183.6H10.4A10.409 10.409 0 0 1 0 173.2V5.846A5.453 5.453 0 0 1 5.446.4h18.815a5.453 5.453 0 0 1 5.446 5.446v6.932a2.478 2.478 0 0 0 2.476 2.476H296.6a10.409 10.409 0 0 1 10.4 10.4V173.2a10.409 10.409 0 0 1-10.4 10.4zM5.446 1.39A4.461 4.461 0 0 0 .99 5.846V173.2a9.419 9.419 0 0 0 9.41 9.408h286.2a9.419 9.419 0 0 0 9.407-9.407V25.652a9.419 9.419 0 0 0-9.407-9.407H32.183a3.47 3.47 0 0 1-3.466-3.466V5.846a4.461 4.461 0 0 0-4.456-4.456H5.446z" class="prefix__cls-3"/>
        </g>
        <g id="prefix__그룹_1129" transform="translate(8.907 26.732)">
            <path id="prefix__사각형_407" d="M3 .4h46.484a3 3 0 0 1 3 3v9.844a3 3 0 0 1-3 3H3a3 3 0 0 1-3-3V3.4a3 3 0 0 1 3-3z" class="prefix__cls-3"/>
        </g>
        <g id="prefix__그룹_1130" transform="translate(70.304 14.849)" style="opacity:.15">
            <path id="prefix__패스_1678" d="M225.8.4H0v167.354h225.8a9.9 9.9 0 0 0 9.9-9.9V10.3a9.9 9.9 0 0 0-9.9-9.9z" style="fill:#8e89ef"/>
        </g>
        <g id="prefix__그룹_1133" transform="translate(80.206 54.459)">
            <path id="prefix__사각형_409" d="M4 .4h206.906a3 3 0 0 1 3 3v111.841a3 3 0 0 1-3 3H4a3 3 0 0 1-3-3V3.4a3 3 0 0 1 3-3z" class="prefix__cls-2"/>
        </g>
        <g id="prefix__그룹_1134" transform="translate(82.187 87.668)">
            <path id="prefix__사각형_410" d="M0 0H208.945V0.495H0z" class="prefix__cls-6" transform="translate(1 .4)"/>
        </g>
        <g id="prefix__그룹_1135" transform="translate(82.187 70.693)">
            <path id="prefix__사각형_411" d="M0 0H208.945V0.495H0z" class="prefix__cls-6" transform="translate(1 .4)"/>
        </g>
        <g id="prefix__그룹_1136" transform="translate(122.837 56.44)">
            <path id="prefix__사각형_412" d="M0 0H0.495V113.88H0z" class="prefix__cls-6" transform="translate(1 .4)"/>
        </g>
        <g id="prefix__그룹_1137" transform="translate(165.22 56.44)">
            <path id="prefix__사각형_413" d="M0 0H0.495V113.88H0z" class="prefix__cls-6" transform="translate(1 .4)"/>
        </g>
        <g id="prefix__그룹_1138" transform="translate(207.603 56.44)">
            <path id="prefix__사각형_414" d="M0 0H0.495V113.88H0z" class="prefix__cls-6" transform="translate(1 .4)"/>
        </g>
        <g id="prefix__그룹_1139" transform="translate(249.986 56.44)">
            <path id="prefix__사각형_415" d="M0 0H0.495V113.88H0z" class="prefix__cls-6" transform="translate(1 .4)"/>
        </g>
        <g id="prefix__그룹_1140" transform="translate(82.187 104.645)">
            <path id="prefix__사각형_416" d="M0 0H208.945V0.495H0z" class="prefix__cls-6" transform="translate(1 .4)"/>
        </g>
        <g id="prefix__그룹_1141" transform="translate(82.187 121.62)">
            <path id="prefix__사각형_417" d="M0 0H208.945V0.495H0z" class="prefix__cls-6" transform="translate(1 .4)"/>
        </g>
        <g id="prefix__그룹_1142" transform="translate(82.187 138.596)">
            <path id="prefix__사각형_418" d="M0 0H208.945V0.495H0z" class="prefix__cls-6" transform="translate(1 .4)"/>
        </g>
        <g id="prefix__그룹_1143" transform="translate(82.187 154.723)">
            <path id="prefix__사각형_419" d="M0 0H208.945V0.495H0z" class="prefix__cls-6" transform="translate(1 .4)"/>
        </g>
        <g id="prefix__그룹_1145" transform="translate(122.292 87.138)">
            <path id="prefix__패스_1681" d="M41.106 18.72H4.961A3.964 3.964 0 0 1 1 14.759v-10.4A3.965 3.965 0 0 1 4.961.4H41.1a3.964 3.964 0 0 1 3.961 3.961v10.4a3.964 3.964 0 0 1-3.955 3.959zM4.961 2.381A1.982 1.982 0 0 0 2.98 4.362v10.4a1.982 1.982 0 0 0 1.981 1.981H41.1a1.982 1.982 0 0 0 1.981-1.981v-10.4A1.982 1.982 0 0 0 41.1 2.381H4.961z" class="prefix__cls-3"/>
        </g>
        <g id="prefix__그룹_1281" transform="translate(86.384 60.442)">
            <g id="prefix__그룹_1151" transform="translate(42.911 32.547)">
                <g id="prefix__그룹_1146" transform="translate(0 .561)">
                    <path id="prefix__패스_1682" d="M3.4.781v4.252c0 .263-.208.381-.444.381s-.444-.118-.444-.381V1.441l-.9.513a.419.419 0 0 1-.423-.722L2.363.58A1.147 1.147 0 0 1 2.931.4C3.2.4 3.4.518 3.4.781z" class="prefix__cls-3"/>
                </g>
                <g id="prefix__그룹_1147" transform="translate(3.968 .527)">
                    <path id="prefix__패스_1683" d="M4.35 1.67v.076a2.1 2.1 0 0 1-.722 1.477L2.164 4.672h2.1c.216 0 .312.166.312.367s-.1.368-.312.368H1.621c-.437 0-.621-.152-.621-.478a.637.637 0 0 1 .229-.424l1.606-1.622c.513-.514.617-.777.617-1.131v-.035c0-.305-.236-.527-.714-.527a1.056 1.056 0 0 0-.909.471.364.364 0 0 1-.507.091L1.3 1.737a.381.381 0 0 1-.135-.522.233.233 0 0 1 .017-.026A1.781 1.781 0 0 1 2.723.4C3.857.4 4.35 1 4.35 1.67z" class="prefix__cls-3"/>
                </g>
                <g id="prefix__그룹_1148" transform="translate(8.294 4.786)">
                    <path id="prefix__패스_1684" d="M2.1.948A.548.548 0 1 1 1.547.4.537.537 0 0 1 2.1.925v.023z" class="prefix__cls-3"/>
                </g>
                <g id="prefix__그룹_1149" transform="translate(10.102 .527)">
                    <path id="prefix__패스_1685" d="M4.565 2.515v.251c0 2.2-.8 2.718-1.984 2.718A2.3 2.3 0 0 1 1.5 5.255a.381.381 0 0 1-.171-.511v-.01a.361.361 0 0 1 .461-.223.354.354 0 0 1 .053.023 2.08 2.08 0 0 0 .791.147c.652 0 .991-.341 1.047-1.367a1.517 1.517 0 0 1-1.123.437A1.473 1.473 0 0 1 1 2.378a1.432 1.432 0 0 1 0-.227v-.1A1.626 1.626 0 0 1 2.6.4a1.463 1.463 0 0 1 .175.007c1.277-.007 1.79.826 1.79 2.108zm-2.691-.444v.042c0 .582.278.861.888.861a.8.8 0 0 0 .9-.683.825.825 0 0 0 .006-.157V2.06a.786.786 0 0 0-.7-.862.752.752 0 0 0-.171 0 .8.8 0 0 0-.917.662.822.822 0 0 0-.006.21z" class="prefix__cls-3"/>
                </g>
                <g id="prefix__그룹_1150" transform="translate(18.164)">
                    <path id="prefix__패스_1686" d="M1.866.774V6.53c0 .256-.2.375-.436.375A.381.381 0 0 1 1 6.577a.359.359 0 0 1 0-.047V.774A.379.379 0 0 1 1.382.4a.387.387 0 0 1 .048 0c.235 0 .436.118.436.374z" class="prefix__cls-3"/>
                </g>
            </g>
            <g id="prefix__그룹_1154" transform="translate(.2)">
                <g id="prefix__그룹_1152">
                    <path id="prefix__패스_1687" d="M1 3.632V1.114c0-.256.216-.374.445-.374s.452.118.452.374V3.3c0 .117.042.158.159.158a19.951 19.951 0 0 0 2.06-.083c.215-.021.333.125.353.327s-.061.4-.262.416a25.36 25.36 0 0 1-2.615.09c-.445 0-.592-.139-.592-.576zM2.408 6.78c-.444 0-.588-.139-.588-.575V4.936c0-.257.214-.375.451-.375s.444.118.444.375v.929c0 .118.042.159.159.159h2.985c.214 0 .312.173.312.381s-.1.374-.312.374zm1.36-4.889c-.208 0-.291-.167-.291-.367s.083-.368.291-.368h1.38V.775a.442.442 0 0 1 .874 0v3.984a.442.442 0 0 1-.874 0V2.993h-1.38c-.208 0-.291-.166-.291-.367s.083-.367.291-.367h1.38v-.367z" class="prefix__cls-7"/>
                </g>
                <g id="prefix__그룹_1153" transform="translate(5.976 .388)">
                    <path id="prefix__패스_1688" d="M1.312 5.505C1.1 5.505 1 5.332 1 5.131s.1-.374.312-.374H3.49V3.528H2.338c-.444 0-.589-.139-.589-.575V.976C1.749.538 1.9.4 2.338.4h3.441c.215 0 .311.173.311.375s-.1.373-.311.373H2.8c-.118 0-.159.042-.159.16v1.31c0 .118.042.159.159.159h3.047c.216 0 .313.174.313.375s-.1.374-.313.374h-1.47v1.228h2.178c.215 0 .312.173.312.374s-.1.374-.312.374z" class="prefix__cls-7"/>
                </g>
            </g>
            <g id="prefix__그룹_1179" transform="translate(0 16.239)">
                <g id="prefix__그룹_1155">
                    <path id="prefix__패스_1689" d="M4.35 1.67v.076a2.105 2.105 0 0 1-.721 1.477L2.161 4.672h2.1c.216 0 .313.166.313.367s-.1.368-.313.368H1.624c-.437 0-.624-.152-.624-.478a.637.637 0 0 1 .229-.424l1.609-1.622c.513-.514.617-.777.617-1.131v-.035c0-.305-.236-.527-.714-.527a1.056 1.056 0 0 0-.909.471.364.364 0 0 1-.507.091l-.02-.015a.381.381 0 0 1-.135-.522.233.233 0 0 1 .017-.026A1.781 1.781 0 0 1 2.726.4C3.861.4 4.35 1 4.35 1.67z" class="prefix__cls-7"/>
                </g>
                <g id="prefix__그룹_1156" transform="translate(4.248)">
                    <path id="prefix__패스_1690" d="M4.691 2.792v.3c0 1.525-.562 2.392-1.845 2.392S1 4.617 1 3.092v-.3C1 1.266 1.562.4 2.846.4s1.845.866 1.845 2.392zm-2.8.062v.174c0 1.144.229 1.616.951 1.616s.951-.472.951-1.616v-.174c0-1.144-.23-1.615-.951-1.615s-.947.472-.947 1.616z" class="prefix__cls-7"/>
                </g>
                <g id="prefix__그룹_1157" transform="translate(8.925 .035)">
                    <path id="prefix__패스_1691" d="M3.4.781v4.252c0 .263-.208.381-.445.381s-.444-.118-.444-.381V1.441l-.894.513a.392.392 0 0 1-.539-.131.413.413 0 0 1-.022-.042.387.387 0 0 1 .115-.535l.029-.014L2.369.58A1.147 1.147 0 0 1 2.937.4C3.2.4 3.4.518 3.4.781z" class="prefix__cls-7"/>
                </g>
                <g id="prefix__그룹_1158" transform="translate(13.223 .035)">
                    <path id="prefix__패스_1692" d="M3.408.781v4.252c0 .263-.208.381-.445.381s-.444-.118-.444-.381V1.441l-.894.513a.393.393 0 0 1-.54-.131.423.423 0 0 1-.022-.042.389.389 0 0 1 .119-.537l.02-.012L2.374.58A1.147 1.147 0 0 1 2.942.4c.258 0 .466.118.466.381z" class="prefix__cls-7"/>
                </g>
                <g id="prefix__그룹_1159" transform="translate(0 16.834)">
                    <path id="prefix__패스_1693" d="M4.35 1.67v.076a2.105 2.105 0 0 1-.721 1.477L2.161 4.672h2.1c.216 0 .313.166.313.367s-.1.368-.313.368H1.624c-.437 0-.624-.152-.624-.478a.637.637 0 0 1 .229-.424l1.609-1.622c.513-.514.617-.777.617-1.131v-.035c0-.305-.236-.527-.714-.527a1.056 1.056 0 0 0-.909.471.364.364 0 0 1-.507.091l-.02-.015a.381.381 0 0 1-.135-.522.233.233 0 0 1 .017-.026A1.781 1.781 0 0 1 2.726.4C3.861.4 4.35 1 4.35 1.67z" class="prefix__cls-7"/>
                </g>
                <g id="prefix__그룹_1160" transform="translate(4.248 16.834)">
                    <path id="prefix__패스_1694" d="M4.691 2.792v.3c0 1.525-.562 2.392-1.845 2.392S1 4.617 1 3.092v-.3C1 1.266 1.562.4 2.846.4s1.845.866 1.845 2.392zm-2.8.062v.174c0 1.144.229 1.616.951 1.616s.951-.472.951-1.616v-.174c0-1.144-.23-1.615-.951-1.615s-.947.472-.947 1.616z" class="prefix__cls-7"/>
                </g>
                <g id="prefix__그룹_1161" transform="translate(8.925 16.869)">
                    <path id="prefix__패스_1695" d="M3.4.781v4.252c0 .263-.208.381-.445.381s-.444-.118-.444-.381V1.441l-.894.513a.392.392 0 0 1-.539-.131.413.413 0 0 1-.022-.042.387.387 0 0 1 .115-.535l.029-.014L2.369.58A1.147 1.147 0 0 1 2.937.4C3.2.4 3.4.518 3.4.781z" class="prefix__cls-7"/>
                </g>
                <g id="prefix__그룹_1162" transform="translate(12.893 16.834)">
                    <path id="prefix__패스_1696" d="M4.35 1.67v.076a2.1 2.1 0 0 1-.722 1.477L2.165 4.672h2.1c.214 0 .312.166.312.367s-.1.368-.312.368H1.622c-.437 0-.622-.152-.622-.478a.637.637 0 0 1 .229-.424l1.607-1.622c.513-.514.617-.777.617-1.131v-.035c0-.305-.236-.527-.714-.527a1.054 1.054 0 0 0-.908.471.365.365 0 0 1-.508.091L1.3 1.737a.381.381 0 0 1-.135-.522.233.233 0 0 1 .017-.026A1.783 1.783 0 0 1 2.725.4C3.858.4 4.35 1 4.35 1.67z" class="prefix__cls-7"/>
                </g>
                <g id="prefix__그룹_1163" transform="translate(0 33.669)">
                    <path id="prefix__패스_1697" d="M4.35 1.67v.076a2.105 2.105 0 0 1-.721 1.477L2.161 4.672h2.1c.216 0 .313.166.313.367s-.1.368-.313.368H1.624c-.437 0-.624-.153-.624-.478a.637.637 0 0 1 .229-.424l1.609-1.622c.513-.514.617-.777.617-1.131v-.035c0-.305-.236-.527-.714-.527a1.056 1.056 0 0 0-.909.471.364.364 0 0 1-.507.091l-.02-.015a.381.381 0 0 1-.135-.522.233.233 0 0 1 .017-.026A1.781 1.781 0 0 1 2.726.4C3.861.4 4.35 1 4.35 1.67z" class="prefix__cls-7"/>
                </g>
                <g id="prefix__그룹_1164" transform="translate(4.248 33.669)">
                    <path id="prefix__패스_1698" d="M4.691 2.792v.3c0 1.525-.562 2.392-1.845 2.392S1 4.617 1 3.092v-.3C1 1.266 1.562.4 2.846.4s1.845.866 1.845 2.392zm-2.8.062v.174c0 1.144.229 1.616.951 1.616s.951-.472.951-1.616v-.174c0-1.144-.23-1.615-.951-1.615s-.947.472-.947 1.616z" class="prefix__cls-7"/>
                </g>
                <g id="prefix__그룹_1165" transform="translate(8.925 33.703)">
                    <path id="prefix__패스_1699" d="M3.4.781v4.252c0 .263-.208.381-.445.381s-.444-.118-.444-.381V1.44l-.894.513a.392.392 0 0 1-.539-.131.413.413 0 0 1-.022-.042.387.387 0 0 1 .115-.535l.029-.014L2.369.579A1.147 1.147 0 0 1 2.937.4C3.2.4 3.4.518 3.4.781z" class="prefix__cls-7"/>
                </g>
                <g id="prefix__그룹_1166" transform="translate(12.981 33.669)">
                    <path id="prefix__패스_1700" d="M4.192 1.66v.035a1.193 1.193 0 0 1-.825 1.158A1.088 1.088 0 0 1 4.4 3.97v.069c0 .77-.624 1.443-1.817 1.443a2.5 2.5 0 0 1-1.393-.367.4.4 0 0 1-.135-.549.233.233 0 0 1 .017-.026.358.358 0 0 1 .478-.167.322.322 0 0 1 .056.034 1.548 1.548 0 0 0 .916.284c.735 0 .984-.3.984-.693v-.055c0-.471-.3-.693-1.006-.693h-.367c-.221 0-.319-.173-.319-.381s.1-.382.319-.382h.291c.618 0 .9-.236.9-.714v-.021c0-.354-.243-.575-.791-.575a1.059 1.059 0 0 0-.783.323.358.358 0 0 1-.506-.009.3.3 0 0 1-.028-.033.4.4 0 0 1 .014-.531A1.7 1.7 0 0 1 2.54.4c1.14 0 1.652.6 1.652 1.26z" class="prefix__cls-7"/>
                </g>
                <g id="prefix__그룹_1167" transform="translate(0 50.503)">
                    <path id="prefix__패스_1701" d="M4.35 1.67v.076a2.105 2.105 0 0 1-.721 1.477L2.161 4.672h2.1c.216 0 .313.166.313.367s-.1.368-.313.368H1.624c-.437 0-.624-.152-.624-.478a.637.637 0 0 1 .229-.424l1.609-1.622c.513-.514.617-.777.617-1.131v-.035c0-.305-.236-.527-.714-.527a1.056 1.056 0 0 0-.909.471.364.364 0 0 1-.507.091l-.02-.015a.381.381 0 0 1-.135-.522.233.233 0 0 1 .017-.026A1.781 1.781 0 0 1 2.726.4C3.861.4 4.35 1 4.35 1.67z" class="prefix__cls-7"/>
                </g>
                <g id="prefix__그룹_1168" transform="translate(4.248 50.503)">
                    <path id="prefix__패스_1702" d="M4.691 2.792v.3c0 1.525-.562 2.392-1.845 2.392S1 4.617 1 3.092v-.3C1 1.266 1.562.4 2.846.4s1.845.866 1.845 2.392zm-2.8.062v.174c0 1.144.229 1.616.951 1.616s.951-.472.951-1.616v-.174c0-1.144-.23-1.615-.951-1.615s-.947.472-.947 1.616z" class="prefix__cls-7"/>
                </g>
                <g id="prefix__그룹_1169" transform="translate(8.925 50.538)">
                    <path id="prefix__패스_1703" d="M3.4.781v4.252c0 .263-.208.381-.445.381s-.444-.118-.444-.381V1.44l-.894.513a.392.392 0 0 1-.539-.131c-.008-.013-.015-.028-.022-.042a.387.387 0 0 1 .115-.535l.029-.014L2.369.579A1.147 1.147 0 0 1 2.937.4C3.2.4 3.4.518 3.4.781z" class="prefix__cls-7"/>
                </g>
                <g id="prefix__그룹_1170" transform="translate(12.692 50.538)">
                    <path id="prefix__패스_1704" d="M3.864 1.025L2.054 3.64H3.49V2.5c0-.256.208-.374.438-.374a.386.386 0 0 1 .433.331.311.311 0 0 1 0 .043v1.14h.424c.215 0 .3.166.3.36s-.083.354-.3.354h-.421v.687a.384.384 0 0 1-.393.377.3.3 0 0 1-.043 0c-.23 0-.438-.118-.438-.374v-.69H1.544c-.381 0-.548-.139-.548-.43 0-.1.013-.18.214-.471L3.2.574a.388.388 0 0 1 .539-.107l.01.007a.362.362 0 0 1 .157.487.392.392 0 0 1-.042.064z" class="prefix__cls-7"/>
                </g>
                <g id="prefix__그룹_1171" transform="translate(0 67.338)">
                    <path id="prefix__패스_1705" d="M4.35 1.67v.076a2.105 2.105 0 0 1-.721 1.477L2.161 4.672h2.1c.216 0 .313.166.313.367s-.1.368-.313.368H1.624c-.437 0-.624-.152-.624-.478a.637.637 0 0 1 .229-.424l1.609-1.622c.513-.514.617-.777.617-1.131v-.035c0-.305-.236-.527-.714-.527a1.056 1.056 0 0 0-.909.471.364.364 0 0 1-.507.091l-.02-.015a.381.381 0 0 1-.135-.522.233.233 0 0 1 .017-.026A1.781 1.781 0 0 1 2.726.4C3.861.4 4.35 1 4.35 1.67z" class="prefix__cls-7"/>
                </g>
                <g id="prefix__그룹_1172" transform="translate(4.248 67.338)">
                    <path id="prefix__패스_1706" d="M4.691 2.792v.3c0 1.525-.562 2.392-1.845 2.392S1 4.617 1 3.092v-.3C1 1.266 1.562.4 2.846.4s1.845.866 1.845 2.392zm-2.8.062v.174c0 1.144.229 1.616.951 1.616s.951-.472.951-1.616v-.174c0-1.144-.23-1.615-.951-1.615s-.947.472-.947 1.616z" class="prefix__cls-7"/>
                </g>
                <g id="prefix__그룹_1173" transform="translate(8.925 67.372)">
                    <path id="prefix__패스_1707" d="M3.4.781v4.252c0 .263-.208.381-.445.381s-.444-.118-.444-.381V1.44l-.894.513a.392.392 0 0 1-.539-.131c-.008-.013-.015-.028-.022-.042a.387.387 0 0 1 .115-.535l.029-.014L2.369.579A1.147 1.147 0 0 1 2.937.4C3.2.4 3.4.518 3.4.781z" class="prefix__cls-7"/>
                </g>
                <g id="prefix__그룹_1174" transform="translate(13.016 67.414)">
                    <path id="prefix__패스_1708" d="M3.873.4c.216 0 .313.173.313.375s-.1.373-.313.373H2.117L2.061 2.4a1.7 1.7 0 0 1 .93-.257 1.446 1.446 0 0 1 1.492 1.4v.195a1.634 1.634 0 0 1-1.6 1.672 1.788 1.788 0 0 1-.194-.007 2.658 2.658 0 0 1-1.5-.367.4.4 0 0 1-.135-.549c0-.009.011-.017.017-.026a.358.358 0 0 1 .482-.161.322.322 0 0 1 .056.034 1.932 1.932 0 0 0 1.075.266.806.806 0 0 0 .9-.7.749.749 0 0 0 0-.164v-.041a.783.783 0 0 0-.88-.833 1.284 1.284 0 0 0-.819.285.511.511 0 0 1-.367.152c-.215 0-.354-.111-.347-.3l.111-2c.028-.485.139-.6.59-.6z" class="prefix__cls-7"/>
                </g>
                <g id="prefix__그룹_1175" transform="translate(0 84.172)">
                    <path id="prefix__패스_1709" d="M4.35 1.67v.076a2.105 2.105 0 0 1-.721 1.477L2.161 4.672h2.1c.216 0 .313.166.313.367s-.1.368-.313.368H1.624c-.437 0-.624-.152-.624-.478a.637.637 0 0 1 .229-.424l1.609-1.622c.513-.514.617-.777.617-1.131v-.035c0-.3-.236-.527-.714-.527a1.056 1.056 0 0 0-.909.471.364.364 0 0 1-.507.091l-.02-.015a.381.381 0 0 1-.135-.522.233.233 0 0 1 .017-.026A1.781 1.781 0 0 1 2.726.4C3.861.4 4.35 1 4.35 1.67z" class="prefix__cls-7"/>
                </g>
                <g id="prefix__그룹_1176" transform="translate(4.248 84.172)">
                    <path id="prefix__패스_1710" d="M4.691 2.792v.3c0 1.525-.562 2.392-1.845 2.392S1 4.617 1 3.092v-.3C1 1.266 1.562.4 2.846.4s1.845.866 1.845 2.392zm-2.8.062v.174c0 1.144.229 1.616.951 1.616s.951-.472.951-1.616v-.174c0-1.144-.23-1.615-.951-1.615s-.947.472-.947 1.616z" class="prefix__cls-7"/>
                </g>
                <g id="prefix__그룹_1177" transform="translate(8.925 84.207)">
                    <path id="prefix__패스_1711" d="M3.4.781v4.252c0 .263-.208.381-.445.381s-.444-.118-.444-.381V1.44l-.894.513a.392.392 0 0 1-.539-.131c-.008-.013-.015-.028-.022-.042a.387.387 0 0 1 .115-.535l.029-.014L2.369.579A1.147 1.147 0 0 1 2.937.4C3.2.4 3.4.518 3.4.781z" class="prefix__cls-7"/>
                </g>
                <g id="prefix__그룹_1178" transform="translate(12.963 84.172)">
                    <path id="prefix__패스_1712" d="M4.066.629a.38.38 0 0 1 .172.509l-.006.012a.361.361 0 0 1-.461.223.354.354 0 0 1-.053-.023 2.075 2.075 0 0 0-.79-.147c-.528 0-.971.348-1.047 1.367A1.513 1.513 0 0 1 3 2.133a1.476 1.476 0 0 1 1.568 1.384 1.537 1.537 0 0 1 0 .225v.1a1.619 1.619 0 0 1-1.6 1.644c-.06 0-.121 0-.181-.007C1.513 5.479 1 4.646 1 3.364v-.25C1 .908 1.894.395 2.983.395a2.306 2.306 0 0 1 1.083.234zM1.894 3.75v.069a.786.786 0 0 0 .7.862.77.77 0 0 0 .173 0 .8.8 0 0 0 .916-.664.811.811 0 0 0 .006-.2v-.046c0-.582-.276-.86-.888-.86a.8.8 0 0 0-.9.683.815.815 0 0 0-.006.156z" class="prefix__cls-7"/>
                </g>
            </g>
            <g id="prefix__그룹_1181" transform="translate(42.448 .118)">
                <g id="prefix__그룹_1180">
                    <path id="prefix__패스_1713" d="M1.306 4.14C1.1 4.14 1 3.974 1 3.773s.1-.367.306-.367h2.189V2.89H2.351c-.445 0-.59-.139-.59-.575V.76A.385.385 0 0 1 2.168.4h.024c.221 0 .437.118.437.36v.312h2.607V.76A.385.385 0 0 1 5.643.4h.023c.222 0 .434.118.434.36v1.554c0 .437-.147.575-.59.575H4.37V3.4h2.191c.208 0 .3.166.3.367s-.1.367-.3.367zm1.033 2.6c-.444 0-.589-.14-.589-.576V5.089c0-.438.146-.576.589-.576H5.53c.444 0 .589.139.589.576v1.074c0 .437-.146.576-.589.576zm2.8-4.55a.092.092 0 0 0 .1-.083.049.049 0 0 0 0-.017v-.312H2.632v.312a.091.091 0 0 0 .081.1h2.426zm-.055 3.828c.118 0 .159-.042.159-.159v-.464c0-.119-.042-.159-.159-.159H2.8c-.118 0-.159.041-.159.159v.464c0 .118.042.159.159.159z" class="prefix__cls-7"/>
                </g>
            </g>
            <g id="prefix__그룹_1202" transform="translate(42.911 16.239)">
                <g id="prefix__그룹_1182" transform="translate(0 .035)">
                    <path id="prefix__패스_1714" d="M3.4.781v4.252c0 .263-.208.381-.444.381s-.444-.118-.444-.381V1.441l-.9.513a.419.419 0 0 1-.423-.722L2.363.58A1.147 1.147 0 0 1 2.931.4C3.2.4 3.4.518 3.4.781z" class="prefix__cls-7"/>
                </g>
                <g id="prefix__그룹_1183" transform="translate(3.968)">
                    <path id="prefix__패스_1715" d="M4.35 1.67v.076a2.1 2.1 0 0 1-.722 1.477L2.164 4.672h2.1c.216 0 .312.166.312.367s-.1.368-.312.368H1.621c-.437 0-.621-.152-.621-.478a.637.637 0 0 1 .229-.424l1.606-1.622c.513-.514.617-.777.617-1.131v-.035c0-.305-.236-.527-.714-.527a1.056 1.056 0 0 0-.909.471.364.364 0 0 1-.507.091L1.3 1.737a.381.381 0 0 1-.135-.522.233.233 0 0 1 .017-.026A1.781 1.781 0 0 1 2.723.4C3.857.4 4.35 1 4.35 1.67z" class="prefix__cls-7"/>
                </g>
                <g id="prefix__그룹_1184" transform="translate(8.294 4.259)">
                    <path id="prefix__패스_1716" d="M2.1.948A.548.548 0 1 1 1.547.4.537.537 0 0 1 2.1.925v.023z" class="prefix__cls-7"/>
                </g>
                <g id="prefix__그룹_1185" transform="translate(9.922 .035)">
                    <path id="prefix__패스_1717" d="M3.864 1.025L2.054 3.64h1.435V2.5c0-.256.208-.374.438-.374s.437.118.437.374v1.139h.423c.216 0 .3.166.3.36s-.083.354-.3.354h-.423v.687c0 .256-.208.374-.437.374s-.438-.114-.438-.374v-.687H1.548c-.381 0-.548-.139-.548-.43 0-.1.013-.18.215-.471L3.2.573a.389.389 0 0 1 .541-.1h.008a.361.361 0 0 1 .153.488.392.392 0 0 1-.038.064z" class="prefix__cls-7"/>
                </g>
                <g id="prefix__그룹_1186" transform="translate(0 33.703)">
                    <path id="prefix__패스_1718" d="M3.4.781v4.252c0 .263-.208.381-.444.381s-.444-.118-.444-.381V1.44l-.9.513a.419.419 0 0 1-.423-.722L2.363.579A1.147 1.147 0 0 1 2.931.4C3.2.4 3.4.518 3.4.781z" class="prefix__cls-7"/>
                </g>
                <g id="prefix__그룹_1187" transform="translate(4.056 33.669)">
                    <path id="prefix__패스_1719" d="M4.193 1.66v.035a1.2 1.2 0 0 1-.826 1.158A1.09 1.09 0 0 1 4.4 3.97v.069c0 .77-.625 1.443-1.817 1.443a2.5 2.5 0 0 1-1.4-.367.406.406 0 0 1-.128-.56l.01-.015a.359.359 0 0 1 .48-.166.381.381 0 0 1 .055.033 1.545 1.545 0 0 0 .915.284c.736 0 .985-.3.985-.693v-.055c0-.471-.3-.693-1.005-.693h-.363c-.223 0-.32-.173-.32-.381s.1-.382.32-.382h.29c.618 0 .9-.236.9-.714v-.021c0-.354-.243-.575-.79-.575a1.062 1.062 0 0 0-.784.326.358.358 0 0 1-.506-.009.3.3 0 0 1-.028-.033.4.4 0 0 1 .013-.534A1.7 1.7 0 0 1 2.539.4c1.14 0 1.654.6 1.654 1.26z" class="prefix__cls-7"/>
                </g>
                <g id="prefix__그룹_1188" transform="translate(8.294 37.928)">
                    <path id="prefix__패스_1720" d="M2.1.948A.548.548 0 1 1 1.547.4.537.537 0 0 1 2.1.925v.023z" class="prefix__cls-7"/>
                </g>
                <g id="prefix__그룹_1189" transform="translate(10.453 33.703)">
                    <path id="prefix__패스_1721" d="M3.4.781v4.252c0 .263-.208.381-.445.381s-.444-.118-.444-.381V1.44l-.894.513a.392.392 0 0 1-.539-.131.413.413 0 0 1-.022-.042.388.388 0 0 1 .117-.536l.027-.013L2.369.579A1.147 1.147 0 0 1 2.937.4C3.2.4 3.4.518 3.4.781z" class="prefix__cls-7"/>
                </g>
                <g id="prefix__그룹_1190" transform="translate(0 50.538)">
                    <path id="prefix__패스_1722" d="M3.4.781v4.252c0 .263-.208.381-.444.381s-.444-.118-.444-.381V1.44l-.9.513a.419.419 0 0 1-.423-.722L2.363.579A1.147 1.147 0 0 1 2.931.4C3.2.4 3.4.518 3.4.781z" class="prefix__cls-7"/>
                </g>
                <g id="prefix__그룹_1191" transform="translate(4.056 50.503)">
                    <path id="prefix__패스_1723" d="M4.193 1.66v.035a1.2 1.2 0 0 1-.826 1.158A1.09 1.09 0 0 1 4.4 3.97v.069c0 .77-.625 1.443-1.817 1.443a2.5 2.5 0 0 1-1.4-.367.406.406 0 0 1-.128-.56l.01-.015a.359.359 0 0 1 .48-.166.381.381 0 0 1 .055.033 1.545 1.545 0 0 0 .915.284c.736 0 .985-.3.985-.693v-.055c0-.471-.3-.693-1.005-.693h-.363c-.223 0-.32-.173-.32-.381s.1-.382.32-.382h.29c.618 0 .9-.236.9-.714v-.021c0-.354-.243-.575-.79-.575a1.062 1.062 0 0 0-.784.326.358.358 0 0 1-.506-.009.3.3 0 0 1-.028-.033.4.4 0 0 1 .013-.534A1.7 1.7 0 0 1 2.539.4c1.14 0 1.654.6 1.654 1.26z" class="prefix__cls-7"/>
                </g>
                <g id="prefix__그룹_1192" transform="translate(8.294 54.762)">
                    <path id="prefix__패스_1724" d="M2.1.948A.548.548 0 1 1 1.547.4.537.537 0 0 1 2.1.925v.023z" class="prefix__cls-7"/>
                </g>
                <g id="prefix__그룹_1193" transform="translate(9.922 50.538)">
                    <path id="prefix__패스_1725" d="M3.864 1.025L2.054 3.64h1.435V2.5c0-.256.208-.374.438-.374s.437.118.437.374v1.14h.423c.216 0 .3.166.3.36s-.083.354-.3.354h-.423v.687c0 .256-.208.374-.437.374s-.438-.118-.438-.374v-.687H1.548c-.381 0-.548-.139-.548-.43 0-.1.013-.18.215-.471L3.2.574a.389.389 0 0 1 .541-.1h.008A.362.362 0 0 1 3.9.963a.317.317 0 0 1-.036.062z" class="prefix__cls-7"/>
                </g>
                <g id="prefix__그룹_1194" transform="translate(0 67.372)">
                    <path id="prefix__패스_1726" d="M3.4.781v4.252c0 .263-.208.381-.444.381s-.444-.118-.444-.381V1.44l-.9.513a.419.419 0 0 1-.423-.722L2.363.579A1.147 1.147 0 0 1 2.931.4C3.2.4 3.4.518 3.4.781z" class="prefix__cls-7"/>
                </g>
                <g id="prefix__그룹_1195" transform="translate(4.056 67.338)">
                    <path id="prefix__패스_1727" d="M4.193 1.66v.035a1.2 1.2 0 0 1-.826 1.158A1.09 1.09 0 0 1 4.4 3.97v.069c0 .77-.625 1.443-1.817 1.443a2.5 2.5 0 0 1-1.4-.367.406.406 0 0 1-.128-.56l.01-.015a.359.359 0 0 1 .48-.166.381.381 0 0 1 .055.033 1.545 1.545 0 0 0 .915.284c.736 0 .985-.3.985-.693v-.055c0-.471-.3-.693-1.005-.693h-.363c-.223 0-.32-.173-.32-.381s.1-.382.32-.382h.29c.618 0 .9-.236.9-.714v-.021c0-.354-.243-.575-.79-.575a1.062 1.062 0 0 0-.784.326.358.358 0 0 1-.506-.009.3.3 0 0 1-.028-.033.4.4 0 0 1 .013-.534A1.7 1.7 0 0 1 2.539.4c1.14 0 1.654.6 1.654 1.26z" class="prefix__cls-7"/>
                </g>
                <g id="prefix__그룹_1196" transform="translate(8.294 71.597)">
                    <path id="prefix__패스_1728" d="M2.1.948A.548.548 0 1 1 1.547.4.537.537 0 0 1 2.1.925v.023z" class="prefix__cls-7"/>
                </g>
                <g id="prefix__그룹_1197" transform="translate(10.192 67.338)">
                    <path id="prefix__패스_1729" d="M4.066.629a.379.379 0 0 1 .173.507s0 .009-.007.014a.361.361 0 0 1-.459.224.441.441 0 0 1-.054-.024 2.075 2.075 0 0 0-.79-.147c-.528 0-.971.348-1.048 1.367a1.515 1.515 0 0 1 1.124-.437 1.476 1.476 0 0 1 1.564 1.384 1.537 1.537 0 0 1 0 .225v.1a1.621 1.621 0 0 1-1.6 1.644 1.522 1.522 0 0 1-.179-.007C1.514 5.479 1 4.646 1 3.364v-.25C1 .908 1.9.395 2.984.395a2.3 2.3 0 0 1 1.082.234zM1.895 3.75v.069a.786.786 0 0 0 .7.862.752.752 0 0 0 .171 0 .8.8 0 0 0 .917-.663.774.774 0 0 0 .006-.2v-.047c0-.582-.277-.86-.887-.86a.8.8 0 0 0-.9.682.825.825 0 0 0-.006.157z" class="prefix__cls-7"/>
                </g>
                <g id="prefix__그룹_1198" transform="translate(0 84.207)">
                    <path id="prefix__패스_1730" d="M3.4.781v4.252c0 .263-.208.381-.444.381s-.444-.118-.444-.381V1.44l-.9.513a.419.419 0 0 1-.423-.722L2.363.579A1.147 1.147 0 0 1 2.931.4C3.2.4 3.4.518 3.4.781z" class="prefix__cls-7"/>
                </g>
                <g id="prefix__그룹_1199" transform="translate(4.056 84.172)">
                    <path id="prefix__패스_1731" d="M4.193 1.66v.035a1.2 1.2 0 0 1-.826 1.158A1.09 1.09 0 0 1 4.4 3.97v.069c0 .77-.625 1.443-1.817 1.443a2.5 2.5 0 0 1-1.4-.367.406.406 0 0 1-.128-.56l.01-.015a.359.359 0 0 1 .48-.166.381.381 0 0 1 .055.033 1.545 1.545 0 0 0 .915.284c.736 0 .985-.3.985-.693v-.055c0-.471-.3-.693-1.005-.693h-.363c-.223 0-.32-.173-.32-.381s.1-.382.32-.382h.29c.618 0 .9-.236.9-.714v-.021c0-.354-.243-.575-.79-.575a1.062 1.062 0 0 0-.784.326.358.358 0 0 1-.506-.009.3.3 0 0 1-.028-.033.4.4 0 0 1 .013-.534A1.7 1.7 0 0 1 2.539.4c1.14 0 1.654.6 1.654 1.26z" class="prefix__cls-7"/>
                </g>
                <g id="prefix__그룹_1200" transform="translate(8.294 88.431)">
                    <path id="prefix__패스_1732" d="M2.1.948A.548.548 0 1 1 1.547.4.537.537 0 0 1 2.1.925v.023z" class="prefix__cls-7"/>
                </g>
                <g id="prefix__그룹_1201" transform="translate(10.453 84.207)">
                    <path id="prefix__패스_1733" d="M3.4.781v4.252c0 .263-.208.381-.445.381s-.444-.118-.444-.381V1.44l-.894.513a.392.392 0 0 1-.539-.131c-.008-.013-.015-.028-.022-.042a.388.388 0 0 1 .117-.536l.027-.013L2.369.579A1.147 1.147 0 0 1 2.937.4C3.2.4 3.4.518 3.4.781z" class="prefix__cls-7"/>
                </g>
            </g>
            <g id="prefix__그룹_1205" transform="translate(85.196)">
                <g id="prefix__그룹_1203">
                    <path id="prefix__패스_1734" d="M2.627.759c1.082 0 1.629.735 1.629 2.1s-.547 2.1-1.629 2.1S1 4.224 1 2.859s.549-2.1 1.627-2.1zm0 .77c-.576 0-.776.458-.776 1.331s.2 1.332.776 1.332.773-.458.773-1.332-.2-1.329-.776-1.329zm3.558 4.556a.442.442 0 0 1-.874 0V4H4.7c-.215 0-.3-.173-.3-.381s.09-.374.3-.374h.61v-.763H4.7c-.215 0-.3-.173-.3-.381s.09-.375.3-.375h.61v-.95a.442.442 0 0 1 .874 0z" class="prefix__cls-7"/>
                </g>
                <g id="prefix__그룹_1204" transform="translate(6.143 .187)">
                    <path id="prefix__패스_1735" d="M1.3 4.17c-.2 0-.3-.159-.3-.37s.1-.354.3-.354h5.262c.208 0 .3.159.3.354s-.1.367-.3.367zm1.033 2.5c-.444 0-.589-.14-.589-.576V5.1c0-.437.146-.576.589-.576h3.191c.444 0 .59.14.59.576v.991c0 .437-.147.576-.59.576H2.338zM5.48.4c.444 0 .59.139.59.576V1.5c0 .437-.147.575-.59.575H2.748a.092.092 0 0 0-.1.083.049.049 0 0 0 0 .017V2.3a.092.092 0 0 0 .083.1h3.193c.2 0 .284.159.284.34s-.089.348-.284.348H2.373c-.444 0-.588-.14-.588-.576v-.524c0-.437.145-.575.588-.575h2.733a.093.093 0 0 0 .1-.085V1.19a.093.093 0 0 0-.085-.1H2.054c-.193 0-.284-.159-.284-.347S1.861.4 2.054.4zm-.4 5.562c.118 0 .159-.042.159-.159v-.409c0-.118-.042-.159-.159-.159h-2.3c-.118 0-.159.042-.159.159V5.8c0 .118.042.159.159.159z" class="prefix__cls-7"/>
                </g>
            </g>
            <g id="prefix__그룹_1228" transform="translate(85.492 16.274)">
                <g id="prefix__그룹_1206">
                    <path id="prefix__패스_1736" d="M3.4.781v4.252c0 .263-.208.381-.444.381s-.444-.118-.444-.381V1.441l-.9.513a.419.419 0 0 1-.423-.722L2.363.58A1.147 1.147 0 0 1 2.931.4C3.2.4 3.4.518 3.4.781z" class="prefix__cls-7"/>
                </g>
                <g id="prefix__그룹_1207" transform="translate(4.298)">
                    <path id="prefix__패스_1737" d="M3.4.781v4.252c0 .263-.208.381-.444.381s-.445-.118-.445-.381V1.441l-.894.513a.419.419 0 0 1-.417-.722L2.368.58A1.147 1.147 0 0 1 2.936.4C3.2.4 3.4.518 3.4.781z" class="prefix__cls-7"/>
                </g>
                <g id="prefix__그룹_1208" transform="translate(0 16.834)">
                    <path id="prefix__패스_1738" d="M3.4.781v4.252c0 .263-.208.381-.444.381s-.444-.118-.444-.381V1.441l-.9.513a.419.419 0 0 1-.423-.722L2.363.58A1.147 1.147 0 0 1 2.931.4C3.2.4 3.4.518 3.4.781z" class="prefix__cls-7"/>
                </g>
                <g id="prefix__그룹_1209" transform="translate(3.968 16.8)">
                    <path id="prefix__패스_1739" d="M4.35 1.67v.076a2.1 2.1 0 0 1-.722 1.477L2.164 4.672h2.1c.216 0 .312.166.312.367s-.1.368-.312.368H1.621c-.437 0-.621-.152-.621-.478a.637.637 0 0 1 .229-.424l1.606-1.622c.513-.514.617-.777.617-1.131v-.035c0-.305-.236-.527-.714-.527a1.056 1.056 0 0 0-.909.471.364.364 0 0 1-.507.091L1.3 1.737a.381.381 0 0 1-.135-.522.233.233 0 0 1 .017-.026A1.781 1.781 0 0 1 2.723.4C3.857.4 4.35 1 4.35 1.67z" class="prefix__cls-7"/>
                </g>
                <g id="prefix__그룹_1210" transform="translate(8.294 21.059)">
                    <path id="prefix__패스_1740" d="M2.1.948A.548.548 0 1 1 1.547.4.537.537 0 0 1 2.1.925v.023z" class="prefix__cls-7"/>
                </g>
                <g id="prefix__그룹_1211" transform="translate(10.124 16.8)">
                    <path id="prefix__패스_1741" d="M4.35 1.67v.076a2.1 2.1 0 0 1-.722 1.477L2.164 4.672h2.1c.216 0 .312.166.312.367s-.1.368-.312.368H1.622c-.438 0-.622-.152-.622-.478a.64.64 0 0 1 .228-.424l1.607-1.622c.514-.514.617-.777.617-1.131v-.035c0-.305-.235-.527-.713-.527a1.056 1.056 0 0 0-.909.471.364.364 0 0 1-.507.091L1.3 1.737a.382.382 0 0 1-.135-.523.213.213 0 0 1 .016-.025A1.783 1.783 0 0 1 2.724.4C3.857.4 4.35 1 4.35 1.67z" class="prefix__cls-7"/>
                </g>
                <g id="prefix__그룹_1212" transform="translate(0 33.669)">
                    <path id="prefix__패스_1742" d="M3.4.781v4.252c0 .263-.208.381-.444.381s-.444-.118-.444-.381V1.44l-.9.513a.419.419 0 0 1-.423-.722L2.363.579A1.147 1.147 0 0 1 2.931.4C3.2.4 3.4.518 3.4.781z" class="prefix__cls-7"/>
                </g>
                <g id="prefix__그룹_1213" transform="translate(4.298 33.669)">
                    <path id="prefix__패스_1743" d="M3.4.781v4.252c0 .263-.208.381-.444.381s-.445-.118-.445-.381V1.44l-.894.513a.419.419 0 0 1-.417-.722L2.368.579A1.147 1.147 0 0 1 2.936.4C3.2.4 3.4.518 3.4.781z" class="prefix__cls-7"/>
                </g>
                <g id="prefix__그룹_1214" transform="translate(8.294 37.893)">
                    <path id="prefix__패스_1744" d="M2.1.948A.548.548 0 1 1 1.547.4.537.537 0 0 1 2.1.925v.023z" class="prefix__cls-7"/>
                </g>
                <g id="prefix__그룹_1215" transform="translate(10.192 33.634)">
                    <path id="prefix__패스_1745" d="M4.066.629a.379.379 0 0 1 .173.507s0 .009-.007.014a.361.361 0 0 1-.459.224.441.441 0 0 1-.054-.024 2.075 2.075 0 0 0-.79-.147c-.528 0-.971.348-1.048 1.367a1.515 1.515 0 0 1 1.124-.437 1.476 1.476 0 0 1 1.564 1.384 1.537 1.537 0 0 1 0 .225v.1a1.621 1.621 0 0 1-1.6 1.644 1.522 1.522 0 0 1-.179-.007C1.514 5.479 1 4.646 1 3.364v-.25C1 .908 1.9.395 2.983.395a2.306 2.306 0 0 1 1.083.234zM1.895 3.75v.069a.786.786 0 0 0 .7.862.752.752 0 0 0 .171 0 .8.8 0 0 0 .917-.663.774.774 0 0 0 .006-.2v-.047c0-.582-.277-.86-.887-.86a.8.8 0 0 0-.9.682.825.825 0 0 0-.006.157z" class="prefix__cls-7"/>
                </g>
                <g id="prefix__그룹_1216" transform="translate(0 50.503)">
                    <path id="prefix__패스_1746" d="M3.4.781v4.252c0 .263-.208.381-.444.381s-.444-.118-.444-.381V1.44l-.9.513a.419.419 0 0 1-.423-.722L2.363.579A1.147 1.147 0 0 1 2.931.4C3.2.4 3.4.518 3.4.781z" class="prefix__cls-7"/>
                </g>
                <g id="prefix__그룹_1217" transform="translate(3.968 50.469)">
                    <path id="prefix__패스_1747" d="M4.35 1.67v.076a2.1 2.1 0 0 1-.722 1.477L2.164 4.672h2.1c.216 0 .312.166.312.367s-.1.368-.312.368H1.621c-.437 0-.621-.152-.621-.478a.637.637 0 0 1 .229-.424l1.606-1.622c.513-.514.617-.777.617-1.131v-.035c0-.305-.236-.527-.714-.527a1.056 1.056 0 0 0-.909.471.364.364 0 0 1-.507.091L1.3 1.737a.381.381 0 0 1-.135-.522.233.233 0 0 1 .017-.026A1.781 1.781 0 0 1 2.723.4C3.857.4 4.35 1 4.35 1.67z" class="prefix__cls-7"/>
                </g>
                <g id="prefix__그룹_1218" transform="translate(8.294 54.728)">
                    <path id="prefix__패스_1748" d="M2.1.948A.548.548 0 1 1 1.547.4.537.537 0 0 1 2.1.925v.023z" class="prefix__cls-7"/>
                </g>
                <g id="prefix__그룹_1219" transform="translate(10.074 50.545)">
                    <path id="prefix__패스_1749" d="M4.024.4c.424 0 .59.146.59.478 0 .166-.014.229-.208.666l-1.624 3.6a.4.4 0 0 1-.531.2l-.029-.015a.381.381 0 0 1-.232-.486.36.36 0 0 1 .032-.069l1.665-3.626H1.315C1.1 1.148 1 .976 1 .775S1.1.4 1.315.4z" class="prefix__cls-7"/>
                </g>
                <g id="prefix__그룹_1220" transform="translate(0 67.338)">
                    <path id="prefix__패스_1750" d="M3.4.781v4.252c0 .263-.208.381-.444.381s-.444-.118-.444-.381V1.44l-.9.513a.419.419 0 0 1-.423-.722L2.363.579A1.147 1.147 0 0 1 2.931.4C3.2.4 3.4.518 3.4.781z" class="prefix__cls-7"/>
                </g>
                <g id="prefix__그룹_1221" transform="translate(4.056 67.303)">
                    <path id="prefix__패스_1751" d="M4.193 1.66v.035a1.2 1.2 0 0 1-.826 1.158A1.09 1.09 0 0 1 4.4 3.97v.069c0 .77-.625 1.443-1.817 1.443a2.5 2.5 0 0 1-1.4-.367.406.406 0 0 1-.128-.56l.01-.015a.359.359 0 0 1 .48-.166.381.381 0 0 1 .055.033 1.545 1.545 0 0 0 .915.284c.736 0 .985-.3.985-.693v-.055c0-.471-.3-.693-1.005-.693h-.363c-.223 0-.32-.173-.32-.381s.1-.382.32-.382h.29c.618 0 .9-.236.9-.714v-.021c0-.354-.243-.575-.79-.575a1.062 1.062 0 0 0-.784.326.358.358 0 0 1-.506-.009.3.3 0 0 1-.028-.033.4.4 0 0 1 .013-.534A1.7 1.7 0 0 1 2.539.4c1.14 0 1.654.6 1.654 1.26z" class="prefix__cls-7"/>
                </g>
                <g id="prefix__그룹_1222" transform="translate(8.294 71.562)">
                    <path id="prefix__패스_1752" d="M2.1.948A.548.548 0 1 1 1.547.4.537.537 0 0 1 2.1.925v.023z" class="prefix__cls-7"/>
                </g>
                <g id="prefix__그룹_1223" transform="translate(10.124 67.303)">
                    <path id="prefix__패스_1753" d="M4.35 1.67v.076a2.1 2.1 0 0 1-.722 1.477L2.164 4.672h2.1c.216 0 .312.166.312.367s-.1.368-.312.368H1.622c-.438 0-.622-.152-.622-.478a.64.64 0 0 1 .228-.424l1.607-1.622c.514-.514.617-.777.617-1.131v-.035c0-.305-.235-.527-.713-.527a1.056 1.056 0 0 0-.909.471.364.364 0 0 1-.507.091L1.3 1.737a.382.382 0 0 1-.135-.523c0-.008.01-.017.016-.025A1.783 1.783 0 0 1 2.724.4C3.857.4 4.35 1 4.35 1.67z" class="prefix__cls-7"/>
                </g>
                <g id="prefix__그룹_1224" transform="translate(0 84.172)">
                    <path id="prefix__패스_1754" d="M3.4.781v4.252c0 .263-.208.381-.444.381s-.444-.118-.444-.381V1.44l-.9.513a.419.419 0 0 1-.423-.722L2.363.579A1.147 1.147 0 0 1 2.931.4C3.2.4 3.4.518 3.4.781z" class="prefix__cls-7"/>
                </g>
                <g id="prefix__그룹_1225" transform="translate(4.056 84.137)">
                    <path id="prefix__패스_1755" d="M4.193 1.66v.035a1.2 1.2 0 0 1-.826 1.158A1.09 1.09 0 0 1 4.4 3.97v.069c0 .77-.625 1.443-1.817 1.443a2.5 2.5 0 0 1-1.4-.367.406.406 0 0 1-.128-.56l.01-.015a.359.359 0 0 1 .48-.166.381.381 0 0 1 .055.033 1.545 1.545 0 0 0 .915.284c.736 0 .985-.3.985-.693v-.055c0-.471-.3-.693-1.005-.693h-.363c-.223 0-.32-.173-.32-.381s.1-.382.32-.382h.29c.618 0 .9-.236.9-.714v-.021c0-.354-.243-.575-.79-.575a1.062 1.062 0 0 0-.784.326.358.358 0 0 1-.506-.009.3.3 0 0 1-.028-.033.4.4 0 0 1 .013-.534A1.7 1.7 0 0 1 2.539.4c1.14 0 1.654.6 1.654 1.26z" class="prefix__cls-7"/>
                </g>
                <g id="prefix__그룹_1226" transform="translate(8.294 88.397)">
                    <path id="prefix__패스_1756" d="M2.1.948A.548.548 0 1 1 1.547.4.537.537 0 0 1 2.1.925v.023z" class="prefix__cls-7"/>
                </g>
                <g id="prefix__그룹_1227" transform="translate(10.453 84.172)">
                    <path id="prefix__패스_1757" d="M3.4.781v4.252c0 .263-.208.381-.445.381s-.444-.118-.444-.381V1.44l-.894.513a.392.392 0 0 1-.539-.131c-.008-.013-.015-.028-.022-.042a.388.388 0 0 1 .117-.536l.027-.013L2.369.579A1.147 1.147 0 0 1 2.937.4C3.2.4 3.4.518 3.4.781z" class="prefix__cls-7"/>
                </g>
            </g>
            <g id="prefix__그룹_1231" transform="translate(127.743)">
                <g id="prefix__그룹_1229">
                    <path id="prefix__패스_1758" d="M1.374 1.635c-.216 0-.312-.174-.312-.375s.1-.381.312-.381h2.074c.444 0 .59.139.59.575v.757c0 1.172-.32 1.575-2.414 2.865a.412.412 0 0 1-.541-.153.388.388 0 0 1 .059-.547l.01-.008c1.886-1.152 2-1.36 2-2.185v-.388c0-.118-.042-.159-.159-.159zm5.16.811c.222 0 .319.173.319.381s-.1.388-.319.388h-.652v2.872c0 .256-.216.374-.444.374s-.445-.118-.445-.374V.774c0-.256.215-.374.445-.374s.444.118.444.374v1.672z" class="prefix__cls-7"/>
                </g>
                <g id="prefix__그룹_1230" transform="translate(6.176 .062)">
                    <path id="prefix__패스_1759" d="M1.3 3.75c-.208 0-.3-.159-.3-.367s.1-.355.3-.355h5.262c.208 0 .3.159.3.355s-.1.367-.3.367zm4.219.416c.444 0 .59.139.59.575v.507c0 .437-.147.575-.59.575h-2.81a.092.092 0 0 0-.1.083.049.049 0 0 0 0 .017v.125a.092.092 0 0 0 .083.1h3.276c.2 0 .284.166.284.34s-.089.341-.284.341H2.334c-.444 0-.588-.14-.588-.576V5.74c0-.437.145-.576.588-.576H5.15a.092.092 0 0 0 .1-.083.049.049 0 0 0 0-.017v-.118a.093.093 0 0 0-.085-.1h-3.15c-.193 0-.284-.159-.284-.34s.091-.34.284-.34zM3.933.4c1.353 0 2.172.34 2.172 1.152S5.286 2.7 3.933 2.7s-2.171-.34-2.171-1.151S2.58.4 3.933.4zm0 .693c-.922 0-1.289.173-1.289.458S3.011 2 3.933 2s1.29-.173 1.29-.458-.367-.442-1.29-.442z" class="prefix__cls-7"/>
                </g>
            </g>
            <g id="prefix__그룹_1254" transform="translate(128.073 16.274)">
                <g id="prefix__그룹_1232">
                    <path id="prefix__패스_1760" d="M3.4.781v4.252c0 .263-.208.381-.444.381s-.444-.118-.444-.381V1.441l-.9.513a.419.419 0 0 1-.423-.722L2.363.58A1.147 1.147 0 0 1 2.931.4C3.2.4 3.4.518 3.4.781z" class="prefix__cls-7"/>
                </g>
                <g id="prefix__그룹_1233" transform="translate(4.298)">
                    <path id="prefix__패스_1761" d="M3.4.781v4.252c0 .263-.208.381-.444.381s-.445-.118-.445-.381V1.441l-.894.513a.419.419 0 0 1-.417-.722L2.368.58A1.147 1.147 0 0 1 2.936.4C3.2.4 3.4.518 3.4.781z" class="prefix__cls-7"/>
                </g>
                <g id="prefix__그룹_1234" transform="translate(0 16.834)">
                    <path id="prefix__패스_1762" d="M3.4.781v4.252c0 .263-.208.381-.444.381s-.444-.118-.444-.381V1.441l-.9.513a.419.419 0 0 1-.423-.722L2.363.58A1.147 1.147 0 0 1 2.931.4C3.2.4 3.4.518 3.4.781z" class="prefix__cls-7"/>
                </g>
                <g id="prefix__그룹_1235" transform="translate(3.968 16.8)">
                    <path id="prefix__패스_1763" d="M4.35 1.67v.076a2.1 2.1 0 0 1-.722 1.477L2.164 4.672h2.1c.216 0 .312.166.312.367s-.1.368-.312.368H1.621c-.437 0-.621-.152-.621-.478a.637.637 0 0 1 .229-.424l1.606-1.622c.513-.514.617-.777.617-1.131v-.035c0-.305-.236-.527-.714-.527a1.056 1.056 0 0 0-.909.471.364.364 0 0 1-.507.091L1.3 1.737a.381.381 0 0 1-.135-.522.233.233 0 0 1 .017-.026A1.781 1.781 0 0 1 2.723.4C3.857.4 4.35 1 4.35 1.67z" class="prefix__cls-7"/>
                </g>
                <g id="prefix__그룹_1236" transform="translate(8.294 21.059)">
                    <path id="prefix__패스_1764" d="M2.1.948A.548.548 0 1 1 1.547.4.537.537 0 0 1 2.1.925v.023z" class="prefix__cls-7"/>
                </g>
                <g id="prefix__그룹_1237" transform="translate(10.124 16.8)">
                    <path id="prefix__패스_1765" d="M4.35 1.67v.076a2.1 2.1 0 0 1-.722 1.477L2.164 4.672h2.1c.216 0 .312.166.312.367s-.1.368-.312.368H1.622c-.438 0-.622-.152-.622-.478a.64.64 0 0 1 .228-.424l1.607-1.622c.514-.514.617-.777.617-1.131v-.035c0-.305-.235-.527-.713-.527a1.056 1.056 0 0 0-.909.471.364.364 0 0 1-.507.091L1.3 1.737a.382.382 0 0 1-.135-.523.213.213 0 0 1 .016-.025A1.783 1.783 0 0 1 2.724.4C3.857.4 4.35 1 4.35 1.67z" class="prefix__cls-7"/>
                </g>
                <g id="prefix__그룹_1238" transform="translate(0 33.669)">
                    <path id="prefix__패스_1766" d="M3.4.781v4.252c0 .263-.208.381-.444.381s-.444-.118-.444-.381V1.44l-.9.513a.419.419 0 0 1-.423-.722L2.363.579A1.147 1.147 0 0 1 2.931.4C3.2.4 3.4.518 3.4.781z" class="prefix__cls-7"/>
                </g>
                <g id="prefix__그룹_1239" transform="translate(4.298 33.669)">
                    <path id="prefix__패스_1767" d="M3.4.781v4.252c0 .263-.208.381-.444.381s-.445-.118-.445-.381V1.44l-.894.513a.419.419 0 0 1-.417-.722L2.368.579A1.147 1.147 0 0 1 2.936.4C3.2.4 3.4.518 3.4.781z" class="prefix__cls-7"/>
                </g>
                <g id="prefix__그룹_1240" transform="translate(8.294 37.893)">
                    <path id="prefix__패스_1768" d="M2.1.948A.548.548 0 1 1 1.547.4.537.537 0 0 1 2.1.925v.023z" class="prefix__cls-7"/>
                </g>
                <g id="prefix__그룹_1241" transform="translate(10.192 33.634)">
                    <path id="prefix__패스_1769" d="M4.066.629a.379.379 0 0 1 .173.507s0 .009-.007.014a.361.361 0 0 1-.459.224.441.441 0 0 1-.054-.024 2.075 2.075 0 0 0-.79-.147c-.528 0-.971.348-1.048 1.367a1.515 1.515 0 0 1 1.124-.437 1.476 1.476 0 0 1 1.564 1.384 1.537 1.537 0 0 1 0 .225v.1a1.621 1.621 0 0 1-1.6 1.644 1.522 1.522 0 0 1-.179-.007C1.514 5.479 1 4.646 1 3.364v-.25C1 .908 1.9.395 2.983.395a2.306 2.306 0 0 1 1.083.234zM1.895 3.75v.069a.786.786 0 0 0 .7.862.752.752 0 0 0 .171 0 .8.8 0 0 0 .917-.663.774.774 0 0 0 .006-.2v-.047c0-.582-.277-.86-.887-.86a.8.8 0 0 0-.9.682.825.825 0 0 0-.006.157z" class="prefix__cls-7"/>
                </g>
                <g id="prefix__그룹_1242" transform="translate(0 50.503)">
                    <path id="prefix__패스_1770" d="M3.4.781v4.252c0 .263-.208.381-.444.381s-.444-.118-.444-.381V1.44l-.9.513a.419.419 0 0 1-.423-.722L2.363.579A1.147 1.147 0 0 1 2.931.4C3.2.4 3.4.518 3.4.781z" class="prefix__cls-7"/>
                </g>
                <g id="prefix__그룹_1243" transform="translate(3.968 50.469)">
                    <path id="prefix__패스_1771" d="M4.35 1.67v.076a2.1 2.1 0 0 1-.722 1.477L2.164 4.672h2.1c.216 0 .312.166.312.367s-.1.368-.312.368H1.621c-.437 0-.621-.152-.621-.478a.637.637 0 0 1 .229-.424l1.606-1.622c.513-.514.617-.777.617-1.131v-.035c0-.305-.236-.527-.714-.527a1.056 1.056 0 0 0-.909.471.364.364 0 0 1-.507.091L1.3 1.737a.381.381 0 0 1-.135-.522.233.233 0 0 1 .017-.026A1.781 1.781 0 0 1 2.723.4C3.857.4 4.35 1 4.35 1.67z" class="prefix__cls-7"/>
                </g>
                <g id="prefix__그룹_1244" transform="translate(8.294 54.728)">
                    <path id="prefix__패스_1772" d="M2.1.948A.548.548 0 1 1 1.547.4.537.537 0 0 1 2.1.925v.023z" class="prefix__cls-7"/>
                </g>
                <g id="prefix__그룹_1245" transform="translate(10.074 50.545)">
                    <path id="prefix__패스_1773" d="M4.024.4c.424 0 .59.146.59.478 0 .166-.014.229-.208.666l-1.624 3.6a.4.4 0 0 1-.531.2l-.029-.015a.381.381 0 0 1-.232-.486.36.36 0 0 1 .032-.069l1.665-3.626H1.315C1.1 1.148 1 .976 1 .775S1.1.4 1.315.4z" class="prefix__cls-7"/>
                </g>
                <g id="prefix__그룹_1246" transform="translate(0 67.338)">
                    <path id="prefix__패스_1774" d="M3.4.781v4.252c0 .263-.208.381-.444.381s-.444-.118-.444-.381V1.44l-.9.513a.419.419 0 0 1-.423-.722L2.363.579A1.147 1.147 0 0 1 2.931.4C3.2.4 3.4.518 3.4.781z" class="prefix__cls-7"/>
                </g>
                <g id="prefix__그룹_1247" transform="translate(4.056 67.303)">
                    <path id="prefix__패스_1775" d="M4.193 1.66v.035a1.2 1.2 0 0 1-.826 1.158A1.09 1.09 0 0 1 4.4 3.97v.069c0 .77-.625 1.443-1.817 1.443a2.5 2.5 0 0 1-1.4-.367.406.406 0 0 1-.128-.56l.01-.015a.359.359 0 0 1 .48-.166.381.381 0 0 1 .055.033 1.545 1.545 0 0 0 .915.284c.736 0 .985-.3.985-.693v-.055c0-.471-.3-.693-1.005-.693h-.363c-.223 0-.32-.173-.32-.381s.1-.382.32-.382h.29c.618 0 .9-.236.9-.714v-.021c0-.354-.243-.575-.79-.575a1.062 1.062 0 0 0-.784.326.358.358 0 0 1-.506-.009.3.3 0 0 1-.028-.033.4.4 0 0 1 .013-.534A1.7 1.7 0 0 1 2.539.4c1.14 0 1.654.6 1.654 1.26z" class="prefix__cls-7"/>
                </g>
                <g id="prefix__그룹_1248" transform="translate(8.294 71.562)">
                    <path id="prefix__패스_1776" d="M2.1.948A.548.548 0 1 1 1.547.4.537.537 0 0 1 2.1.925v.023z" class="prefix__cls-7"/>
                </g>
                <g id="prefix__그룹_1249" transform="translate(10.124 67.303)">
                    <path id="prefix__패스_1777" d="M4.35 1.67v.076a2.1 2.1 0 0 1-.722 1.477L2.164 4.672h2.1c.216 0 .312.166.312.367s-.1.368-.312.368H1.622c-.438 0-.622-.152-.622-.478a.64.64 0 0 1 .228-.424l1.607-1.622c.514-.514.617-.777.617-1.131v-.035c0-.305-.235-.527-.713-.527a1.056 1.056 0 0 0-.909.471.364.364 0 0 1-.507.091L1.3 1.737a.382.382 0 0 1-.135-.523c0-.008.01-.017.016-.025A1.783 1.783 0 0 1 2.724.4C3.857.4 4.35 1 4.35 1.67z" class="prefix__cls-7"/>
                </g>
                <g id="prefix__그룹_1250" transform="translate(0 84.172)">
                    <path id="prefix__패스_1778" d="M3.4.781v4.252c0 .263-.208.381-.444.381s-.444-.118-.444-.381V1.44l-.9.513a.419.419 0 0 1-.423-.722L2.363.579A1.147 1.147 0 0 1 2.931.4C3.2.4 3.4.518 3.4.781z" class="prefix__cls-7"/>
                </g>
                <g id="prefix__그룹_1251" transform="translate(4.056 84.137)">
                    <path id="prefix__패스_1779" d="M4.193 1.66v.035a1.2 1.2 0 0 1-.826 1.158A1.09 1.09 0 0 1 4.4 3.97v.069c0 .77-.625 1.443-1.817 1.443a2.5 2.5 0 0 1-1.4-.367.406.406 0 0 1-.128-.56l.01-.015a.359.359 0 0 1 .48-.166.381.381 0 0 1 .055.033 1.545 1.545 0 0 0 .915.284c.736 0 .985-.3.985-.693v-.055c0-.471-.3-.693-1.005-.693h-.363c-.223 0-.32-.173-.32-.381s.1-.382.32-.382h.29c.618 0 .9-.236.9-.714v-.021c0-.354-.243-.575-.79-.575a1.062 1.062 0 0 0-.784.326.358.358 0 0 1-.506-.009.3.3 0 0 1-.028-.033.4.4 0 0 1 .013-.534A1.7 1.7 0 0 1 2.539.4c1.14 0 1.654.6 1.654 1.26z" class="prefix__cls-7"/>
                </g>
                <g id="prefix__그룹_1252" transform="translate(8.294 88.397)">
                    <path id="prefix__패스_1780" d="M2.1.948A.548.548 0 1 1 1.547.4.537.537 0 0 1 2.1.925v.023z" class="prefix__cls-7"/>
                </g>
                <g id="prefix__그룹_1253" transform="translate(10.453 84.172)">
                    <path id="prefix__패스_1781" d="M3.4.781v4.252c0 .263-.208.381-.445.381s-.444-.118-.444-.381V1.44l-.894.513a.392.392 0 0 1-.539-.131c-.008-.013-.015-.028-.022-.042a.388.388 0 0 1 .117-.536l.027-.013L2.369.579A1.147 1.147 0 0 1 2.937.4C3.2.4 3.4.518 3.4.781z" class="prefix__cls-7"/>
                </g>
            </g>
            <g id="prefix__그룹_1257" transform="translate(170.422)">
                <g id="prefix__그룹_1255">
                    <path id="prefix__패스_1782" d="M1.374 1.635c-.215 0-.313-.174-.313-.375s.1-.381.313-.381h2c.445 0 .589.139.589.575v.757c0 1.235-.25 1.575-2.344 2.865a.412.412 0 0 1-.541-.153.39.39 0 0 1 .06-.548l.009-.007c1.886-1.152 1.935-1.3 1.935-2.185v-.388c0-.118-.042-.159-.159-.159zm4.751 4.452a.442.442 0 0 1-.874 0V4.034h-.763c-.214 0-.3-.173-.3-.381s.09-.374.3-.374h.763v-.791h-.722c-.214 0-.3-.173-.3-.381s.09-.374.3-.374h.722V.775a.442.442 0 0 1 .874 0v5.312z" class="prefix__cls-7"/>
                </g>
                <g id="prefix__그룹_1256" transform="translate(6.079 .062)">
                    <path id="prefix__패스_1783" d="M3.5 4.166v-.444H1.3c-.2 0-.3-.159-.3-.36s.1-.355.3-.355h5.267c.2 0 .3.159.3.355s-.1.36-.3.36h-2.2v.444h1.157c.444 0 .59.139.59.575v.507c0 .437-.147.575-.59.575H2.709a.092.092 0 0 0-.1.083.049.049 0 0 0 0 .017v.125a.092.092 0 0 0 .083.1h3.276c.2 0 .284.166.284.34s-.089.341-.284.341H2.334c-.444 0-.588-.14-.588-.576V5.74c0-.437.145-.576.588-.576H5.15a.092.092 0 0 0 .1-.083.049.049 0 0 0 0-.017v-.118a.093.093 0 0 0-.085-.1h-3.15c-.193 0-.284-.159-.284-.34s.091-.34.284-.34zM3.933.4c1.353 0 2.172.34 2.172 1.152S5.286 2.7 3.933 2.7s-2.171-.34-2.171-1.151S2.58.4 3.933.4zm0 .693c-.922 0-1.289.173-1.289.458s.367.458 1.289.458 1.29-.173 1.29-.458-.367-.451-1.29-.451z" class="prefix__cls-7"/>
                </g>
            </g>
            <g id="prefix__그룹_1280" transform="translate(170.654 16.274)">
                <g id="prefix__그룹_1258">
                    <path id="prefix__패스_1784" d="M3.4.781v4.252c0 .263-.208.381-.444.381s-.444-.118-.444-.381V1.441l-.9.513a.419.419 0 0 1-.423-.722L2.363.58A1.147 1.147 0 0 1 2.931.4C3.2.4 3.4.518 3.4.781z" class="prefix__cls-7"/>
                </g>
                <g id="prefix__그룹_1259" transform="translate(4.298)">
                    <path id="prefix__패스_1785" d="M3.4.781v4.252c0 .263-.208.381-.444.381s-.445-.118-.445-.381V1.441l-.894.513a.419.419 0 0 1-.417-.722L2.368.58A1.147 1.147 0 0 1 2.936.4C3.2.4 3.4.518 3.4.781z" class="prefix__cls-7"/>
                </g>
                <g id="prefix__그룹_1260" transform="translate(0 16.834)">
                    <path id="prefix__패스_1786" d="M3.4.781v4.252c0 .263-.208.381-.444.381s-.444-.118-.444-.381V1.441l-.9.513a.419.419 0 0 1-.423-.722L2.363.58A1.147 1.147 0 0 1 2.931.4C3.2.4 3.4.518 3.4.781z" class="prefix__cls-7"/>
                </g>
                <g id="prefix__그룹_1261" transform="translate(3.968 16.8)">
                    <path id="prefix__패스_1787" d="M4.35 1.67v.076a2.1 2.1 0 0 1-.722 1.477L2.164 4.672h2.1c.216 0 .312.166.312.367s-.1.368-.312.368H1.621c-.437 0-.621-.152-.621-.478a.637.637 0 0 1 .229-.424l1.606-1.622c.513-.514.617-.777.617-1.131v-.035c0-.305-.236-.527-.714-.527a1.056 1.056 0 0 0-.909.471.364.364 0 0 1-.507.091L1.3 1.737a.38.38 0 0 1-.136-.52l.018-.028A1.781 1.781 0 0 1 2.723.4C3.857.4 4.35 1 4.35 1.67z" class="prefix__cls-7"/>
                </g>
                <g id="prefix__그룹_1262" transform="translate(8.294 21.059)">
                    <path id="prefix__패스_1788" d="M2.1.948A.548.548 0 1 1 1.547.4.537.537 0 0 1 2.1.925v.023z" class="prefix__cls-7"/>
                </g>
                <g id="prefix__그룹_1263" transform="translate(10.124 16.8)">
                    <path id="prefix__패스_1789" d="M4.35 1.67v.076a2.1 2.1 0 0 1-.722 1.477L2.164 4.672h2.1c.216 0 .312.166.312.367s-.1.368-.312.368H1.622c-.438 0-.622-.152-.622-.478a.64.64 0 0 1 .228-.424l1.607-1.622c.514-.514.617-.777.617-1.131v-.035c0-.305-.235-.527-.713-.527a1.056 1.056 0 0 0-.909.471.364.364 0 0 1-.507.091L1.3 1.737a.382.382 0 0 1-.135-.523.213.213 0 0 1 .016-.025A1.783 1.783 0 0 1 2.724.4C3.857.4 4.35 1 4.35 1.67z" class="prefix__cls-7"/>
                </g>
                <g id="prefix__그룹_1264" transform="translate(0 33.669)">
                    <path id="prefix__패스_1790" d="M3.4.781v4.252c0 .263-.208.381-.444.381s-.444-.118-.444-.381V1.44l-.9.513a.419.419 0 0 1-.423-.722L2.363.579A1.147 1.147 0 0 1 2.931.4C3.2.4 3.4.518 3.4.781z" class="prefix__cls-7"/>
                </g>
                <g id="prefix__그룹_1265" transform="translate(4.298 33.669)">
                    <path id="prefix__패스_1791" d="M3.4.781v4.252c0 .263-.208.381-.444.381s-.445-.118-.445-.381V1.44l-.894.513a.419.419 0 0 1-.417-.722L2.368.579A1.147 1.147 0 0 1 2.936.4C3.2.4 3.4.518 3.4.781z" class="prefix__cls-7"/>
                </g>
                <g id="prefix__그룹_1266" transform="translate(8.294 37.893)">
                    <path id="prefix__패스_1792" d="M2.1.948A.548.548 0 1 1 1.547.4.537.537 0 0 1 2.1.925v.023z" class="prefix__cls-7"/>
                </g>
                <g id="prefix__그룹_1267" transform="translate(10.192 33.634)">
                    <path id="prefix__패스_1793" d="M4.066.629a.379.379 0 0 1 .173.507s0 .009-.007.014a.361.361 0 0 1-.459.224.441.441 0 0 1-.054-.024 2.075 2.075 0 0 0-.79-.147c-.528 0-.971.348-1.048 1.367a1.515 1.515 0 0 1 1.124-.437 1.476 1.476 0 0 1 1.564 1.384 1.537 1.537 0 0 1 0 .225v.1a1.621 1.621 0 0 1-1.6 1.644 1.522 1.522 0 0 1-.179-.007C1.514 5.479 1 4.646 1 3.364v-.25C1 .908 1.9.395 2.983.395a2.306 2.306 0 0 1 1.083.234zM1.895 3.75v.069a.786.786 0 0 0 .7.862.752.752 0 0 0 .171 0 .8.8 0 0 0 .917-.663.774.774 0 0 0 .006-.2v-.047c0-.582-.277-.86-.887-.86a.8.8 0 0 0-.9.682.825.825 0 0 0-.007.157z" class="prefix__cls-7"/>
                </g>
                <g id="prefix__그룹_1268" transform="translate(0 50.503)">
                    <path id="prefix__패스_1794" d="M3.4.781v4.252c0 .263-.208.381-.444.381s-.444-.118-.444-.381V1.44l-.9.513a.419.419 0 0 1-.423-.722L2.363.579A1.147 1.147 0 0 1 2.931.4C3.2.4 3.4.518 3.4.781z" class="prefix__cls-7"/>
                </g>
                <g id="prefix__그룹_1269" transform="translate(3.968 50.469)">
                    <path id="prefix__패스_1795" d="M4.35 1.67v.076a2.1 2.1 0 0 1-.722 1.477L2.164 4.672h2.1c.216 0 .312.166.312.367s-.1.368-.312.368H1.621c-.437 0-.621-.152-.621-.478a.637.637 0 0 1 .229-.424l1.606-1.622c.513-.514.617-.777.617-1.131v-.035c0-.305-.236-.527-.714-.527a1.056 1.056 0 0 0-.909.471.364.364 0 0 1-.507.091L1.3 1.737a.381.381 0 0 1-.135-.522.233.233 0 0 1 .017-.026A1.781 1.781 0 0 1 2.723.4C3.857.4 4.35 1 4.35 1.67z" class="prefix__cls-7"/>
                </g>
                <g id="prefix__그룹_1270" transform="translate(8.294 54.728)">
                    <path id="prefix__패스_1796" d="M2.1.948A.548.548 0 1 1 1.547.4.537.537 0 0 1 2.1.925v.023z" class="prefix__cls-7"/>
                </g>
                <g id="prefix__그룹_1271" transform="translate(10.074 50.545)">
                    <path id="prefix__패스_1797" d="M4.024.4c.424 0 .59.146.59.478 0 .166-.014.229-.208.666l-1.624 3.6a.4.4 0 0 1-.531.2l-.03-.016a.381.381 0 0 1-.232-.486.36.36 0 0 1 .032-.069l1.665-3.625H1.314C1.1 1.148 1 .976 1 .775S1.1.4 1.314.4z" class="prefix__cls-7"/>
                </g>
                <g id="prefix__그룹_1272" transform="translate(0 67.338)">
                    <path id="prefix__패스_1798" d="M3.4.781v4.252c0 .263-.208.381-.444.381s-.444-.118-.444-.381V1.44l-.9.513a.419.419 0 0 1-.423-.722L2.363.579A1.147 1.147 0 0 1 2.931.4C3.2.4 3.4.518 3.4.781z" class="prefix__cls-7"/>
                </g>
                <g id="prefix__그룹_1273" transform="translate(4.056 67.303)">
                    <path id="prefix__패스_1799" d="M4.193 1.66v.035a1.2 1.2 0 0 1-.826 1.158A1.09 1.09 0 0 1 4.4 3.97v.069c0 .77-.625 1.443-1.817 1.443a2.5 2.5 0 0 1-1.4-.367.406.406 0 0 1-.128-.56l.01-.015a.359.359 0 0 1 .48-.166.381.381 0 0 1 .055.033 1.545 1.545 0 0 0 .915.284c.736 0 .985-.3.985-.693v-.055c0-.471-.3-.693-1.005-.693h-.363c-.223 0-.32-.173-.32-.381s.1-.382.32-.382h.29c.618 0 .9-.236.9-.714v-.021c0-.354-.243-.575-.79-.575a1.062 1.062 0 0 0-.784.326.358.358 0 0 1-.506-.009.3.3 0 0 1-.028-.033.4.4 0 0 1 .013-.534A1.7 1.7 0 0 1 2.539.4c1.14 0 1.654.6 1.654 1.26z" class="prefix__cls-7"/>
                </g>
                <g id="prefix__그룹_1274" transform="translate(8.294 71.562)">
                    <path id="prefix__패스_1800" d="M2.1.948A.548.548 0 1 1 1.547.4.537.537 0 0 1 2.1.925v.023z" class="prefix__cls-7"/>
                </g>
                <g id="prefix__그룹_1275" transform="translate(10.124 67.303)">
                    <path id="prefix__패스_1801" d="M4.35 1.67v.076a2.1 2.1 0 0 1-.722 1.477L2.164 4.672h2.1c.216 0 .312.166.312.367s-.1.368-.312.368H1.622c-.438 0-.622-.152-.622-.478a.64.64 0 0 1 .228-.424l1.607-1.622c.514-.514.617-.777.617-1.131v-.035c0-.305-.235-.527-.713-.527a1.056 1.056 0 0 0-.909.471.364.364 0 0 1-.507.091L1.3 1.737a.382.382 0 0 1-.135-.523.213.213 0 0 1 .016-.025A1.783 1.783 0 0 1 2.724.4C3.857.4 4.35 1 4.35 1.67z" class="prefix__cls-7"/>
                </g>
                <g id="prefix__그룹_1276" transform="translate(0 84.172)">
                    <path id="prefix__패스_1802" d="M3.4.781v4.252c0 .263-.208.381-.444.381s-.444-.118-.444-.381V1.44l-.9.513a.419.419 0 0 1-.423-.722L2.363.579A1.147 1.147 0 0 1 2.931.4C3.2.4 3.4.518 3.4.781z" class="prefix__cls-7"/>
                </g>
                <g id="prefix__그룹_1277" transform="translate(4.056 84.137)">
                    <path id="prefix__패스_1803" d="M4.193 1.66v.035a1.2 1.2 0 0 1-.826 1.158A1.09 1.09 0 0 1 4.4 3.97v.069c0 .77-.625 1.443-1.817 1.443a2.5 2.5 0 0 1-1.4-.367.406.406 0 0 1-.128-.56l.01-.015a.359.359 0 0 1 .48-.166.381.381 0 0 1 .055.033 1.545 1.545 0 0 0 .915.284c.736 0 .985-.3.985-.693v-.055c0-.471-.3-.693-1.005-.693h-.363c-.223 0-.32-.173-.32-.381s.1-.382.32-.382h.29c.618 0 .9-.236.9-.714v-.021c0-.354-.243-.575-.79-.575a1.062 1.062 0 0 0-.784.326.358.358 0 0 1-.506-.009.3.3 0 0 1-.028-.033.4.4 0 0 1 .013-.534A1.7 1.7 0 0 1 2.539.4c1.14 0 1.654.6 1.654 1.26z" class="prefix__cls-7"/>
                </g>
                <g id="prefix__그룹_1278" transform="translate(8.294 88.397)">
                    <path id="prefix__패스_1804" d="M2.1.948A.548.548 0 1 1 1.547.4.537.537 0 0 1 2.1.925v.023z" class="prefix__cls-7"/>
                </g>
                <g id="prefix__그룹_1279" transform="translate(10.453 84.172)">
                    <path id="prefix__패스_1805" d="M3.4.781v4.252c0 .263-.208.381-.445.381s-.444-.118-.444-.381V1.44l-.894.513a.392.392 0 0 1-.539-.131c-.008-.013-.015-.028-.022-.042a.388.388 0 0 1 .117-.536l.027-.013L2.369.579A1.147 1.147 0 0 1 2.937.4C3.2.4 3.4.518 3.4.781z" class="prefix__cls-7"/>
                </g>
            </g>
        </g>
        <g id="prefix__그룹_1282" transform="translate(69.808 14.849)">
            <path id="prefix__사각형_420" d="M0 0H0.99V167.354H0z" class="prefix__cls-3" transform="translate(0 .4)"/>
        </g>
        <g id="prefix__그룹_1290" transform="translate(19.029 32.694)">
            <g id="prefix__그룹_1283" transform="translate(0 .059)">
                <path id="prefix__패스_1806" d="M.615 2.958c0 .084.029.114.114.114a8.473 8.473 0 0 0 1.08-.064c.148-.02.238.084.253.228s-.035.277-.178.3a10.835 10.835 0 0 1-1.463.069C.1 3.605 0 3.505 0 3.194V1.149C0 .836.1.737.421.737h1.258c.154 0 .224.125.224.268s-.069.267-.224.267h-.95c-.085 0-.114.03-.114.114v.521h.818c.148 0 .218.124.218.262a.228.228 0 0 1-.2.255H.615zm1.421-.546c-.143 0-.207-.119-.207-.272s.064-.272.207-.272h.308V.7a.294.294 0 0 1 .58 0v3.577a.294.294 0 0 1-.58 0V2.412zM3.246.648a.3.3 0 0 1 .585 0v3.835a.3.3 0 0 1-.585 0V.648z" class="prefix__cls-2"/>
            </g>
            <g id="prefix__그룹_1284" transform="translate(4.545 .059)">
                <path id="prefix__패스_1807" d="M1.2.653c.792 0 1.193.531 1.193 1.507S1.988 3.666 1.2 3.666 0 3.136 0 2.16.4.653 1.2.653zm0 .551c-.432 0-.586.333-.586.957s.154.957.586.957.583-.333.583-.957S1.625 1.2 1.2 1.2zm2.447 3.261c0 .183-.153.268-.322.268s-.317-.085-.317-.268v-3.8c0-.184.153-.268.317-.268s.322.084.322.268v3.8z" class="prefix__cls-2"/>
            </g>
            <g id="prefix__그룹_1285" transform="translate(8.902 .094)">
                <path id="prefix__패스_1808" d="M.219 2.864C.069 2.864 0 2.749 0 2.6s.069-.253.219-.253h3.756c.149 0 .218.114.218.253s-.069.263-.218.263zm3.013.277c.317 0 .42.1.42.411v.343c0 .312-.1.411-.42.411H1.215a.066.066 0 0 0-.075.056.054.054 0 0 0 0 .018v.074a.066.066 0 0 0 .057.074h2.352a.213.213 0 0 1 .2.224v.014c0 .13-.064.244-.2.244h-2.6c-.317 0-.422-.1-.422-.412v-.342c0-.312.1-.411.422-.411h2.02a.066.066 0 0 0 .074-.057.049.049 0 0 0 0-.017V3.7a.066.066 0 0 0-.057-.074H.723c-.138 0-.2-.114-.2-.243a.213.213 0 0 1 .186-.237h2.523zm.416-1.473c0 .313-.1.412-.422.412H.967c-.318 0-.422-.1-.422-.412V.657a.312.312 0 0 1 .614 0v.179h1.873V.657a.313.313 0 0 1 .616 0zm-.689-.084a.066.066 0 0 0 .073-.058.049.049 0 0 0 0-.017v-.183H1.16v.183a.066.066 0 0 0 .056.075.054.054 0 0 0 .018 0z" class="prefix__cls-2"/>
            </g>
            <g id="prefix__그룹_1286" transform="translate(14.646)">
                <path id="prefix__패스_1809" d="M.223 3.617C.07 3.617 0 3.492 0 3.349s.069-.267.223-.267H3.97c.153 0 .223.124.223.267s-.069.268-.223.268H2.413v1.254c0 .183-.153.267-.317.267s-.317-.084-.317-.267V3.617zm.456-2.191c-.153 0-.223-.124-.223-.267S.525.892.679.892h1.1V.673C1.779.49 1.931.4 2.1.4a.285.285 0 0 1 .32.245.245.245 0 0 1 0 .027v.22h1.1c.154 0 .223.124.223.267s-.068.267-.223.267h-1.1v.045a.528.528 0 0 0 .376.46c.338.145.605.249.892.353a.255.255 0 0 1 .126.339l-.006.013a.269.269 0 0 1-.346.16h-.007c-.248-.088-.5-.188-.754-.292-.441-.178-.559-.322-.594-.431-.04.129-.158.267-.6.446-.252.1-.5.2-.753.293a.29.29 0 0 1-.234-.526c.287-.1.556-.208.893-.353a.531.531 0 0 0 .376-.46v-.047z" class="prefix__cls-2"/>
            </g>
            <g id="prefix__그룹_1287" transform="translate(19.246 .059)">
                <path id="prefix__패스_1810" d="M.267 1.282c-.153 0-.223-.124-.223-.267S.113.743.267.743h1.477c.317 0 .422.1.422.411V1.7c0 .837-.229 1.124-1.726 2.047a.294.294 0 0 1-.385-.11.278.278 0 0 1 .039-.391L.1 3.232c1.348-.823 1.432-.971 1.432-1.562v-.277c0-.084-.03-.114-.113-.114zm3.687.58c.159 0 .229.124.229.272s-.069.277-.229.277H3.49v2.052a.281.281 0 0 1-.293.27h-.025c-.164 0-.317-.085-.317-.268V.663c0-.184.152-.268.317-.268s.318.084.318.268v1.194z" class="prefix__cls-2"/>
            </g>
            <g id="prefix__그룹_1288" transform="translate(23.633 .05)">
                <path id="prefix__패스_1811" d="M1.06 1.01V.667c0-.183.154-.267.318-.267S1.7.484 1.7.667v.343h.778c.153 0 .224.124.224.267s-.07.268-.224.268H.223C.069 1.545 0 1.42 0 1.277s.068-.267.223-.267zm1.418 1.779a1.106 1.106 0 1 1-1.207-1h.107a.983.983 0 0 1 1.093.859.952.952 0 0 1 .007.141zm-.574 0a.527.527 0 1 0-.562.49h.036a.477.477 0 0 0 .522-.423v-.067zm1.7-.867h.465c.158 0 .229.125.229.273s-.07.277-.229.277H3.6v2a.278.278 0 0 1-.286.27h-.026c-.164 0-.317-.085-.317-.268V.672c0-.184.153-.268.317-.268A.278.278 0 0 1 3.6.646a.228.228 0 0 1 0 .026z" class="prefix__cls-2"/>
            </g>
            <g id="prefix__그룹_1289" transform="translate(28.356 .059)">
                <path id="prefix__패스_1812" d="M.267 1.277c-.153 0-.224-.124-.224-.267S.113.737.267.737h1.492c.317 0 .422.1.422.412V1.7c0 .837-.229 1.124-1.735 2.046a.294.294 0 0 1-.387-.108.279.279 0 0 1 .041-.392l.01-.008c1.359-.823 1.442-.971 1.442-1.561v-.288c0-.084-.029-.114-.114-.114zM3.6 4.464c0 .183-.153.268-.322.268s-.317-.085-.317-.268v-3.8C2.963.48 3.116.4 3.28.4s.32.08.32.264z" class="prefix__cls-2"/>
            </g>
        </g>
        <g id="prefix__그룹_1291" transform="translate(79.711 26.237)">
            <path id="prefix__사각형_421" d="M4.495.895h16.281a3 3 0 0 1 3 3v9.844a3 3 0 0 1-3 3H4.495a3 3 0 0 1-3-3V3.895a3 3 0 0 1 3-3z" class="prefix__cls-2"/>
            <path id="prefix__패스_1813" d="M20.805 17.234H4.466A3.47 3.47 0 0 1 1 13.769v-9.9A3.471 3.471 0 0 1 4.466.4h16.339a3.47 3.47 0 0 1 3.466 3.466v9.9a3.47 3.47 0 0 1-3.466 3.468zM4.466 1.39A2.478 2.478 0 0 0 1.99 3.866v9.9a2.478 2.478 0 0 0 2.476 2.476h16.339a2.478 2.478 0 0 0 2.476-2.476v-9.9a2.478 2.478 0 0 0-2.476-2.476z" class="prefix__cls-1"/>
        </g>
        <g id="prefix__그룹_1292" transform="translate(132.195 26.237)">
            <path id="prefix__사각형_422" d="M4.495.895h16.281a3 3 0 0 1 3 3v9.844a3 3 0 0 1-3 3H4.495a3 3 0 0 1-3-3V3.895a3 3 0 0 1 3-3z" class="prefix__cls-2"/>
            <path id="prefix__패스_1814" d="M20.805 17.234H4.466A3.47 3.47 0 0 1 1 13.768v-9.9A3.47 3.47 0 0 1 4.466.4h16.339a3.47 3.47 0 0 1 3.466 3.466v9.9a3.47 3.47 0 0 1-3.466 3.468zM4.466 1.39A2.478 2.478 0 0 0 1.99 3.866v9.9a2.478 2.478 0 0 0 2.476 2.476h16.339a2.478 2.478 0 0 0 2.476-2.476v-9.9a2.478 2.478 0 0 0-2.476-2.476z" class="prefix__cls-1"/>
        </g>
        <g id="prefix__그룹_1295" transform="translate(86.999 32.754)">
            <g id="prefix__그룹_1293" transform="translate(0 .173)">
                <path id="prefix__패스_1815" d="M1.224 4.152C1.07 4.152 1 4.028 1 3.885s.069-.262.224-.262h.816v-.461c0-.183.15-.267.318-.267s.317.084.317.267v.461h.853v-.461c0-.183.15-.267.318-.267s.317.084.317.267v.461h.812c.153 0 .223.124.223.262s-.069.267-.223.267zM3.1.4c.971 0 1.566.437 1.566 1.21S4.07 2.819 3.1 2.819 1.531 2.382 1.531 1.61 2.125.4 3.1.4zm0 .536c-.659 0-.932.292-.932.674s.273.673.932.673.931-.292.931-.673S3.756.936 3.1.936z" class="prefix__cls-8"/>
            </g>
            <g id="prefix__그룹_1294" transform="translate(4.556)">
                <path id="prefix__패스_1816" d="M2.183.584A1.131 1.131 0 1 1 1 1.713 1.07 1.07 0 0 1 2 .58a1.083 1.083 0 0 1 .183.004zM3.9 3.944c0-.084-.032-.115-.115-.115H1.739c-.153 0-.223-.124-.223-.267s.069-.267.223-.267h2.37c.317 0 .421.1.421.411v1.086c0 .183-.154.267-.317.267S3.9 4.975 3.9 4.792zM2.183 1.109a.605.605 0 1 0 .579.629.28.28 0 0 0 0-.029.533.533 0 0 0-.462-.6.509.509 0 0 0-.117 0zm2.35-.094h.426c.153 0 .223.124.223.272s-.069.267-.223.267h-.426v.3h.426c.153 0 .223.124.223.272s-.069.267-.223.267h-.426v.447c0 .183-.154.267-.317.267S3.9 3.023 3.9 2.84V.668C3.9.484 4.051.4 4.216.4s.317.084.317.268z" class="prefix__cls-8"/>
            </g>
        </g>
        <g id="prefix__그룹_1298" transform="translate(139.513 32.744)">
            <g id="prefix__그룹_1296">
                <path id="prefix__패스_1817" d="M2.666 1.56v.24a1 1 0 0 0 .353.864c.2.2.376.361.535.5a.27.27 0 0 1-.014.38l-.007.006a.275.275 0 0 1-.38.035c-.13-.114-.283-.262-.46-.441-.258-.257-.318-.342-.338-.437-.025.115-.074.2-.337.457-.18.173-.348.337-.542.5a.294.294 0 0 1-.4-.064.27.27 0 0 1 .01-.382c.213-.178.392-.347.59-.545a1.008 1.008 0 0 0 .358-.873v-.235h-.768c-.154 0-.224-.124-.224-.267s.069-.272.224-.272h.768V.673c0-.183.152-.267.317-.267s.317.084.317.267v.353H3.4c.153 0 .223.124.223.272s-.069.267-.223.267zm2.354.313c.158 0 .229.124.229.272s-.07.277-.229.277h-.465v2.052c0 .183-.153.268-.318.268a.281.281 0 0 1-.315-.242.228.228 0 0 1 0-.026v-3.8c0-.184.154-.268.317-.268s.318.084.318.268v1.194z" class="prefix__cls-8"/>
            </g>
            <g id="prefix__그룹_1297" transform="translate(4.476 .287)">
                <path id="prefix__패스_1818" d="M1.223 4.048C1.07 4.048 1 3.924 1 3.781s.069-.272.223-.272H4.97c.154 0 .224.124.224.272s-.07.267-.224.267zm.932-2.662H4.37a.261.261 0 0 1 0 .516H2.155v.337c0 .085.03.114.114.114H4.49c.154 0 .224.124.224.267s-.069.268-.224.268H1.953c-.317 0-.421-.1-.421-.412V.806c0-.313.1-.412.421-.412h2.463c.154 0 .224.124.224.268s-.069.267-.224.267H2.265c-.084 0-.114.03-.114.114z" class="prefix__cls-8"/>
            </g>
        </g>
        <g id="prefix__그룹_1299" transform="translate(105.953 26.732)">
            <path id="prefix__사각형_423" d="M4 .4h16.281a3 3 0 0 1 3 3v9.844a3 3 0 0 1-3 3H4a3 3 0 0 1-3-3V3.4a3 3 0 0 1 3-3z" class="prefix__cls-3"/>
        </g>
        <g id="prefix__그룹_1303" transform="translate(110.602 32.754)">
            <g id="prefix__그룹_1300">
                <path id="prefix__패스_1819" d="M1.615 2.958c0 .084.03.114.115.114a8.457 8.457 0 0 0 1.079-.064.222.222 0 0 1 .251.192.255.255 0 0 1 0 .039c.016.149-.035.277-.177.3a10.835 10.835 0 0 1-1.463.069c-.317 0-.422-.1-.422-.411V1.149c0-.313.1-.412.422-.412h1.256c.154 0 .223.125.223.268s-.068.267-.223.267H1.73c-.085 0-.115.03-.115.114v.521h.819c.148 0 .217.124.217.262s-.069.257-.217.257h-.819zm1.422-.546c-.144 0-.207-.119-.207-.272s.063-.272.207-.272h.308V.7a.293.293 0 0 1 .579 0v3.577a.293.293 0 0 1-.579 0V2.412zM4.247.648a.3.3 0 0 1 .584 0v3.835a.3.3 0 0 1-.584 0z" class="prefix__cls-2"/>
            </g>
            <g id="prefix__그룹_1301" transform="translate(4.545)">
                <path id="prefix__패스_1820" d="M2.195.653c.793 0 1.193.531 1.193 1.507s-.4 1.506-1.188 1.506S1 3.136 1 2.16 1.4.653 2.195.653zm0 .551c-.431 0-.586.333-.586.957s.155.957.586.957.584-.333.584-.957-.152-.961-.584-.961zm2.453 3.261c0 .183-.153.268-.322.268s-.318-.085-.318-.268v-3.8c0-.184.154-.268.318-.268s.322.084.322.268z" class="prefix__cls-2"/>
            </g>
            <g id="prefix__그룹_1302" transform="translate(8.903 .035)">
                <path id="prefix__패스_1821" d="M1.214 2.864C1.065 2.864 1 2.749 1 2.6s.069-.253.218-.253H4.97c.15 0 .219.114.219.253s-.069.263-.219.263zm3.013.277c.318 0 .421.1.421.411v.343c0 .312-.1.411-.421.411H2.214a.066.066 0 0 0-.075.056.054.054 0 0 0 0 .018v.074a.066.066 0 0 0 .057.074h2.353a.213.213 0 0 1 .2.224v.014c0 .13-.065.244-.2.244h-2.6c-.317 0-.421-.1-.421-.412v-.342c0-.312.1-.411.421-.411h2.018a.066.066 0 0 0 .073-.058.043.043 0 0 0 0-.016V3.7a.066.066 0 0 0-.057-.074H1.721c-.14 0-.2-.114-.2-.243a.213.213 0 0 1 .184-.237h2.522zm.416-1.473c0 .313-.1.412-.422.412H1.962c-.317 0-.422-.1-.422-.412V.657a.312.312 0 0 1 .615 0v.179h1.873V.657a.312.312 0 0 1 .615 0zm-.688-.083a.066.066 0 0 0 .073-.058.049.049 0 0 0 0-.017v-.183H2.155v.183a.066.066 0 0 0 .056.075.054.054 0 0 0 .018 0z" class="prefix__cls-2"/>
            </g>
        </g>
        <g id="prefix__그룹_1131" class="prefix__cls-9" transform="translate(171.805 26.237)">
            <path id="prefix__사각형_408" d="M4 .895h114.812a3 3 0 0 1 3 3v9.844a3 3 0 0 1-3 3H4a3 3 0 0 1-3-3V3.895a3 3 0 0 1 3-3z" class="prefix__cls-2"/>
            <path id="prefix__패스_1679" d="M118.841 17.234H3.971A3.47 3.47 0 0 1 .5 13.768v-9.9A3.47 3.47 0 0 1 3.971.4h114.87a3.47 3.47 0 0 1 3.466 3.466v9.9a3.47 3.47 0 0 1-3.466 3.468zM3.971 1.39A2.478 2.478 0 0 0 1.5 3.866v9.9a2.478 2.478 0 0 0 2.476 2.476h114.87a2.478 2.478 0 0 0 2.476-2.476v-9.9a2.478 2.478 0 0 0-2.476-2.476z" class="prefix__cls-2"/>
        </g>
        <g id="prefix__그룹_1132" class="prefix__cls-9" transform="translate(171.805 26.237)">
            <path id="prefix__패스_1680" d="M118.841 17.234H3.971A3.47 3.47 0 0 1 .5 13.768v-9.9A3.47 3.47 0 0 1 3.971.4h114.87a3.47 3.47 0 0 1 3.466 3.466v9.9a3.47 3.47 0 0 1-3.466 3.468zM3.971 1.39A2.478 2.478 0 0 0 1.5 3.866v9.9a2.478 2.478 0 0 0 2.476 2.476h114.87a2.478 2.478 0 0 0 2.476-2.476v-9.9a2.478 2.478 0 0 0-2.476-2.476z" class="prefix__cls-3"/>
        </g>
        <g id="prefix__그룹_1144" transform="translate(282.219 31.683)">
            <circle id="prefix__타원_34131" cx="2.971" cy="2.971" r="2.971" class="prefix__cls-3" transform="translate(.505 .4)"/>
        </g>
        <g id="prefix__그룹_1324" transform="translate(177.702 32.66)">
            <g id="prefix__그룹_1304" transform="translate(0 .094)">
                <path id="prefix__패스_1822" d="M.773 1.312c-.154 0-.224-.124-.224-.267S.618.773.773.773h1.15c.317 0 .422.1.422.411v.168H2.9V.7a.261.261 0 0 1 .272-.25h.021a.258.258 0 0 1 .285.227.149.149 0 0 1 0 .021v3.578a.259.259 0 0 1-.266.25h-.021a.261.261 0 0 1-.285-.226.149.149 0 0 1 0-.021V3h-.363c-.139 0-.2-.119-.2-.268s.064-.272.2-.272H2.9v-.577h-.555c-.016.777-.174.962-1.379 1.817a.293.293 0 0 1-.391-.085.282.282 0 0 1 .028-.4c1.106-.773 1.141-.843 1.141-1.527v-.26c0-.084-.031-.114-.114-.114zM3.816.649a.3.3 0 0 1 .584 0v3.835a.3.3 0 0 1-.584 0z" class="prefix__cls-8"/>
            </g>
            <g id="prefix__그룹_1305" transform="translate(4.536 .094)">
                <path id="prefix__패스_1823" d="M2.175 1.139v.153a.608.608 0 0 0 .277.555c.223.164.412.293.56.387a.271.271 0 0 1 .079.374l-.009.012a.278.278 0 0 1-.382.08c-.119-.074-.293-.193-.471-.322-.248-.178-.331-.272-.355-.361h-.011c-.025.109-.124.218-.371.4-.193.139-.357.254-.561.381a.291.291 0 0 1-.307-.49c.214-.139.411-.272.64-.441a.61.61 0 0 0 .277-.556v-.172H.813c-.155 0-.224-.124-.224-.267S.657.6.813.6h2.041c.154 0 .224.125.224.268s-.069.267-.224.267zm1.348 2.606c.084 0 .114-.029.114-.114v-.069c0-.084-.03-.114-.114-.114H1.461c-.145 0-.208-.119-.208-.253s.063-.248.208-.248h2.374c.318 0 .422.1.422.411v.461c0 .313-.1.412-.422.412H2c-.083 0-.114.03-.114.114v.069c0 .084.031.114.114.114h2.147c.145 0 .209.119.209.253s-.064.249-.209.249H1.685c-.318 0-.422-.1-.422-.412v-.456c0-.312.1-.412.422-.412zm.1-1.834h-.579c-.154 0-.224-.124-.224-.267s.069-.272.224-.272h.579v-.7c0-.184.154-.272.317-.272a.279.279 0 0 1 .311.243.211.211 0 0 1 0 .025V2.5a.319.319 0 0 1-.63 0z" class="prefix__cls-8"/>
            </g>
            <g id="prefix__그룹_1306" transform="translate(9.18 .094)">
                <path id="prefix__패스_1824" d="M2.646 2.224c0 .312-.1.411-.421.411h-1.3c-.317 0-.42-.1-.42-.411V.812a.275.275 0 0 1 .288-.26h.018c.158 0 .314.084.314.258v.4h.9v-.4a.275.275 0 0 1 .29-.26h.017c.158 0 .313.084.313.258zm.748 1.537c.079 0 .11-.031.11-.11v-.064c0-.079-.031-.109-.11-.109H1.322c-.144 0-.207-.119-.207-.253s.063-.248.207-.248H3.7c.318 0 .421.1.421.411v.441c0 .313-.1.412-.421.412H1.848c-.079 0-.109.03-.109.109v.069c0 .079.03.109.109.109h2.161c.144 0 .209.119.209.253s-.065.249-.209.249H1.545c-.317 0-.42-.1-.42-.412v-.441c0-.312.1-.411.42-.411zM1.912 2.13c.085 0 .115-.03.115-.114v-.3h-.9v.3c0 .084.029.114.114.114zm1.136-.63c-.149 0-.209-.119-.209-.262S2.9.981 3.048.981H3.5V.669a.315.315 0 0 1 .624 0v1.859a.316.316 0 0 1-.624 0v-.234h-.452c-.149 0-.209-.119-.209-.262s.06-.263.209-.263H3.5v-.262z" class="prefix__cls-8"/>
            </g>
            <g id="prefix__그룹_1307" transform="translate(14.904 .094)">
                <path id="prefix__패스_1825" d="M.772 1.277C.62 1.277.55 1.153.55 1.01S.619.737.772.737h1.491c.318 0 .422.1.422.412V1.7c0 .837-.228 1.124-1.735 2.046a.294.294 0 0 1-.386-.108.281.281 0 0 1 .042-.394l.008-.006c1.358-.823 1.443-.971 1.443-1.561v-.288c0-.084-.031-.114-.114-.114zm3.337 3.187c0 .183-.155.268-.324.268s-.317-.085-.317-.268v-3.8c0-.184.153-.264.317-.264s.324.084.324.268z" class="prefix__cls-8"/>
            </g>
            <g id="prefix__그룹_1308" transform="translate(19.215 .208)">
                <path id="prefix__패스_1826" d="M.729 3.181C.575 3.181.5 3.057.5 2.914s.07-.262.224-.262h1.567v-.408c-.778-.059-1.24-.356-1.24-.917C1.051.7 1.636.4 2.6.4s1.551.3 1.551.927c0 .56-.46.858-1.238.917v.407h1.564c.152 0 .223.124.223.262s-.07.267-.223.267zm3.291 1.15c.153 0 .223.124.223.268s-.069.267-.223.267H1.463c-.317 0-.422-.1-.422-.412v-.767c0-.184.154-.268.323-.268s.317.084.317.268v.53c0 .084.03.114.114.114zM2.6.922c-.66 0-.922.158-.922.406s.262.406.922.406.922-.158.922-.406S3.262.921 2.6.921z" class="prefix__cls-8"/>
            </g>
            <g id="prefix__그룹_1309" transform="translate(25.172 .094)">
                <path id="prefix__패스_1827" d="M2.646 2.581c0 .313-.1.412-.422.412h-1.3c-.318 0-.422-.1-.422-.412V.9a.314.314 0 0 1 .619 0v.52h.9V.9a.314.314 0 0 1 .619 0zm-1.11 2.38c-.317 0-.422-.1-.422-.411v-.908c0-.183.154-.267.323-.267s.318.084.318.267v.664c0 .084.029.114.114.114H4c.153 0 .223.124.223.273S4.158 4.96 4 4.96zm.377-2.489c.083 0 .114-.03.114-.114v-.416h-.9v.416c0 .084.031.114.114.114h.672zm2.2 1.041a.315.315 0 0 1-.624 0v-.9h-.436c-.154 0-.219-.124-.219-.272s.064-.267.219-.267h.436v-.455h-.436c-.154 0-.219-.124-.219-.273s.064-.267.219-.267h.436V.668a.315.315 0 0 1 .624 0z" class="prefix__cls-8"/>
            </g>
            <g id="prefix__그룹_1310" transform="translate(29.45 .094)">
                <path id="prefix__패스_1828" d="M.728 4.068C.576 4.068.5 3.944.5 3.8s.07-.263.223-.263h.917v-.39C1.155 3.068.868 2.8.868 2.393c0-.485.415-.778 1.09-.778s1.089.293 1.089.778c0 .407-.292.674-.777.754v.372c.291-.01.584-.03.871-.054.154-.015.223.1.239.239a.229.229 0 0 1-.168.277l-.026.005c-.639.052-1.545.082-2.458.082zM1.641.9V.682c0-.183.153-.267.317-.267s.317.084.317.267V.9h.778c.152 0 .222.124.222.267s-.069.262-.222.262H.81c-.154 0-.225-.124-.225-.262S.655.9.81.9zm.838 1.491c0-.178-.169-.3-.521-.3s-.521.124-.521.3.169.3.521.3.521-.12.521-.3zm1.709-.376h.4c.159 0 .229.124.229.272s-.069.277-.229.277h-.4v1.905c0 .178-.149.263-.313.263s-.312-.085-.312-.263V.663c0-.179.15-.263.312-.263s.313.084.313.263z" class="prefix__cls-8"/>
            </g>
            <g id="prefix__그룹_1311" transform="translate(35.248 .084)">
                <path id="prefix__패스_1829" d="M.728 1.446C.574 1.446.5 1.322.5 1.179S.573.912.728.912h.8V.668c0-.183.152-.268.317-.268s.318.084.318.267v.245h.753c.154 0 .224.124.224.267s-.069.267-.224.267zM2.914 2.5c0 .521-.406.843-1.066.843S.782 3.018.782 2.5s.406-.843 1.066-.843 1.065.322 1.065.842zm-1.2 2.474c-.318 0-.422-.1-.422-.411v-.752c0-.184.154-.268.323-.268s.317.084.317.268v.505c0 .084.03.114.115.114h2.135c.154 0 .224.124.224.273s-.069.267-.224.267zM2.348 2.5c0-.2-.158-.356-.5-.356s-.5.153-.5.356.158.357.5.357.495-.154.495-.358zM4.3 3.577a.273.273 0 0 1-.282.264h-.025c-.163 0-.312-.084-.312-.262v-.6H3.3c-.149 0-.209-.119-.209-.263s.06-.262.209-.262h.381V2.12h-.41c-.149 0-.209-.119-.209-.263s.06-.262.209-.262h.406V.674c0-.179.149-.263.312-.263a.273.273 0 0 1 .3.237.228.228 0 0 1 0 .026v2.9z" class="prefix__cls-8"/>
            </g>
            <g id="prefix__그룹_1312" transform="translate(39.699)">
                <path id="prefix__패스_1830" d="M.718 3.587C.574 3.587.5 3.473.5 3.334a.216.216 0 0 1 .187-.241h.983V2.8c-.481-.064-.764-.282-.764-.639 0-.427.407-.655 1.071-.655s1.069.228 1.069.655c0 .356-.282.574-.762.639v.278c.286-.01.579-.03.863-.054a.206.206 0 0 1 .231.178.267.267 0 0 1 0 .04c.01.129-.045.257-.187.267-.645.048-1.551.078-2.473.078zm.114-2.245c-.14 0-.2-.109-.2-.243S.7.85.832.85h.828V.657C1.66.484 1.8.4 1.977.4S2.3.484 2.3.657V.85h.777c.139 0 .2.115.2.249s-.064.243-.2.243zm1.853 2.369c.948 0 1.512.2 1.512.744s-.564.745-1.512.745-1.51-.2-1.51-.744.564-.741 1.51-.741zm-.207-1.556c0-.134-.158-.208-.5-.208s-.5.074-.5.208.159.208.5.208.5-.075.5-.208zm.207 2.032c-.644 0-.891.089-.891.267s.248.268.891.268.892-.09.892-.268-.248-.267-.892-.267zm1.5-2.374h.4c.158 0 .228.124.228.272s-.069.277-.228.277h-.4v1.052c0 .178-.15.262-.314.262s-.311-.084-.311-.262V.757c0-.179.149-.263.311-.263s.314.084.314.263z" class="prefix__cls-8"/>
            </g>
            <g id="prefix__그룹_1313" transform="translate(44.06 4.133)">
                <path id="prefix__패스_1831" d="M2.9.4c.119 0 .179.1.179.223S3.023.837 2.9.837H.684C.565.837.5.737.5.623S.565.4.684.4z" class="prefix__cls-8"/>
            </g>
            <g id="prefix__그룹_1314" transform="translate(46.889 .376)">
                <path id="prefix__패스_1832" d="M2.9 1.307v.054a1.5 1.5 0 0 1-.517 1.056L1.337 3.453h1.5c.152 0 .223.119.223.263s-.07.262-.223.262H.95c-.314 0-.45-.109-.45-.342a.454.454 0 0 1 .162-.3l1.151-1.16c.367-.366.441-.555.441-.808v-.025c0-.218-.168-.376-.51-.376A.757.757 0 0 0 1.1 1.3a.259.259 0 0 1-.36.066l-.019-.007a.275.275 0 0 1-.1-.376.091.091 0 0 1 .015-.016A1.279 1.279 0 0 1 1.736.4C2.547.4 2.9.827 2.9 1.307z" class="prefix__cls-8"/>
            </g>
            <g id="prefix__그룹_1315" transform="translate(49.923 .376)">
                <path id="prefix__패스_1833" d="M3.141 2.11v.214c0 1.089-.4 1.709-1.317 1.709S.5 3.413.5 2.324V2.11C.5 1.02.9.4 1.824.4s1.317.62 1.317 1.71zm-2 .045v.124c0 .818.162 1.156.678 1.156S2.5 3.1 2.5 2.279v-.124C2.5 1.338 2.334 1 1.819 1s-.673.334-.673 1.155z" class="prefix__cls-8"/>
            </g>
            <g id="prefix__그룹_1316" transform="translate(53.263 .402)">
                <path id="prefix__패스_1834" d="M2.223.672v3.036c0 .188-.15.272-.318.272s-.317-.084-.317-.272V1.143l-.641.367a.279.279 0 0 1-.384-.1.269.269 0 0 1-.016-.029A.278.278 0 0 1 .631 1L.647.994l.837-.466A.841.841 0 0 1 1.891.4c.189 0 .332.084.332.272z" class="prefix__cls-8"/>
            </g>
            <g id="prefix__그룹_1317" transform="translate(56.333 .402)">
                <path id="prefix__패스_1835" d="M2.222.672v3.036c0 .188-.149.272-.317.272s-.317-.084-.317-.272V1.143l-.641.367a.279.279 0 0 1-.384-.1.269.269 0 0 1-.016-.029A.278.278 0 0 1 .631 1L.647.994l.838-.466A.837.837 0 0 1 1.891.4c.189 0 .331.084.331.272z" class="prefix__cls-8"/>
            </g>
            <g id="prefix__그룹_1318" transform="translate(59.104 1.943)">
                <path id="prefix__패스_1836" d="M2.035.4c.145 0 .214.119.214.262s-.069.263-.214.263H.717C.572.925.5.805.5.662S.572.4.717.4z" class="prefix__cls-8"/>
            </g>
            <g id="prefix__그룹_1319" transform="translate(61.286 .376)">
                <path id="prefix__패스_1837" d="M2.9 1.307v.054a1.5 1.5 0 0 1-.515 1.056L1.338 3.453h1.5c.154 0 .225.119.225.263s-.07.262-.225.262H.951C.639 3.978.5 3.869.5 3.636a.45.45 0 0 1 .164-.3l1.149-1.16c.367-.366.443-.555.443-.808v-.025c0-.218-.17-.376-.51-.376A.754.754 0 0 0 1.1 1.3a.26.26 0 0 1-.363.065l-.014-.01A.273.273 0 0 1 .629.983l.01-.016A1.27 1.27 0 0 1 1.739.4C2.547.4 2.9.827 2.9 1.307z" class="prefix__cls-8"/>
            </g>
            <g id="prefix__그룹_1320" transform="translate(64.32 .376)">
                <path id="prefix__패스_1838" d="M3.143 2.11v.214c0 1.089-.4 1.709-1.319 1.709S.5 3.413.5 2.324V2.11C.5 1.02.9.4 1.824.4s1.319.62 1.319 1.71zm-2 .045v.124c0 .818.164 1.156.678 1.156S2.5 3.1 2.5 2.279v-.124C2.5 1.338 2.338 1 1.821 1s-.675.334-.675 1.155z" class="prefix__cls-8"/>
            </g>
            <g id="prefix__그룹_1321" transform="translate(67.662 .402)">
                <path id="prefix__패스_1839" d="M2.222.672v3.036c0 .188-.15.272-.318.272s-.317-.084-.317-.272V1.143l-.641.367a.281.281 0 0 1-.386-.1c0-.009-.01-.017-.014-.026A.278.278 0 0 1 .632 1L.646.994l.837-.466A.83.83 0 0 1 1.89.4c.188 0 .332.084.332.272z" class="prefix__cls-8"/>
            </g>
            <g id="prefix__그룹_1322" transform="translate(70.546 .376)">
                <path id="prefix__패스_1840" d="M2.694.564a.27.27 0 0 1 .125.361s0 .007-.005.01a.259.259 0 0 1-.329.16.254.254 0 0 1-.038-.016 1.47 1.47 0 0 0-.564-.1c-.377 0-.694.248-.749.976a1.081 1.081 0 0 1 .8-.312 1.055 1.055 0 0 1 1.118.99.95.95 0 0 1 0 .16v.074A1.159 1.159 0 0 1 1.9 4.039c-.04 0-.081 0-.121-.005C.87 4.034.5 3.44.5 2.523v-.179C.5.768 1.144.4 1.921.4a1.653 1.653 0 0 1 .773.164zm-1.551 2.23v.05a.562.562 0 0 0 .625.615.576.576 0 0 0 .656-.481.54.54 0 0 0 0-.139v-.03c0-.417-.2-.615-.635-.615a.574.574 0 0 0-.645.493.639.639 0 0 0 0 .107z" class="prefix__cls-8"/>
            </g>
            <g id="prefix__그룹_1323" transform="translate(73.709 .094)">
                <path id="prefix__패스_1841" d="M.5 2.71V.91A.281.281 0 0 1 .8.64h.026c.168 0 .323.085.323.268v1.563c0 .084.029.114.114.114q.737.007 1.469-.058a.224.224 0 0 1 .25.195.153.153 0 0 1 0 .037c.015.144-.045.283-.188.3a17.929 17.929 0 0 1-1.869.064C.609 3.119.5 3.019.5 2.71zm1 2.25c-.317 0-.42-.1-.42-.411v-.908c0-.183.153-.267.322-.267s.317.084.317.267V4.3c0 .084.031.114.114.114H3.98c.154 0 .223.124.223.273s-.069.267-.223.267zm.973-3.5c-.15 0-.209-.119-.209-.262s.059-.262.209-.262h.986V.669a.315.315 0 0 1 .623 0v2.844a.315.315 0 0 1-.623 0V2.254h-.976c-.15 0-.209-.119-.209-.262s.059-.263.209-.263h.986v-.262z" class="prefix__cls-8"/>
            </g>
        </g>
    </g>
</svg>
