<svg xmlns="http://www.w3.org/2000/svg" width="253.79" height="158.97" viewBox="0 0 253.79 158.97">
    <defs>
        <style>
            .cls-1{fill:#ededfc}.cls-3{fill:none}.cls-4{fill:#666}.cls-5{fill:#434dfe}.cls-6{fill:#fff}.cls-7{fill:#9d9dce}
        </style>
    </defs>
    <g id="_2단계" transform="translate(-1119.85 -377.015)">
        <g id="그룹_4754">
            <path id="패스_253238" d="M1120.822 520.785a14.228 14.228 0 0 0 14.228 14.228h223.25a14.228 14.228 0 0 0 14.228-14.228v-47.437h-251.706z" class="cls-1"/>
            <path id="패스_253239" fill="none" stroke="rgba(255,255,255,0)" d="M1358.3 535.485h-223.25a14.716 14.716 0 0 1-14.7-14.7v-47.908H1373v47.908a14.717 14.717 0 0 1-14.7 14.7zm-237.007-61.666v46.966a13.772 13.772 0 0 0 13.757 13.757h223.25a13.772 13.772 0 0 0 13.756-13.757v-46.966l.944-3.787h-251.707"/>
        </g>
        <g id="그룹_4755">
            <path id="패스_253240" d="M1372.528 473.348v-81.633a14.228 14.228 0 0 0-14.228-14.228h-223.25a14.228 14.228 0 0 0-14.228 14.228v81.633z" class="cls-1" transform="translate(-.472)"/>
            <path id="패스_253241" d="M1373 473.819h-252.65v-82.1a14.716 14.716 0 0 1 14.7-14.7h223.25a14.717 14.717 0 0 1 14.7 14.7zm-251.707-.942h250.763v-81.162a13.772 13.772 0 0 0-13.756-13.757h-223.25a13.772 13.772 0 0 0-13.757 13.757z" class="cls-3"/>
        </g>
        <g id="그룹_4756">
            <path id="패스_253242" d="M1161.413 400.664a2.335 2.335 0 1 1-2.329-2.159 2.078 2.078 0 0 1 2.329 2.159zm-3.7 0a1.37 1.37 0 1 0 1.369-1.33 1.229 1.229 0 0 0-1.367 1.33zm1.369 3.278v.839h3.878v-.839a.429.429 0 0 1 .479-.41c.261 0 .5.13.5.41v2.628c0 .57-.189.75-.769.75h-4.3c-.579 0-.77-.18-.77-.75v-2.628a.43.43 0 0 1 .481-.41c.253 0 .503.13.503.41zm.21 2.558h3.458c.15 0 .21-.06.21-.209v-.71h-3.878v.71c.002.149.052.209.212.209zm4.647-7.925v4.108c0 .289-.239.419-.5.419s-.5-.13-.5-.419v-4.108c0-.29.24-.42.5-.42s.502.13.502.42z" class="cls-4"/>
            <path id="패스_253243" d="M1169.394 399.354v1.3c0 .57-.191.75-.771.75h-1.948c-.151 0-.21.05-.21.21v.77c0 .15.059.2.21.2a32.529 32.529 0 0 0 3.368-.15.355.355 0 0 1 .39.359c.03.24-.071.45-.29.48-.89.09-2.12.15-3.888.15-.58 0-.77-.18-.77-.75v-1.309c0-.57.19-.749.77-.749h1.949c.15 0 .21-.06.21-.21v-.75c0-.16-.06-.21-.21-.21h-2.389c-.23 0-.33-.2-.33-.42s.1-.42.33-.42h2.808c.577-.005.771.18.771.749zm3.177 5.687v1.989c0 .29-.24.42-.5.42s-.5-.13-.5-.42v-1.679c0-.15-.06-.2-.21-.2h-4.488c-.249 0-.359-.2-.359-.43s.11-.429.359-.429h4.928c.581 0 .77.18.77.749zm0-6.466v4.867a.434.434 0 0 1-.489.42.443.443 0 0 1-.5-.42v-1.549h-1.3c-.229 0-.329-.19-.329-.42s.1-.41.329-.41h1.3v-.719h-1.3c-.229 0-.329-.19-.329-.42s.1-.41.329-.41h1.3v-.939a.443.443 0 0 1 .5-.42.434.434 0 0 1 .489.42z" class="cls-4"/>
            <path id="패스_253244" d="M1176.754 398.555v.63h1.789c.239 0 .35.2.35.429s-.111.43-.35.43h-4.678c-.24 0-.349-.2-.349-.43s.109-.429.349-.429h1.889v-.63a.443.443 0 0 1 .5-.42c.26 0 .5.13.5.42zm1.629 3.717c0 1.01-.8 1.67-2.129 1.67s-2.129-.66-2.129-1.67.8-1.668 2.129-1.668 2.129.659 2.129 1.668zm-2.459 2.6v1.31c0 .15.05.2.21.2h4.4c.25 0 .361.2.361.44s-.111.43-.361.43h-4.846c-.581 0-.77-.18-.77-.75v-1.629c0-.289.239-.419.51-.419a.442.442 0 0 1 .496.417zm-.9-2.6c0 .51.43.88 1.23.88s1.229-.37 1.229-.88-.42-.879-1.229-.879-1.23.36-1.23.879zm5.627-3.7v2.248h1.11c.25 0 .36.19.36.43s-.11.43-.36.43h-1.11v2.908c0 .29-.24.42-.5.42a.434.434 0 0 1-.489-.42v-6.016a.434.434 0 0 1 .489-.42c.26.003.5.133.5.423z" class="cls-4"/>
            <path id="패스_253245" d="M1188.083 399.324c0 .23-.109.42-.359.42h-2.16c-.149 0-.21.06-.21.21v3.478c0 .15.061.21.21.21a19.464 19.464 0 0 0 2.509-.16c.22-.03.37.13.39.37s-.06.45-.279.489a22.661 22.661 0 0 1-3.059.16c-.58 0-.77-.179-.77-.749v-4.118c0-.57.19-.749.77-.749h2.6c.249 0 .358.199.358.439zm2.029-.679v7.335a.409.409 0 0 1-.46.391c-.24 0-.469-.121-.469-.391v-3.967h-1.459c-.241 0-.35-.2-.35-.43s.109-.43.35-.43h1.459v-2.508c0-.27.229-.39.469-.39a.408.408 0 0 1 .46.39zm1.8-.1v7.855c0 .27-.229.39-.47.39a.409.409 0 0 1-.46-.39v-7.855a.409.409 0 0 1 .46-.39c.24 0 .469.12.469.39z" class="cls-4"/>
            <path id="패스_253246" d="M1197.692 401.653c0 1.939-.8 2.989-2.348 2.989s-2.339-1.05-2.339-2.989.79-2.988 2.339-2.988 2.348 1.049 2.348 2.988zm-3.717 0c0 1.359.389 2.109 1.369 2.109s1.379-.75 1.379-2.109-.39-2.109-1.379-2.109-1.369.75-1.369 2.109zm6.216-3.078v7.8c0 .289-.24.419-.509.419-.25 0-.5-.13-.5-.419v-7.8a.443.443 0 0 1 .5-.42c.269 0 .509.13.509.42z" class="cls-4"/>
            <path id="패스_253247" d="M1206.053 399.2c0 .229-.111.429-.351.429h-2.767c-.161 0-.21.05-.21.2v1.409h2.578c.24 0 .349.18.349.41s-.109.42-.349.42h-2.578v1.449c0 .15.049.2.21.2a25.065 25.065 0 0 0 3.507-.21c.23-.03.38.13.4.37s-.06.45-.279.479a28.847 28.847 0 0 1-4.059.221c-.579 0-.77-.181-.77-.75v-4.308c0-.569.191-.75.77-.75h3.2c.238.005.349.206.349.431zm2.768-.63v7.8c0 .289-.24.419-.5.419a.434.434 0 0 1-.49-.419V402h-1.3c-.25 0-.36-.19-.36-.43s.11-.43.36-.43h1.3v-2.568a.434.434 0 0 1 .49-.42c.26.003.5.133.5.423z" class="cls-4"/>
            <path id="패스_253248" d="M1218.19 402.873c0 .219-.11.389-.339.389h-7.716c-.23 0-.34-.17-.34-.389s.11-.4.34-.4h7.716c.229 0 .339.17.339.4zm-1.139 1.758v.63c0 .57-.19.75-.77.75h-4.237c-.11 0-.16.04-.16.15v.329c0 .11.05.15.16.15h4.9a.345.345 0 0 1 .33.38c0 .21-.11.39-.33.39h-5.248c-.579 0-.769-.18-.769-.75v-.639c0-.57.19-.75.769-.75h4.239c.1 0 .149-.04.149-.15v-.32c0-.11-.05-.159-.149-.159h-4.708c-.22 0-.32-.181-.32-.38s.1-.38.32-.38h5.057c.577 0 .767.18.767.749zm-.06-5.557v.64c0 .56-.19.74-.769.74h-4.122c-.11 0-.161.049-.161.16v.329c0 .1.051.15.161.15h4.787c.22 0 .32.18.32.38s-.1.38-.32.38h-5.137c-.58 0-.77-.17-.77-.74v-.639c0-.57.19-.75.77-.75h4.117a.139.139 0 0 0 .16-.16v-.32c0-.1-.05-.15-.16-.15h-4.587c-.22 0-.32-.179-.32-.379s.1-.39.32-.39h4.938c.582 0 .773.18.773.749z" class="cls-4"/>
            <path id="패스_253249" d="M1225.372 401.653c0 1.939-.8 2.989-2.349 2.989s-2.338-1.05-2.338-2.989.79-2.988 2.338-2.988 2.349 1.049 2.349 2.988zm-3.718 0c0 1.359.39 2.109 1.369 2.109s1.379-.75 1.379-2.109-.389-2.109-1.379-2.109-1.369.75-1.369 2.109zm6.217-3.078v7.8c0 .289-.24.419-.51.419-.25 0-.5-.13-.5-.419v-7.8a.443.443 0 0 1 .5-.42c.27 0 .51.13.51.42z" class="cls-4"/>
            <path id="패스_253250" d="M1236.141 400.044a1.5 1.5 0 0 1-1.169 1.449v1.19h1.988c.23 0 .34.19.34.409s-.11.42-.34.42h-7.716c-.229 0-.34-.19-.34-.42s.111-.409.34-.409h1.989v-1.19a1.485 1.485 0 0 1-1.169-1.449c0-1.169 1.12-1.7 3.039-1.7s3.038.531 3.038 1.7zm.02 5.8c0 1.169-1.13 1.7-3.058 1.7s-3.059-.53-3.059-1.7 1.13-1.7 3.059-1.7 3.058.527 3.058 1.697zm-5.128 0c0 .579.63.9 2.07.9s2.068-.32 2.068-.9-.629-.9-2.068-.9-2.07.317-2.07.897zm.021-5.8c0 .58.619.89 2.049.89s2.048-.31 2.048-.89-.62-.89-2.048-.89-2.049.31-2.049.89zm1.139 1.659v.98h1.819v-.98a8.705 8.705 0 0 1-.909.04 8.578 8.578 0 0 1-.91-.043z" class="cls-4"/>
            <path id="패스_253251" d="M1240.7 398.555v.859h1.8c.239 0 .35.19.35.42s-.111.43-.35.43h-4.708c-.239 0-.35-.2-.35-.43s.111-.42.35-.42h1.909v-.859a.443.443 0 0 1 .5-.42c.262 0 .499.13.499.42zm1.649 4.327a2.157 2.157 0 1 1-2.149-1.968 1.931 1.931 0 0 1 2.152 1.968zm-3.388 0a1.242 1.242 0 1 0 1.239-1.159 1.13 1.13 0 0 0-1.236 1.159zm5.617-4.307v2.7h1.1c.259 0 .37.19.37.43s-.111.44-.37.44h-1.1v4.228c0 .289-.24.419-.5.419a.434.434 0 0 1-.49-.419v-7.8a.434.434 0 0 1 .49-.42c.263.002.503.132.503.422z" class="cls-4"/>
            <path id="패스_253252" d="M1250.9 401.653c0 1.939-.779 2.978-2.288 2.978s-2.279-1.039-2.279-2.978.77-2.978 2.279-2.978 2.288 1.039 2.288 2.978zm-3.6 0c0 1.359.37 2.1 1.309 2.1s1.32-.74 1.32-2.1-.37-2.1-1.32-2.1-1.309.741-1.309 2.1zm6.337-3.078v7.8c0 .289-.241.419-.5.419a.44.44 0 0 1-.491-.419v-3.2h-1.138c-.241 0-.351-.19-.351-.43s.11-.419.351-.419h1.138v-1.34h-1.138c-.241 0-.351-.19-.351-.429s.11-.42.351-.42h1.138v-1.559a.44.44 0 0 1 .491-.42c.263-.003.504.127.504.417z" class="cls-4"/>
            <path id="패스_253253" d="M1263.851 399.464v2.949c0 .569-.191.749-.77.749h-1.8v1.909h3.348c.24 0 .349.19.349.42s-.109.43-.349.43h-7.695c-.241 0-.351-.2-.351-.43s.11-.42.351-.42h3.347v-1.909h-1.8c-.58 0-.759-.18-.759-.749v-2.949c0-.569.179-.749.759-.749h4.6c.579 0 .77.18.77.749zm-5.127.31v2.326c0 .15.059.2.21.2h3.7c.15 0 .21-.05.21-.2v-2.329c0-.15-.06-.2-.21-.2h-3.7c-.151.003-.21.053-.21.203z" class="cls-4"/>
            <path id="패스_253254" d="M1269.152 399.024c0 .23-.11.42-.36.42h-2.158c-.151 0-.21.06-.21.21v2.019c0 .15.059.21.21.21a19.723 19.723 0 0 0 2.508-.16.341.341 0 0 1 .39.35c.03.24-.06.449-.28.48a21.3 21.3 0 0 1-3.059.159c-.579 0-.769-.17-.769-.739v-2.619c0-.569.19-.75.769-.75h2.6c.249-.004.359.196.359.42zm3.827 5.088V405c0 .57-.189.75-.769.75h-4.127c-.15 0-.2.05-.2.2v.42c0 .139.05.2.2.2h4.787c.23 0 .33.19.33.4s-.1.4-.33.4h-5.187c-.579 0-.77-.18-.77-.75v-.889c0-.57.191-.75.77-.75h4.128c.139 0 .2-.05.2-.2v-.409c0-.15-.061-.2-.2-.2h-4.588c-.23 0-.329-.19-.329-.41s.1-.4.329-.4h4.987c.58 0 .769.18.769.75zm-1.8-5.517v3.9a.408.408 0 0 1-.46.389c-.24 0-.47-.12-.47-.389v-1.51h-1.459c-.239 0-.35-.19-.35-.42s.111-.419.35-.419h1.459V398.6c0-.27.23-.39.47-.39a.408.408 0 0 1 .462.39zm1.8-.05v4c0 .271-.229.39-.469.39a.407.407 0 0 1-.459-.39v-4a.407.407 0 0 1 .459-.39c.24 0 .469.12.469.39z" class="cls-4"/>
            <path id="패스_253255" d="M1282.119 402.493c0 .239-.109.419-.34.419h-7.716c-.229 0-.339-.18-.339-.419 0-.221.11-.4.339-.4h7.716c.231 0 .34.179.34.4zm-1.139 1.939v.739c0 .57-.19.75-.769.75h-4.229c-.109 0-.159.039-.159.15v.409c0 .1.05.15.159.15h4.888a.348.348 0 0 1 .33.39c0 .21-.11.39-.33.39h-5.247c-.58 0-.769-.18-.769-.75v-.739c0-.57.189-.75.769-.75h4.228c.11 0 .16-.05.16-.15v-.4c0-.111-.05-.161-.16-.161h-4.7c-.219 0-.32-.179-.32-.389s.1-.39.32-.39h5.058c.581.001.771.181.771.751zm-.02-4.578c0 1.12-1.119 1.609-3.038 1.609s-3.038-.489-3.038-1.609 1.119-1.6 3.038-1.6 3.038.491 3.038 1.6zm-5.087 0c0 .52.619.819 2.049.819s2.049-.3 2.049-.819-.62-.81-2.049-.81-2.049.29-2.049.81z" class="cls-4"/>
            <path id="패스_253256" d="M1287.473 398.475v.629h1.789c.239 0 .349.2.349.43s-.11.42-.349.42h-4.678c-.24 0-.35-.2-.35-.42s.11-.43.35-.43h1.889v-.629a.443.443 0 0 1 .5-.42c.259 0 .5.13.5.42zm1.629 3.588c0 .979-.8 1.6-2.129 1.6s-2.129-.62-2.129-1.6.8-1.6 2.129-1.6 2.127.62 2.127 1.6zm2.268 3.048v1.919c0 .29-.24.42-.5.42a.434.434 0 0 1-.489-.42v-1.619c0-.15-.061-.2-.21-.2h-4.358c-.25 0-.36-.2-.36-.419s.11-.431.36-.431h4.788c.58 0 .769.181.769.75zm-5.627-3.048c0 .479.43.819 1.23.819s1.229-.34 1.229-.819-.42-.82-1.229-.82-1.23.34-1.23.82zm5.627-3.488v1.925h1.109c.25 0 .361.2.361.431s-.111.439-.361.439h-1.109v2.139c0 .28-.24.41-.5.41s-.489-.13-.489-.41v-4.937a.434.434 0 0 1 .489-.42c.26.003.5.133.5.423z" class="cls-4"/>
            <path id="패스_253257" d="M1301.229 402.882c0 .23-.11.42-.349.42h-7.7c-.24 0-.35-.19-.35-.42s.11-.42.35-.42h7.7c.239 0 .349.181.349.42zm-3.688-4.167v.329c0 .55.3.88 1 1.19.649.289 1.189.51 1.778.74a.451.451 0 0 1-.369.809c-.53-.2-1.119-.44-1.659-.679-.89-.38-1.189-.68-1.249-.92h-.011c-.069.27-.359.56-1.249.94-.55.239-1.109.469-1.649.679a.465.465 0 0 1-.39-.829c.59-.23 1.13-.451 1.779-.74.7-.31 1-.64 1-1.19v-.329c0-.3.241-.43.51-.43s.509.13.509.43zm-2.6 5.607v.629h4.178v-.629a.43.43 0 0 1 .481-.41c.249 0 .5.13.5.41v2.288c0 .57-.19.75-.77.75h-4.6c-.579 0-.758-.18-.758-.75v-2.288a.428.428 0 0 1 .479-.41c.249 0 .491.13.491.41zm.161 2.228h3.858c.109 0 .159-.04.159-.15v-.659h-4.178v.659c.001.11.052.15.159.15z" class="cls-4"/>
            <path id="패스_253258" d="M1304.852 399.035v1.508a2.5 2.5 0 0 0 .809 1.97c.4.429.81.829 1.15 1.149a.424.424 0 0 1-.02.62.452.452 0 0 1-.62.05c-.31-.29-.65-.63-1.029-1.03-.579-.6-.749-.86-.789-1.079h-.011c-.05.239-.21.5-.789 1.1-.38.4-.74.75-1.17 1.15a.435.435 0 0 1-.629-.08.431.431 0 0 1 0-.62c.449-.42.879-.83 1.279-1.259a2.528 2.528 0 0 0 .8-1.97v-1.508c0-.29.25-.42.51-.42s.509.129.509.419zm4.087-.46v7.8c0 .289-.239.419-.509.419-.25 0-.5-.13-.5-.419v-7.8a.443.443 0 0 1 .5-.42c.27 0 .509.13.509.42z" class="cls-4"/>
            <path id="패스_253259" d="M1314.741 399.374v.99c0 1.329-.45 1.749-3.608 3.068a.427.427 0 0 1-.579-.22.415.415 0 0 1 .17-.589c2.1-.85 2.757-1.15 2.958-1.56l-2.939.18c-.24.01-.359-.18-.38-.41-.009-.209.08-.419.33-.429l3.078-.1v-.64c0-.15-.049-.21-.209-.21h-2.609c-.24 0-.349-.19-.349-.41s.109-.419.349-.419h3.019c.579 0 .769.175.769.749zm-2.089 4.626v.8h3.878v-.8a.429.429 0 0 1 .48-.41c.26 0 .5.13.5.41v2.568c0 .57-.191.75-.77.75h-4.3c-.58 0-.769-.18-.769-.75V404a.428.428 0 0 1 .479-.41c.25.002.502.132.502.41zm.21 2.5h3.458c.15 0 .21-.06.21-.209v-.69h-3.878v.69c0 .149.048.209.21.209zm4.648-7.925v4.167c0 .29-.24.42-.5.42s-.5-.13-.5-.42v-4.167c0-.29.24-.42.5-.42s.5.13.5.42z" class="cls-4"/>
            <path id="패스_253260" d="M1320.143 399.165v4.235c0 .15.059.21.21.21a25.288 25.288 0 0 0 3.568-.22.359.359 0 0 1 .4.37c.031.24-.059.46-.28.489a29.318 29.318 0 0 1-4.138.221c-.579 0-.758-.18-.758-.75v-4.557c0-.3.239-.431.5-.431s.498.133.498.433zm5.936-.59v7.8c0 .289-.239.419-.51.419-.25 0-.5-.13-.5-.419v-7.8a.443.443 0 0 1 .5-.42c.271 0 .51.13.51.42z" class="cls-4"/>
            <path id="패스_253261" d="M1331.841 399.264c0 .23-.11.42-.35.42h-2.8c-.149 0-.209.06-.209.21v3.538c0 .15.06.21.209.21a24.94 24.94 0 0 0 3.5-.22.36.36 0 0 1 .4.37c.03.24-.061.459-.28.49a28.9 28.9 0 0 1-4.058.219c-.579 0-.77-.179-.77-.749v-4.178c0-.57.191-.749.77-.749h3.238c.24 0 .35.199.35.439zm2.379-.689v2.6h1.1c.26 0 .37.19.37.43s-.11.44-.37.44h-1.1v4.328c0 .289-.241.419-.5.419s-.5-.13-.5-.419v-7.8c0-.29.239-.42.5-.42s.5.132.5.422z" class="cls-4"/>
            <path id="패스_253262" d="M1337.253 405.611a.675.675 0 1 1-.68-.67.663.663 0 0 1 .68.67z" class="cls-4"/>
        </g>
        <rect id="사각형_805" width="93.665" height="30" class="cls-5" rx="15" transform="translate(1199.843 422.366)"/>
        <rect id="사각형_806" width="204.65" height="12" class="cls-6" rx="6" transform="translate(1144.35 502)"/>
        <g id="그룹_4757">
            <path id="패스_253263" d="M1220.82 440.181c-.31 0-.45-.25-.45-.539s.14-.54.45-.54h3.138v-1.709h-1.658c-.64 0-.85-.2-.85-.83v-2.908c0-.63.21-.83.85-.83h4.6c.64 0 .85.2.85.83v2.908c0 .63-.21.83-.85.83h-1.659v1.707h3.138c.311 0 .451.25.451.54s-.14.539-.451.539zm5.407-3.868c.169 0 .23-.06.23-.23v-1.948c0-.17-.061-.23-.23-.23h-3.258c-.17 0-.231.06-.231.23v1.948c0 .17.061.23.231.23z" class="cls-6"/>
            <path id="패스_253264" d="M1230.669 433.775c-.17 0-.23.06-.23.23v1.679c0 .17.06.23.23.23a16.841 16.841 0 0 0 2.139-.13.441.441 0 0 1 .509.449c.031.3-.069.55-.36.6a21.721 21.721 0 0 1-2.947.14c-.641 0-.85-.2-.85-.829v-2.6c0-.63.209-.83.85-.83h2.528c.31 0 .45.25.45.53s-.14.53-.45.53zm4.747 5.267c.17 0 .23-.06.23-.23v-.11c0-.17-.06-.23-.23-.23h-4.377c-.29 0-.42-.24-.42-.51s.13-.5.42-.5h5c.64 0 .85.2.85.829v.89c0 .63-.21.829-.85.829h-3.928c-.17 0-.229.06-.229.23v.11c0 .17.059.23.229.23h4.558c.289 0 .42.24.42.51s-.131.5-.42.5h-5.178c-.638 0-.849-.2-.849-.829v-.889c0-.63.211-.83.849-.83zm-2.738-3.768c-.31 0-.449-.25-.449-.53s.139-.53.449-.53h1.209v-1.4a.592.592 0 0 1 1.17 0v3.728a.592.592 0 0 1-1.17 0v-1.269zm3.028-2.509a.6.6 0 0 1 1.18 0v3.828a.6.6 0 0 1-1.18 0z" class="cls-6"/>
            <path id="패스_253265" d="M1241.549 433.2v-.489c0-.371.31-.54.639-.54s.64.169.64.54v.489h1.569c.31 0 .451.25.451.54s-.141.53-.451.53h-4.517c-.31 0-.45-.25-.45-.53s.14-.54.45-.54zm2.838 3.068c0 1.02-.839 1.63-2.2 1.63s-2.2-.61-2.2-1.63.839-1.629 2.2-1.629 2.2.605 2.2 1.624zm2.319 4.858a.561.561 0 0 1-.63.54c-.33 0-.639-.17-.639-.54v-1.359c0-.17-.06-.23-.23-.23h-4.128c-.309 0-.45-.25-.45-.53s.141-.54.45-.54h4.777c.64 0 .85.2.85.83zm-3.468-4.858c0-.379-.34-.659-1.05-.659s-1.049.28-1.049.659.34.66 1.049.66 1.05-.285 1.05-.665zm3.468-1.709h.949c.31 0 .45.25.45.55s-.14.55-.45.55h-.949v1.9a.561.561 0 0 1-.63.539c-.33 0-.639-.17-.639-.539V432.8c0-.369.309-.539.639-.539a.561.561 0 0 1 .63.539z" class="cls-6"/>
            <path id="패스_253266" d="M1248.49 437.573c-.3 0-.44-.24-.44-.54s.139-.53.44-.53h7.575c.3 0 .441.24.441.53s-.141.54-.441.54zm4.438-4.408c0 .54.34.83.978 1.109.6.26 1.08.46 1.65.67.239.09.29.44.19.7a.542.542 0 0 1-.67.33c-.439-.161-1.01-.39-1.479-.59-.95-.4-1.249-.68-1.31-.92h-.01c-.07.28-.369.55-1.319.95-.47.2-.989.41-1.449.58a.534.534 0 0 1-.7-.33c-.111-.25-.081-.62.19-.72.568-.21 1.049-.41 1.648-.67.64-.279.98-.569.98-1.109v-.22c0-.38.31-.549.649-.549s.651.169.651.549zm2.5 7.576c0 .63-.21.829-.85.829h-4.6c-.64 0-.85-.2-.85-.829v-2.2a.555.555 0 0 1 .62-.52c.319 0 .63.17.63.52v.43h3.8v-.43a.555.555 0 0 1 .62-.52c.319 0 .63.17.63.52zm-1.4-.18a.132.132 0 0 0 .15-.15v-.45h-3.8v.45a.132.132 0 0 0 .149.15z" class="cls-6"/>
            <path id="패스_253267" d="M1258.709 433.475v-.69c0-.369.309-.539.639-.539s.64.17.64.539v.69h1.569c.31 0 .45.25.45.54s-.14.539-.45.539h-4.537c-.311 0-.45-.249-.45-.539s.139-.54.45-.54zm2.857 3.588a2.229 2.229 0 1 1-2.218-2.009 1.982 1.982 0 0 1 2.218 2.009zm-1.158 0a1.062 1.062 0 1 0-1.06.989.959.959 0 0 0 1.06-.989zm3.438-1.749h.939c.32 0 .46.25.46.55s-.14.559-.46.559h-.939v4.038a.561.561 0 0 1-.63.54c-.329 0-.64-.17-.64-.54V432.8c0-.369.311-.539.64-.539a.561.561 0 0 1 .63.539z" class="cls-6"/>
            <path id="패스_253268" d="M1266.119 434.035c-.31 0-.449-.25-.449-.54s.139-.55.449-.55h3.008c.641 0 .85.2.85.83v1.109c0 1.689-.459 2.269-3.5 4.128a.593.593 0 0 1-.78-.22.562.562 0 0 1 .1-.8c2.738-1.66 2.908-1.959 2.908-3.149v-.579c0-.17-.06-.23-.229-.23zm6.727 6.426c0 .37-.311.54-.651.54s-.638-.17-.638-.54V432.8c0-.369.308-.539.638-.539s.651.17.651.539z" class="cls-6"/>
        </g>
        <g id="그룹_4758">
            <path id="패스_253269" d="M1151.728 490.566v.071a1.82 1.82 0 0 1-.98 1.509 1.728 1.728 0 0 1 1.169 1.629v.12c0 1.149-.869 2.019-2.469 2.019-1.659 0-2.528-.87-2.528-2.019v-.12a1.752 1.752 0 0 1 1.179-1.629 1.78 1.78 0 0 1-.99-1.509v-.071a2.014 2.014 0 0 1 2.3-1.978 2.055 2.055 0 0 1 2.319 1.978zm-3.489 3.2v.05c0 .62.48.979 1.2.979s1.16-.359 1.16-.979v-.05a1.023 1.023 0 0 0-1.16-1.03c-.63-.001-1.2.299-1.2 1.029zm.18-3.128v.05a.937.937 0 0 0 1.01.929.911.911 0 0 0 .989-.929v-.05a.894.894 0 0 0-1-.94.908.908 0 0 0-.999.939z" class="cls-5"/>
            <path id="패스_253270" d="M1156.438 489.188v6.126c0 .38-.3.55-.64.55s-.64-.17-.64-.55v-5.177l-1.289.739a.564.564 0 0 1-.809-.25.556.556 0 0 1 .2-.789l1.688-.94a1.671 1.671 0 0 1 .82-.259c.379 0 .67.17.67.55z" class="cls-5"/>
            <path id="패스_253271" d="M1163.778 488.518l-2.839 8.325a.552.552 0 0 1-.75.32.487.487 0 0 1-.369-.65l2.828-8.325a.553.553 0 0 1 .75-.32.5.5 0 0 1 .38.65z" class="cls-7"/>
            <path id="패스_253272" d="M1169.848 489.188v6.126c0 .38-.3.55-.64.55s-.64-.17-.64-.55v-5.177l-1.289.739a.564.564 0 0 1-.809-.25.556.556 0 0 1 .2-.789l1.688-.94a1.671 1.671 0 0 1 .82-.259c.38 0 .67.17.67.55z" class="cls-7"/>
            <path id="패스_253273" d="M1176.827 492.036v.43c0 2.2-.809 3.448-2.659 3.448s-2.658-1.249-2.658-3.448v-.43c0-2.2.809-3.448 2.658-3.448s2.659 1.249 2.659 3.448zm-4.028.09v.249c0 1.65.33 2.33 1.369 2.33s1.37-.68 1.37-2.33v-.249c0-1.649-.33-2.329-1.37-2.329s-1.368.68-1.368 2.329z" class="cls-7"/>
            <path id="패스_253274" d="M1182.5 492.036v.43c0 2.2-.809 3.448-2.659 3.448s-2.658-1.249-2.658-3.448v-.43c0-2.2.809-3.448 2.658-3.448s2.659 1.249 2.659 3.448zm-4.028.09v.249c0 1.65.33 2.33 1.369 2.33s1.37-.68 1.37-2.33v-.249c0-1.649-.33-2.329-1.37-2.329s-1.372.68-1.372 2.329z" class="cls-7"/>
        </g>
        <rect id="사각형_807" width="144.796" height="12" fill="#babdfd" rx="6" transform="translate(1144.35 502)"/>
        <g id="그룹_4759">
            <path id="선_254" d="M0 0L251.146 0" class="cls-1" transform="translate(1121.102 473.348)"/>
            <path id="사각형_808" d="M0 0H251.146V0.926H0z" class="cls-3" transform="translate(1121.102 472.885)"/>
        </g>
        <path id="패스_253275" fill="none" stroke="#fff" stroke-width="2px" d="M6118 2892.089h252" transform="translate(-4997.149 -2419.985)"/>
    </g>
</svg>
