<svg xmlns="http://www.w3.org/2000/svg" width="302" height="426" viewBox="0 0 302 426">
    <defs>
        <style>
            .cls-2{fill:#666}.cls-3{fill:#fff}.cls-5{fill:#bbb}.cls-7{fill:#9d9dce}.cls-9{fill:#434dfe}
        </style>
    </defs>
    <g id="_3단계" transform="translate(-1511.249 -174.554)">
        <rect id="사각형_797" width="302" height="426" fill="#ededfc" rx="16" transform="translate(1511.249 174.554)"/>
        <g id="그룹_4733" transform="translate(.029)">
            <path id="패스_253189" d="M1551.106 201.748v.756h2.147c.288 0 .42.24.42.516s-.132.5-.42.5h-5.612c-.288 0-.42-.24-.42-.5s.132-.516.42-.516h2.266v-.756c0-.348.3-.5.6-.5s.599.152.599.5zm1.956 4.306c0 1.175-.96 1.919-2.555 1.919s-2.555-.744-2.555-1.919.959-1.919 2.555-1.919 2.555.743 2.555 1.919zm2.722 3.658v2.3c0 .347-.288.5-.6.5a.521.521 0 0 1-.588-.5v-1.943c0-.18-.073-.24-.252-.24h-5.23c-.3 0-.431-.24-.431-.5s.131-.515.431-.515h5.745c.697-.001.925.214.925.898zm-6.753-3.658c0 .575.516.983 1.476.983s1.474-.408 1.474-.983-.5-.984-1.474-.984-1.476.408-1.476.984zm6.753-4.186v2.315h1.331c.3 0 .432.24.432.516s-.132.528-.432.528h-1.331v2.566c0 .336-.288.492-.6.492s-.588-.156-.588-.492v-5.925a.521.521 0 0 1 .588-.5c.316-.004.6.153.6.5z" class="cls-2"/>
            <path id="패스_253190" d="M1567.614 207.037c0 .276-.132.5-.419.5h-9.235c-.288 0-.42-.228-.42-.5s.132-.5.42-.5h9.235c.287-.003.419.213.419.5zm-4.425-5v.4c0 .659.36 1.055 1.2 1.427.779.348 1.426.612 2.134.888a.542.542 0 0 1-.444.971c-.636-.24-1.343-.528-1.99-.816-1.068-.455-1.428-.815-1.5-1.1h-.013c-.084.324-.431.672-1.5 1.127-.659.288-1.331.564-1.978.816a.557.557 0 0 1-.468-1c.707-.276 1.354-.54 2.135-.888.838-.372 1.2-.768 1.2-1.427v-.4c0-.36.288-.515.611-.515s.613.156.613.516zm-3.119 6.728v.756h5.014v-.756a.516.516 0 0 1 .576-.492c.3 0 .6.157.6.492v2.747c0 .683-.229.9-.924.9h-5.517c-.7 0-.912-.216-.912-.9v-2.747a.516.516 0 0 1 .576-.492c.3-.001.587.156.587.491zm.193 2.675h4.63c.131 0 .191-.048.191-.18v-.792h-5.014v.792c0 .131.061.179.193.179z" class="cls-2"/>
            <path id="패스_253191" d="M1575.26 207.421c.024.276-.083.528-.36.552-1.919.168-4.162.24-6.512.24-.287 0-.42-.228-.42-.5s.133-.5.42-.5c.864 0 1.727 0 2.6-.012v-1.439h-1.259c-.695 0-.923-.216-.923-.9V202.8c0-.684.228-.9.923-.9h4.15c.276 0 .408.228.408.5s-.132.491-.408.491h-3.634c-.18 0-.252.073-.252.252v1.356c0 .18.072.252.252.252H1574c.275 0 .408.227.408.491s-.133.5-.408.5h-1.835v1.392c.863-.025 1.739-.073 2.639-.157.289-.024.444.169.456.444zm-4.27 2v1.607c0 .18.061.252.252.252h5.709c.288 0 .42.228.42.5s-.132.515-.42.515h-6.251c-.7 0-.924-.216-.924-.9v-1.979c0-.348.288-.5.612-.5a.531.531 0 0 1 .602.508zm6.093-7.556v7.34c0 .348-.288.5-.6.5a.521.521 0 0 1-.587-.5v-7.34a.521.521 0 0 1 .587-.5c.317-.001.6.156.6.503z" class="cls-2"/>
            <path id="패스_253192" d="M1589.191 202.936v3.538c0 .683-.227.9-.923.9h-2.159v2.291h4.018c.288 0 .42.228.42.5s-.132.516-.42.516h-9.235c-.288 0-.419-.24-.419-.516s.131-.5.419-.5h4.018v-2.291h-2.159c-.695 0-.911-.216-.911-.9v-3.538c0-.684.216-.9.911-.9h5.517c.696 0 .923.216.923.9zm-6.152.372v2.792c0 .18.071.24.252.24h4.438c.179 0 .251-.06.251-.24v-2.794c0-.181-.072-.241-.251-.241h-4.438c-.181.002-.252.062-.252.243z" class="cls-2"/>
            <path id="패스_253193" d="M1595.554 202.408c0 .276-.132.5-.433.5h-2.59c-.179 0-.252.071-.252.252v2.422c0 .18.073.252.252.252a23.648 23.648 0 0 0 3.01-.192.409.409 0 0 1 .468.42c.036.288-.071.539-.336.576a25.534 25.534 0 0 1-3.67.191c-.7 0-.923-.2-.923-.887V202.8c0-.684.228-.9.923-.9h3.118c.301 0 .433.244.433.508zm4.592 6.1v1.067c0 .684-.227.9-.922.9h-4.953c-.181 0-.241.061-.241.24v.5c0 .168.06.24.241.24h5.744c.276 0 .4.228.4.479s-.12.48-.4.48h-6.225c-.7 0-.923-.215-.923-.9v-1.067c0-.684.228-.9.923-.9h4.953c.168 0 .24-.06.24-.24v-.492c0-.179-.072-.24-.24-.24h-5.505c-.275 0-.4-.228-.4-.491s.12-.48.4-.48h5.986c.695.009.922.225.922.909zm-2.158-6.621v4.677a.489.489 0 0 1-.551.468c-.289 0-.564-.143-.564-.468v-1.81h-1.752c-.287 0-.419-.228-.419-.5s.132-.5.419-.5h1.752v-1.859c0-.324.275-.468.564-.468a.49.49 0 0 1 .551.465zm2.158-.06v4.8c0 .324-.275.468-.563.468a.49.49 0 0 1-.552-.468v-4.8a.49.49 0 0 1 .552-.468c.288.005.563.149.563.473z" class="cls-2"/>
            <path id="패스_253194" d="M1611.114 206.569c0 .288-.132.5-.408.5h-9.259c-.275 0-.407-.216-.407-.5 0-.263.132-.479.407-.479h9.259c.276 0 .408.216.408.479zm-1.367 2.327v.888c0 .683-.228.9-.924.9h-5.073c-.132 0-.191.048-.191.18v.492c0 .12.059.18.191.18h5.865a.418.418 0 0 1 .4.467c0 .252-.132.468-.4.468h-6.3c-.695 0-.923-.216-.923-.9v-.888c0-.683.228-.9.923-.9h5.074c.131 0 .192-.06.192-.18v-.48a.167.167 0 0 0-.192-.192h-5.637c-.264 0-.384-.216-.384-.468s.12-.467.384-.467h6.068c.699.004.927.217.927.904zm-.024-5.493c0 1.344-1.343 1.931-3.646 1.931s-3.646-.587-3.646-1.931 1.343-1.919 3.646-1.919 3.646.588 3.646 1.916zm-6.1 0c0 .624.744.984 2.459.984s2.458-.36 2.458-.984-.743-.971-2.458-.971-2.464.348-2.464.968z" class="cls-2"/>
            <path id="패스_253195" d="M1619.732 205.562c0 2.327-.96 3.586-2.818 3.586s-2.807-1.259-2.807-3.586.948-3.586 2.807-3.586 2.818 1.259 2.818 3.586zm-4.461 0c0 1.631.467 2.531 1.643 2.531s1.655-.9 1.655-2.531-.467-2.53-1.655-2.53-1.643.899-1.643 2.53zm7.459-3.694v9.355c0 .348-.288.5-.611.5a.531.531 0 0 1-.6-.5v-9.355a.531.531 0 0 1 .6-.5c.323-.004.611.153.611.5z" class="cls-2"/>
            <path id="패스_253196" d="M1632.654 203.631a1.793 1.793 0 0 1-1.4 1.739v1.43h2.387c.276 0 .408.228.408.492s-.132.5-.408.5h-9.259c-.275 0-.407-.228-.407-.5s.132-.492.407-.492h2.387v-1.43a1.78 1.78 0 0 1-1.4-1.739c0-1.4 1.344-2.039 3.647-2.039s3.638.636 3.638 2.039zm.025 6.956c0 1.4-1.356 2.039-3.67 2.039s-3.67-.635-3.67-2.039 1.354-2.039 3.67-2.039 3.67.636 3.67 2.039zm-6.153 0c0 .7.755 1.08 2.483 1.08s2.482-.384 2.482-1.08-.756-1.079-2.482-1.079-2.483.384-2.483 1.079zm.024-6.956c0 .7.744 1.068 2.459 1.068s2.458-.372 2.458-1.068-.743-1.067-2.458-1.067-2.459.372-2.459 1.067zm1.367 1.991v1.178h2.183v-1.175a10.433 10.433 0 0 1-1.091.048 10.3 10.3 0 0 1-1.092-.051z" class="cls-2"/>
            <path id="패스_253197" d="M1638.129 201.844v1.031h2.159c.288 0 .42.229.42.5s-.132.516-.42.516h-5.648c-.288 0-.42-.24-.42-.516s.132-.5.42-.5h2.29v-1.031a.531.531 0 0 1 .6-.5c.312-.004.599.156.599.5zm1.979 5.193a2.588 2.588 0 1 1-2.579-2.362 2.317 2.317 0 0 1 2.579 2.362zm-4.065 0a1.49 1.49 0 1 0 1.486-1.391 1.355 1.355 0 0 0-1.486 1.391zm6.74-5.169v3.238h1.32c.311 0 .443.228.443.516s-.132.528-.443.528h-1.32v5.073c0 .348-.288.5-.6.5a.521.521 0 0 1-.588-.5v-9.355a.521.521 0 0 1 .588-.5c.312-.004.6.153.6.5z" class="cls-2"/>
            <path id="패스_253198" d="M1650.368 205.562c0 2.327-.935 3.574-2.747 3.574s-2.734-1.247-2.734-3.574.924-3.574 2.734-3.574 2.747 1.247 2.747 3.574zm-4.317 0c0 1.631.443 2.519 1.57 2.519s1.584-.888 1.584-2.519-.444-2.519-1.584-2.519-1.57.888-1.57 2.519zm7.6-3.694v9.355c0 .348-.288.5-.6.5a.527.527 0 0 1-.588-.5v-3.838h-1.363c-.288 0-.42-.228-.42-.515s.132-.5.42-.5h1.367v-1.607h-1.367c-.288 0-.42-.228-.42-.516s.132-.5.42-.5h1.367v-1.871a.528.528 0 0 1 .588-.5c.311-.012.599.145.599.492z" class="cls-2"/>
            <path id="패스_253199" d="M1663.2 204.687a2.8 2.8 0 1 1-2.8-2.783 2.588 2.588 0 0 1 2.8 2.783zm-4.438 0a1.648 1.648 0 1 0 1.643-1.763 1.565 1.565 0 0 0-1.647 1.763zm1.68 4.281v2.027c0 .18.059.24.251.24h5.4c.3 0 .432.24.432.528s-.132.515-.432.515h-5.937c-.7 0-.923-.215-.923-.9v-2.411c0-.347.288-.5.612-.5a.532.532 0 0 1 .593.501zm5.792-7.1v7.1c0 .348-.288.5-.6.5s-.6-.156-.6-.5v-7.1c0-.347.287-.5.6-.5s.596.153.596.5z" class="cls-2"/>
            <path id="패스_253200" d="M1671.608 202.228v1.091a2.121 2.121 0 0 0 .8 1.775c.564.468 1.067.852 1.463 1.14a.5.5 0 0 1 .084.731.506.506 0 0 1-.731.144c-.324-.228-.816-.6-1.32-1.019-.588-.48-.827-.78-.887-1.031h-.012c-.06.275-.324.611-.911 1.079-.5.42-1 .8-1.5 1.163a.543.543 0 0 1-.745-.144.533.533 0 0 1 .1-.767c.565-.408 1.068-.792 1.632-1.26a2.118 2.118 0 0 0 .8-1.775v-1.127c0-.348.3-.5.612-.5s.615.152.615.5zm3.983 6.141c.7 0 .923.215.923.9v2.747c0 .347-.288.5-.6.5s-.6-.157-.6-.5v-2.376c0-.18-.072-.24-.251-.24h-5.337c-.3 0-.432-.24-.432-.516s.132-.515.432-.515zm.923-6.5v5.481c0 .348-.288.5-.6.5s-.6-.156-.6-.5v-5.481c0-.347.289-.5.6-.5s.6.152.6.499z" class="cls-2"/>
            <path id="패스_253201" d="M1684.616 201.856c.7 0 .924.216.924.9v.755c0 1.667-.5 1.979-4.21 3.646a.543.543 0 0 1-.695-.3.518.518 0 0 1 .216-.719c3.345-1.463 3.49-1.619 3.49-2.663v-.348c0-.179-.061-.239-.252-.239h-2.989c-.289 0-.42-.24-.42-.516s.131-.516.42-.516zm3.7 5.685c.695 0 .922.216.922.9v1.1c0 .684-.227.9-.922.9h-4.69c-.18 0-.252.06-.252.252v.516c0 .18.072.252.252.252h5.481c.276 0 .4.228.4.479s-.12.48-.4.48h-5.973c-.7 0-.923-.215-.923-.9v-1.1c0-.683.228-.9.923-.9h4.678c.191 0 .252-.06.252-.252v-.516c0-.18-.061-.239-.252-.239h-5.23c-.275 0-.4-.228-.4-.492s.12-.48.4-.48zm.922-5.673v4.653a.52.52 0 0 1-.587.5.531.531 0 0 1-.6-.5v-.659h-1.68c-.288 0-.395-.228-.395-.5s.107-.5.395-.5h1.68v-.962h-1.584c-.287 0-.4-.216-.4-.492s.109-.5.4-.5h1.584v-1.031a.532.532 0 0 1 .6-.5.521.521 0 0 1 .582.491z" class="cls-2"/>
            <path id="패스_253202" d="M1693.616 205.886v2.866c1.069-.023 2.148-.071 3.263-.18.275-.024.42.168.443.456a.445.445 0 0 1-.359.54c-1.835.168-3.958.228-6.165.228-.287 0-.419-.24-.419-.516s.132-.5.419-.5h1.643v-2.89c0-.336.288-.492.588-.492s.587.152.587.488zm2.016-3.658c.7 0 .923.216.923.9v.756a12.133 12.133 0 0 1-.348 3.106.565.565 0 0 1-.707.348.483.483 0 0 1-.444-.575 12.577 12.577 0 0 0 .312-2.843v-.4c0-.18-.072-.252-.252-.252h-3.706c-.288 0-.42-.228-.42-.515s.132-.528.42-.528zm3.5-.372v3.49h1.163c.311 0 .444.228.444.516s-.133.528-.444.528h-1.163v4.845c0 .336-.288.492-.6.492s-.588-.156-.588-.492v-9.379c0-.335.288-.492.588-.492s.602.157.602.492z" class="cls-2"/>
            <path id="패스_253203" d="M1710.761 207.025c0 .264-.132.468-.407.468h-9.259c-.277 0-.408-.2-.408-.468s.131-.48.408-.48h9.259c.275 0 .407.205.407.48zm-1.367 2.111v.756c0 .683-.228.9-.923.9h-5.086c-.132 0-.192.048-.192.18v.4c0 .132.06.18.192.18h5.877a.413.413 0 0 1 .4.455c0 .252-.132.468-.4.468h-6.3c-.7 0-.924-.216-.924-.9v-.775c0-.683.228-.9.924-.9h5.085c.12 0 .179-.048.179-.18v-.384c0-.132-.059-.192-.179-.192h-5.65c-.263 0-.383-.216-.383-.456s.12-.455.383-.455h6.07c.699.004.927.22.927.903zm-.072-6.668v.767c0 .672-.228.888-.924.888h-4.941c-.132 0-.191.06-.191.192v.4c0 .121.059.181.191.181h5.745c.264 0 .384.215.384.455s-.12.456-.384.456h-6.165c-.695 0-.923-.2-.923-.887v-.768c0-.684.228-.9.923-.9h4.942a.167.167 0 0 0 .192-.192v-.384c0-.12-.061-.18-.192-.18h-5.505c-.264 0-.384-.216-.384-.456s.12-.468.384-.468h5.924c.696-.004.924.212.924.896z" class="cls-2"/>
            <path id="패스_253204" d="M1719.355 205.31c0 .864-.708 1.4-1.93 1.523v.84c.791-.024 1.595-.084 2.41-.156.276-.024.42.168.443.42a.428.428 0 0 1-.347.516c-1.847.155-3.982.215-6.212.215-.277 0-.408-.215-.408-.48a.413.413 0 0 1 .408-.467c.839 0 1.69 0 2.542-.012v-.876c-1.236-.12-1.943-.659-1.943-1.523 0-.983.936-1.559 2.519-1.559s2.518.576 2.518 1.559zm-1.918-3.682v.636h2.146c.264 0 .384.216.384.48s-.12.467-.384.467h-5.589c-.275 0-.4-.2-.4-.467s.12-.48.4-.48h2.243v-.636c0-.336.276-.491.6-.491s.6.155.6.491zm4.628 8.684v1.739c0 .335-.287.491-.6.491a.515.515 0 0 1-.575-.491v-1.427c0-.181-.073-.252-.252-.252h-5.493c-.276 0-.4-.228-.4-.468 0-.264.12-.492.4-.492h6c.693 0 .92.216.92.9zm-6.656-5c0 .408.456.684 1.428.684s1.427-.276 1.427-.684-.455-.695-1.427-.695-1.428.274-1.428.693zm6.656-3.454v2.77h1.164c.312 0 .444.228.444.517s-.132.527-.444.527h-1.164v2.723c0 .336-.287.491-.6.491s-.587-.155-.587-.491v-6.537c0-.335.287-.492.587-.492s.6.155.6.49z" class="cls-2"/>
            <path id="패스_253205" d="M1729.627 204.687a2.795 2.795 0 1 1-2.795-2.783 2.587 2.587 0 0 1 2.795 2.783zm-4.438 0a1.648 1.648 0 1 0 1.643-1.763 1.565 1.565 0 0 0-1.643 1.763zm1.679 4.281v2.027c0 .18.061.24.252.24h5.4c.3 0 .431.24.431.528s-.132.515-.431.515h-5.937c-.7 0-.924-.215-.924-.9v-2.411c0-.347.288-.5.612-.5a.532.532 0 0 1 .597.501zm5.793-7.1v7.1c0 .348-.288.5-.6.5s-.6-.156-.6-.5v-7.1c0-.347.288-.5.6-.5s.6.153.6.5z" class="cls-2"/>
            <path id="패스_253206" d="M1737.236 201.928v1.02h1.691c.288 0 .42.24.42.5s-.132.516-.42.516h-4.727c-.3 0-.431-.24-.431-.516s.131-.5.431-.5h1.847v-1.02a.525.525 0 0 1 .588-.491c.313 0 .601.155.601.491zm1.667 5.085a2.261 2.261 0 1 1-2.255-2.314 2.124 2.124 0 0 1 2.252 2.314zm-3.478 0a1.229 1.229 0 1 0 1.223-1.343 1.178 1.178 0 0 0-1.223 1.343zm7.868-5.181v9.427c0 .324-.276.468-.564.468a.489.489 0 0 1-.551-.468v-5.073h-1.272v4.581c0 .312-.276.456-.552.456s-.551-.144-.551-.456v-8.827c0-.312.275-.456.551-.456s.552.144.552.456v3.227h1.272v-3.335a.489.489 0 0 1 .551-.468c.288 0 .564.144.564.468z" class="cls-2"/>
            <path id="패스_253207" d="M1754.261 208.188c0 .276-.132.5-.42.5h-4.018v3.371c0 .347-.288.5-.6.5s-.6-.156-.6-.5v-3.371h-4.023c-.287 0-.418-.228-.418-.5s.131-.515.418-.515h9.236c.293 0 .425.24.425.515zm-1.224-5.768c0 .264-.132.5-.432.5h-2.77v.143c0 .756.228 1.116 1.067 1.548.792.407 1.452.719 2.2 1.055a.489.489 0 0 1 .179.7.512.512 0 0 1-.66.287c-.8-.359-1.438-.659-2.182-1.043-.852-.432-1.127-.732-1.2-1.019h-.011c-.073.311-.361.611-1.2 1.043-.755.384-1.391.684-2.183 1.044a.517.517 0 0 1-.671-.3.492.492 0 0 1 .18-.708c.743-.336 1.4-.648 2.207-1.055.827-.432 1.054-.792 1.054-1.548v-.143h-2.77c-.3 0-.432-.24-.432-.5 0-.288.132-.516.432-.516h6.764c.296-.008.428.224.428.512z" class="cls-2"/>
            <path id="패스_253208" d="M1757.8 202.5v1.835a3.092 3.092 0 0 0 .744 2.266c.407.5.839.972 1.163 1.32a.534.534 0 0 1-.06.756.541.541 0 0 1-.744-.013c-.239-.251-.611-.659-.971-1.091a2.656 2.656 0 0 1-.719-1.187h-.013a2.6 2.6 0 0 1-.72 1.235c-.359.42-.743.852-1.127 1.247a.56.56 0 0 1-.8-.779c.456-.492.9-.984 1.319-1.488a3.136 3.136 0 0 0 .731-2.266V202.5a.532.532 0 0 1 .6-.5c.314 0 .597.156.597.5zm3.9-.552v8.8a.49.49 0 0 1-.552.468c-.288 0-.563-.144-.563-.468v-5.138h-1.2c-.287 0-.419-.228-.419-.516s.132-.515.419-.515h1.2v-2.627c0-.324.275-.468.563-.468a.49.49 0 0 1 .552.468zm2.158-.12v9.427c0 .324-.275.468-.563.468a.49.49 0 0 1-.552-.468v-9.427a.49.49 0 0 1 .552-.468c.29.004.565.148.565.472z" class="cls-2"/>
            <path id="패스_253209" d="M1768.543 208.225v1.451h2.495v-1.451c0-.336.288-.492.6-.492s.6.156.6.492v1.451h2.171c.288 0 .42.228.42.491s-.132.516-.42.516h-9.235c-.287 0-.419-.24-.419-.516s.132-.491.419-.491h2.171v-1.451c0-.336.276-.492.6-.492s.598.156.598.492zm4.941-3.586c0 1.8-1.379 2.854-3.693 2.854s-3.683-1.055-3.683-2.854 1.368-2.855 3.683-2.855 3.693 1.056 3.693 2.855zm-6.175 0c0 1.055.767 1.835 2.482 1.835s2.482-.78 2.482-1.835-.767-1.835-2.482-1.835-2.482.796-2.482 1.835z" class="cls-2"/>
            <path id="패스_253210" d="M1776.921 210.312a.81.81 0 1 1-.816-.8.795.795 0 0 1 .816.8z" class="cls-2"/>
        </g>
        <g id="그룹_4734">
            <path id="패스_253211" d="M1738 262.469h-151.005c-2.483 0-4.5-2.671-4.5-5.966v-18.037c0-3.294 2.013-5.966 5.5-5.966H1739c1.483 0 3.5 2.671 3.5 5.966V256.5c0 3.3-2.014 5.969-4.5 5.969z" class="cls-3"/>
            <path id="패스_253212" fill="#ddd" d="M1738 262.469h-151.005c-2.8 0-5.071-2.9-5.071-6.463v-17.619c0-3.805 2.5-6.463 6.071-6.463H1739c1.844 0 4.071 2.883 4.071 6.463v17.619c.003 3.563-2.271 6.463-5.071 6.463zM1587.995 233.2c-2.943 0-4.921 2.086-4.921 5.191v17.619c0 2.862 1.759 5.191 3.921 5.191H1738c2.162 0 3.921-2.329 3.921-5.191v-17.623c0-3.05-1.9-5.191-2.921-5.191z"/>
        </g>
        <g id="그룹_4735" transform="translate(0 2)">
            <path id="패스_253213" d="M1598.082 244.4v.455c.743-.035 1.511-.084 2.3-.155a.4.4 0 0 1 .455.42c.023.275-.084.5-.36.539-1.882.156-3.886.216-6.176.216-.277 0-.408-.216-.408-.492s.131-.479.408-.479c.887 0 1.739 0 2.6-.012v-.492c0-.348.287-.492.588-.492s.593.148.593.492zm.012-4.246v.66h1.943c.264 0 .4.227.4.492s-.131.479-.4.479h-1.943v.06c0 .36.156.552.6.768.516.228 1.032.455 1.415.612a.439.439 0 0 1 .252.635.46.46 0 0 1-.635.24l-1.26-.528c-.695-.312-.9-.5-.936-.707h-.011c-.06.228-.3.455-1.008.767-.551.252-.971.42-1.451.612a.47.47 0 0 1-.66-.252.447.447 0 0 1 .24-.648c.552-.216 1.044-.419 1.643-.7.456-.2.613-.408.613-.768v-.1h-2.028c-.263 0-.395-.216-.395-.479s.132-.492.395-.492h2.028v-.66c0-.348.287-.5.6-.5s.598.165.598.513zm4.556 7.364v.828c0 .683-.227.887-.922.887h-4.845c-.133 0-.193.06-.193.192v.432c0 .132.06.192.193.192h5.648a.4.4 0 0 1 .384.455c0 .252-.12.468-.384.468h-6.068c-.7 0-.924-.216-.924-.9v-.828c0-.684.228-.9.924-.9h4.845c.131 0 .192-.048.192-.181v-.443c0-.12-.061-.18-.192-.18h-5.41c-.263 0-.383-.216-.383-.468a.4.4 0 0 1 .383-.455h5.83c.695.006.922.221.922.905zm0-7.136v2.135h1.164c.312 0 .444.228.444.516s-.132.527-.444.527h-1.164v2.04c0 .336-.287.492-.6.492s-.587-.156-.587-.492v-5.217c0-.336.288-.492.587-.492s.6.159.6.495z" class="cls-5"/>
            <path id="패스_253214" d="M1610 243a2.723 2.723 0 1 1-2.723-2.662A2.494 2.494 0 0 1 1610 243zm-4.293 0a1.573 1.573 0 1 0 1.57-1.655A1.474 1.474 0 0 0 1605.7 243zm7.676 5.841c0 1.5-1.3 2.267-3.515 2.267s-3.514-.768-3.514-2.267 1.3-2.266 3.514-2.266 3.511.767 3.511 2.266zm-5.842 0c0 .792.7 1.3 2.327 1.3s2.327-.5 2.327-1.3-.708-1.295-2.327-1.295-2.331.504-2.331 1.295zm5.781-8.443v5.577c0 .336-.287.492-.588.492s-.6-.156-.6-.492v-1.355h-1.391c-.288 0-.408-.24-.408-.516s.12-.516.408-.516h1.391v-1.115h-1.391c-.288 0-.408-.228-.408-.516s.12-.5.408-.5h1.391V240.4a.532.532 0 0 1 .6-.5.521.521 0 0 1 .584.5z" class="cls-5"/>
        </g>
        <g id="그룹_4747">
            <g id="그룹_4737">
                <g id="그룹_4736">
                    <path id="패스_253215" d="M1538.823 529.372v1.428h4.965v-1.427a.535.535 0 0 1 .588-.5c.312 0 .611.168.611.5v4.227c0 .684-.227.9-.924.9h-2.158v2.159h4.018c.288 0 .42.228.42.5s-.132.516-.42.516h-9.235c-.288 0-.419-.24-.419-.516s.131-.5.419-.5h4.018V534.5h-2.159c-.695 0-.911-.216-.911-.9v-4.233a.527.527 0 0 1 .587-.5.54.54 0 0 1 .6.505zm.251 4.114h4.462c.18 0 .252-.06.252-.24v-1.428h-4.965v1.428c0 .18.077.24.251.24z" class="cls-2"/>
                </g>
                <rect id="사각형_798" width="250" height="12" class="cls-3" rx="6" transform="translate(1535.615 548.782)"/>
                <rect id="사각형_799" width="229.78" height="12" fill="#00eda9" rx="6" transform="translate(1535.7 548.782)"/>
            </g>
            <g id="그룹_4739">
                <g id="그룹_4738">
                    <path id="패스_253216" d="M1537.863 482.576v2.063h2.795v-2.063a.594.594 0 0 1 1.175 0v5.505c0 .683-.228.9-.924.9h-3.309c-.7 0-.924-.216-.924-.9v-5.505a.521.521 0 0 1 .588-.5.531.531 0 0 1 .599.5zm.252 5.385h2.291c.18 0 .252-.06.252-.252v-2.051h-2.795v2.051c0 .191.06.252.252.252zm6.681-6.093v3.118h1.319c.312 0 .444.228.444.516s-.132.528-.444.528h-1.315v5.193c0 .348-.288.5-.6.5s-.6-.156-.6-.5v-9.355c0-.347.288-.5.6-.5s.6.153.6.5z" class="cls-2"/>
                    <path id="패스_253217" d="M1553.987 487.541c.025.264-.083.516-.359.54-.852.072-1.763.132-2.723.18v2.839a.521.521 0 0 1-.588.5.531.531 0 0 1-.6-.5v-2.8c-.852.024-1.715.036-2.6.036-.287 0-.42-.24-.42-.516s.133-.492.42-.492c2.123 0 4.2-.036 6.417-.228.286-.027.442.153.453.441zm-.839-3.454c0 1.331-.96 2.3-2.866 2.3s-2.867-.972-2.867-2.3.96-2.3 2.867-2.3 2.866.969 2.866 2.3zm-4.593 0c0 .756.551 1.307 1.727 1.307s1.727-.551 1.727-1.307-.552-1.307-1.727-1.307-1.727.552-1.727 1.307zm7.256-2.219v9.355c0 .348-.289.5-.6.5a.521.521 0 0 1-.588-.5v-9.355a.522.522 0 0 1 .588-.5c.311-.004.6.153.6.5z" class="cls-2"/>
                </g>
                <rect id="사각형_800" width="250" height="12" class="cls-3" rx="6" transform="translate(1535.615 501.782)"/>
            </g>
            <g id="그룹_4740">
                <path id="패스_253218" d="M1540.718 435.192c.695 0 .924.216.924.9v1.332c0 2-.588 2.662-4.246 4.917a.557.557 0 0 1-.732-.2.536.536 0 0 1 .1-.756c3.37-2.062 3.681-2.458 3.681-4.005v-.9c0-.18-.059-.24-.251-.24h-3.094c-.3 0-.432-.239-.432-.515s.132-.528.432-.528zm4.078-.324v3.118h1.319c.312 0 .444.228.444.516s-.132.528-.444.528h-1.315v5.193c0 .348-.288.5-.6.5s-.6-.156-.6-.5v-9.355c0-.347.288-.5.6-.5s.6.153.6.5z" class="cls-2"/>
                <path id="패스_253219" d="M1553.987 440.541c.025.264-.083.516-.359.54-.852.072-1.763.132-2.723.18v2.839a.521.521 0 0 1-.588.5.531.531 0 0 1-.6-.5v-2.8c-.852.024-1.715.036-2.6.036-.287 0-.42-.24-.42-.516s.133-.492.42-.492c2.123 0 4.2-.036 6.417-.228.286-.027.442.153.453.441zm-.839-3.454c0 1.331-.96 2.3-2.866 2.3s-2.867-.972-2.867-2.3.96-2.3 2.867-2.3 2.866.969 2.866 2.3zm-4.593 0c0 .756.551 1.307 1.727 1.307s1.727-.551 1.727-1.307-.552-1.307-1.727-1.307-1.727.552-1.727 1.307zm7.256-2.219v9.355c0 .348-.289.5-.6.5a.521.521 0 0 1-.588-.5v-9.355a.522.522 0 0 1 .588-.5c.311-.004.6.153.6.5z" class="cls-2"/>
            </g>
            <g id="그룹_4742">
                <g id="그룹_4741">
                    <path id="패스_253220" d="M1763.922 435.576v7.624c0 .347-.276.5-.6.5s-.6-.157-.6-.5v-6.729l-1.8 1.1a.536.536 0 0 1-.755-.24.521.521 0 0 1 .18-.732l2.146-1.283a1.652 1.652 0 0 1 .8-.264c.365.008.629.164.629.524z" class="cls-7"/>
                    <path id="패스_253221" d="M1772.261 439.09v.588c0 2.65-.912 4.1-3.071 4.1s-3.07-1.451-3.07-4.1v-.588c0-2.651.911-4.1 3.07-4.1s3.071 1.449 3.071 4.1zm-4.93.1v.4c0 2.134.443 3.07 1.859 3.07s1.859-.936 1.859-3.07v-.4c0-2.135-.444-3.071-1.859-3.071s-1.859.932-1.859 3.067z" class="cls-7"/>
                    <path id="패스_253222" d="M1778.55 437.1v.252a1.972 1.972 0 1 1-3.935 0v-.252a1.972 1.972 0 1 1 3.935 0zm-2.975.048v.156c0 .911.312 1.307 1.008 1.307s1.02-.4 1.02-1.307v-.156c0-.9-.325-1.307-1.02-1.307s-1.008.407-1.008 1.306zm6.477-1.4l-4.726 7.747a.463.463 0 0 1-.636.144.413.413 0 0 1-.168-.612l4.726-7.747a.453.453 0 0 1 .636-.144.41.41 0 0 1 .168.608zm1.883 5.661v.263a1.972 1.972 0 1 1-3.934 0v-.272a1.971 1.971 0 1 1 3.934 0zm-2.975.059v.157c0 .911.312 1.307 1.008 1.307s1.019-.4 1.019-1.307v-.157c0-.911-.324-1.318-1.019-1.318s-1.008.403-1.008 1.314z" class="cls-7"/>
                </g>
            </g>
            <g id="그룹_4744">
                <g id="그룹_4743">
                    <path id="패스_253223" d="M1770.727 482.924l-3.4 4.9h2.9v-2.2a.521.521 0 0 1 .588-.5c.312 0 .6.156.6.5v2.2h.875c.3 0 .408.228.408.492s-.108.492-.408.492h-.875v1.392c0 .347-.288.5-.6.5a.522.522 0 0 1-.588-.5v-1.391h-3.562c-.551 0-.779-.192-.779-.588 0-.156.024-.264.324-.708l3.622-5.217a.52.52 0 0 1 .743-.144.5.5 0 0 1 .152.772z" class="cls-7"/>
                    <path id="패스_253224" d="M1778.55 484.1v.252a1.972 1.972 0 1 1-3.934 0v-.252a1.972 1.972 0 1 1 3.934 0zm-2.975.048v.156c0 .911.313 1.307 1.008 1.307s1.02-.4 1.02-1.307v-.156c0-.9-.325-1.307-1.02-1.307s-1.008.407-1.008 1.306zm6.477-1.4l-4.725 7.747a.463.463 0 0 1-.636.144.412.412 0 0 1-.168-.612l4.726-7.747a.452.452 0 0 1 .635-.144.41.41 0 0 1 .168.608zm1.884 5.661v.263a1.972 1.972 0 1 1-3.935 0v-.272a1.972 1.972 0 1 1 3.935 0zm-2.975.059v.157c0 .911.311 1.307 1.007 1.307s1.019-.4 1.019-1.307v-.157c0-.911-.323-1.318-1.019-1.318s-1.007.403-1.007 1.314z" class="cls-7"/>
                </g>
            </g>
            <g id="그룹_4746">
                <g id="그룹_4745">
                    <path id="패스_253225" d="M1765.444 532.61v.348c0 3.814-1.295 4.821-3.334 4.821a3.856 3.856 0 0 1-1.894-.431.518.518 0 0 1-.229-.72.5.5 0 0 1 .708-.264 3.394 3.394 0 0 0 1.488.324c1.331 0 1.991-.792 2.075-2.962a2.5 2.5 0 0 1-2.087.983 2.532 2.532 0 0 1-2.7-2.723v-.2a2.735 2.735 0 0 1 2.963-2.8c1.979.002 3.01 1.285 3.01 3.624zm-4.785-.792v.1a1.547 1.547 0 0 0 1.751 1.738 1.63 1.63 0 0 0 1.8-1.667v-.1a1.642 1.642 0 0 0-1.751-1.811 1.613 1.613 0 0 0-1.8 1.74z" class="cls-7"/>
                    <path id="패스_253226" d="M1770.726 529.924l-3.395 4.9h2.9v-2.2a.521.521 0 0 1 .588-.5c.312 0 .6.156.6.5v2.2h.875c.3 0 .408.228.408.492s-.108.492-.408.492h-.875v1.392c0 .347-.288.5-.6.5a.522.522 0 0 1-.588-.5v-1.391h-3.562c-.551 0-.779-.192-.779-.588 0-.156.024-.264.324-.708l3.622-5.217a.52.52 0 0 1 .743-.144.5.5 0 0 1 .147.772z" class="cls-7"/>
                    <path id="패스_253227" d="M1778.55 531.1v.252a1.972 1.972 0 1 1-3.935 0v-.252a1.972 1.972 0 1 1 3.935 0zm-2.975.048v.156c0 .911.312 1.307 1.008 1.307s1.02-.4 1.02-1.307v-.156c0-.9-.325-1.307-1.02-1.307s-1.008.407-1.008 1.306zm6.477-1.4l-4.726 7.747a.463.463 0 0 1-.636.144.413.413 0 0 1-.168-.612l4.726-7.747a.453.453 0 0 1 .636-.144.41.41 0 0 1 .168.608zm1.883 5.661v.263a1.972 1.972 0 1 1-3.934 0v-.263a1.971 1.971 0 1 1 3.934 0zm-2.975.059v.157c0 .911.312 1.307 1.008 1.307s1.019-.4 1.019-1.307v-.157c0-.911-.324-1.318-1.019-1.318s-1.008.403-1.008 1.314z" class="cls-7"/>
                </g>
            </g>
            <rect id="사각형_801" width="250" height="12" class="cls-3" rx="6" transform="translate(1535.615 454.782)"/>
            <rect id="사각형_802" width="49.78" height="12" fill="#da478f" rx="6" transform="translate(1535.7 454.782)"/>
            <rect id="사각형_803" width="19.83" height="12" class="cls-9" rx="6" transform="translate(1536.17 501.574)"/>
        </g>
        <path id="패스_253228" d="M1732.343 244.552l-2.913 2.913a1.307 1.307 0 0 1-1.848 0l-2.977-2.977a.424.424 0 0 1 .3-.724h7.112a.461.461 0 0 1 .326.788z" class="cls-2" transform="translate(0 2)"/>
        <g id="그룹_4752">
            <g id="그룹_4748">
                <rect id="사각형_804" width="120" height="120" class="cls-3" rx="7.985" transform="translate(1601.903 275.01)"/>
                <path id="패스_253229" d="M1713.918 276.01a6.992 6.992 0 0 1 6.985 6.985v104.03a6.993 6.993 0 0 1-6.985 6.985h-104.03a6.994 6.994 0 0 1-6.985-6.985v-104.03a6.993 6.993 0 0 1 6.985-6.985h104.03m0-1h-104.03a7.985 7.985 0 0 0-7.985 7.985v104.03a7.985 7.985 0 0 0 7.985 7.985h104.03a7.985 7.985 0 0 0 7.985-7.985v-104.03a7.985 7.985 0 0 0-7.985-7.985z" class="cls-9"/>
            </g>
            <path id="패스_253230" d="M1684.5 337.028c0 22.169-20.243 19.883-23.044 20.262a1.08 1.08 0 0 0-.18.011c-17.9-.481-31.188-17.265-31.314-17.425l-.005-.007c-4.168-6.071-.085-8.635-.085-8.635a6.762 6.762 0 0 1 8.277.827 34.849 34.849 0 0 0 4.966 2.484c4.138 1.655 8.277 0 3.316-16.719l-3.759-14.542a5.5 5.5 0 0 1 3.947-6.7 5.5 5.5 0 0 1 6.7 3.948l3.411 15.354a.142.142 0 0 0 .28-.034l-.365-17.573a5.5 5.5 0 0 1 10.989.439l-.705 16.969a.142.142 0 0 0 .28.037l3.385-15.224a5.5 5.5 0 1 1 10.6 2.928l-4.246 17.678a.142.142 0 0 0 .263.1l7.371-13.882a5.5 5.5 0 1 1 9.135 6.123l-7.561 16.132a18.44 18.44 0 0 0-1.656 7.449z" class="cls-9"/>
            <g id="그룹_4751">
                <path id="패스_253231" d="M1721.9 372v22.1a7.9 7.9 0 0 1-7.9 7.9h-104.2a7.9 7.9 0 0 1-7.9-7.9V372z" class="cls-9"/>
                <g id="그룹_4750">
                    <g id="그룹_4749">
                        <path id="패스_253232" d="M1627.073 380.018a3.57 3.57 0 1 1-3.6 3.57 3.317 3.317 0 0 1 3.6-3.57zm0 1.6c-1.29 0-1.77.885-1.77 1.965s.48 1.965 1.77 1.965 1.771-.886 1.771-1.965-.481-1.96-1.771-1.96zm-.315 11.519c-.959 0-1.275-.3-1.275-1.245v-2.834c0-.556.465-.811.976-.811.494 0 .959.255.959.811v2.1c0 .254.09.344.346.344h6.4c.465 0 .675.375.675.826 0 .434-.21.809-.675.809zm7.756-4.379c0 .554-.466.809-.961.809s-.959-.255-.959-.809v-8.61c0-.555.465-.81.959-.81s.961.255.961.81z" class="cls-3"/>
                        <path id="패스_253233" d="M1641.278 381.818a2.524 2.524 0 0 0 .93 2.1c.66.556 1.23 1.006 1.681 1.335a.78.78 0 0 1 .119 1.156.84.84 0 0 1-1.17.239c-.359-.254-.914-.689-1.5-1.185-.7-.585-.93-.854-1.005-1.154h-.015c-.075.345-.345.674-1.05 1.26-.584.495-1.139.93-1.725 1.349a.843.843 0 0 1-1.17-.239.829.829 0 0 1 .135-1.216c.66-.48 1.23-.929 1.89-1.484a2.527 2.527 0 0 0 .93-2.1v-1.245c0-.57.465-.825.975-.825s.975.255.975.825zm4.17 8.249c0-.254-.091-.344-.344-.344h-6.331c-.464 0-.675-.375-.675-.81s.211-.81.675-.81h7.32c.96 0 1.275.3 1.275 1.245v3.284c0 .556-.466.81-.96.81s-.96-.254-.96-.81zm1.92-3.329c0 .554-.466.809-.96.809s-.96-.255-.96-.809v-6.585c0-.555.465-.81.96-.81s.96.255.96.81z" class="cls-3"/>
                        <path id="패스_253234" d="M1652.993 381.578c-.466 0-.675-.375-.675-.81s.209-.81.675-.81h4.335c.959 0 1.275.3 1.275 1.245v.93c0 2.1-.585 2.534-5.205 4.605a.852.852 0 0 1-1.11-.48.818.818 0 0 1 .345-1.14c4.035-1.77 4.064-1.92 4.064-3.045v-.15c0-.255-.09-.345-.343-.345zm8.054 7.889c.256 0 .346-.09.346-.344v-.21c0-.255-.09-.346-.346-.346h-6.238c-.436 0-.631-.359-.631-.764s.2-.75.631-.75h7.183c.961 0 1.276.3 1.276 1.244v1.38c0 .946-.315 1.245-1.276 1.245h-5.564c-.255 0-.345.09-.345.346v.21c0 .254.09.344.345.344h6.51c.435 0 .629.36.629.765s-.194.75-.629.75h-7.456c-.959 0-1.274-.3-1.274-1.245v-1.38c0-.944.315-1.245 1.274-1.245zm-1.26-6.719c-.449 0-.629-.36-.629-.795s.18-.8.629-.8h1.59v-1a.957.957 0 0 1 1.891 0v5.535a.957.957 0 0 1-1.891 0v-.436h-1.709c-.45 0-.631-.359-.631-.794s.181-.8.631-.8h1.709v-.915z" class="cls-3"/>
                        <path id="패스_253235" d="M1665.173 390.083c-.465 0-.675-.375-.675-.811s.21-.81.675-.81c.569 0 1.14.016 1.725 0v-3.224a.956.956 0 0 1 1.889 0v3.2c1.231-.031 2.461-.091 3.66-.2.465-.045.691.285.721.721.029.419-.135.824-.586.87-1.934.164-4.682.254-7.409.254zm.69-8.01c-.465 0-.675-.375-.675-.825s.21-.825.675-.825h5.235c.96 0 1.275.3 1.275 1.245v1.14a15.164 15.164 0 0 1-.375 3.555.9.9 0 0 1-1.141.554.766.766 0 0 1-.705-.944 15.064 15.064 0 0 0 .316-3.06v-.495c0-.255-.09-.345-.345-.345zm9.78 2.145h1.214c.481 0 .69.375.69.824 0 .466-.209.841-.69.841h-1.214v5.774c0 .54-.451.795-.946.795s-.945-.255-.945-.795v-11.519c0-.54.451-.8.945-.8s.946.255.946.8z" class="cls-3"/>
                        <path id="패스_253236" d="M1683.683 383.2a1.185 1.185 0 1 1-1.185-1.185 1.16 1.16 0 0 1 1.185 1.185zm0 5.849a1.185 1.185 0 1 1-1.185-1.185 1.16 1.16 0 0 1 1.185 1.183z" class="cls-3"/>
                        <path id="패스_253237" d="M1688.438 391.222c-.465 0-.675-.375-.675-.809s.21-.81.675-.81h4.709v-2.385h-2.489c-.961 0-1.275-.3-1.275-1.245v-5.19a.974.974 0 0 1 1.92 0v1.455h5.609v-1.455a.974.974 0 0 1 1.92 0v5.19c0 .944-.314 1.245-1.275 1.245h-2.49v2.382h4.71c.465 0 .675.375.675.81s-.21.809-.675.809zm8.129-5.609c.255 0 .345-.091.345-.345v-1.425h-5.612v1.425c0 .254.09.345.344.345z" class="cls-3"/>
                    </g>
                </g>
            </g>
        </g>
    </g>
</svg>
