<svg xmlns="http://www.w3.org/2000/svg" width="305.458" height="425.5" viewBox="0 0 305.458 425.5">
    <defs>
        <style>
            .cls-1{fill:#ededfc}.cls-2{fill:none}.cls-3{fill:#fff}.cls-4{fill:#ddd}.cls-5{fill:#666}.cls-6{fill:#999}.cls-7{fill:#babdfd;stroke:transparent}.cls-8{fill:#434dfe;opacity:.3}.cls-11{fill:#ccc;opacity:.5}
        </style>
    </defs>
    <g id="_1_단계" transform="translate(-5699 -2670)">
        <g id="그룹_4712" transform="translate(4942.479 2460.479)">
            <g id="그룹_4705" transform="translate(756.521 209.521)">
                <rect id="사각형_772" width="304.494" height="136.036" class="cls-1" rx="12.691"/>
                <path id="패스_252985" d="M1048.723 346.521H769.777a13.254 13.254 0 0 1-13.256-13.221V222.742a13.254 13.254 0 0 1 13.256-13.221h278.947a13.254 13.254 0 0 1 13.256 13.221V333.3a13.254 13.254 0 0 1-13.257 13.221zM769.777 210.483a12.29 12.29 0 0 0-12.292 12.26V333.3a12.29 12.29 0 0 0 12.292 12.259h278.947a12.29 12.29 0 0 0 12.291-12.259V222.742a12.29 12.29 0 0 0-12.291-12.26z" class="cls-2" transform="translate(-756.521 -209.521)"/>
            </g>
            <g id="그룹_4706" transform="translate(772.815 224.946)">
                <path id="패스_252986" d="M929.737 245.477h-152a4.29 4.29 0 0 1-4.526-4.007v-12.118c0-2.212 2.026-4.007 5.532-4.007h152a4.131 4.131 0 0 1 3.519 4.007v12.118a4.29 4.29 0 0 1-4.525 4.007z" class="cls-3" transform="translate(-772.705 -224.842)"/>
                <path id="패스_252987" d="M929.74 245.983h-152a4.8 4.8 0 0 1-5.029-4.511v-12.116c0-2.655 2.482-4.511 6.035-4.511h152c1.811 0 4.022 2.082 4.022 4.511v12.117a4.8 4.8 0 0 1-5.028 4.51zm-151-20.132c-3.008 0-5.029 1.408-5.029 3.5v12.117a3.794 3.794 0 0 0 4.022 3.5h152a3.794 3.794 0 0 0 4.022-3.5v-12.112a3.666 3.666 0 0 0-3.016-3.5z" class="cls-4" transform="translate(-772.708 -224.845)"/>
            </g>
            <g id="그룹_4707" transform="translate(781.962 231.377)">
                <path id="패스_252988" d="M785.289 231.989c.584 0 .774.181.774.755v1.116c0 1.68-.493 2.234-3.561 4.125a.466.466 0 0 1-.613-.171.448.448 0 0 1 .081-.633c2.826-1.731 3.088-2.064 3.088-3.361v-.754c0-.151-.05-.2-.211-.2h-2.595c-.252 0-.362-.2-.362-.433s.111-.443.362-.443zm3.42-.272v2.616h1.106c.262 0 .372.191.372.433s-.111.443-.372.443h-1.106v4.355c0 .292-.242.423-.5.423s-.5-.131-.5-.423v-7.847c0-.292.241-.423.5-.423s.5.131.5.423z" class="cls-5" transform="translate(-781.795 -231.294)"/>
                <path id="패스_252989" d="M796.364 236.476c.02.221-.07.433-.3.453-.714.06-1.479.11-2.283.151v2.384a.437.437 0 0 1-.493.423.446.446 0 0 1-.5-.423v-2.354c-.714.02-1.438.031-2.183.031-.242 0-.351-.2-.351-.433s.11-.413.351-.413c1.781 0 3.522-.03 5.382-.191.236-.021.367.13.377.372zm-.7-2.9c0 1.117-.805 1.932-2.4 1.932s-2.4-.814-2.4-1.932.805-1.931 2.4-1.931 2.396.817 2.396 1.933zm-3.853 0c0 .634.462 1.1 1.449 1.1s1.448-.463 1.448-1.1-.463-1.1-1.448-1.1-1.453.469-1.453 1.102zm6.086-1.861v7.847c0 .292-.241.423-.5.423a.437.437 0 0 1-.493-.423v-7.847a.437.437 0 0 1 .493-.423c.255.002.496.133.496.425z" class="cls-5" transform="translate(-781.74 -231.294)"/>
            </g>
            <g id="그룹_4708" transform="translate(774.677 256.212)">
                <path id="패스_252990" d="M783.008 260.4c0 .241-.111.422-.351.422h-7.747c-.242 0-.352-.181-.352-.422s.111-.413.352-.413h5.624a6.564 6.564 0 0 0 .191-1.047l-4.83.091c-.221 0-.332-.181-.342-.392-.01-.242.1-.433.332-.433l4.889-.05c.011-.111.011-.221.011-.342v-.382c0-.151-.051-.211-.211-.211h-4.507c-.242 0-.342-.191-.342-.412s.1-.423.342-.423H781c.584 0 .775.181.775.754v.6a8.722 8.722 0 0 1-.282 2.244h1.168c.239.003.347.184.347.416zm-1.922 1.217c.584 0 .775.181.775.755v.784c0 .574-.191.755-.775.755h-4.256c-.11 0-.16.04-.16.151v.442c0 .112.05.151.16.151h4.92a.351.351 0 0 1 .332.393c0 .211-.111.4-.332.4h-5.28c-.584 0-.775-.181-.775-.755v-.784c0-.574.191-.755.775-.755h4.256c.11 0 .16-.05.16-.151v-.443c0-.1-.05-.15-.16-.15H776c-.221 0-.322-.191-.322-.4s.1-.393.322-.393z" class="cls-6" transform="translate(-774.558 -256.053)"/>
                <path id="패스_252991" d="M786.929 257.593v1.8c0 .574-.191.755-.775.755h-1.569c-.161 0-.211.05-.211.2v1.267c0 .151.05.2.211.2a19.814 19.814 0 0 0 2.555-.151.351.351 0 0 1 .393.362c.03.241-.06.452-.281.492a22.584 22.584 0 0 1-3.079.162c-.584 0-.775-.182-.775-.755v-1.861c0-.574.191-.745.775-.745h1.579c.151 0 .211-.06.211-.211v-1.207c0-.151-.06-.2-.211-.2h-2c-.251 0-.352-.2-.352-.433s.1-.433.352-.433h2.4c.586.004.777.186.777.758zm4.071-1.045v7.907c0 .272-.231.393-.473.393a.411.411 0 0 1-.462-.393V260.1h-1.076v3.933c0 .272-.232.394-.473.394a.412.412 0 0 1-.463-.394v-7.383a.411.411 0 0 1 .463-.393c.242 0 .473.121.473.393v2.6h1.076v-2.7a.411.411 0 0 1 .462-.393c.245-.002.473.119.473.391z" class="cls-6" transform="translate(-774.5 -256.054)"/>
                <path id="패스_252992" d="M800.148 263.537c0 .232-.111.433-.352.433h-7.747c-.241 0-.352-.2-.352-.433s.112-.433.352-.433h7.751c.238-.004.348.196.348.433zm-3.712-6.53v.584a1.868 1.868 0 0 0 .985 1.811c.6.393 1.238.755 1.891 1.126a.435.435 0 0 1 .091.594.454.454 0 0 1-.593.2c-.634-.352-1.288-.734-1.851-1.106-.674-.433-.966-.775-1.027-1.027h-.01c-.07.272-.362.614-1.036 1.047-.564.361-1.207.754-1.851 1.106a.458.458 0 0 1-.594-.2.448.448 0 0 1 .091-.614c.654-.371 1.287-.734 1.891-1.126a1.866 1.866 0 0 0 .985-1.811v-.584c0-.3.242-.432.513-.432s.515.131.515.432z" class="cls-6" transform="translate(-774.445 -256.052)"/>
                <path id="패스_252993" d="M806.953 257.08c0 .232-.111.433-.352.433h-2.777c-.15 0-.21.05-.21.2v2.113c0 .161.06.211.21.211a26.822 26.822 0 0 0 3.522-.211.354.354 0 0 1 .4.362c.031.242-.06.463-.281.483a29.256 29.256 0 0 1-4.085.22c-.584 0-.775-.18-.775-.754V257.4c0-.573.191-.754.775-.754h3.22c.243.002.353.204.353.434zm2.485 6.58c0 1.257-1.057 1.9-2.878 1.9s-2.877-.644-2.877-1.9 1.056-1.9 2.877-1.9 2.879.64 2.879 1.9zm-4.759 0c0 .664.554 1.086 1.881 1.086s1.881-.422 1.881-1.086-.564-1.087-1.881-1.087-1.88.427-1.88 1.087zm4.709-7.082v1.8h1.106c.262 0 .372.2.372.432 0 .252-.111.443-.372.443h-1.106v2c0 .282-.242.413-.5.413s-.5-.131-.5-.413v-4.678c0-.292.242-.423.5-.423s.5.134.5.426z" class="cls-6" transform="translate(-774.373 -256.054)"/>
                <path id="패스_252994" d="M819.584 257.217c0 .242-.1.433-.352.433h-2.727l-.121 2.224a2.388 2.388 0 0 1 1.449-.463 2.064 2.064 0 0 1 2.174 2.193v.111a2.276 2.276 0 0 1-2.526 2.333 3.858 3.858 0 0 1-2.173-.583.456.456 0 0 1-.131-.654.406.406 0 0 1 .614-.15 3.015 3.015 0 0 0 1.68.472A1.36 1.36 0 0 0 819 261.7v-.07a1.286 1.286 0 0 0-1.459-1.4 1.912 1.912 0 0 0-1.278.473.633.633 0 0 1-.462.191c-.252 0-.433-.132-.423-.353l.171-2.988c.04-.614.191-.774.774-.774h2.908c.253.006.353.206.353.438z" class="cls-6" transform="translate(-774.291 -256.05)"/>
                <path id="패스_252995" d="M823.354 256.909c.584 0 .775.181.775.755v1.066c0 1.832-.262 2.134-2.947 4.034a.486.486 0 0 1-.574-.774c2.415-1.66 2.556-1.841 2.556-3.3v-.7c0-.151-.061-.2-.211-.2h-2.043c-.252 0-.362-.2-.362-.433s.111-.443.362-.443zm4.84-.361v7.907c0 .272-.232.393-.473.393a.411.411 0 0 1-.463-.393V260.1h-1.136v3.933c0 .272-.232.394-.473.394a.412.412 0 0 1-.463-.394v-7.383a.411.411 0 0 1 .463-.393c.242 0 .473.121.473.393v2.6h1.136v-2.7a.411.411 0 0 1 .463-.393c.241-.002.473.119.473.391z" class="cls-6" transform="translate(-774.255 -256.054)"/>
                <path id="패스_252996" d="M835.926 259.676c0 1.952-.805 3.009-2.365 3.009s-2.354-1.057-2.354-3.009.8-3.008 2.354-3.008 2.365 1.056 2.365 3.008zm-3.744 0c0 1.368.393 2.123 1.379 2.123s1.388-.755 1.388-2.123-.393-2.123-1.388-2.123-1.379.755-1.379 2.123zm6.258-3.1v7.847c0 .291-.242.422-.513.422-.252 0-.5-.131-.5-.422v-7.847a.445.445 0 0 1 .5-.423c.273.002.513.133.513.425z" class="cls-6" transform="translate(-774.185 -256.054)"/>
                <path id="패스_252997" d="M842.686 256.88v.925a1.75 1.75 0 0 0 .664 1.479c.472.393.895.715 1.227.956a.417.417 0 0 1 .07.613.426.426 0 0 1-.614.121c-.272-.191-.684-.5-1.106-.855-.5-.4-.683-.654-.735-.856h-.009c-.051.221-.262.493-.755.9-.423.351-.835.673-1.257.975a.454.454 0 0 1-.624-.121.446.446 0 0 1 .081-.643c.473-.342.9-.664 1.368-1.057a1.756 1.756 0 0 0 .664-1.489v-.945c0-.293.252-.423.512-.423s.514.127.514.42zm3.944 6.78c0 1.257-1.056 1.9-2.877 1.9s-2.878-.644-2.878-1.9 1.057-1.9 2.878-1.9 2.877.64 2.877 1.9zm-4.759 0c0 .664.554 1.086 1.882 1.086s1.881-.422 1.881-1.086-.564-1.087-1.881-1.087-1.882.427-1.882 1.087zm4.709-7.082v1.8h1.106c.262 0 .372.2.372.432 0 .252-.111.443-.372.443h-1.106v2c0 .282-.242.413-.5.413s-.5-.131-.5-.413v-4.678c0-.292.241-.423.5-.423s.5.134.5.426z" class="cls-6" transform="translate(-774.13 -256.054)"/>
                <path id="패스_252998" d="M854.233 262.593c.02.232-.069.443-.3.463-1.611.151-3.492.211-5.464.211-.241 0-.351-.2-.351-.432s.111-.434.351-.434c1.781 0 3.532-.02 5.393-.19.23-.019.362.142.371.382zm-.7-3.721a2.448 2.448 0 1 1-2.435-2.193 2.156 2.156 0 0 1 2.431 2.193zm-3.914 0a1.485 1.485 0 1 0 1.479-1.349 1.309 1.309 0 0 0-1.482 1.349zm6.146-2.294v7.847c0 .291-.241.422-.5.422a.437.437 0 0 1-.493-.422v-7.847a.437.437 0 0 1 .493-.423c.257 0 .497.131.497.423z" class="cls-6" transform="translate(-774.073 -256.054)"/>
                <path id="패스_252999" d="M862.56 257.332c0 .232-.111.423-.362.423h-2.173c-.151 0-.211.06-.211.211v3.5c0 .151.06.211.211.211a19.585 19.585 0 0 0 2.524-.161c.222-.03.373.131.394.372s-.061.453-.282.492a22.794 22.794 0 0 1-3.079.161c-.583 0-.774-.18-.774-.754v-4.145c0-.574.191-.754.774-.754h2.618c.249.002.36.202.36.444zm2.041-.684v7.383a.411.411 0 0 1-.462.394c-.242 0-.473-.122-.473-.394v-3.993H862.2c-.242 0-.352-.2-.352-.433s.111-.433.352-.433h1.469v-2.525c0-.272.232-.393.473-.393a.411.411 0 0 1 .458.394zm1.811-.1v7.907c0 .272-.231.393-.472.393a.411.411 0 0 1-.463-.393v-7.907a.411.411 0 0 1 .463-.393c.241 0 .472.121.472.393z" class="cls-6" transform="translate(-774.003 -256.054)"/>
                <path id="패스_253000" d="M872.175 259.676c0 1.952-.805 3.009-2.364 3.009s-2.353-1.057-2.353-3.009.794-3.008 2.353-3.008 2.364 1.056 2.364 3.008zm-3.742 0c0 1.368.393 2.123 1.378 2.123s1.388-.755 1.388-2.123-.392-2.123-1.388-2.123-1.379.755-1.379 2.123zm6.258-3.1v7.847c0 .291-.242.422-.513.422-.252 0-.5-.131-.5-.422v-7.847a.446.446 0 0 1 .5-.423c.271.002.512.133.512.425z" class="cls-6" transform="translate(-773.946 -256.054)"/>
                <path id="패스_253001" d="M880.533 257.212c0 .231-.111.432-.352.432h-2.786c-.161 0-.211.05-.211.2v1.418h2.595c.242 0 .352.181.352.413s-.111.423-.352.423h-2.595v1.459c0 .151.05.2.211.2a25.233 25.233 0 0 0 3.531-.211c.232-.03.382.131.4.372s-.06.453-.281.482a29.021 29.021 0 0 1-4.085.222c-.584 0-.775-.182-.775-.755v-4.336c0-.573.191-.755.775-.755h3.219c.243.002.354.204.354.436zm2.786-.634v7.847c0 .291-.242.422-.5.422a.436.436 0 0 1-.492-.422v-4.4h-1.309c-.251 0-.361-.191-.361-.433s.111-.433.361-.433h1.309v-2.585a.436.436 0 0 1 .492-.423c.258.004.5.135.5.427z" class="cls-6" transform="translate(-773.888 -256.054)"/>
                <path id="패스_253002" d="M892.7 260.9c0 .22-.111.392-.342.392h-7.767c-.232 0-.342-.171-.342-.392s.111-.4.342-.4h7.767c.229 0 .342.171.342.4zm-1.148 1.77v.634c0 .574-.191.755-.774.755h-4.268c-.111 0-.161.04-.161.151v.331c0 .111.05.151.161.151h4.93a.347.347 0 0 1 .331.382c0 .211-.111.393-.331.393h-5.283c-.584 0-.775-.181-.775-.755v-.643c0-.574.191-.755.775-.755h4.266c.1 0 .151-.04.151-.151v-.322c0-.111-.05-.16-.151-.16h-4.739c-.22 0-.322-.182-.322-.383s.1-.383.322-.383h5.091c.584.004.775.185.775.758zm-.06-5.594v.644c0 .564-.191.745-.774.745h-4.148c-.111 0-.161.049-.161.161v.331c0 .1.05.151.161.151h4.819c.221 0 .322.181.322.383s-.1.383-.322.383h-5.171c-.584 0-.774-.171-.774-.745v-.643c0-.574.19-.755.774-.755h4.145a.14.14 0 0 0 .161-.161v-.322c0-.1-.05-.151-.161-.151h-4.618c-.22 0-.321-.18-.321-.382s.1-.393.321-.393h4.971c.584.003.773.184.773.757z" class="cls-6" transform="translate(-773.835 -256.053)"/>
                <path id="패스_253003" d="M898.016 256.478v.633h1.8c.241 0 .351.2.351.433s-.111.423-.351.423h-4.709c-.242 0-.352-.2-.352-.423s.111-.433.352-.433h1.9v-.633a.446.446 0 0 1 .5-.423c.268 0 .509.131.509.423zm1.64 3.612c0 .985-.805 1.61-2.143 1.61s-2.143-.624-2.143-1.61.805-1.61 2.143-1.61 2.143.62 2.143 1.609zm2.284 3.068v1.932c0 .292-.243.423-.5.423a.437.437 0 0 1-.493-.423v-1.63c0-.151-.06-.2-.211-.2h-4.387c-.252 0-.361-.2-.361-.422s.11-.434.361-.434h4.82c.58-.004.771.181.771.754zm-5.664-3.068c0 .482.432.824 1.237.824s1.237-.342 1.237-.824-.423-.825-1.237-.825-1.237.341-1.237.824zm5.664-3.511v1.941h1.116c.251 0 .362.2.362.434s-.112.442-.362.442h-1.116v2.153c0 .282-.243.413-.5.413s-.493-.131-.493-.413v-4.97a.437.437 0 0 1 .493-.423c.26 0 .5.131.5.422z" class="cls-6" transform="translate(-773.766 -256.055)"/>
                <path id="패스_253004" d="M911.806 260.912c0 .232-.11.423-.351.423h-7.747c-.242 0-.352-.191-.352-.423s.111-.423.352-.423h7.747c.245.001.351.183.351.423zm-3.712-4.194v.331c0 .554.3.886 1.007 1.2.654.291 1.2.513 1.791.745a.454.454 0 0 1-.372.814c-.533-.2-1.126-.443-1.67-.683-.895-.383-1.2-.684-1.257-.926h-.01c-.07.272-.362.564-1.257.946-.554.241-1.117.472-1.661.683a.467.467 0 0 1-.392-.834c.593-.232 1.136-.454 1.791-.745.7-.312 1.006-.644 1.006-1.2v-.331c0-.3.242-.433.513-.433s.511.131.511.433zm-2.615 5.644v.633h4.206v-.633a.432.432 0 0 1 .483-.413c.251 0 .5.131.5.413v2.3c0 .574-.191.755-.774.755h-4.628c-.584 0-.764-.181-.764-.755v-2.3a.431.431 0 0 1 .482-.413c.253 0 .495.131.495.413zm.161 2.243h3.883c.111 0 .161-.04.161-.151v-.663h-4.206v.663c.001.11.051.146.162.146z" class="cls-6" transform="translate(-773.709 -256.053)"/>
                <path id="패스_253005" d="M915.4 257.041v1.518a2.518 2.518 0 0 0 .815 1.983c.4.432.814.834 1.157 1.157a.427.427 0 0 1-.02.624.455.455 0 0 1-.624.05c-.312-.292-.653-.634-1.036-1.037-.584-.6-.754-.866-.794-1.086h-.011c-.05.241-.211.5-.794 1.106-.383.4-.745.755-1.178 1.158a.477.477 0 0 1-.633-.7c.453-.423.885-.836 1.287-1.267a2.541 2.541 0 0 0 .8-1.983v-1.518c0-.292.252-.423.513-.423s.518.126.518.418zm4.115-.463v7.847c0 .291-.242.422-.513.422-.252 0-.5-.131-.5-.422v-7.847a.446.446 0 0 1 .5-.423c.267 0 .508.131.508.423z" class="cls-6" transform="translate(-773.651 -256.054)"/>
                <path id="패스_253006" d="M925.121 257.583v1.288c0 1.87-.432 2.323-3.471 4.094a.449.449 0 0 1-.6-.171.444.444 0 0 1 .111-.633c2.143-1.218 2.747-1.64 2.918-2.354l-2.867.171c-.243.02-.362-.171-.383-.413-.011-.211.081-.442.331-.453l2.989-.14v-1.067c0-.161-.06-.211-.211-.211h-2.505c-.252 0-.362-.2-.362-.433s.111-.432.362-.432h2.918c.579 0 .77.181.77.754zm3.019-1.006v7.847c0 .291-.242.422-.5.422a.442.442 0 0 1-.493-.422v-3.18h-1.237c-.252 0-.352-.2-.352-.433s.1-.432.352-.432h1.237v-1.369h-1.2c-.252 0-.352-.2-.352-.433s.1-.432.352-.432h1.2v-1.569a.442.442 0 0 1 .493-.423c.26.002.5.133.5.425z" class="cls-6" transform="translate(-773.594 -256.054)"/>
                <path id="패스_253007" d="M933.914 259.676c0 1.952-.805 3-2.354 3s-2.344-1.046-2.344-3 .8-3 2.344-3 2.354 1.048 2.354 3zm-3.722 0c0 1.368.393 2.113 1.368 2.113s1.379-.745 1.379-2.113-.393-2.113-1.379-2.113-1.369.745-1.369 2.113zm6.026-3.1v1.469h1.036c.242 0 .352.191.352.433s-.111.433-.352.433h-1.036v1.428h1.036c.242 0 .352.19.352.432s-.111.433-.352.433h-1.036v3.22c0 .291-.242.422-.5.422s-.5-.131-.5-.422v-7.847c0-.292.242-.423.5-.423s.5.132.5.424z" class="cls-6" transform="translate(-773.539 -256.054)"/>
                <path id="패스_253008" d="M942.855 256.558v.865h1.811c.242 0 .352.191.352.423s-.111.433-.352.433h-4.739c-.241 0-.351-.2-.351-.433s.111-.423.351-.423h1.922v-.865a.446.446 0 0 1 .5-.423c.265 0 .506.131.506.423zm1.66 4.355a2.171 2.171 0 1 1-2.163-1.981 1.944 1.944 0 0 1 2.163 1.981zm-3.41 0a1.25 1.25 0 1 0 1.247-1.167 1.138 1.138 0 0 0-1.247 1.167zm5.654-4.335v2.716h1.106c.262 0 .372.191.372.433s-.111.443-.372.443h-1.106v4.256c0 .291-.242.422-.5.422a.437.437 0 0 1-.493-.422v-7.847a.437.437 0 0 1 .493-.423c.258-.001.5.13.5.422z" class="cls-6" transform="translate(-773.47 -256.054)"/>
                <path id="패스_253009" d="M952.881 257.583v4.185c0 .574-.191.754-.775.754h-2.686c-.584 0-.775-.18-.775-.754v-4.185c0-.574.191-.754.775-.754h2.686c.584 0 .775.181.775.754zm-3.249.312v3.561c0 .151.06.2.21.2h1.842c.16 0 .211-.05.211-.2V257.9c0-.151-.051-.2-.211-.2h-1.842c-.15-.006-.211.044-.211.2zm6.186-1.318v7.847c0 .291-.242.422-.5.422a.442.442 0 0 1-.492-.422v-3.22h-1.146c-.242 0-.353-.191-.353-.433s.112-.422.353-.422h1.146V259h-1.146c-.242 0-.353-.191-.353-.432s.112-.423.353-.423h1.146v-1.569a.442.442 0 0 1 .492-.423c.258.002.5.133.5.425z" class="cls-6" transform="translate(-773.411 -256.054)"/>
                <path id="패스_253010" d="M958.2 263.585l-.5 1.509a.423.423 0 0 1-.513.3.345.345 0 0 1-.312-.423l.262-1.62a.533.533 0 0 1 .674-.4.454.454 0 0 1 .389.634z" class="cls-6" transform="translate(-773.357 -256.01)"/>
                <path id="패스_253011" d="M968.319 256.578v4.135a.437.437 0 0 1-.493.422c-.262 0-.5-.131-.5-.422v-1.6h-1.77a2.159 2.159 0 1 1 .01-.855h1.759v-1.68c0-.292.242-.423.5-.423a.437.437 0 0 1 .494.423zm-6.388 2.1a1.348 1.348 0 1 0 1.348-1.339 1.223 1.223 0 0 0-1.348 1.342zm1.459 3.3v.845h3.944v-.845a.431.431 0 0 1 .482-.413c.262 0 .5.131.5.413v2.645c0 .574-.19.755-.774.755h-4.367c-.584 0-.774-.181-.774-.755v-2.643a.432.432 0 0 1 .483-.413c.254 0 .506.133.506.413zm0 2.365c0 .15.05.21.211.21h3.521c.151 0 .211-.06.211-.21v-.715h-3.943z" class="cls-6" transform="translate(-773.329 -256.054)"/>
                <path id="패스_253012" d="M976.509 257.429v1.338c0 .564-.191.745-.775.745h-4.114c-.151 0-.21.06-.21.211v.755c0 .151.059.2.21.2h4.759c.241 0 .352.2.352.433s-.112.423-.352.423h-2.4v1.579h3.37c.242 0 .352.191.352.423s-.111.433-.352.433H969.6c-.243 0-.353-.2-.353-.433s.111-.423.353-.423h3.369v-1.579H971.2c-.584 0-.775-.181-.775-.755v-1.338c0-.573.191-.744.775-.744h4.114c.152 0 .212-.06.212-.211v-.745c0-.151-.06-.211-.212-.211h-4.557c-.242 0-.351-.191-.351-.423s.11-.432.351-.432h4.98c.58 0 .772.18.772.754z" class="cls-6" transform="translate(-773.275 -256.051)"/>
                <path id="패스_253013" d="M986.266 263.535c0 .232-.111.433-.352.433h-7.747c-.241 0-.353-.2-.353-.433s.113-.433.353-.433h7.747c.242-.002.352.192.352.433zm-1.178-6.348c0 .23-.11.432-.352.432h-4.556c-.151 0-.211.05-.211.2v2.314c0 .151.06.211.211.211h4.658c.242 0 .352.191.352.422s-.111.433-.352.433h-5.11c-.583 0-.764-.181-.764-.755v-2.937c0-.573.181-.755.764-.755h5.01c.241.002.351.204.351.436z" class="cls-6" transform="translate(-773.218 -256.05)"/>
                <path id="패스_253014" d="M989.615 256.558v.634h1.8c.241 0 .351.2.351.432s-.111.433-.351.433h-4.709c-.242 0-.352-.2-.352-.433s.111-.432.352-.432h1.9v-.634a.446.446 0 0 1 .5-.423c.268 0 .509.131.509.423zm1.64 3.742c0 1.017-.805 1.681-2.143 1.681s-2.143-.664-2.143-1.681.8-1.679 2.143-1.679 2.143.663 2.143 1.679zm-2.475 2.616v1.319c0 .151.049.2.211.2h4.426c.252 0 .361.2.361.443s-.11.433-.361.433h-4.88c-.583 0-.774-.181-.774-.755v-1.64c0-.291.242-.422.513-.422.252 0 .504.13.504.421zm-.906-2.616c0 .513.433.886 1.238.886s1.236-.372 1.236-.886-.423-.885-1.236-.885-1.238.362-1.238.885zm5.664-3.721v2.263h1.117c.251 0 .362.191.362.433s-.112.433-.362.433h-1.117v2.927c0 .292-.242.423-.5.423a.437.437 0 0 1-.492-.423v-6.056a.437.437 0 0 1 .492-.423c.262-.001.5.13.5.422z" class="cls-6" transform="translate(-773.162 -256.054)"/>
                <path id="패스_253015" d="M1001.994 259.676c0 1.952-.806 3.009-2.365 3.009s-2.353-1.057-2.353-3.009.794-3.008 2.353-3.008 2.365 1.056 2.365 3.008zm-3.743 0c0 1.368.394 2.123 1.378 2.123s1.388-.755 1.388-2.123-.391-2.123-1.388-2.123-1.379.755-1.379 2.123zm6.258-3.1v7.847c0 .291-.242.422-.513.422-.252 0-.5-.131-.5-.422v-7.847a.446.446 0 0 1 .5-.423c.271.002.512.133.512.425z" class="cls-6" transform="translate(-773.09 -256.054)"/>
                <path id="패스_253016" d="M1010.381 257.573v4.206c0 .574-.191.754-.775.754h-2.806c-.583 0-.775-.18-.775-.754v-4.206c0-.573.192-.755.775-.755h2.806c.583 0 .775.182.775.755zm-3.36.312v3.581c0 .151.06.2.211.2h1.941c.152 0 .212-.05.212-.2v-3.581c0-.151-.06-.2-.212-.2h-1.941c-.151-.001-.211.049-.211.2zm6.057-1.308v7.847c0 .291-.242.422-.513.422-.252 0-.5-.131-.5-.422v-7.847a.446.446 0 0 1 .5-.423c.271.001.512.132.512.424z" class="cls-6" transform="translate(-773.033 -256.054)"/>
                <path id="패스_253017" d="M1019.555 257.281c0 .232-.11.433-.351.433h-1.65v.966a2.365 2.365 0 0 0 .775 1.952c.423.432.846.834 1.177 1.116a.426.426 0 0 1-.021.624.432.432 0 0 1-.613.06c-.291-.262-.654-.614-1.066-1.017-.574-.584-.715-.824-.755-1.036h-.01c-.05.232-.18.472-.764 1.056-.4.4-.785.775-1.208 1.147a.449.449 0 0 1-.633-.091.425.425 0 0 1 .02-.624c.462-.413.875-.805 1.3-1.237a2.365 2.365 0 0 0 .775-1.952v-.966h-1.7c-.252 0-.361-.2-.361-.433s.11-.432.361-.432h4.377c.238.003.347.203.347.434zm2.094-.7v7.847c0 .291-.242.422-.513.422-.252 0-.5-.131-.5-.422v-7.847a.446.446 0 0 1 .5-.423c.272-.003.513.128.513.42z" class="cls-6" transform="translate(-772.978 -256.054)"/>
                <path id="패스_253018" d="M1031.084 261.294c0 .232-.11.433-.351.433h-7.747c-.242 0-.351-.2-.351-.433s.11-.423.351-.423h7.747c.242 0 .351.192.351.423zm-6.3 1.62v1.368c0 .151.061.211.211.211h4.759c.242 0 .352.191.352.423s-.111.433-.352.433h-5.212c-.584 0-.765-.181-.765-.754v-1.681c0-.291.243-.422.5-.422s.51.131.51.422zm.02-6.1v1.943c0 .151.061.2.211.2h4.718c.243 0 .353.2.353.433s-.111.423-.353.423h-5.171c-.583 0-.764-.181-.764-.755v-2.244c0-.3.241-.432.5-.432s.509.134.509.435z" class="cls-6" transform="translate(-772.923 -256.053)"/>
                <path id="패스_253019" d="M779.909 273.11c0 .232-.111.423-.352.423h-1.61v.544a1.64 1.64 0 0 0 .663 1.438c.463.382.9.7 1.2.916a.419.419 0 0 1 .081.613.45.45 0 0 1-.624.121c-.221-.161-.634-.472-1.066-.814-.513-.4-.685-.634-.735-.835h-.01c-.05.221-.251.473-.754.886-.443.341-.866.653-1.248.925a.463.463 0 0 1-.534-.755c.463-.331.9-.643 1.369-1.026a1.664 1.664 0 0 0 .654-1.448v-.564h-1.683c-.251 0-.362-.191-.362-.423s.112-.432.362-.432h4.3c.24-.001.349.201.349.431zm2.344 6.55c0 1.257-1.087 1.9-2.948 1.9s-2.947-.644-2.947-1.9 1.086-1.9 2.947-1.9 2.948.64 2.948 1.9zm-4.9 0c0 .664.584 1.086 1.952 1.086s1.952-.422 1.952-1.086-.593-1.087-1.952-1.087-1.952.427-1.952 1.087zm4.85-7.082v4.678c0 .282-.242.413-.493.413s-.5-.131-.5-.413v-1.942h-1.448c-.252 0-.362-.2-.362-.433s.111-.432.362-.432h1.448v-1.871c0-.292.242-.423.5-.423a.437.437 0 0 1 .49.423z" class="cls-6" transform="translate(-774.557 -255.949)"/>
                <path id="패스_253020" d="M786.387 273.05v1.5a2.5 2.5 0 0 0 .805 1.981c.4.433.814.835 1.157 1.158a.425.425 0 0 1-.02.623.454.454 0 0 1-.624.051c-.312-.292-.654-.634-1.036-1.037-.584-.6-.745-.865-.785-1.076h-.01c-.05.241-.2.492-.784 1.1-.383.4-.745.755-1.178 1.157a.477.477 0 0 1-.634-.7c.454-.423.886-.835 1.288-1.268a2.532 2.532 0 0 0 .794-1.981v-1.5c0-.292.252-.422.513-.422s.514.122.514.414zm3.893-.472v2.615h1.106c.262 0 .372.191.372.433s-.111.443-.372.443h-1.106v4.357c0 .291-.242.422-.5.422s-.5-.131-.5-.422v-7.847c0-.292.242-.423.5-.423s.501.13.501.422z" class="cls-6" transform="translate(-774.501 -255.949)"/>
                <path id="패스_253021" d="M795.428 272.668c.584 0 .775.181.775.754v.765c0 1.428-.584 1.831-3.622 3.269a.455.455 0 0 1-.594-.232.431.431 0 0 1 .171-.6c2.787-1.3 3.039-1.559 3.039-2.474v-.4c0-.151-.051-.211-.211-.211h-2.606c-.242 0-.352-.191-.352-.423s.111-.442.352-.442zm2.646 5.362c.584 0 .775.181.775.754v2.3c0 .292-.243.423-.5.423s-.5-.131-.5-.423V279.1c0-.151-.06-.2-.211-.2h-4.376c-.252 0-.362-.2-.362-.433s.111-.432.362-.432zm.775-5.453v1.75h1.106c.262 0 .372.2.372.433 0 .251-.111.442-.372.442h-1.106v1.972c0 .292-.243.423-.5.423s-.5-.131-.5-.423v-4.6c0-.292.242-.423.5-.423s.5.135.5.427z" class="cls-6" transform="translate(-774.444 -255.949)"/>
                <path id="패스_253022" d="M803.577 272.478v.633h1.749c.242 0 .353.2.353.433s-.112.423-.353.423h-4.607c-.242 0-.352-.2-.352-.423s.111-.433.352-.433h1.851v-.633a.446.446 0 0 1 .5-.423c.264 0 .507.131.507.423zm1.589 3.612c0 .985-.785 1.61-2.093 1.61s-2.093-.624-2.093-1.61.784-1.61 2.093-1.61 2.093.62 2.093 1.609zm-3.28 0c0 .482.4.824 1.188.824s1.187-.342 1.187-.824-.4-.825-1.187-.825-1.188.341-1.188.824zm6.077 3.773c0 1.157-1.087 1.7-2.937 1.7s-2.938-.544-2.938-1.7 1.087-1.7 2.938-1.7 2.937.531 2.937 1.699zm-4.879 0c0 .553.584.895 1.942.895s1.942-.342 1.942-.895-.584-.906-1.942-.906-1.942.343-1.942.905zm4.829-7.294v5.11c0 .282-.242.413-.492.413s-.493-.131-.493-.413v-.695h-1.018c-.242 0-.332-.191-.332-.422s.091-.413.332-.413h1.017v-.835h-1.067c-.242 0-.331-.181-.331-.413s.09-.412.331-.412h1.067v-1.922c0-.282.242-.413.493-.413s.492.133.492.414z" class="cls-6" transform="translate(-774.388 -255.95)"/>
                <path id="패스_253023" d="M817.287 279.537c0 .232-.11.433-.351.433h-7.747c-.242 0-.352-.2-.352-.433s.111-.433.352-.433h7.747c.242-.004.351.196.351.433zm-1.126-4.518c0 1.54-1.157 2.465-3.1 2.465s-3.089-.925-3.089-2.465 1.148-2.474 3.089-2.474 3.1.925 3.1 2.474zm-5.181 0c0 .916.643 1.611 2.083 1.611s2.083-.695 2.083-1.611-.644-1.62-2.083-1.62-2.083.695-2.083 1.62z" class="cls-6" transform="translate(-774.332 -255.946)"/>
                <path id="패스_253024" d="M824.672 273.429v1.338c0 .564-.191.745-.775.745h-4.115c-.151 0-.211.06-.211.211v.755c0 .151.06.2.211.2h4.759c.241 0 .351.2.351.433s-.111.423-.351.423h-2.4v1.579h3.37c.242 0 .352.191.352.423s-.111.433-.352.433h-7.747c-.241 0-.352-.2-.352-.433s.112-.423.352-.423h3.37v-1.579h-1.771c-.583 0-.774-.181-.774-.755v-1.338c0-.573.191-.744.774-.744h4.115c.151 0 .211-.06.211-.211v-.745c0-.151-.06-.211-.211-.211h-4.557c-.242 0-.352-.191-.352-.423s.111-.432.352-.432h4.98c.579 0 .771.18.771.754z" class="cls-6" transform="translate(-774.276 -255.945)"/>
                <path id="패스_253025" d="M833.2 273.01c0 .232-.111.423-.352.423h-1.63v.413a1.325 1.325 0 0 0 .634 1.227c.463.342.875.624 1.227.835a.432.432 0 0 1 .111.614.438.438 0 0 1-.614.14c-.292-.18-.673-.442-1.086-.734-.523-.383-.715-.614-.755-.8h-.009c-.051.211-.262.463-.785.835-.433.312-.835.583-1.277.865a.441.441 0 0 1-.594-.16.423.423 0 0 1 .1-.614c.482-.3.925-.6 1.418-.956a1.364 1.364 0 0 0 .624-1.237v-.433h-1.7c-.252 0-.362-.191-.362-.423s.111-.432.362-.432h4.335c.24.005.353.205.353.437zm1.127 4.326c.583 0 .774.181.774.755v.925c0 .574-.191.755-.774.755h-3.793c-.151 0-.211.05-.211.211v.432c0 .151.06.211.211.211h4.456c.232 0 .332.191.332.4s-.1.4-.332.4h-4.87c-.584 0-.775-.181-.775-.755v-.925c0-.574.191-.755.775-.755h3.78c.16 0 .211-.05.211-.211v-.432c0-.151-.051-.2-.211-.2h-4.246c-.232 0-.332-.191-.332-.413s.1-.4.332-.4zm.774-4.758v1.479h1.106c.262 0 .372.2.372.433 0 .252-.111.443-.372.443H835.1v1.549c0 .291-.242.423-.5.423s-.5-.132-.5-.423v-3.9c0-.292.241-.423.5-.423s.5.127.5.419z" class="cls-6" transform="translate(-774.206 -255.949)"/>
                <path id="패스_253026" d="M841.221 273.342v1.208c0 .574-.191.754-.774.754h-2.163c-.151 0-.211.05-.211.211v.674c0 .151.06.2.211.2a26.214 26.214 0 0 0 3.642-.211.351.351 0 0 1 .4.351c.031.231-.059.453-.281.483a30.122 30.122 0 0 1-4.185.221c-.584 0-.775-.181-.775-.754v-1.218c0-.574.191-.754.775-.754h2.163c.151 0 .211-.06.211-.211v-.654c0-.161-.06-.211-.211-.211h-2.605c-.232 0-.333-.2-.333-.423s.1-.423.333-.423h3.028c.584.002.775.184.775.757zm-2.021 4.929v.7h3.923v-.7a.431.431 0 0 1 .483-.4c.252 0 .493.131.493.4v2.354c0 .574-.191.755-.775.755H839c-.583 0-.774-.181-.774-.755v-2.354a.431.431 0 0 1 .483-.4c.248-.002.491.129.491.4zm.16 2.294h3.6c.111 0 .161-.04.161-.151v-.643H839.2v.643c0 .111.049.151.16.151zm4.739-7.987v4.436c0 .292-.242.413-.5.413s-.5-.121-.5-.413v-4.436c0-.292.242-.423.5-.423s.501.131.501.423z" class="cls-6" transform="translate(-774.146 -255.949)"/>
                <path id="패스_253027" d="M846.693 273.172v4.265c0 .151.06.211.211.211a25.434 25.434 0 0 0 3.591-.221.362.362 0 0 1 .4.372c.03.242-.06.463-.282.492a29.514 29.514 0 0 1-4.165.222c-.583 0-.764-.181-.764-.755v-4.587c0-.3.242-.434.5-.434s.509.133.509.435zm5.976-.594v7.847c0 .291-.242.422-.513.422-.252 0-.5-.131-.5-.422v-7.847a.446.446 0 0 1 .5-.423c.271 0 .513.131.513.423z" class="cls-6" transform="translate(-774.089 -255.949)"/>
                <path id="패스_253028" d="M858.413 273.271c0 .232-.111.423-.351.423h-2.817c-.151 0-.211.06-.211.211v3.561c0 .151.06.211.211.211a25.084 25.084 0 0 0 3.521-.221.361.361 0 0 1 .4.372c.03.242-.06.462-.282.493a29.092 29.092 0 0 1-4.085.22c-.583 0-.774-.18-.774-.754v-4.206c0-.574.191-.754.774-.754h3.26c.241.002.354.203.354.444zm2.395-.694v2.615h1.106c.262 0 .372.191.372.433s-.111.443-.372.443h-1.106v4.357c0 .291-.242.422-.5.422s-.5-.131-.5-.422v-7.847c0-.292.241-.423.5-.423s.499.131.499.423z" class="cls-6" transform="translate(-774.034 -255.949)"/>
                <path id="패스_253029" d="M863.8 279.615a.679.679 0 1 1-.685-.674.667.667 0 0 1 .685.674z" class="cls-6" transform="translate(-773.979 -255.904)"/>
            </g>
            <g id="그룹_4709" transform="translate(943.416 231.187)">
                <path id="패스_253030" d="M945.679 232.278v6.167c0 .383-.3.554-.644.554s-.644-.171-.644-.554v-5.211l-1.3.744a.57.57 0 0 1-.815-.252.561.561 0 0 1 .2-.794l1.7-.946a1.666 1.666 0 0 1 .824-.261c.387 0 .679.175.679.553z" class="cls-5" transform="translate(-942.193 -231.101)"/>
                <path id="패스_253031" d="M951.253 232.63l-2.626 3.793h2.083v-1.65a.559.559 0 0 1 .633-.544c.333 0 .634.171.634.544v1.65h.614c.312 0 .432.242.432.523s-.12.512-.432.512h-.614v1c0 .372-.3.544-.634.544a.559.559 0 0 1-.633-.544v-1h-2.817c-.553 0-.794-.2-.794-.623 0-.141.02-.262.312-.684l2.887-4.174a.563.563 0 0 1 .794-.151.525.525 0 0 1 .161.804z" class="cls-5" transform="translate(-942.16 -231.101)"/>
                <path id="패스_253032" d="M953.5 232.956c-.313 0-.454-.252-.454-.544s.141-.554.454-.554h2.4c.644 0 .855.2.855.835v1.067c0 1.831-.21 2.163-2.867 4.043a.59.59 0 0 1-.794-.171.572.572 0 0 1 .06-.814c2.293-1.589 2.363-1.75 2.363-3.1v-.533c0-.171-.06-.232-.232-.232zm5.311 1.177h.866v-2.526a.6.6 0 0 1 1.187 0v7.787a.6.6 0 0 1-1.187 0v-4.174h-.866v3.753a.6.6 0 0 1-1.177 0v-7.264a.6.6 0 0 1 1.177 0z" class="cls-5" transform="translate(-942.122 -231.105)"/>
            </g>
            <g id="그룹_4710" transform="translate(1036.903 228.931)">
                <path id="패스_253033" d="M1044.889 237.614l-3.8-3.8 3.637-3.637a.6.6 0 1 0-.844-.845l-3.637 3.638-3.8-3.8a.6.6 0 0 0-.844.844l3.8 3.8-3.959 3.959a.6.6 0 0 0 .844.845l3.959-3.959 3.8 3.8a.6.6 0 0 0 .844-.845z" class="cls-7" transform="translate(-1035.066 -228.803)"/>
                <path id="패스_253034" d="M1035.867 239a.792.792 0 0 1-.566-.235.8.8 0 0 1 0-1.132l3.814-3.815-3.653-3.653a.8.8 0 0 1-.234-.568.793.793 0 0 1 .236-.566.817.817 0 0 1 1.131 0l3.654 3.653 3.493-3.493a.8.8 0 1 1 1.132 1.132l-3.493 3.493 3.654 3.654a.8.8 0 0 1 0 1.132.819.819 0 0 1-1.132 0l-3.654-3.653-3.815 3.815a.8.8 0 0 1-.567.236zm.161-9.794a.392.392 0 0 0-.277.67l3.942 3.942-4.1 4.1a.392.392 0 0 0 0 .555.4.4 0 0 0 .554 0l4.1-4.1 3.943 3.942a.4.4 0 0 0 .555 0 .4.4 0 0 0 0-.557l-3.943-3.942 3.781-3.782a.392.392 0 0 0-.554-.555l-3.782 3.781-3.943-3.942a.388.388 0 0 0-.276-.112z" class="cls-2" transform="translate(-1035.068 -228.804)"/>
            </g>
            <rect id="사각형_773" width="40.562" height="38.25" class="cls-3" rx="7.985" transform="translate(912.04 293.193)"/>
            <rect id="사각형_774" width="40.562" height="38.25" class="cls-3" rx="7.985" transform="translate(772.102 293.193)"/>
            <rect id="사각형_775" width="40.562" height="38.25" class="cls-3" rx="7.985" transform="translate(818.748 293.193)"/>
            <rect id="사각형_776" width="40.562" height="38.25" class="cls-3" rx="7.985" transform="translate(865.394 293.193)"/>
            <rect id="사각형_777" width="40.562" height="38.25" class="cls-3" rx="7.985" transform="translate(958.687 293.193)"/>
            <rect id="사각형_778" width="40.562" height="38.25" class="cls-8" rx="7.985" transform="translate(1005.333 293.193)"/>
            <path id="패스_253035" d="M836.766 325.557h-1.856a8.479 8.479 0 0 1-8.48-8.479v-.89a8.588 8.588 0 0 1 .094-1.265 2.272 2.272 0 0 1-.094-.645v-4.982a2.34 2.34 0 0 1 2.033-2.355 2.28 2.28 0 0 1 2.469 1.766l.057-.029v-.417a2.336 2.336 0 0 1 2.21-2.366 2.279 2.279 0 0 1 2.131 1.31c0 .007.01.007.013 0a2.277 2.277 0 0 1 4.3.556.008.008 0 0 0 .015 0l2.684-7.338a2.337 2.337 0 0 1 2.883-1.313 2.037 2.037 0 0 1 1.443 2.621l-4.107 11.7v.008a4.928 4.928 0 0 0-.431 1.59 2.2 2.2 0 0 0 2.187 2.192l3.515-2.06a2.1 2.1 0 0 1 3.168 1.562c.005.062.007.125.007.187v.42a2.281 2.281 0 0 1-1.392 2.1 8.514 8.514 0 0 0-2.315 1.47 12.805 12.805 0 0 1-10.534 4.657z" class="cls-4" transform="translate(.461 .299)"/>
            <path id="패스_253036" d="M897.588 316.108l.782-1.683a8.479 8.479 0 0 0-4.114-11.264l-.807-.375a8.48 8.48 0 0 0-1.187-.447 2.3 2.3 0 0 0-.546-.357l-4.518-2.1a2.339 2.339 0 0 0-2.993.852 2.28 2.28 0 0 0 .56 2.984l-.05.039-.378-.176a2.339 2.339 0 0 0-3.077 1.008 2.279 2.279 0 0 0 .29 2.484.008.008 0 0 1-.006.013 2.277 2.277 0 0 0-1.311 4.134c.007.005 0 .015 0 .014l-7.785-.66a2.337 2.337 0 0 0-2.407 2.061 2.039 2.039 0 0 0 1.769 2.415l12.339 1.207h.006a4.93 4.93 0 0 1 1.625.28 2.2 2.2 0 0 1 1.065 2.908l-3.35 2.318a2.1 2.1 0 0 0 .086 3.533c.054.03.11.059.167.086l.38.177a2.277 2.277 0 0 0 2.491-.377 8.53 8.53 0 0 1 2.311-1.478 12.813 12.813 0 0 0 8.658-7.596z" class="cls-4" transform="translate(.748 .237)"/>
            <path id="패스_253037" d="M802.855 302.134a2.055 2.055 0 0 0-1.458-2.645 2.358 2.358 0 0 0-2.909 1.325l-2.578 7.05V300.3a2.3 2.3 0 0 0-2.3-2.3 2.3 2.3 0 0 0-2.3 2.3v7.166a2.3 2.3 0 0 0-4.28 1.169v.508l-.058.03a2.3 2.3 0 0 0-4.544.506v5.121a2.336 2.336 0 0 0 .095.653 8.628 8.628 0 0 0-.095 1.277v.907a8.55 8.55 0 0 0 8.55 8.55h1.881a8.549 8.549 0 0 0 8.548-8.452 2.31 2.31 0 0 0 .091-.634V313.8a2.3 2.3 0 0 0-1.836-2.254c-.055-.073-.112-.145-.169-.216z" class="cls-4" transform="translate(.171 .226)"/>
            <path id="패스_253038" d="M931.617 298.877a2.056 2.056 0 0 0-2.914-.8 2.359 2.359 0 0 0-1.073 3.012l3.267 6.757-5.43-5.263a2.3 2.3 0 0 0-3.254.051 2.3 2.3 0 0 0 .05 3.253l5.146 4.988a2.3 2.3 0 0 0-2.14 3.887l.365.353-.019.062a2.3 2.3 0 0 0-2.8 3.615l3.674 3.561a2.319 2.319 0 0 0 .536.387 8.624 8.624 0 0 0 .852.958l.65.631a8.55 8.55 0 0 0 12.09-.188l1.311-1.351a8.55 8.55 0 0 0-.12-12.021 2.336 2.336 0 0 0-.393-.506l-2.365-2.292a2.3 2.3 0 0 0-2.895-.252c-.091-.011-.182-.02-.273-.028z" class="cls-4" transform="translate(1.088 .224)"/>
            <path id="패스_253039" d="M988.172 302.913a2.057 2.057 0 0 1 2.645 1.459 2.359 2.359 0 0 1-1.326 2.909l-7.05 2.577H990a2.3 2.3 0 0 1 2.3 2.3 2.3 2.3 0 0 1-2.3 2.3h-7.166a2.3 2.3 0 0 1-1.17 4.28h-.508l-.029.057a2.3 2.3 0 0 1-.507 4.545h-5.116a2.294 2.294 0 0 1-.653-.1 8.623 8.623 0 0 1-1.277.1h-.907a8.551 8.551 0 0 1-8.549-8.552v-1.881a8.548 8.548 0 0 1 8.454-8.546 2.27 2.27 0 0 1 .633-.091h3.295a2.3 2.3 0 0 1 2.254 1.836c.073.055.144.112.215.169z" class="cls-4" transform="translate(1.368 .328)"/>
            <g id="그룹_4711" transform="translate(1017.947 308.579)">
                <path id="패스_253040" d="M1019.434 309.754v1.63h1.64c.292 0 .433.232.433.513s-.141.522-.433.522h-1.64v1.781a.572.572 0 0 1-1.126 0v-1.78h-1.64c-.292 0-.433-.242-.433-.522s.141-.513.433-.513h1.64v-1.63a.572.572 0 0 1 1.126 0z" class="cls-3" transform="translate(-1016.235 -308.195)"/>
                <path id="패스_253041" d="M1028.946 311.27v.362c0 3.2-1.157 3.943-2.877 3.943a3.358 3.358 0 0 1-1.57-.331.551.551 0 0 1-.241-.755.524.524 0 0 1 .744-.292 3 3 0 0 0 1.147.211c.945 0 1.438-.492 1.519-1.982a2.193 2.193 0 0 1-1.631.634 2.134 2.134 0 0 1-2.263-2.323v-.152a2.357 2.357 0 0 1 2.576-2.384c1.85-.001 2.596 1.208 2.596 3.069zm-3.9-.644v.06c0 .846.4 1.248 1.287 1.248a1.166 1.166 0 0 0 1.319-1.218v-.1a1.14 1.14 0 0 0-1.268-1.248 1.165 1.165 0 0 0-1.342 1.258z" class="cls-3" transform="translate(-1016.185 -308.202)"/>
            </g>
        </g>
        <g id="그룹_4720" transform="translate(4941.479 2455.479)">
            <g id="그룹_4713" transform="translate(757.521 359.521)">
                <rect id="사각형_779" width="302.5" height="136.042" class="cls-1" rx="12.691" transform="translate(.479)"/>
                <path id="패스_253042" d="M1047.81 496.521H770.69a13.211 13.211 0 0 1-13.169-13.221V372.742a13.211 13.211 0 0 1 13.169-13.221h277.12a13.211 13.211 0 0 1 13.169 13.221V483.3a13.211 13.211 0 0 1-13.169 13.221zM770.69 360.483a12.249 12.249 0 0 0-12.211 12.259V483.3a12.249 12.249 0 0 0 12.211 12.259h277.12a12.249 12.249 0 0 0 12.211-12.259V372.742a12.249 12.249 0 0 0-12.211-12.259z" class="cls-2" transform="translate(-757.521 -359.521)"/>
            </g>
            <g id="그룹_4714" transform="translate(773.708 374.845)">
                <path id="패스_253043" d="M929.712 395.345H778.7a4.262 4.262 0 0 1-4.5-3.981v-12.038c0-2.2 2.013-3.981 5.5-3.981h151.012a4.1 4.1 0 0 1 3.5 3.981v12.038a4.262 4.262 0 0 1-4.5 3.981z" class="cls-3" transform="translate(-773.708 -374.845)"/>
                <path id="패스_253044" d="M929.712 395.845H778.7a4.765 4.765 0 0 1-5-4.481v-12.038c0-2.638 2.466-4.481 6-4.481h151.012c1.8 0 4 2.068 4 4.481v12.038a4.765 4.765 0 0 1-5 4.481zm-150.008-20c-2.988 0-5 1.4-5 3.481v12.038a3.769 3.769 0 0 0 4 3.481h151.008a3.769 3.769 0 0 0 4-3.481v-12.038a3.642 3.642 0 0 0-3-3.481z" class="cls-4" transform="translate(-773.708 -374.845)"/>
            </g>
            <g id="그룹_4715" transform="translate(782.897 381.386)">
                <path id="패스_253045" d="M783.887 382.3v1.719h2.329V382.3a.5.5 0 0 1 .979 0v4.588c0 .569-.19.749-.769.749h-2.759c-.58 0-.77-.18-.77-.749V382.3a.435.435 0 0 1 .49-.42.443.443 0 0 1 .5.42zm.21 4.488h1.909c.15 0 .21-.05.21-.21v-1.709h-2.329v1.709c0 .164.05.214.213.214zm5.567-5.078v2.6h1.1c.26 0 .37.19.37.43s-.11.44-.37.44h-1.1v4.327c0 .29-.24.42-.5.42s-.5-.13-.5-.42v-7.8c0-.29.239-.42.5-.42s.5.137.5.427z" class="cls-5" transform="translate(-782.897 -381.294)"/>
                <path id="패스_253046" d="M797.324 386.442c.02.22-.07.43-.3.45-.709.06-1.469.109-2.268.15v2.368a.434.434 0 0 1-.49.42.443.443 0 0 1-.5-.42v-2.339c-.709.02-1.429.031-2.169.031-.24 0-.349-.2-.349-.43s.109-.41.349-.41c1.769 0 3.5-.03 5.347-.19.24-.02.37.128.38.37zm-.7-2.879c0 1.11-.8 1.919-2.389 1.919s-2.389-.809-2.389-1.919.8-1.918 2.389-1.918 2.39.809 2.39 1.918zm-3.828 0c0 .63.459 1.09 1.439 1.09s1.439-.46 1.439-1.09-.46-1.089-1.439-1.089-1.435.46-1.435 1.089zm6.046-1.849v7.8c0 .29-.239.42-.5.42a.434.434 0 0 1-.49-.42v-7.8a.434.434 0 0 1 .49-.42c.258 0 .501.13.501.42z" class="cls-5" transform="translate(-782.897 -381.294)"/>
            </g>
            <g id="그룹_4716" transform="translate(775.558 406.282)">
                <path id="패스_253047" d="M783.953 410.373c0 .239-.11.419-.349.419h-7.7c-.24 0-.35-.18-.35-.419s.11-.41.35-.41h5.587a6.519 6.519 0 0 0 .19-1.04l-4.8.09c-.22 0-.33-.18-.34-.389-.01-.24.1-.43.33-.43l4.857-.05c.011-.11.011-.22.011-.34v-.38c0-.15-.051-.21-.21-.21h-4.478c-.24 0-.34-.19-.34-.409s.1-.42.34-.42h4.9c.58 0 .77.18.77.749v.6a8.664 8.664 0 0 1-.28 2.229h1.16c.242 0 .352.18.352.41zm-1.909 1.209c.58 0 .77.18.77.75v.779c0 .57-.19.75-.77.75h-4.228c-.109 0-.159.04-.159.15v.439c0 .111.05.15.159.15h4.884a.348.348 0 0 1 .33.39c0 .21-.11.4-.33.4h-5.247c-.58 0-.77-.18-.77-.75v-.779c0-.57.19-.75.77-.75h4.228c.109 0 .159-.05.159-.15v-.44c0-.1-.05-.149-.159-.149h-4.7c-.22 0-.32-.19-.32-.4s.1-.39.32-.39z" class="cls-6" transform="translate(-775.558 -406.055)"/>
                <path id="패스_253048" d="M787.906 407.584v1.789c0 .57-.19.75-.77.75h-1.559c-.16 0-.21.05-.21.2v1.259c0 .15.05.2.21.2a19.686 19.686 0 0 0 2.538-.15.348.348 0 0 1 .39.36c.03.239-.06.449-.279.489a22.431 22.431 0 0 1-3.059.161c-.58 0-.77-.181-.77-.75v-1.849c0-.57.19-.74.77-.74h1.569c.15 0 .21-.06.21-.21v-1.2c0-.15-.06-.2-.21-.2h-1.989c-.249 0-.35-.2-.35-.43s.1-.43.35-.43h2.389c.58.001.77.182.77.751zm4.047-1.039v7.855c0 .27-.229.39-.47.39a.408.408 0 0 1-.459-.39v-4.327h-1.069v3.907c0 .27-.23.391-.47.391a.409.409 0 0 1-.46-.391v-7.335a.408.408 0 0 1 .46-.39c.24 0 .47.12.47.39v2.578h1.069v-2.678a.408.408 0 0 1 .459-.39c.241 0 .47.12.47.39z" class="cls-6" transform="translate(-775.558 -406.055)"/>
                <path id="패스_253049" d="M801.093 413.491c0 .23-.11.43-.35.43h-7.7c-.239 0-.35-.2-.35-.43s.111-.43.35-.43h7.7c.24 0 .35.19.35.43zM797.405 407v.58a1.856 1.856 0 0 0 .979 1.8c.6.39 1.23.75 1.879 1.119a.432.432 0 0 1 .09.59.451.451 0 0 1-.589.2c-.63-.35-1.28-.729-1.839-1.1-.67-.43-.96-.77-1.02-1.02h-.01c-.07.27-.36.61-1.029 1.04-.56.359-1.2.749-1.839 1.1a.455.455 0 0 1-.59-.2.445.445 0 0 1 .09-.61c.65-.369 1.279-.729 1.879-1.119a1.854 1.854 0 0 0 .979-1.8V407c0-.3.24-.429.51-.429s.51.129.51.429z" class="cls-6" transform="translate(-775.558 -406.055)"/>
                <path id="패스_253050" d="M807.925 407.074c0 .23-.11.43-.35.43h-2.759c-.149 0-.209.05-.209.2v2.1c0 .16.06.21.209.21a26.65 26.65 0 0 0 3.5-.21.351.351 0 0 1 .4.36c.031.24-.06.46-.279.48a29.065 29.065 0 0 1-4.058.219c-.58 0-.77-.179-.77-.749v-2.719c0-.569.19-.749.77-.749h3.2c.236-.001.346.199.346.428zm2.469 6.537c0 1.249-1.05 1.889-2.859 1.889s-2.858-.64-2.858-1.889 1.049-1.889 2.858-1.889 2.859.639 2.859 1.889zm-4.728 0c0 .66.55 1.079 1.869 1.079s1.869-.419 1.869-1.079-.56-1.08-1.869-1.08-1.869.42-1.869 1.08zm4.678-7.036v1.789h1.1c.26 0 .37.2.37.429 0 .25-.11.44-.37.44h-1.1v1.989c0 .28-.24.41-.5.41s-.5-.13-.5-.41v-4.647c0-.29.24-.42.5-.42s.5.13.5.42z" class="cls-6" transform="translate(-775.558 -406.055)"/>
                <path id="패스_253051" d="M820.555 407.214c0 .24-.1.43-.35.43H817.5l-.12 2.209a2.372 2.372 0 0 1 1.439-.46 2.051 2.051 0 0 1 2.16 2.179v.11a2.261 2.261 0 0 1-2.513 2.318 3.833 3.833 0 0 1-2.159-.579.453.453 0 0 1-.13-.65.4.4 0 0 1 .61-.149 3 3 0 0 0 1.669.469 1.351 1.351 0 0 0 1.519-1.419v-.07a1.277 1.277 0 0 0-1.449-1.389 1.9 1.9 0 0 0-1.27.47.628.628 0 0 1-.459.19c-.25 0-.43-.131-.42-.351l.17-2.968c.04-.61.19-.769.769-.769h2.889c.25 0 .35.199.35.429z" class="cls-6" transform="translate(-775.558 -406.055)"/>
                <path id="패스_253052" d="M824.335 406.9c.58 0 .77.18.77.75v1.059c0 1.82-.26 2.12-2.928 4.008a.483.483 0 0 1-.57-.769c2.4-1.649 2.539-1.829 2.539-3.279v-.7c0-.15-.061-.2-.21-.2h-2.029c-.25 0-.36-.2-.36-.43s.11-.44.36-.44zm4.808-.359v7.859c0 .27-.23.39-.47.39a.408.408 0 0 1-.46-.39v-4.327h-1.129v3.907c0 .27-.23.391-.47.391a.409.409 0 0 1-.46-.391v-7.335a.408.408 0 0 1 .46-.39c.24 0 .47.12.47.39v2.578h1.129v-2.678a.408.408 0 0 1 .46-.39c.24 0 .47.12.47.39z" class="cls-6" transform="translate(-775.558 -406.055)"/>
                <path id="패스_253053" d="M836.9 409.653c0 1.939-.8 2.989-2.349 2.989s-2.339-1.05-2.339-2.989.79-2.988 2.339-2.988 2.349 1.049 2.349 2.988zm-3.719 0c0 1.359.39 2.109 1.37 2.109s1.379-.75 1.379-2.109-.39-2.109-1.379-2.109-1.375.75-1.375 2.109zm6.217-3.078v7.8c0 .289-.24.419-.51.419-.25 0-.5-.13-.5-.419v-7.8a.442.442 0 0 1 .5-.42c.265 0 .505.13.505.42z" class="cls-6" transform="translate(-775.558 -406.055)"/>
                <path id="패스_253054" d="M843.665 406.875v.919a1.739 1.739 0 0 0 .66 1.469c.469.39.889.71 1.219.95a.415.415 0 0 1 .07.609.423.423 0 0 1-.61.12c-.27-.19-.679-.5-1.1-.849-.5-.4-.679-.65-.73-.85h-.009c-.051.22-.26.49-.75.89-.42.349-.83.669-1.249.969a.451.451 0 0 1-.62-.12.443.443 0 0 1 .08-.639c.47-.34.89-.66 1.359-1.05a1.744 1.744 0 0 0 .66-1.479v-.939c0-.291.25-.42.509-.42s.511.129.511.42zm3.918 6.736c0 1.249-1.049 1.889-2.858 1.889s-2.859-.64-2.859-1.889 1.05-1.889 2.859-1.889 2.858.639 2.858 1.889zm-4.728 0c0 .66.55 1.079 1.87 1.079s1.869-.419 1.869-1.079-.56-1.08-1.869-1.08-1.87.42-1.87 1.08zm4.678-7.036v1.789h1.1c.26 0 .37.2.37.429 0 .25-.11.44-.37.44h-1.1v1.989c0 .28-.24.41-.5.41s-.5-.13-.5-.41v-4.647c0-.29.239-.42.5-.42s.5.13.5.42z" class="cls-6" transform="translate(-775.558 -406.055)"/>
                <path id="패스_253055" d="M855.193 412.551c.02.23-.069.44-.3.46-1.6.15-3.469.21-5.428.21-.239 0-.349-.2-.349-.429s.11-.431.349-.431c1.769 0 3.509-.02 5.358-.189.23-.02.361.14.37.379zm-.7-3.7a2.432 2.432 0 1 1-2.419-2.179 2.142 2.142 0 0 1 2.42 2.182zm-3.888 0a1.475 1.475 0 1 0 1.469-1.34 1.3 1.3 0 0 0-1.468 1.343zm6.106-2.279v7.8c0 .289-.239.419-.5.419a.434.434 0 0 1-.49-.419v-7.8a.434.434 0 0 1 .49-.42c.262.003.501.133.501.423z" class="cls-6" transform="translate(-775.558 -406.055)"/>
                <path id="패스_253056" d="M863.535 407.324c0 .23-.11.42-.36.42h-2.159c-.15 0-.21.06-.21.21v3.478c0 .15.06.21.21.21a19.46 19.46 0 0 0 2.508-.16c.221-.03.371.13.391.37s-.061.45-.28.489a22.65 22.65 0 0 1-3.059.16c-.579 0-.769-.179-.769-.749v-4.118c0-.57.19-.749.769-.749h2.6c.249 0 .359.199.359.439zm2.028-.679v7.335a.409.409 0 0 1-.459.391c-.24 0-.47-.121-.47-.391v-3.967h-1.459c-.24 0-.35-.2-.35-.43s.11-.43.35-.43h1.459v-2.508c0-.27.23-.39.47-.39a.408.408 0 0 1 .459.39zm1.8-.1v7.855c0 .27-.229.39-.469.39a.408.408 0 0 1-.46-.39v-7.855a.408.408 0 0 1 .46-.39c.239 0 .468.12.468.39z" class="cls-6" transform="translate(-775.558 -406.055)"/>
                <path id="패스_253057" d="M873.144 409.653c0 1.939-.8 2.989-2.349 2.989s-2.338-1.05-2.338-2.989.789-2.988 2.338-2.988 2.349 1.049 2.349 2.988zm-3.718 0c0 1.359.39 2.109 1.369 2.109s1.379-.75 1.379-2.109-.389-2.109-1.379-2.109-1.369.75-1.369 2.109zm6.217-3.078v7.8c0 .289-.24.419-.51.419-.25 0-.5-.13-.5-.419v-7.8a.443.443 0 0 1 .5-.42c.267 0 .51.13.51.42z" class="cls-6" transform="translate(-775.558 -406.055)"/>
                <path id="패스_253058" d="M881.5 407.2c0 .229-.11.429-.35.429h-2.768c-.16 0-.21.05-.21.2v1.409h2.578c.24 0 .35.18.35.41s-.11.42-.35.42h-2.578v1.449c0 .15.05.2.21.2a25.071 25.071 0 0 0 3.508-.21c.23-.03.379.13.4.37s-.06.45-.279.479a28.83 28.83 0 0 1-4.058.221c-.58 0-.77-.181-.77-.75v-4.308c0-.569.19-.75.77-.75h3.2c.241.005.347.206.347.431zm2.768-.63v7.8c0 .289-.24.419-.5.419a.433.433 0 0 1-.489-.419V410h-1.3c-.249 0-.359-.19-.359-.43s.11-.43.359-.43h1.3v-2.568a.434.434 0 0 1 .489-.42c.264.003.504.133.504.423z" class="cls-6" transform="translate(-775.558 -406.055)"/>
                <path id="패스_253059" d="M893.642 410.873c0 .219-.11.389-.34.389h-7.716c-.23 0-.34-.17-.34-.389s.11-.4.34-.4h7.714c.232 0 .342.17.342.4zm-1.14 1.758v.63c0 .57-.19.75-.769.75h-4.238c-.11 0-.16.04-.16.15v.329c0 .11.05.15.16.15h4.9a.345.345 0 0 1 .329.38c0 .21-.11.39-.329.39h-5.248c-.58 0-.77-.18-.77-.75v-.639c0-.57.19-.75.77-.75h4.238c.1 0 .15-.04.15-.15v-.32c0-.11-.05-.159-.15-.159h-4.708c-.219 0-.32-.181-.32-.38s.1-.38.32-.38h5.058c.577 0 .765.18.765.749zm-.06-5.557v.64c0 .56-.19.74-.769.74h-4.118c-.11 0-.16.049-.16.16v.329c0 .1.05.15.16.15h4.787c.22 0 .32.18.32.38s-.1.38-.32.38h-5.137c-.58 0-.769-.17-.769-.74v-.639c0-.57.189-.75.769-.75h4.118a.139.139 0 0 0 .16-.16v-.32c0-.1-.05-.15-.16-.15h-4.588c-.219 0-.319-.179-.319-.379s.1-.39.319-.39h4.938c.579 0 .769.18.769.749z" class="cls-6" transform="translate(-775.558 -406.055)"/>
                <path id="패스_253060" d="M898.995 406.475v.629h1.789c.239 0 .349.2.349.43s-.11.42-.349.42h-4.678c-.24 0-.35-.2-.35-.42s.11-.43.35-.43h1.889v-.629a.443.443 0 0 1 .5-.42c.26 0 .5.13.5.42zm1.629 3.588c0 .979-.8 1.6-2.129 1.6s-2.129-.62-2.129-1.6.8-1.6 2.129-1.6 2.129.62 2.129 1.6zm2.269 3.048v1.919c0 .29-.241.42-.5.42a.434.434 0 0 1-.49-.42v-1.619c0-.15-.06-.2-.21-.2h-4.358c-.25 0-.359-.2-.359-.419s.109-.431.359-.431h4.788c.577 0 .77.181.77.75zm-5.627-3.048c0 .479.429.819 1.229.819s1.229-.34 1.229-.819-.42-.82-1.229-.82-1.229.34-1.229.82zm5.627-3.488v1.925H904c.249 0 .36.2.36.431s-.111.439-.36.439h-1.109v2.139c0 .28-.241.41-.5.41s-.49-.13-.49-.41v-4.937a.434.434 0 0 1 .49-.42c.261.003.502.133.502.423z" class="cls-6" transform="translate(-775.558 -406.055)"/>
                <path id="패스_253061" d="M912.751 410.882c0 .23-.109.42-.349.42h-7.7c-.24 0-.35-.19-.35-.42s.11-.42.35-.42h7.7c.24 0 .349.181.349.42zm-3.688-4.167v.329c0 .55.3.88 1 1.19.65.289 1.189.51 1.779.74a.451.451 0 0 1-.37.809c-.53-.2-1.119-.44-1.659-.679-.889-.38-1.189-.68-1.249-.92h-.01c-.07.27-.36.56-1.249.94-.55.239-1.11.469-1.65.679a.464.464 0 0 1-.389-.829c.589-.23 1.129-.451 1.779-.74.7-.31 1-.64 1-1.19v-.329c0-.3.24-.43.51-.43s.508.13.508.43zm-2.6 5.607v.629h4.178v-.629a.429.429 0 0 1 .48-.41c.249 0 .5.13.5.41v2.288c0 .57-.19.75-.769.75h-4.6c-.58 0-.759-.18-.759-.75v-2.288a.428.428 0 0 1 .479-.41c.253 0 .493.13.493.41zm.16 2.228h3.858c.11 0 .16-.04.16-.15v-.659h-4.178v.659c.002.11.052.15.162.15z" class="cls-6" transform="translate(-775.558 -406.055)"/>
                <path id="패스_253062" d="M916.374 407.035v1.508a2.5 2.5 0 0 0 .81 1.97c.4.429.809.829 1.149 1.149a.424.424 0 0 1-.02.62.452.452 0 0 1-.62.05c-.31-.29-.649-.63-1.029-1.03-.58-.6-.749-.86-.789-1.079h-.011c-.05.239-.21.5-.789 1.1-.38.4-.74.75-1.17 1.15a.474.474 0 0 1-.629-.7c.45-.42.879-.83 1.279-1.259a2.525 2.525 0 0 0 .8-1.97v-1.508c0-.29.25-.42.51-.42s.509.129.509.419zm4.088-.46v7.8c0 .289-.24.419-.51.419-.25 0-.5-.13-.5-.419v-7.8a.443.443 0 0 1 .5-.42c.27 0 .51.13.51.42z" class="cls-6" transform="translate(-775.558 -406.055)"/>
                <path id="패스_253063" d="M926.093 407.574v1.28c0 1.858-.429 2.308-3.448 4.067a.446.446 0 0 1-.6-.17.441.441 0 0 1 .11-.629c2.129-1.21 2.729-1.629 2.9-2.339l-2.848.17c-.241.02-.36-.17-.38-.41-.011-.21.08-.439.329-.45l2.969-.139v-1.06c0-.16-.06-.21-.21-.21h-2.489c-.25 0-.36-.2-.36-.43s.11-.429.36-.429h2.9c.574 0 .767.175.767.749zm3-1v7.8c0 .289-.24.419-.5.419a.439.439 0 0 1-.49-.419v-3.159h-1.229c-.25 0-.35-.2-.35-.43s.1-.429.35-.429h1.226v-1.36h-1.189c-.25 0-.35-.2-.35-.43s.1-.429.35-.429h1.189v-1.559a.439.439 0 0 1 .49-.42c.262-.003.502.127.502.417z" class="cls-6" transform="translate(-775.558 -406.055)"/>
                <path id="패스_253064" d="M934.883 409.653c0 1.939-.8 2.978-2.339 2.978s-2.329-1.039-2.329-2.978.79-2.978 2.329-2.978 2.339 1.039 2.339 2.978zm-3.7 0c0 1.359.39 2.1 1.359 2.1s1.37-.74 1.37-2.1-.39-2.1-1.37-2.1-1.357.741-1.357 2.1zm5.987-3.078v1.459h1.03c.24 0 .35.19.35.43s-.11.43-.35.43h-1.029v1.419h1.029c.24 0 .35.189.35.429s-.11.43-.35.43h-1.029v3.2c0 .289-.24.419-.5.419s-.5-.13-.5-.419v-7.8c0-.29.24-.42.5-.42s.501.133.501.423z" class="cls-6" transform="translate(-775.558 -406.055)"/>
                <path id="패스_253065" d="M943.834 406.555v.859h1.8c.24 0 .35.19.35.42s-.11.43-.35.43h-4.708c-.239 0-.349-.2-.349-.43s.11-.42.349-.42h1.909v-.859a.443.443 0 0 1 .5-.42c.259 0 .499.13.499.42zm1.649 4.327a2.157 2.157 0 1 1-2.149-1.968 1.931 1.931 0 0 1 2.149 1.968zm-3.388 0a1.242 1.242 0 1 0 1.239-1.159 1.13 1.13 0 0 0-1.239 1.159zm5.617-4.307v2.7h1.1c.26 0 .37.19.37.43s-.11.44-.37.44h-1.1v4.228c0 .289-.24.419-.5.419a.434.434 0 0 1-.49-.419v-7.8a.434.434 0 0 1 .49-.42c.26.002.5.132.5.422z" class="cls-6" transform="translate(-775.558 -406.055)"/>
                <path id="패스_253066" d="M953.853 407.574v4.158c0 .57-.19.749-.77.749h-2.668c-.58 0-.77-.179-.77-.749v-4.158c0-.57.19-.749.77-.749h2.668c.58 0 .77.175.77.749zm-3.228.31v3.538c0 .15.06.2.209.2h1.83c.159 0 .21-.05.21-.2v-3.538c0-.15-.051-.2-.21-.2h-1.83c-.149 0-.209.05-.209.2zm6.146-1.309v7.8c0 .289-.24.419-.5.419a.439.439 0 0 1-.489-.419v-3.2h-1.139c-.24 0-.351-.19-.351-.43s.111-.419.351-.419h1.139v-1.34h-1.139c-.24 0-.351-.19-.351-.429s.111-.42.351-.42h1.139v-1.559a.439.439 0 0 1 .489-.42c.26-.003.5.127.5.417z" class="cls-6" transform="translate(-775.558 -406.055)"/>
                <path id="패스_253067" d="M959.194 413.581l-.5 1.5a.42.42 0 0 1-.51.3.342.342 0 0 1-.31-.42l.26-1.609a.529.529 0 0 1 .67-.4.451.451 0 0 1 .39.629z" class="cls-6" transform="translate(-775.558 -406.055)"/>
                <path id="패스_253068" d="M969.271 406.575v4.108a.434.434 0 0 1-.49.419c-.26 0-.5-.13-.5-.419v-1.59h-1.758a2.145 2.145 0 1 1 .01-.849h1.748v-1.669c0-.29.24-.42.5-.42a.434.434 0 0 1 .49.42zm-6.346 2.089a1.34 1.34 0 1 0 1.339-1.33 1.215 1.215 0 0 0-1.339 1.33zm1.449 3.278v.839h3.918v-.839a.428.428 0 0 1 .479-.41c.26 0 .5.13.5.41v2.628c0 .57-.189.75-.769.75h-4.338c-.58 0-.769-.18-.769-.75v-2.628a.429.429 0 0 1 .48-.41c.249 0 .499.13.499.41zm0 2.349c0 .149.05.209.21.209h3.5c.15 0 .21-.06.21-.209v-.71h-3.918z" class="cls-6" transform="translate(-775.558 -406.055)"/>
                <path id="패스_253069" d="M977.461 407.424v1.329c0 .56-.19.74-.77.74H972.6c-.15 0-.209.06-.209.21v.75c0 .15.059.2.209.2h4.728c.239 0 .35.2.35.43s-.111.42-.35.42h-2.389v1.569h3.348c.24 0 .35.19.35.42s-.11.43-.35.43h-7.7c-.241 0-.351-.2-.351-.43s.11-.42.351-.42h3.347V411.5h-1.759c-.58 0-.77-.18-.77-.75v-1.329c0-.569.19-.739.77-.739h4.087c.151 0 .211-.06.211-.21v-.74c0-.15-.06-.21-.211-.21h-4.527c-.24 0-.349-.19-.349-.42s.109-.429.349-.429h4.947c.589.002.779.181.779.751z" class="cls-6" transform="translate(-775.558 -406.055)"/>
                <path id="패스_253070" d="M987.211 413.491c0 .23-.11.43-.35.43h-7.7c-.239 0-.351-.2-.351-.43s.112-.43.351-.43h7.7c.239 0 .35.19.35.43zm-1.17-6.306c0 .229-.109.429-.35.429h-4.527c-.15 0-.21.05-.21.2v2.3c0 .15.06.21.21.21h4.627c.24 0 .35.19.35.419s-.11.43-.35.43h-5.077c-.579 0-.759-.18-.759-.75V407.5c0-.569.18-.75.759-.75h4.977c.241.004.35.205.35.435z" class="cls-6" transform="translate(-775.558 -406.055)"/>
                <path id="패스_253071" d="M990.594 406.555v.63h1.789c.239 0 .349.2.349.429s-.11.43-.349.43h-4.678c-.24 0-.35-.2-.35-.43s.11-.429.35-.429h1.889v-.63a.443.443 0 0 1 .5-.42c.26 0 .5.13.5.42zm1.629 3.717c0 1.01-.8 1.67-2.129 1.67s-2.129-.66-2.129-1.67.8-1.668 2.129-1.668 2.129.659 2.129 1.668zm-2.459 2.6v1.31c0 .15.049.2.21.2h4.4c.25 0 .359.2.359.44s-.109.43-.359.43h-4.848c-.579 0-.769-.18-.769-.75v-1.629c0-.289.24-.419.51-.419.247-.002.497.128.497.417zm-.9-2.6c0 .51.43.88 1.23.88s1.228-.37 1.228-.88-.42-.879-1.228-.879-1.23.36-1.23.879zm5.627-3.7v2.248h1.11c.249 0 .36.19.36.43s-.111.43-.36.43h-1.11v2.908c0 .29-.24.42-.5.42a.434.434 0 0 1-.489-.42v-6.016a.434.434 0 0 1 .489-.42c.26.003.5.133.5.423z" class="cls-6" transform="translate(-775.558 -406.055)"/>
                <path id="패스_253072" d="M1002.963 409.653c0 1.939-.8 2.989-2.35 2.989s-2.338-1.05-2.338-2.989.789-2.988 2.338-2.988 2.35 1.049 2.35 2.988zm-3.719 0c0 1.359.391 2.109 1.369 2.109s1.379-.75 1.379-2.109-.388-2.109-1.379-2.109-1.369.75-1.369 2.109zm6.217-3.078v7.8c0 .289-.24.419-.51.419-.25 0-.5-.13-.5-.419v-7.8a.443.443 0 0 1 .5-.42c.27 0 .51.13.51.42z" class="cls-6" transform="translate(-775.558 -406.055)"/>
                <path id="패스_253073" d="M1011.352 407.564v4.178c0 .57-.19.749-.77.749h-2.788c-.579 0-.77-.179-.77-.749v-4.178c0-.569.191-.75.77-.75h2.788c.58 0 .77.181.77.75zm-3.338.31v3.558c0 .15.06.2.21.2h1.928c.151 0 .211-.05.211-.2v-3.558c0-.15-.06-.2-.211-.2h-1.928c-.15 0-.21.05-.21.2zm6.017-1.3v7.8c0 .289-.24.419-.51.419-.25 0-.5-.13-.5-.419v-7.8a.443.443 0 0 1 .5-.42c.27.001.51.131.51.421z" class="cls-6" transform="translate(-775.558 -406.055)"/>
                <path id="패스_253074" d="M1020.521 407.274c0 .23-.109.43-.349.43h-1.639v.96a2.349 2.349 0 0 0 .77 1.939c.42.429.84.829 1.169 1.109a.423.423 0 0 1-.021.62.43.43 0 0 1-.609.06c-.289-.26-.65-.61-1.059-1.01-.57-.58-.71-.819-.75-1.029h-.01c-.05.23-.179.469-.759 1.049-.4.4-.78.77-1.2 1.14a.446.446 0 0 1-.629-.09.422.422 0 0 1 .02-.62c.459-.41.869-.8 1.289-1.229a2.349 2.349 0 0 0 .77-1.939v-.96h-1.69c-.25 0-.359-.2-.359-.43s.109-.429.359-.429h4.348c.24 0 .349.199.349.429zm2.08-.7v7.8c0 .289-.24.419-.51.419-.25 0-.5-.13-.5-.419v-7.8a.443.443 0 0 1 .5-.42c.27.001.509.131.509.421z" class="cls-6" transform="translate(-775.558 -406.055)"/>
                <path id="패스_253075" d="M1032.029 411.262c0 .23-.109.43-.349.43h-7.7c-.24 0-.349-.2-.349-.43s.109-.42.349-.42h7.7c.24 0 .349.19.349.42zm-6.256 1.609v1.359c0 .15.061.21.21.21h4.728c.24 0 .35.19.35.42s-.11.43-.35.43h-5.178c-.58 0-.76-.18-.76-.749v-1.67c0-.289.241-.419.5-.419s.5.13.5.419zm.02-6.057v1.93c0 .15.061.2.21.2h4.687c.241 0 .351.2.351.43s-.11.42-.351.42h-5.137c-.579 0-.759-.18-.759-.75v-2.229c0-.3.239-.429.5-.429s.499.129.499.428z" class="cls-6" transform="translate(-775.558 -406.055)"/>
                <path id="패스_253076" d="M780.875 423.1c0 .23-.11.42-.35.42h-1.6v.54a1.629 1.629 0 0 0 .659 1.429c.46.38.89.7 1.19.91a.416.416 0 0 1 .08.609.447.447 0 0 1-.62.12c-.22-.16-.63-.469-1.059-.809-.51-.4-.68-.63-.73-.83h-.01c-.05.22-.249.47-.749.88-.44.339-.86.649-1.24.919a.46.46 0 0 1-.53-.75c.46-.329.89-.639 1.36-1.019a1.653 1.653 0 0 0 .65-1.439v-.56h-1.67c-.249 0-.36-.19-.36-.42s.111-.429.36-.429h4.268c.241.004.351.204.351.429zm2.329 6.507c0 1.249-1.08 1.889-2.929 1.889s-2.928-.64-2.928-1.889 1.079-1.889 2.928-1.889 2.925.643 2.925 1.893zm-4.868 0c0 .66.58 1.079 1.939 1.079s1.939-.419 1.939-1.079-.589-1.08-1.939-1.08-1.939.424-1.939 1.084zm4.818-7.036v4.647c0 .28-.24.41-.49.41s-.5-.13-.5-.41v-1.929h-1.439c-.25 0-.36-.2-.36-.43s.11-.429.36-.429h1.439v-1.859c0-.29.24-.42.5-.42a.434.434 0 0 1 .49.424z" class="cls-6" transform="translate(-775.558 -406.055)"/>
                <path id="패스_253077" d="M787.366 423.044v1.49a2.488 2.488 0 0 0 .8 1.968c.4.43.809.83 1.149 1.15a.423.423 0 0 1-.02.619.451.451 0 0 1-.62.051c-.31-.29-.65-.63-1.029-1.03-.58-.6-.74-.859-.78-1.069h-.01c-.05.239-.2.489-.779 1.089-.38.4-.74.75-1.17 1.149a.474.474 0 0 1-.63-.7c.451-.42.88-.83 1.28-1.26a2.515 2.515 0 0 0 .789-1.968v-1.49c0-.29.25-.419.51-.419s.51.13.51.42zm3.868-.469v2.6h1.1c.26 0 .37.19.37.43s-.11.44-.37.44h-1.1v4.328c0 .289-.24.419-.5.419s-.5-.13-.5-.419v-7.8c0-.29.24-.42.5-.42s.5.132.5.422z" class="cls-6" transform="translate(-775.558 -406.055)"/>
                <path id="패스_253078" d="M796.405 422.665c.58 0 .77.18.77.749v.76c0 1.419-.58 1.819-3.6 3.248a.452.452 0 0 1-.59-.23.429.429 0 0 1 .17-.6c2.769-1.289 3.019-1.549 3.019-2.458v-.4c0-.15-.051-.21-.21-.21h-2.589c-.24 0-.35-.19-.35-.42s.11-.439.35-.439zm2.629 5.327c.58 0 .77.18.77.749v2.289c0 .29-.241.42-.5.42s-.5-.13-.5-.42v-1.979c0-.15-.06-.2-.21-.2h-4.347c-.25 0-.36-.2-.36-.43s.11-.429.36-.429zm.77-5.417v1.739h1.1c.26 0 .37.2.37.43 0 .249-.11.439-.37.439h-1.1v1.959c0 .29-.241.42-.5.42s-.5-.13-.5-.42v-4.567c0-.29.24-.42.5-.42s.496.13.496.42z" class="cls-6" transform="translate(-775.558 -406.055)"/>
                <path id="패스_253079" d="M804.556 422.475v.629h1.738c.24 0 .351.2.351.43s-.111.42-.351.42h-4.577c-.24 0-.35-.2-.35-.42s.11-.43.35-.43h1.839v-.629a.443.443 0 0 1 .5-.42c.259 0 .5.13.5.42zm1.579 3.588c0 .979-.78 1.6-2.079 1.6s-2.079-.62-2.079-1.6.779-1.6 2.079-1.6 2.079.62 2.079 1.6zm-3.259 0c0 .479.4.819 1.18.819s1.179-.34 1.179-.819-.4-.82-1.179-.82-1.18.34-1.18.82zm6.037 3.748c0 1.149-1.08 1.689-2.918 1.689s-2.919-.54-2.919-1.689 1.08-1.689 2.919-1.689 2.918.529 2.918 1.689zm-4.847 0c0 .549.58.889 1.929.889s1.929-.34 1.929-.889-.58-.9-1.929-.9-1.929.34-1.929.9zm4.8-7.246v5.077c0 .28-.24.41-.489.41s-.49-.13-.49-.41v-.69h-1.01c-.24 0-.33-.19-.33-.419s.09-.41.33-.41h1.01v-.83h-1.06c-.24 0-.329-.18-.329-.41s.089-.409.329-.409h1.06v-1.909c0-.28.24-.41.49-.41s.486.13.486.41z" class="cls-6" transform="translate(-775.558 -406.055)"/>
                <path id="패스_253080" d="M818.232 429.491c0 .23-.109.43-.349.43h-7.7c-.24 0-.35-.2-.35-.43s.11-.43.35-.43h7.7c.24 0 .349.19.349.43zM817.113 425c0 1.53-1.149 2.449-3.078 2.449s-3.069-.919-3.069-2.449 1.14-2.458 3.069-2.458 3.078.922 3.078 2.458zm-5.147 0c0 .91.639 1.6 2.069 1.6s2.069-.69 2.069-1.6-.64-1.609-2.069-1.609-2.069.693-2.069 1.609z" class="cls-6" transform="translate(-775.558 -406.055)"/>
                <path id="패스_253081" d="M825.624 423.424v1.329c0 .56-.19.74-.77.74h-4.088c-.15 0-.21.06-.21.21v.75c0 .15.06.2.21.2h4.728c.239 0 .349.2.349.43s-.11.42-.349.42H823.1v1.569h3.348c.24 0 .35.19.35.42s-.11.43-.35.43h-7.7c-.239 0-.35-.2-.35-.43s.111-.42.35-.42h3.352V427.5h-1.759c-.579 0-.769-.18-.769-.75v-1.329c0-.569.19-.739.769-.739h4.088c.15 0 .21-.06.21-.21v-.74c0-.15-.06-.21-.21-.21h-4.527c-.24 0-.35-.19-.35-.42s.11-.429.35-.429h4.947c.585.002.775.181.775.751z" class="cls-6" transform="translate(-775.558 -406.055)"/>
                <path id="패스_253082" d="M834.164 423c0 .23-.11.42-.35.42H832.2v.41a1.316 1.316 0 0 0 .63 1.219c.46.34.869.62 1.219.83a.429.429 0 0 1 .11.61.435.435 0 0 1-.61.139c-.29-.179-.669-.439-1.079-.729-.52-.38-.71-.61-.75-.79h-.009c-.051.21-.26.46-.78.83-.43.31-.83.579-1.269.859a.438.438 0 0 1-.59-.159.42.42 0 0 1 .1-.61c.479-.3.919-.6 1.409-.95a1.355 1.355 0 0 0 .62-1.229v-.43h-1.689c-.25 0-.36-.19-.36-.42s.11-.429.36-.429h4.307c.235.004.345.203.345.429zm1.12 4.3c.579 0 .769.18.769.75v.919c0 .57-.19.75-.769.75h-3.768c-.15 0-.21.05-.21.21v.429c0 .15.06.21.21.21h4.427c.23 0 .33.19.33.4s-.1.4-.33.4h-4.837c-.58 0-.77-.18-.77-.75v-.918c0-.57.19-.75.77-.75h3.758c.159 0 .21-.05.21-.21v-.429c0-.15-.051-.2-.21-.2h-4.218c-.23 0-.33-.19-.33-.41s.1-.4.33-.4zm.769-4.727v1.469h1.1c.26 0 .37.2.37.43 0 .25-.11.44-.37.44h-1.1v1.539c0 .289-.24.42-.5.42s-.5-.131-.5-.42v-3.878c0-.29.239-.42.5-.42s.5.132.5.422z" class="cls-6" transform="translate(-775.558 -406.055)"/>
                <path id="패스_253083" d="M842.194 423.334v1.2c0 .57-.19.749-.769.749h-2.149c-.15 0-.21.05-.21.21v.67c0 .15.06.2.21.2a26.045 26.045 0 0 0 3.618-.21.349.349 0 0 1 .4.349c.031.23-.059.45-.279.48a29.925 29.925 0 0 1-4.158.22c-.58 0-.77-.18-.77-.749v-1.21c0-.57.19-.749.77-.749h2.149c.15 0 .21-.06.21-.21v-.65c0-.16-.06-.21-.21-.21h-2.588c-.23 0-.331-.2-.331-.42s.1-.42.331-.42h3.008c.574 0 .768.181.768.75zm-2.008 4.9v.7h3.9v-.7a.428.428 0 0 1 .48-.4c.25 0 .49.13.49.4v2.339c0 .57-.19.75-.77.75h-4.3c-.579 0-.769-.18-.769-.75v-2.339a.428.428 0 0 1 .48-.4c.248-.002.489.128.489.397zm.159 2.279h3.578c.11 0 .16-.04.16-.15v-.639h-3.9v.639c.003.107.052.147.162.147zm4.708-7.935v4.407c0 .29-.24.41-.5.41s-.5-.12-.5-.41v-4.407c0-.29.24-.42.5-.42s.5.127.5.417z" class="cls-6" transform="translate(-775.558 -406.055)"/>
                <path id="패스_253084" d="M847.686 423.165v4.235c0 .15.06.21.21.21a25.267 25.267 0 0 0 3.568-.22.359.359 0 0 1 .4.37c.03.24-.06.46-.28.489a29.326 29.326 0 0 1-4.138.221c-.579 0-.759-.18-.759-.75v-4.557c0-.3.24-.431.5-.431s.499.133.499.433zm5.937-.59v7.8c0 .289-.24.419-.51.419-.25 0-.5-.13-.5-.419v-7.8a.443.443 0 0 1 .5-.42c.27 0 .51.13.51.42z" class="cls-6" transform="translate(-775.558 -406.055)"/>
                <path id="패스_253085" d="M859.384 423.264c0 .23-.11.42-.349.42h-2.8c-.15 0-.21.06-.21.21v3.538c0 .15.06.21.21.21a24.923 24.923 0 0 0 3.5-.22.359.359 0 0 1 .4.37c.03.24-.06.459-.28.49a28.9 28.9 0 0 1-4.058.219c-.579 0-.769-.179-.769-.749v-4.178c0-.57.19-.749.769-.749h3.239c.238 0 .348.199.348.439zm2.379-.689v2.6h1.1c.26 0 .37.19.37.43s-.11.44-.37.44h-1.1v4.328c0 .289-.24.419-.5.419s-.5-.13-.5-.419v-7.8c0-.29.239-.42.5-.42s.5.132.5.422z" class="cls-6" transform="translate(-775.558 -406.055)"/>
                <path id="패스_253086" d="M864.8 429.611a.675.675 0 1 1-.68-.67.663.663 0 0 1 .68.67z" class="cls-6" transform="translate(-775.558 -406.055)"/>
            </g>
            <g id="그룹_4717" transform="translate(943.193 381.197)">
                <path id="패스_253087" d="M946.656 382.274v6.126c0 .38-.3.55-.64.55s-.64-.17-.64-.55v-5.177l-1.289.739a.566.566 0 0 1-.81-.25.557.557 0 0 1 .2-.789l1.689-.94a1.655 1.655 0 0 1 .819-.259c.381.001.671.171.671.55z" class="cls-5" transform="translate(-943.193 -381.105)"/>
                <path id="패스_253088" d="M953.635 385.123v.43c0 2.2-.81 3.447-2.659 3.447s-2.658-1.249-2.658-3.447v-.43c0-2.2.809-3.448 2.658-3.448s2.659 1.249 2.659 3.448zm-4.028.09v.249c0 1.65.33 2.33 1.369 2.33s1.37-.68 1.37-2.33v-.249c0-1.65-.33-2.329-1.37-2.329s-1.369.679-1.369 2.329z" class="cls-5" transform="translate(-943.193 -381.105)"/>
                <path id="패스_253089" d="M954.5 382.944c-.311 0-.451-.25-.451-.54s.14-.55.451-.55h2.388c.64 0 .849.2.849.83v1.06c0 1.819-.209 2.149-2.848 4.017a.586.586 0 0 1-.789-.17.569.569 0 0 1 .06-.809c2.278-1.579 2.348-1.739 2.348-3.078v-.53c0-.17-.06-.23-.23-.23zm5.276 1.169h.86V381.6a.6.6 0 0 1 1.179 0v7.736a.6.6 0 0 1-1.179 0v-4.147h-.86v3.728a.592.592 0 0 1-1.169 0V381.7a.592.592 0 0 1 1.169 0z" class="cls-5" transform="translate(-943.193 -381.105)"/>
            </g>
            <g id="그룹_4718" transform="translate(1036.068 378.804)">
                <path id="패스_253090" d="M1045.826 387.558l-3.773-3.773 3.613-3.613a.593.593 0 0 0-.838-.839l-3.613 3.614-3.774-3.773a.593.593 0 1 0-.838.838l3.773 3.773-3.933 3.933a.593.593 0 0 0 .839.839l3.933-3.933 3.773 3.773a.593.593 0 1 0 .838-.839z" class="cls-7" transform="translate(-1036.068 -378.804)"/>
                <path id="패스_253091" d="M1036.862 388.933a.787.787 0 0 1-.562-.233.8.8 0 0 1 0-1.125l3.789-3.79-3.629-3.629a.8.8 0 0 1-.233-.564.787.787 0 0 1 .234-.562.811.811 0 0 1 1.124 0l3.63 3.629 3.47-3.47a.8.8 0 0 1 1.125 1.125l-3.47 3.47 3.63 3.63a.8.8 0 0 1 0 1.125.814.814 0 0 1-1.125 0l-3.63-3.629-3.79 3.79a.791.791 0 0 1-.563.233zm.16-9.73a.39.39 0 0 0-.275.666l3.916 3.916-4.076 4.077a.39.39 0 0 0 0 .551.4.4 0 0 0 .551 0l4.077-4.077 3.917 3.916a.4.4 0 0 0 .551 0 .392.392 0 0 0 0-.553l-3.917-3.916 3.756-3.757a.389.389 0 0 0-.55-.551l-3.757 3.756-3.917-3.916a.386.386 0 0 0-.276-.115z" class="cls-2" transform="translate(-1036.068 -378.804)"/>
            </g>
            <rect id="사각형_780" width="40.296" height="38" class="cls-3" rx="7.985" transform="translate(912.022 443.542)"/>
            <rect id="사각형_781" width="40.296" height="38" class="cls-3" rx="7.985" transform="translate(773 443.542)"/>
            <rect id="사각형_782" width="40.296" height="38" class="cls-3" rx="7.985" transform="translate(819.341 443.542)"/>
            <rect id="사각형_783" width="40.296" height="38" class="cls-3" rx="7.985" transform="translate(865.681 443.542)"/>
            <rect id="사각형_784" width="40.296" height="38" class="cls-3" rx="7.985" transform="translate(958.363 443.542)"/>
            <rect id="사각형_785" width="40.296" height="38" class="cls-8" rx="7.985" transform="translate(1004.704 443.542)"/>
            <path id="패스_253092" d="M801.975 458.413l-.061-.01v-3.571a7.971 7.971 0 0 1-7.447-2.832 2.54 2.54 0 0 1-4.615 0 2.543 2.543 0 0 0-2.543 2.543v.562c-.021.011-.043.021-.064.033a2.543 2.543 0 0 0-5.023.559v5.655a2.532 2.532 0 0 0 .106.722 9.408 9.408 0 0 0-.106 1.413v1a9.45 9.45 0 0 0 9.45 9.45h2.08a9.453 9.453 0 0 0 8.708-5.773 2.522 2.522 0 0 0 .6-1.237l.981-5.57a2.543 2.543 0 0 0-2.066-2.944z" class="cls-4" transform="translate(0 .438)"/>
            <path id="패스_253093" d="M983.165 471.542l.008-.062 3.565-.188a2.543 2.543 0 0 0 .54-4.991 8.4 8.4 0 0 1 1.652-7.2 2.543 2.543 0 0 0-2.674-2.406l-.561.03c-.012-.021-.023-.042-.036-.062a2.543 2.543 0 0 0-.823-4.987l-5.648.3a2.523 2.523 0 0 0-.715.143 9.66 9.66 0 0 0-1.416-.031l-1 .053a9.449 9.449 0 0 0-8.938 9.935l.109 2.077a9.455 9.455 0 0 0 6.224 8.392 2.534 2.534 0 0 0 1.267.531l5.614.686a2.544 2.544 0 0 0 2.832-2.22z" class="cls-4" transform="translate(0 .437)"/>
            <path id="패스_253094" d="M883.974 452.532l-.023.057-3.5-.726a2.543 2.543 0 0 0-1.793 4.689 8.4 8.4 0 0 1-3.433 6.545 2.544 2.544 0 0 0 1.975 3.003l.55.114.019.069a2.543 2.543 0 0 0-.474 5.032l5.537 1.15a2.535 2.535 0 0 0 .728.044 9.524 9.524 0 0 0 1.362.39l.981.2a9.45 9.45 0 0 0 11.175-7.33l.423-2.036a9.452 9.452 0 0 0-3.881-9.7 2.518 2.518 0 0 0-1.09-.837l-5.254-2.094a2.545 2.545 0 0 0-3.302 1.43z" class="cls-4" transform="translate(0 .434)"/>
            <path id="패스_253095" d="M845.819 453.563l-3.75-1.888a2.871 2.871 0 0 0-4.021.8 2 2 0 0 0-.042 2.235.481.481 0 0 1-.679.6 6.586 6.586 0 0 0-.947-.33l-3.954-1.4a2.5 2.5 0 0 0-3.051 1.133 2.45 2.45 0 0 0 1.346 3.459l.428.151a2.447 2.447 0 0 0-1.534 1.755 3.3 3.3 0 0 0 2.449 3.062l.774.174v.222a2.451 2.451 0 0 0-1.917 2.87 2.494 2.494 0 0 0 2.477 1.978h.469l.031.061a2.449 2.449 0 0 0-1.9 2.66 2.506 2.506 0 0 0 2.52 2.176h5.359a2.459 2.459 0 0 0 .7-.1 9.222 9.222 0 0 0 1.36.1h.965a9.1 9.1 0 0 0 9.1-9.1v-2a9.1 9.1 0 0 0-6.183-8.618z" class="cls-4" transform="translate(0 .434)"/>
            <path id="패스_253096" d="M922.4 460.7l-.386 3.9a2.645 2.645 0 0 0 2.068 3.206 1.913 1.913 0 0 0 1.98-.734.45.45 0 0 1 .757.382 6.115 6.115 0 0 0 .031.934l.113 3.906a2.309 2.309 0 1 0 4.617-.107l-.013-.422a2.3 2.3 0 0 0 2.065.723 3.1 3.1 0 0 0 1.861-3.177l-.109-.73.194-.077a2.317 2.317 0 0 0 4.075-2.156l-.16-.406.044-.049a2.309 2.309 0 0 0 2.982.725 2.343 2.343 0 0 0 1.059-2.933l-1.82-4.641a2.262 2.262 0 0 0-.325-.567 8.365 8.365 0 0 0-.372-1.212l-.328-.836a8.531 8.531 0 0 0-11.091-4.742l-1.761.691a8.586 8.586 0 0 0-5.481 8.322z" class="cls-4" transform="translate(0 .439)"/>
            <g id="그룹_4719" transform="translate(1017.536 458.746)">
                <path id="패스_253097" d="M1020.714 459.771v1.619h1.629c.29 0 .429.23.429.509s-.139.52-.429.52h-1.629v1.769a.568.568 0 0 1-1.119 0v-1.769h-1.629c-.29 0-.43-.24-.43-.52s.14-.509.43-.509h1.629v-1.619a.568.568 0 0 1 1.119 0z" class="cls-3" transform="translate(-1017.536 -458.332)"/>
                <path id="패스_253098" d="M1029.423 458.332c.31 0 .45.25.45.539s-.14.54-.45.54h-2.538l-.08 1.809a2.45 2.45 0 0 1 1.339-.37 2.084 2.084 0 0 1 2.149 2.2v.1a2.354 2.354 0 0 1-2.579 2.4 3.822 3.822 0 0 1-2.158-.529.582.582 0 0 1-.17-.83.514.514 0 0 1 .769-.189 2.8 2.8 0 0 0 1.549.389 1.161 1.161 0 0 0 1.3-1.249v-.06a1.125 1.125 0 0 0-1.27-1.2 1.854 1.854 0 0 0-1.179.41.733.733 0 0 1-.53.22c-.309 0-.509-.16-.5-.429l.161-2.879c.04-.7.2-.869.849-.869z" class="cls-3" transform="translate(-1017.536 -458.332)"/>
            </g>
        </g>
        <g id="그룹_4725" transform="translate(4943 2446)">
            <rect id="사각형_786" width="302.5" height="135.5" class="cls-1" rx="12.691" transform="translate(756 514)"/>
            <path id="패스_253099" fill="#fff" stroke="#ddd" stroke-miterlimit="10" d="M927.712 549.345H776.7a4.262 4.262 0 0 1-4.5-3.981v-12.038c0-2.2 2.013-3.981 5.5-3.981h151.012a4.1 4.1 0 0 1 3.5 3.981v12.038a4.262 4.262 0 0 1-4.5 3.981z"/>
            <g id="그룹_4721">
                <path id="패스_253100" d="M782.687 536.134v1.189h4.137v-1.189a.446.446 0 0 1 .49-.42c.26 0 .51.14.51.42v3.528c0 .57-.19.75-.77.75h-1.8v1.8h3.346c.239 0 .349.19.349.42s-.11.43-.349.43h-7.7c-.24 0-.35-.2-.35-.43s.11-.42.35-.42h3.348v-1.8h-1.8c-.58 0-.76-.18-.76-.75v-3.528a.44.44 0 0 1 .49-.42.449.449 0 0 1 .509.42zm.209 3.428h3.718c.151 0 .21-.05.21-.2v-1.189h-4.137v1.189c0 .15.06.2.213.2z" class="cls-5"/>
            </g>
            <g id="그룹_4722">
                <path id="패스_253101" d="M781.953 564.373c0 .239-.11.42-.349.42h-7.7c-.24 0-.35-.181-.35-.42s.11-.41.35-.41h5.587a6.527 6.527 0 0 0 .19-1.039l-4.8.09c-.22 0-.33-.18-.34-.391-.01-.239.1-.43.33-.43l4.857-.048c.011-.112.011-.221.011-.34v-.381c0-.15-.051-.209-.21-.209h-4.478c-.24 0-.34-.191-.34-.41s.1-.42.34-.42h4.9c.58 0 .77.179.77.75v.6a8.658 8.658 0 0 1-.28 2.229h1.16c.242-.001.352.179.352.409zm-1.909 1.209c.58 0 .77.18.77.75v.779c0 .57-.19.75-.77.75h-4.228c-.109 0-.159.039-.159.15v.439c0 .111.05.15.159.15h4.884a.348.348 0 0 1 .33.39c0 .21-.11.4-.33.4h-5.247c-.58 0-.77-.18-.77-.749v-.78c0-.57.19-.75.77-.75h4.228c.109 0 .159-.05.159-.15v-.44c0-.1-.05-.15-.159-.15h-4.7c-.22 0-.32-.189-.32-.4s.1-.39.32-.39z" class="cls-6"/>
                <path id="패스_253102" d="M785.906 561.584v1.789c0 .57-.19.75-.77.75h-1.559c-.16 0-.21.05-.21.2v1.26c0 .15.05.2.21.2a19.7 19.7 0 0 0 2.538-.149.348.348 0 0 1 .39.36c.03.239-.06.449-.279.489a22.437 22.437 0 0 1-3.059.161c-.58 0-.77-.181-.77-.75v-1.849c0-.57.19-.74.77-.74h1.569c.15 0 .21-.06.21-.209v-1.2c0-.151-.06-.2-.21-.2h-1.989c-.249 0-.35-.2-.35-.43s.1-.43.35-.43h2.389c.58-.002.77.179.77.748zm4.047-1.039v7.855c0 .27-.229.39-.47.39a.408.408 0 0 1-.459-.39v-4.328h-1.069v3.908c0 .27-.23.391-.47.391a.409.409 0 0 1-.46-.391v-7.335a.408.408 0 0 1 .46-.39c.24 0 .47.12.47.39v2.578h1.069v-2.678a.409.409 0 0 1 .459-.391c.241 0 .47.121.47.391z" class="cls-6"/>
                <path id="패스_253103" d="M799.093 567.49c0 .231-.11.431-.35.431h-7.7c-.239 0-.35-.2-.35-.431s.111-.429.35-.429h7.7c.24 0 .35.19.35.429zm-3.688-6.49v.58a1.856 1.856 0 0 0 .979 1.8c.6.39 1.23.75 1.879 1.119a.432.432 0 0 1 .09.59.45.45 0 0 1-.589.2c-.63-.35-1.28-.729-1.839-1.1-.67-.429-.96-.769-1.02-1.019h-.01c-.07.269-.36.609-1.029 1.039-.56.359-1.2.75-1.839 1.1a.456.456 0 0 1-.59-.2.445.445 0 0 1 .09-.61c.65-.369 1.279-.729 1.879-1.119a1.854 1.854 0 0 0 .979-1.8V561c0-.3.24-.43.51-.43s.51.135.51.43z" class="cls-6"/>
                <path id="패스_253104" d="M805.925 561.074c0 .231-.11.43-.35.43h-2.759c-.149 0-.209.051-.209.2v2.1c0 .16.06.21.209.21a26.644 26.644 0 0 0 3.5-.21.351.351 0 0 1 .4.359c.031.24-.06.461-.279.481a29.069 29.069 0 0 1-4.058.219c-.58 0-.77-.179-.77-.749V561.4c0-.571.19-.75.77-.75h3.2c.236-.005.346.195.346.424zm2.469 6.537c0 1.249-1.05 1.889-2.859 1.889s-2.858-.64-2.858-1.889 1.049-1.889 2.858-1.889 2.859.639 2.859 1.889zm-4.728 0c0 .66.55 1.079 1.869 1.079s1.869-.419 1.869-1.079-.56-1.08-1.869-1.08-1.869.42-1.869 1.08zm4.678-7.037v1.789h1.1c.26 0 .37.2.37.43 0 .25-.11.44-.37.44h-1.1v1.99c0 .279-.24.409-.5.409s-.5-.13-.5-.409v-4.649c0-.289.24-.42.5-.42s.5.131.5.42z" class="cls-6"/>
                <path id="패스_253105" d="M818.555 561.215c0 .239-.1.43-.35.43H815.5l-.12 2.209a2.372 2.372 0 0 1 1.439-.461 2.051 2.051 0 0 1 2.16 2.179v.11a2.262 2.262 0 0 1-2.513 2.318 3.833 3.833 0 0 1-2.159-.579.453.453 0 0 1-.13-.65.4.4 0 0 1 .61-.15 2.988 2.988 0 0 0 1.669.471 1.352 1.352 0 0 0 1.519-1.42v-.07a1.277 1.277 0 0 0-1.449-1.389 1.894 1.894 0 0 0-1.27.47.628.628 0 0 1-.459.19c-.25 0-.43-.131-.42-.351l.17-2.967c.04-.611.19-.77.769-.77h2.889c.25 0 .35.199.35.43z" class="cls-6"/>
                <path id="패스_253106" d="M822.335 560.9c.58 0 .77.18.77.75v1.059c0 1.82-.26 2.119-2.928 4.008a.483.483 0 0 1-.57-.77c2.4-1.648 2.539-1.828 2.539-3.277v-.7c0-.151-.061-.2-.21-.2h-2.029c-.25 0-.36-.2-.36-.429s.11-.44.36-.44zm4.808-.359v7.859c0 .27-.23.39-.47.39a.408.408 0 0 1-.46-.39v-4.328h-1.129v3.908c0 .27-.23.391-.47.391a.409.409 0 0 1-.46-.391v-7.335a.408.408 0 0 1 .46-.39c.24 0 .47.12.47.39v2.578h1.129v-2.678a.409.409 0 0 1 .46-.391c.24 0 .47.121.47.391z" class="cls-6"/>
                <path id="패스_253107" d="M834.9 563.652c0 1.94-.8 2.99-2.349 2.99s-2.339-1.05-2.339-2.99.79-2.988 2.339-2.988 2.349 1.05 2.349 2.988zm-3.719 0c0 1.36.39 2.11 1.37 2.11s1.379-.75 1.379-2.11-.39-2.108-1.379-2.108-1.375.75-1.375 2.108zm6.217-3.078v7.8c0 .289-.24.419-.51.419-.25 0-.5-.13-.5-.419v-7.8a.443.443 0 0 1 .5-.42c.265 0 .505.131.505.42z" class="cls-6"/>
                <path id="패스_253108" d="M841.665 560.875v.919a1.742 1.742 0 0 0 .66 1.47c.469.388.889.709 1.219.949a.415.415 0 0 1 .07.609.423.423 0 0 1-.61.12c-.27-.19-.679-.5-1.1-.849-.5-.4-.679-.65-.73-.85h-.009c-.051.22-.26.489-.75.89-.42.349-.83.67-1.249.969a.451.451 0 0 1-.62-.12.443.443 0 0 1 .08-.639c.47-.34.89-.659 1.359-1.05a1.744 1.744 0 0 0 .66-1.479v-.939c0-.291.25-.42.509-.42s.511.129.511.42zm3.918 6.736c0 1.249-1.049 1.889-2.858 1.889s-2.859-.64-2.859-1.889 1.05-1.889 2.859-1.889 2.858.639 2.858 1.889zm-4.728 0c0 .66.55 1.079 1.87 1.079s1.869-.419 1.869-1.079-.56-1.08-1.869-1.08-1.87.42-1.87 1.08zm4.678-7.037v1.789h1.1c.26 0 .37.2.37.43 0 .25-.11.44-.37.44h-1.1v1.99c0 .279-.24.409-.5.409s-.5-.13-.5-.409v-4.649c0-.289.239-.42.5-.42s.5.131.5.42z" class="cls-6"/>
                <path id="패스_253109" d="M853.193 566.551c.02.23-.069.44-.3.461-1.6.149-3.469.209-5.428.209-.239 0-.349-.2-.349-.43s.11-.43.349-.43c1.769 0 3.509-.019 5.358-.189.23-.02.361.14.37.379zm-.7-3.7a2.432 2.432 0 1 1-2.419-2.179 2.142 2.142 0 0 1 2.42 2.182zm-3.888 0a1.475 1.475 0 1 0 1.469-1.34 1.3 1.3 0 0 0-1.468 1.343zm6.106-2.28v7.8c0 .289-.239.419-.5.419a.434.434 0 0 1-.49-.419v-7.8a.435.435 0 0 1 .49-.42c.262.003.501.134.501.423z" class="cls-6"/>
                <path id="패스_253110" d="M861.535 561.324c0 .231-.11.42-.36.42h-2.159c-.15 0-.21.061-.21.21v3.478c0 .15.06.211.21.211a19.457 19.457 0 0 0 2.508-.161c.221-.03.371.129.391.37s-.061.45-.28.49a22.643 22.643 0 0 1-3.059.16c-.579 0-.769-.18-.769-.75v-4.117c0-.571.19-.75.769-.75h2.6c.249 0 .359.199.359.439zm2.028-.679v7.335a.409.409 0 0 1-.459.391c-.24 0-.47-.121-.47-.391v-3.967h-1.459c-.24 0-.35-.2-.35-.43s.11-.43.35-.43h1.459v-2.508c0-.27.23-.39.47-.39a.408.408 0 0 1 .459.39zm1.8-.1v7.855c0 .27-.229.39-.469.39a.408.408 0 0 1-.46-.39v-7.855a.409.409 0 0 1 .46-.391c.239 0 .468.121.468.391z" class="cls-6"/>
                <path id="패스_253111" d="M871.144 563.652c0 1.94-.8 2.99-2.349 2.99s-2.338-1.05-2.338-2.99.789-2.988 2.338-2.988 2.349 1.05 2.349 2.988zm-3.718 0c0 1.36.39 2.11 1.369 2.11s1.379-.75 1.379-2.11-.389-2.108-1.379-2.108-1.369.75-1.369 2.108zm6.217-3.078v7.8c0 .289-.24.419-.51.419-.25 0-.5-.13-.5-.419v-7.8a.444.444 0 0 1 .5-.42c.267 0 .51.131.51.42z" class="cls-6"/>
                <path id="패스_253112" d="M879.5 561.205c0 .229-.11.43-.35.43h-2.768c-.16 0-.21.049-.21.2v1.409h2.578c.24 0 .35.181.35.409s-.11.42-.35.42h-2.578v1.449c0 .151.05.2.21.2a25.076 25.076 0 0 0 3.508-.21c.23-.03.379.131.4.37s-.06.45-.279.479a28.832 28.832 0 0 1-4.058.221c-.58 0-.77-.181-.77-.75v-4.308c0-.569.19-.75.77-.75h3.2c.241 0 .347.201.347.431zm2.768-.631v7.8c0 .289-.24.419-.5.419a.433.433 0 0 1-.489-.419V564h-1.3c-.249 0-.359-.19-.359-.43s.11-.43.359-.43h1.3v-2.569a.434.434 0 0 1 .489-.42c.264.003.504.134.504.423z" class="cls-6"/>
                <path id="패스_253113" d="M891.642 564.873c0 .219-.11.389-.34.389h-7.716c-.23 0-.34-.17-.34-.389s.11-.4.34-.4h7.714c.232 0 .342.17.342.4zm-1.14 1.758v.631c0 .568-.19.749-.769.749h-4.238c-.11 0-.16.04-.16.149v.33c0 .11.05.151.16.151h4.9a.344.344 0 0 1 .329.379c0 .21-.11.39-.329.39h-5.248c-.58 0-.77-.18-.77-.75v-.639c0-.57.19-.75.77-.75h4.238c.1 0 .15-.041.15-.15v-.32c0-.11-.05-.159-.15-.159h-4.708c-.219 0-.32-.181-.32-.38s.1-.38.32-.38h5.058c.577 0 .765.18.765.749zm-.06-5.557v.64c0 .559-.19.739-.769.739h-4.118a.139.139 0 0 0-.16.16v.33c0 .1.05.151.16.151h4.787c.22 0 .32.179.32.379s-.1.381-.32.381h-5.137c-.58 0-.769-.17-.769-.741v-.639c0-.57.189-.749.769-.749h4.118c.11 0 .16-.051.16-.161v-.32c0-.1-.05-.15-.16-.15h-4.588c-.219 0-.319-.18-.319-.379s.1-.391.319-.391h4.938c.579 0 .769.181.769.75z" class="cls-6"/>
                <path id="패스_253114" d="M896.995 560.475v.629h1.789c.239 0 .349.2.349.43s-.11.42-.349.42h-4.678c-.24 0-.35-.2-.35-.42s.11-.43.35-.43h1.889v-.629a.444.444 0 0 1 .5-.42c.26 0 .5.131.5.42zm1.629 3.588c0 .98-.8 1.6-2.129 1.6s-2.129-.619-2.129-1.6.8-1.6 2.129-1.6 2.129.621 2.129 1.6zm2.269 3.048v1.919c0 .29-.241.419-.5.419a.434.434 0 0 1-.49-.419v-1.619c0-.149-.06-.2-.21-.2h-4.358c-.25 0-.359-.2-.359-.42s.109-.43.359-.43h4.788c.577 0 .77.18.77.75zm-5.627-3.048c0 .48.429.82 1.229.82s1.229-.34 1.229-.82-.42-.82-1.229-.82-1.229.34-1.229.82zm5.627-3.489v1.93H902c.249 0 .36.2.36.43s-.111.439-.36.439h-1.109v2.139c0 .28-.241.41-.5.41s-.49-.13-.49-.41v-4.938a.435.435 0 0 1 .49-.42c.261 0 .502.131.502.42z" class="cls-6"/>
                <path id="패스_253115" d="M910.751 564.883c0 .229-.109.42-.349.42h-7.7c-.24 0-.35-.191-.35-.42s.11-.42.35-.42h7.7c.24 0 .349.18.349.42zm-3.688-4.168v.33c0 .549.3.879 1 1.189.65.289 1.189.51 1.779.74a.452.452 0 0 1-.37.809c-.53-.2-1.119-.439-1.659-.679-.889-.38-1.189-.68-1.249-.92h-.01c-.07.269-.36.56-1.249.939-.55.24-1.11.471-1.65.68a.464.464 0 0 1-.389-.829c.589-.23 1.129-.451 1.779-.74.7-.31 1-.64 1-1.189v-.33c0-.3.24-.43.51-.43s.508.13.508.43zm-2.6 5.607v.629h4.178v-.629a.429.429 0 0 1 .48-.41c.249 0 .5.129.5.41v2.288c0 .57-.19.749-.769.749h-4.6c-.58 0-.759-.179-.759-.749v-2.288a.428.428 0 0 1 .479-.41c.253 0 .493.129.493.41zm.16 2.229h3.858c.11 0 .16-.041.16-.151v-.66h-4.178v.66c.002.11.052.151.162.151z" class="cls-6"/>
                <path id="패스_253116" d="M914.374 561.035v1.508a2.5 2.5 0 0 0 .81 1.97c.4.429.809.829 1.149 1.149a.423.423 0 0 1-.02.619.451.451 0 0 1-.62.051c-.31-.291-.649-.631-1.029-1.029-.58-.6-.749-.861-.789-1.08h-.011c-.05.24-.21.5-.789 1.1-.38.4-.74.75-1.17 1.15a.475.475 0 0 1-.629-.7c.45-.419.879-.829 1.279-1.258a2.525 2.525 0 0 0 .8-1.97v-1.508c0-.291.25-.42.51-.42s.509.127.509.418zm4.088-.461v7.8c0 .289-.24.419-.51.419-.25 0-.5-.13-.5-.419v-7.8a.444.444 0 0 1 .5-.42c.27 0 .51.131.51.42z" class="cls-6"/>
                <path id="패스_253117" d="M924.093 561.574v1.28c0 1.859-.429 2.308-3.448 4.068a.472.472 0 0 1-.49-.8c2.129-1.209 2.729-1.629 2.9-2.338l-2.848.17c-.241.02-.36-.17-.38-.41-.011-.21.08-.439.329-.449l2.969-.141V561.9c0-.161-.06-.211-.21-.211h-2.489c-.25 0-.36-.2-.36-.43s.11-.43.36-.43h2.9c.574-.005.767.171.767.745zm3-1v7.8c0 .289-.24.419-.5.419a.439.439 0 0 1-.49-.419v-3.159h-1.229c-.25 0-.35-.2-.35-.43s.1-.429.35-.429h1.226v-1.36h-1.189c-.25 0-.35-.2-.35-.43s.1-.429.35-.429h1.189v-1.56a.44.44 0 0 1 .49-.42c.262-.003.502.128.502.417z" class="cls-6"/>
                <path id="패스_253118" d="M932.883 563.652c0 1.94-.8 2.979-2.339 2.979s-2.329-1.039-2.329-2.979.79-2.977 2.329-2.977 2.339 1.039 2.339 2.977zm-3.7 0c0 1.36.39 2.1 1.359 2.1s1.37-.74 1.37-2.1-.39-2.1-1.37-2.1-1.357.742-1.357 2.1zm5.987-3.078v1.459h1.03c.24 0 .35.191.35.431s-.11.43-.35.43h-1.029v1.419h1.029c.24 0 .35.189.35.429s-.11.43-.35.43h-1.029v3.2c0 .289-.24.419-.5.419s-.5-.13-.5-.419v-7.8c0-.289.24-.42.5-.42s.501.133.501.422z" class="cls-6"/>
                <path id="패스_253119" d="M941.834 560.555v.859h1.8c.24 0 .35.19.35.42s-.11.43-.35.43h-4.708c-.239 0-.349-.2-.349-.43s.11-.42.349-.42h1.909v-.859a.443.443 0 0 1 .5-.42c.259 0 .499.13.499.42zm1.649 4.328a2.157 2.157 0 1 1-2.149-1.969 1.932 1.932 0 0 1 2.149 1.969zm-3.388 0a1.242 1.242 0 1 0 1.239-1.16 1.129 1.129 0 0 0-1.239 1.16zm5.617-4.309v2.7h1.1c.26 0 .37.19.37.43s-.11.44-.37.44h-1.1v4.228c0 .289-.24.419-.5.419a.434.434 0 0 1-.49-.419v-7.8a.435.435 0 0 1 .49-.42c.26.002.5.133.5.422z" class="cls-6"/>
                <path id="패스_253120" d="M951.853 561.574v4.158c0 .57-.19.749-.77.749h-2.668c-.58 0-.77-.179-.77-.749v-4.158c0-.57.19-.75.77-.75h2.668c.58 0 .77.176.77.75zm-3.228.31v3.538c0 .15.06.2.209.2h1.83c.159 0 .21-.05.21-.2v-3.538c0-.15-.051-.2-.21-.2h-1.83c-.149 0-.209.05-.209.2zm6.146-1.31v7.8c0 .289-.24.419-.5.419a.439.439 0 0 1-.489-.419v-3.2h-1.139c-.24 0-.351-.19-.351-.43s.111-.42.351-.42h1.139v-1.339h-1.139c-.24 0-.351-.19-.351-.429s.111-.42.351-.42h1.139v-1.56a.44.44 0 0 1 .489-.42c.26-.002.5.129.5.418z" class="cls-6"/>
                <path id="패스_253121" d="M957.194 567.581l-.5 1.5a.42.42 0 0 1-.51.3.343.343 0 0 1-.31-.42l.26-1.608a.53.53 0 0 1 .67-.4.451.451 0 0 1 .39.628z" class="cls-6"/>
                <path id="패스_253122" d="M967.271 560.574v4.109a.434.434 0 0 1-.49.419c-.26 0-.5-.129-.5-.419v-1.589h-1.758a2.145 2.145 0 1 1 .01-.85h1.748v-1.67c0-.289.24-.42.5-.42a.435.435 0 0 1 .49.42zm-6.346 2.09a1.34 1.34 0 1 0 1.339-1.33 1.214 1.214 0 0 0-1.339 1.33zm1.449 3.277v.84h3.918v-.84a.428.428 0 0 1 .479-.409c.26 0 .5.13.5.409v2.629c0 .571-.189.75-.769.75h-4.338c-.58 0-.769-.179-.769-.75v-2.629a.429.429 0 0 1 .48-.409c.249 0 .499.13.499.409zm0 2.35c0 .149.05.209.21.209h3.5c.15 0 .21-.06.21-.209v-.71h-3.918z" class="cls-6"/>
                <path id="패스_253123" d="M975.461 561.424v1.33c0 .559-.19.739-.77.739H970.6c-.15 0-.209.06-.209.21v.75c0 .15.059.2.209.2h4.728c.239 0 .35.2.35.43s-.111.42-.35.42h-2.389v1.569h3.348c.24 0 .35.191.35.419s-.11.431-.35.431h-7.7c-.241 0-.351-.2-.351-.431s.11-.419.351-.419h3.347V565.5h-1.759c-.58 0-.77-.18-.77-.75v-1.328c0-.57.19-.74.77-.74h4.087c.151 0 .211-.061.211-.21v-.74c0-.15-.06-.21-.211-.21h-4.527c-.24 0-.349-.19-.349-.42s.109-.429.349-.429h4.947c.589.002.779.181.779.751z" class="cls-6"/>
                <path id="패스_253124" d="M985.211 567.49c0 .231-.11.431-.35.431h-7.7c-.239 0-.351-.2-.351-.431s.112-.429.351-.429h7.7c.239 0 .35.19.35.429zm-1.17-6.3c0 .229-.109.429-.35.429h-4.527c-.15 0-.21.05-.21.2v2.3c0 .15.06.209.21.209h4.627c.24 0 .35.191.35.42s-.11.43-.35.43h-5.077c-.579 0-.759-.18-.759-.75V561.5c0-.569.18-.75.759-.75h4.977c.241.004.35.205.35.435z" class="cls-6"/>
                <path id="패스_253125" d="M988.594 560.555v.63h1.789c.239 0 .349.2.349.429s-.11.43-.349.43h-4.678c-.24 0-.35-.2-.35-.43s.11-.429.35-.429h1.889v-.63a.443.443 0 0 1 .5-.42c.26 0 .5.13.5.42zm1.629 3.717c0 1.01-.8 1.669-2.129 1.669s-2.129-.659-2.129-1.669.8-1.668 2.129-1.668 2.129.66 2.129 1.668zm-2.459 2.6v1.31c0 .149.049.2.21.2h4.4c.25 0 .359.2.359.439s-.109.43-.359.43h-4.848c-.579 0-.769-.18-.769-.75v-1.629c0-.289.24-.42.51-.42a.444.444 0 0 1 .497.419zm-.9-2.6c0 .51.43.88 1.23.88s1.228-.37 1.228-.88-.42-.879-1.228-.879-1.23.36-1.23.879zm5.627-3.7v2.249h1.11c.249 0 .36.191.36.431s-.111.43-.36.43h-1.11v2.908c0 .289-.24.42-.5.42a.435.435 0 0 1-.489-.42v-6.018a.435.435 0 0 1 .489-.42c.26.002.5.133.5.422z" class="cls-6"/>
                <path id="패스_253126" d="M1000.963 563.652c0 1.94-.8 2.99-2.35 2.99s-2.338-1.05-2.338-2.99.789-2.988 2.338-2.988 2.35 1.05 2.35 2.988zm-3.719 0c0 1.36.391 2.11 1.369 2.11s1.379-.75 1.379-2.11-.388-2.108-1.379-2.108-1.369.75-1.369 2.108zm6.217-3.078v7.8c0 .289-.24.419-.51.419-.25 0-.5-.13-.5-.419v-7.8a.444.444 0 0 1 .5-.42c.27 0 .51.131.51.42z" class="cls-6"/>
                <path id="패스_253127" d="M1009.352 561.564v4.178c0 .57-.19.749-.77.749h-2.788c-.579 0-.77-.179-.77-.749v-4.178c0-.57.191-.75.77-.75h2.788c.58 0 .77.18.77.75zm-3.338.31v3.558c0 .15.06.2.21.2h1.928c.151 0 .211-.05.211-.2v-3.558c0-.149-.06-.2-.211-.2h-1.928c-.15 0-.21.051-.21.2zm6.017-1.3v7.8c0 .289-.24.419-.51.419-.25 0-.5-.13-.5-.419v-7.8a.444.444 0 0 1 .5-.42c.27 0 .51.131.51.42z" class="cls-6"/>
                <path id="패스_253128" d="M1018.521 561.274c0 .23-.109.43-.349.43h-1.639v.96a2.349 2.349 0 0 0 .77 1.939c.42.429.84.829 1.169 1.109a.423.423 0 0 1-.021.62.429.429 0 0 1-.609.06c-.289-.26-.65-.611-1.059-1.01-.57-.579-.71-.819-.75-1.029h-.01c-.05.229-.179.469-.759 1.049-.4.4-.78.77-1.2 1.139a.446.446 0 0 1-.629-.09.421.421 0 0 1 .02-.619c.459-.41.869-.8 1.289-1.229a2.349 2.349 0 0 0 .77-1.939v-.96h-1.69c-.25 0-.359-.2-.359-.43s.109-.429.359-.429h4.348c.24 0 .349.2.349.429zm2.08-.7v7.8c0 .289-.24.419-.51.419-.25 0-.5-.13-.5-.419v-7.8a.444.444 0 0 1 .5-.42c.27 0 .509.131.509.42z" class="cls-6"/>
                <path id="패스_253129" d="M1030.029 565.262c0 .23-.109.429-.349.429h-7.7c-.24 0-.349-.2-.349-.429s.109-.42.349-.42h7.7c.24 0 .349.19.349.42zm-6.256 1.609v1.359c0 .151.061.21.21.21h4.728c.24 0 .35.191.35.42s-.11.43-.35.43h-5.178c-.58 0-.76-.181-.76-.749v-1.67c0-.289.241-.42.5-.42s.5.131.5.42zm.02-6.057v1.93c0 .15.061.2.21.2h4.687c.241 0 .351.2.351.43s-.11.42-.351.42h-5.137c-.579 0-.759-.18-.759-.75v-2.229c0-.3.239-.429.5-.429s.499.129.499.428z" class="cls-6"/>
                <path id="패스_253130" d="M778.875 577.1c0 .23-.11.42-.35.42h-1.6v.54a1.63 1.63 0 0 0 .659 1.429c.46.38.89.7 1.19.909a.417.417 0 0 1 .08.61.447.447 0 0 1-.62.121c-.22-.16-.63-.471-1.059-.811-.51-.4-.68-.629-.73-.829h-.01c-.05.22-.249.47-.749.88-.44.34-.86.649-1.24.919a.46.46 0 0 1-.53-.749c.46-.33.89-.641 1.36-1.02a1.653 1.653 0 0 0 .65-1.439v-.56h-1.67c-.249 0-.36-.19-.36-.42s.111-.429.36-.429h4.268c.241.004.351.204.351.429zm2.329 6.507c0 1.249-1.08 1.889-2.929 1.889s-2.928-.64-2.928-1.889 1.079-1.889 2.928-1.889 2.925.643 2.925 1.893zm-4.868 0c0 .66.58 1.079 1.939 1.079s1.939-.419 1.939-1.079-.589-1.08-1.939-1.08-1.939.424-1.939 1.084zm4.818-7.037v4.649c0 .279-.24.409-.49.409s-.5-.13-.5-.409v-1.93h-1.439c-.25 0-.36-.2-.36-.43s.11-.429.36-.429h1.439v-1.86c0-.289.24-.42.5-.42a.435.435 0 0 1 .49.424z" class="cls-6"/>
                <path id="패스_253131" d="M785.366 577.045v1.488a2.489 2.489 0 0 0 .8 1.969c.4.43.809.83 1.149 1.15a.423.423 0 0 1-.02.619.451.451 0 0 1-.62.051c-.31-.291-.65-.631-1.029-1.03-.58-.6-.74-.859-.78-1.069h-.01c-.05.24-.2.49-.779 1.09-.38.4-.74.749-1.17 1.148a.474.474 0 0 1-.63-.7c.451-.42.88-.83 1.28-1.26a2.516 2.516 0 0 0 .789-1.969v-1.488c0-.291.25-.42.51-.42s.51.13.51.421zm3.868-.471v2.6h1.1c.26 0 .37.189.37.43s-.11.439-.37.439h-1.1v4.328c0 .289-.24.419-.5.419s-.5-.13-.5-.419v-7.8c0-.289.24-.42.5-.42s.5.134.5.423z" class="cls-6"/>
                <path id="패스_253132" d="M794.405 576.664c.58 0 .77.181.77.75v.76c0 1.42-.58 1.818-3.6 3.248a.452.452 0 0 1-.59-.23.429.429 0 0 1 .17-.6c2.769-1.289 3.019-1.549 3.019-2.458v-.4c0-.15-.051-.21-.21-.21h-2.589c-.24 0-.35-.19-.35-.42s.11-.44.35-.44zm2.629 5.328c.58 0 .77.18.77.749v2.289c0 .29-.241.419-.5.419s-.5-.129-.5-.419v-1.979c0-.15-.06-.2-.21-.2h-4.347c-.25 0-.36-.2-.36-.43s.11-.43.36-.43zm.77-5.418v1.74h1.1c.26 0 .37.2.37.43 0 .249-.11.44-.37.44h-1.1v1.959c0 .289-.241.42-.5.42s-.5-.131-.5-.42v-4.569c0-.289.24-.42.5-.42s.496.131.496.42z" class="cls-6"/>
                <path id="패스_253133" d="M802.556 576.475v.629h1.738c.24 0 .351.2.351.43s-.111.42-.351.42h-4.577c-.24 0-.35-.2-.35-.42s.11-.43.35-.43h1.839v-.629a.444.444 0 0 1 .5-.42c.259 0 .5.131.5.42zm1.579 3.588c0 .98-.78 1.6-2.079 1.6s-2.079-.619-2.079-1.6.779-1.6 2.079-1.6 2.079.621 2.079 1.6zm-3.259 0c0 .48.4.82 1.18.82s1.179-.34 1.179-.82-.4-.82-1.179-.82-1.18.34-1.18.82zm6.037 3.748c0 1.149-1.08 1.689-2.918 1.689s-2.919-.54-2.919-1.689 1.08-1.69 2.919-1.69 2.918.53 2.918 1.69zm-4.847 0c0 .549.58.889 1.929.889s1.929-.34 1.929-.889-.58-.9-1.929-.9-1.929.34-1.929.9zm4.8-7.247v5.079c0 .279-.24.409-.489.409s-.49-.13-.49-.409v-.691h-1.01c-.24 0-.33-.19-.33-.419s.09-.41.33-.41h1.01v-.83h-1.06c-.24 0-.329-.18-.329-.41s.089-.409.329-.409h1.06v-1.91c0-.279.24-.41.49-.41s.486.131.486.41z" class="cls-6"/>
                <path id="패스_253134" d="M816.232 583.49c0 .231-.109.431-.349.431h-7.7c-.24 0-.35-.2-.35-.431s.11-.429.35-.429h7.7c.24 0 .349.19.349.429zm-1.119-4.49c0 1.529-1.149 2.448-3.078 2.448s-3.069-.919-3.069-2.448 1.14-2.459 3.069-2.459 3.078.924 3.078 2.459zm-5.147 0c0 .909.639 1.6 2.069 1.6s2.069-.69 2.069-1.6-.64-1.609-2.069-1.609-2.069.693-2.069 1.609z" class="cls-6"/>
                <path id="패스_253135" d="M823.624 577.424v1.33c0 .559-.19.739-.77.739h-4.088c-.15 0-.21.06-.21.21v.75c0 .15.06.2.21.2h4.728c.239 0 .349.2.349.43s-.11.42-.349.42H821.1v1.569h3.348c.24 0 .35.191.35.419s-.11.431-.35.431h-7.7c-.239 0-.35-.2-.35-.431s.111-.419.35-.419h3.352V581.5h-1.759c-.579 0-.769-.18-.769-.75v-1.328c0-.57.19-.74.769-.74h4.088c.15 0 .21-.061.21-.21v-.74c0-.15-.06-.21-.21-.21h-4.527c-.24 0-.35-.19-.35-.42s.11-.429.35-.429h4.947c.585.002.775.181.775.751z" class="cls-6"/>
                <path id="패스_253136" d="M832.164 577c0 .23-.11.42-.35.42H830.2v.41a1.316 1.316 0 0 0 .63 1.219c.46.34.869.62 1.219.83a.428.428 0 0 1 .11.609.436.436 0 0 1-.61.141c-.29-.18-.669-.44-1.079-.731-.52-.379-.71-.609-.75-.789h-.009c-.051.21-.26.46-.78.83-.43.31-.83.579-1.269.86a.439.439 0 0 1-.59-.16.42.42 0 0 1 .1-.61c.479-.3.919-.6 1.409-.949a1.356 1.356 0 0 0 .62-1.23v-.43h-1.689c-.25 0-.36-.19-.36-.42s.11-.43.36-.43h4.307c.235.004.345.204.345.43zm1.12 4.3c.579 0 .769.179.769.749v.919c0 .57-.19.75-.769.75h-3.768c-.15 0-.21.05-.21.21v.429c0 .15.06.21.21.21h4.427c.23 0 .33.19.33.4s-.1.4-.33.4h-4.837c-.58 0-.77-.181-.77-.75v-.917c0-.57.19-.75.77-.75h3.758c.159 0 .21-.05.21-.21v-.429c0-.15-.051-.2-.21-.2h-4.218c-.23 0-.33-.189-.33-.41s.1-.4.33-.4zm.769-4.729v1.47h1.1c.26 0 .37.2.37.43 0 .25-.11.44-.37.44h-1.1v1.539c0 .289-.24.42-.5.42s-.5-.131-.5-.42v-3.879c0-.289.239-.42.5-.42s.5.134.5.423z" class="cls-6"/>
                <path id="패스_253137" d="M840.194 577.334v1.2c0 .571-.19.75-.769.75h-2.149c-.15 0-.21.05-.21.21v.669c0 .151.06.2.21.2a25.879 25.879 0 0 0 3.618-.211.35.35 0 0 1 .4.35c.031.23-.059.45-.279.48a29.923 29.923 0 0 1-4.158.22c-.58 0-.77-.18-.77-.749v-1.21c0-.569.19-.749.77-.749h2.149c.15 0 .21-.06.21-.211v-.648c0-.16-.06-.211-.21-.211h-2.588c-.23 0-.331-.2-.331-.42s.1-.42.331-.42h3.008c.574 0 .768.181.768.75zm-2.008 4.9v.7h3.9v-.7a.428.428 0 0 1 .48-.4c.25 0 .49.13.49.4v2.339c0 .571-.19.75-.77.75h-4.3c-.579 0-.769-.179-.769-.75v-2.339a.428.428 0 0 1 .48-.4c.248-.002.489.128.489.397zm.159 2.279h3.578c.11 0 .16-.039.16-.15v-.639h-3.9v.639c.003.108.052.147.162.147zm4.708-7.936v4.408c0 .289-.24.411-.5.411s-.5-.122-.5-.411v-4.408c0-.289.24-.42.5-.42s.5.128.5.417z" class="cls-6"/>
                <path id="패스_253138" d="M845.686 577.164v4.236c0 .15.06.209.21.209a25.441 25.441 0 0 0 3.568-.218.358.358 0 0 1 .4.369c.03.24-.06.46-.28.49a29.528 29.528 0 0 1-4.138.22c-.579 0-.759-.181-.759-.75v-4.558c0-.3.24-.43.5-.43s.499.133.499.432zm5.937-.59v7.8c0 .289-.24.419-.51.419-.25 0-.5-.13-.5-.419v-7.8a.444.444 0 0 1 .5-.42c.27 0 .51.131.51.42z" class="cls-6"/>
                <path id="패스_253139" d="M857.384 577.264c0 .23-.11.42-.349.42h-2.8c-.15 0-.21.06-.21.211v3.537c0 .15.06.211.21.211a24.91 24.91 0 0 0 3.5-.221.36.36 0 0 1 .4.37c.03.239-.06.46-.28.489a28.67 28.67 0 0 1-4.058.221c-.579 0-.769-.18-.769-.75v-4.178c0-.57.19-.75.769-.75h3.239c.238 0 .348.2.348.44zm2.379-.69v2.6h1.1c.26 0 .37.189.37.43s-.11.439-.37.439h-1.1v4.328c0 .289-.24.419-.5.419s-.5-.13-.5-.419v-7.8c0-.289.239-.42.5-.42s.5.134.5.423z" class="cls-6"/>
                <path id="패스_253140" d="M862.8 583.611a.675.675 0 1 1-1.349 0 .675.675 0 0 1 1.349 0z" class="cls-6"/>
            </g>
            <g id="그룹_4723">
                <path id="패스_253141" d="M944.656 536.274v6.126c0 .381-.3.551-.64.551s-.64-.17-.64-.551v-5.176l-1.289.739a.566.566 0 0 1-.81-.25.557.557 0 0 1 .2-.789l1.689-.94a1.655 1.655 0 0 1 .819-.259c.381 0 .671.175.671.549z" class="cls-5"/>
                <path id="패스_253142" d="M950.326 536.274v6.126c0 .381-.3.551-.64.551s-.64-.17-.64-.551v-5.176l-1.289.739a.566.566 0 0 1-.81-.25.558.558 0 0 1 .2-.789l1.689-.94a1.661 1.661 0 0 1 .82-.259c.38 0 .67.175.67.549z" class="cls-5"/>
                <path id="패스_253143" d="M952.5 536.944c-.311 0-.451-.25-.451-.54s.14-.55.451-.55h2.388c.64 0 .849.2.849.83v1.06c0 1.819-.209 2.149-2.848 4.018a.588.588 0 0 1-.789-.17.57.57 0 0 1 .06-.81c2.278-1.579 2.348-1.739 2.348-3.078v-.53c0-.17-.06-.23-.23-.23zm5.276 1.169h.86V535.6a.6.6 0 0 1 1.179 0v7.736a.6.6 0 0 1-1.179 0v-4.147h-.86v3.728a.592.592 0 0 1-1.169 0v-7.216a.592.592 0 0 1 1.169 0z" class="cls-5"/>
            </g>
            <path id="패스_253144" fill="#babdfd" d="M1043.826 541.558l-3.773-3.773 3.613-3.613a.593.593 0 0 0-.838-.839l-3.613 3.614-3.774-3.773a.593.593 0 1 0-.838.838l3.773 3.773-3.933 3.933a.593.593 0 0 0 .839.839l3.933-3.933 3.773 3.773a.593.593 0 1 0 .838-.839z"/>
            <rect id="사각형_787" width="40.296" height="38" class="cls-3" rx="7.985" transform="translate(910.022 597)"/>
            <rect id="사각형_788" width="40.296" height="38" class="cls-3" rx="7.985" transform="translate(771 597)"/>
            <rect id="사각형_789" width="40.296" height="38" class="cls-3" rx="7.985" transform="translate(817.341 597)"/>
            <rect id="사각형_790" width="40.296" height="38" class="cls-3" rx="7.985" transform="translate(863.681 597)"/>
            <rect id="사각형_791" width="40.296" height="38" class="cls-3" rx="7.985" transform="translate(956.363 597)"/>
            <rect id="사각형_792" width="40.296" height="38" class="cls-8" rx="7.985" transform="translate(1002.704 597)"/>
            <g id="그룹_4724">
                <path id="패스_253145" d="M1018.413 613.751v1.619h1.629c.29 0 .43.23.43.51s-.14.519-.43.519h-1.629v1.77a.568.568 0 0 1-1.119 0V616.4h-1.629c-.29 0-.43-.24-.43-.519s.14-.51.43-.51h1.629v-1.619a.568.568 0 0 1 1.119 0z" class="cls-3"/>
                <path id="패스_253146" d="M1027.322 612.531a.548.548 0 0 1 .241.75.522.522 0 0 1-.741.29 2.992 2.992 0 0 0-1.138-.21c-.76 0-1.4.5-1.51 1.969a2.184 2.184 0 0 1 1.619-.63 2.13 2.13 0 0 1 2.249 2.32v.149a2.334 2.334 0 0 1-2.559 2.358c-1.838 0-2.578-1.2-2.578-3.048v-.36c0-3.178 1.289-3.917 2.859-3.917a3.325 3.325 0 0 1 1.558.329zm-3.128 4.5v.1a1.132 1.132 0 0 0 1.259 1.239 1.157 1.157 0 0 0 1.329-1.249v-.059c0-.84-.4-1.241-1.279-1.241a1.158 1.158 0 0 0-1.309 1.208z" class="cls-3"/>
            </g>
            <path id="패스_253147" d="M803.725 613.235a2.487 2.487 0 0 0-3.509.507l-1.38 2.369a7.119 7.119 0 0 1-.008-1.793v-9.472a2.394 2.394 0 0 0-2.172-2.421c-1.847-.12-2.045 1.457-2.387 2.419-.035-2.251-1.146-2.854-2.317-2.844-2.032.018-2.106 1.529-2.32 2.606-.312-.93-.287-2.3-2.208-2.318a2.348 2.348 0 0 0-2.348 2.348v1.676a2.349 2.349 0 0 0-2.349-2.349 2.348 2.348 0 0 0-2.348 2.348v10.9c0 .071 0 .142.01.211a5.322 5.322 0 0 1-.027 1.421 9.414 9.414 0 0 0-.145 1.647 9.423 9.423 0 0 0 9.423 9.423h2.074a9.424 9.424 0 0 0 9.319-8.025 2.594 2.594 0 0 0 .286-.322l2.776-4.823a2.469 2.469 0 0 0-.37-3.508z" class="cls-11"/>
            <path id="패스_253148" d="M891.564 625.135a2.02 2.02 0 0 0-1.82-2.495l-2.587-.029a7.681 7.681 0 0 1 1.544-.793l8.174-4.158a2.239 2.239 0 0 0 1.233-2.744c-.624-1.483-2.063-.944-3.028-.787 1.929-1.015 2.012-2.14 1.542-3.043-.815-1.565-2.149-.959-3.163-.651.68-.651 1.873-1.233 1.131-2.728a2.166 2.166 0 0 0-2.951-.788l-1.446.736a2.168 2.168 0 0 0 1.1-2.85 2.167 2.167 0 0 0-2.952-.787l-9.408 4.786c-.062.031-.121.065-.179.1a5.732 5.732 0 0 1-1.237.6 10.111 10.111 0 0 0-1.478.611c-4.491 2.285-6.47 7.4-4.42 11.433l.817 1.606c1.862 3.662 6.411 5.163 10.6 3.693a2.324 2.324 0 0 0 .39.08l5.256.033a2.58 2.58 0 0 0 2.882-1.825z" class="cls-11"/>
            <path id="패스_253149" d="M824.3 620.526l3.693 3.262c1.087 2.346 6.341 5.212 8.153 5.212h1.7a8.983 8.983 0 0 0 8.983-8.984 9.592 9.592 0 0 1 .347-3.081l3.754-6.5a2.239 2.239 0 0 0-3.719-2.493L844 614l1.835-7.64a2.239 2.239 0 0 0-1.562-2.754 2.238 2.238 0 0 0-2.754 1.561L840 612l.314-7.558a2.239 2.239 0 0 0-4.475-.179L836 612l-1.515-6.819a2.24 2.24 0 0 0-2.728-1.608 2.239 2.239 0 0 0-1.607 2.728l1.53 5.921c.5 1.969 1.062 9.477-3.845 4.381l-.039-.035a2.418 2.418 0 0 0-3.413.212s-1.783 1.272-.083 3.746z" class="cls-11"/>
            <path id="패스_253150" d="M938.241 605.08l1.829 4.406c1.808 1.731 2.785 7.444 2.216 9.1l-.534 1.56a8.7 8.7 0 0 1-11.049 5.411 9.286 9.286 0 0 0-2.931-.649l-7.129 1.4a2.168 2.168 0 1 1-1.116-4.19l6.554-1.045-7.574-.716a2.168 2.168 0 0 1-2.033-2.295 2.168 2.168 0 0 1 2.295-2.033l6.735.752-7.022-2.084a2.168 2.168 0 0 1 1.241-4.155l7.036 2.575-5.771-3.527a2.169 2.169 0 0 1-.617-3 2.169 2.169 0 0 1 3-.616l4.943 3.26c1.646 1.076 8.349 3.946 5.22-2.148l-.02-.047a2.341 2.341 0 0 1 1.265-3.06s1.729-1.233 3.462 1.101z" class="cls-11"/>
            <path id="패스_253151" d="M962.972 616.063l2.379-4.135c.272-2.489 4.205-6.745 5.869-7.3l1.562-.527a8.7 8.7 0 0 1 11.023 5.463 9.26 9.26 0 0 0 1.272 2.72l5.454 4.8a2.168 2.168 0 1 1-2.641 3.439l-4.823-4.56 4.048 6.442a2.168 2.168 0 0 1-.581 3.01 2.168 2.168 0 0 1-3.011-.581l-3.507-5.8 2.626 6.838a2.168 2.168 0 0 1-4.05 1.548l-2.247-7.148.72 6.726a2.168 2.168 0 0 1-2.005 2.319 2.168 2.168 0 0 1-2.319-2.006l-.428-5.906c-.149-1.962-1.958-9.025-4.883-2.83l-.026.044a2.341 2.341 0 0 1-3.2.862s-2.026-.622-1.232-3.418z" class="cls-11"/>
        </g>
    </g>
</svg>
