<svg xmlns="http://www.w3.org/2000/svg" width="419.735" height="202.746" viewBox="0 0 419.735 202.746">
    <defs>
        <style>
            .prefix__cls-2{fill:#eb288f}
        </style>
    </defs>
    <g id="prefix__그룹_1840" transform="translate(-289.435 -344.21)" style="opacity:.062">
        <circle id="prefix__타원_39242-2" cx="4.949" cy="4.949" r="4.949" class="prefix__cls-2" transform="translate(494.353 344.21)"/>
        <circle id="prefix__타원_39249-2" cx="4.949" cy="4.949" r="4.949" class="prefix__cls-2" transform="translate(289.435 440.634)"/>
        <circle id="prefix__타원_39250-2" cx="4.949" cy="4.949" r="4.949" class="prefix__cls-2" transform="translate(305.198 433.217)"/>
        <circle id="prefix__타원_39251-2" cx="4.949" cy="4.949" r="4.949" class="prefix__cls-2" transform="translate(320.961 425.8)"/>
        <circle id="prefix__타원_39252-2" cx="4.949" cy="4.949" r="4.949" class="prefix__cls-2" transform="translate(336.724 418.382)"/>
        <circle id="prefix__타원_39253-2" cx="4.949" cy="4.949" r="4.949" class="prefix__cls-2" transform="translate(352.487 410.965)"/>
        <circle id="prefix__타원_39254-2" cx="4.949" cy="4.949" r="4.949" class="prefix__cls-2" transform="translate(368.25 403.548)"/>
        <circle id="prefix__타원_39255-2" cx="4.949" cy="4.949" r="4.949" class="prefix__cls-2" transform="translate(384.013 396.131)"/>
        <circle id="prefix__타원_39256-2" cx="4.949" cy="4.949" r="4.949" class="prefix__cls-2" transform="translate(399.776 388.714)"/>
        <circle id="prefix__타원_39257-2" cx="4.949" cy="4.949" r="4.949" class="prefix__cls-2" transform="translate(415.539 381.296)"/>
        <circle id="prefix__타원_39258-2" cx="4.949" cy="4.949" r="4.949" class="prefix__cls-2" transform="translate(431.302 373.879)"/>
        <circle id="prefix__타원_39259-2" cx="4.949" cy="4.949" r="4.949" class="prefix__cls-2" transform="translate(447.065 366.462)"/>
        <circle id="prefix__타원_39260-2" cx="4.949" cy="4.949" r="4.949" class="prefix__cls-2" transform="translate(462.828 359.045)"/>
        <circle id="prefix__타원_39261-2" cx="4.949" cy="4.949" r="4.949" class="prefix__cls-2" transform="translate(478.59 351.627)"/>
        <circle id="prefix__타원_39249-2-2" cx="4.949" cy="4.949" r="4.949" class="prefix__cls-2" transform="translate(699.272 440.634)"/>
        <circle id="prefix__타원_39250-2-2" cx="4.949" cy="4.949" r="4.949" class="prefix__cls-2" transform="translate(683.509 433.217)"/>
        <circle id="prefix__타원_39251-2-2" cx="4.949" cy="4.949" r="4.949" class="prefix__cls-2" transform="translate(667.746 425.8)"/>
        <circle id="prefix__타원_39252-2-2" cx="4.949" cy="4.949" r="4.949" class="prefix__cls-2" transform="translate(651.983 418.382)"/>
        <circle id="prefix__타원_39253-2-2" cx="4.949" cy="4.949" r="4.949" class="prefix__cls-2" transform="translate(636.22 410.965)"/>
        <circle id="prefix__타원_39254-2-2" cx="4.949" cy="4.949" r="4.949" class="prefix__cls-2" transform="translate(620.457 403.548)"/>
        <circle id="prefix__타원_39255-2-2" cx="4.949" cy="4.949" r="4.949" class="prefix__cls-2" transform="translate(604.694 396.131)"/>
        <circle id="prefix__타원_39256-2-2" cx="4.949" cy="4.949" r="4.949" class="prefix__cls-2" transform="translate(588.931 388.714)"/>
        <circle id="prefix__타원_39257-2-2" cx="4.949" cy="4.949" r="4.949" class="prefix__cls-2" transform="translate(573.168 381.296)"/>
        <circle id="prefix__타원_39258-2-2" cx="4.949" cy="4.949" r="4.949" class="prefix__cls-2" transform="translate(557.405 373.879)"/>
        <circle id="prefix__타원_39259-2-2" cx="4.949" cy="4.949" r="4.949" class="prefix__cls-2" transform="translate(541.642 366.462)"/>
        <circle id="prefix__타원_39260-2-2" cx="4.949" cy="4.949" r="4.949" class="prefix__cls-2" transform="translate(525.879 359.045)"/>
        <circle id="prefix__타원_39261-2-2" cx="4.949" cy="4.949" r="4.949" class="prefix__cls-2" transform="translate(510.116 351.627)"/>
        <circle id="prefix__타원_39242-2-2" cx="4.949" cy="4.949" r="4.949" class="prefix__cls-2" transform="translate(494.353 537.058)"/>
        <circle id="prefix__타원_39250-2-3" cx="4.949" cy="4.949" r="4.949" class="prefix__cls-2" transform="translate(305.198 448.051)"/>
        <circle id="prefix__타원_39251-2-3" cx="4.949" cy="4.949" r="4.949" class="prefix__cls-2" transform="translate(320.961 455.469)"/>
        <circle id="prefix__타원_39252-2-3" cx="4.949" cy="4.949" r="4.949" class="prefix__cls-2" transform="translate(336.724 462.886)"/>
        <circle id="prefix__타원_39253-2-3" cx="4.949" cy="4.949" r="4.949" class="prefix__cls-2" transform="translate(352.487 470.303)"/>
        <circle id="prefix__타원_39254-2-3" cx="4.949" cy="4.949" r="4.949" class="prefix__cls-2" transform="translate(368.25 477.72)"/>
        <circle id="prefix__타원_39255-2-3" cx="4.949" cy="4.949" r="4.949" class="prefix__cls-2" transform="translate(384.013 485.138)"/>
        <circle id="prefix__타원_39256-2-3" cx="4.949" cy="4.949" r="4.949" class="prefix__cls-2" transform="translate(399.776 492.555)"/>
        <circle id="prefix__타원_39257-2-3" cx="4.949" cy="4.949" r="4.949" class="prefix__cls-2" transform="translate(415.539 499.972)"/>
        <circle id="prefix__타원_39258-2-3" cx="4.949" cy="4.949" r="4.949" class="prefix__cls-2" transform="translate(431.302 507.389)"/>
        <circle id="prefix__타원_39259-2-3" cx="4.949" cy="4.949" r="4.949" class="prefix__cls-2" transform="translate(447.065 514.806)"/>
        <circle id="prefix__타원_39260-2-3" cx="4.949" cy="4.949" r="4.949" class="prefix__cls-2" transform="translate(462.828 522.224)"/>
        <circle id="prefix__타원_39261-2-3" cx="4.949" cy="4.949" r="4.949" class="prefix__cls-2" transform="translate(478.59 529.641)"/>
        <circle id="prefix__타원_39250-2-4" cx="4.949" cy="4.949" r="4.949" class="prefix__cls-2" transform="translate(683.509 448.051)"/>
        <circle id="prefix__타원_39251-2-4" cx="4.949" cy="4.949" r="4.949" class="prefix__cls-2" transform="translate(667.746 455.469)"/>
        <circle id="prefix__타원_39252-2-4" cx="4.949" cy="4.949" r="4.949" class="prefix__cls-2" transform="translate(651.983 462.886)"/>
        <circle id="prefix__타원_39253-2-4" cx="4.949" cy="4.949" r="4.949" class="prefix__cls-2" transform="translate(636.22 470.303)"/>
        <circle id="prefix__타원_39254-2-4" cx="4.949" cy="4.949" r="4.949" class="prefix__cls-2" transform="translate(620.457 477.72)"/>
        <circle id="prefix__타원_39255-2-4" cx="4.949" cy="4.949" r="4.949" class="prefix__cls-2" transform="translate(604.694 485.138)"/>
        <circle id="prefix__타원_39256-2-4" cx="4.949" cy="4.949" r="4.949" class="prefix__cls-2" transform="translate(588.931 492.555)"/>
        <circle id="prefix__타원_39257-2-4" cx="4.949" cy="4.949" r="4.949" class="prefix__cls-2" transform="translate(573.168 499.972)"/>
        <circle id="prefix__타원_39258-2-4" cx="4.949" cy="4.949" r="4.949" class="prefix__cls-2" transform="translate(557.405 507.389)"/>
        <circle id="prefix__타원_39259-2-4" cx="4.949" cy="4.949" r="4.949" class="prefix__cls-2" transform="translate(541.642 514.806)"/>
        <circle id="prefix__타원_39260-2-4" cx="4.949" cy="4.949" r="4.949" class="prefix__cls-2" transform="translate(525.879 522.224)"/>
        <circle id="prefix__타원_39261-2-4" cx="4.949" cy="4.949" r="4.949" class="prefix__cls-2" transform="translate(510.116 529.641)"/>
    </g>
</svg>
