<svg xmlns="http://www.w3.org/2000/svg" width="353.041" height="352.559" viewBox="0 0 353.041 352.559">
    <defs>
        <style>
            .cls-2{fill:#da478f}.cls-3{fill:#00c5ff}.cls-4{fill:#fff}.cls-6{fill:#00e7ae}.cls-7{fill:#ff71bf}.cls-9{fill:#48298f}.cls-10{fill:#00c3ff}.cls-11{fill:#ffb83b}.cls-12{fill:#488eff}.cls-13{fill:#76aeff}.cls-14{fill:#30187a}.cls-15{fill:#d4e6ff}.cls-16{fill:#161f43}.cls-17{fill:#354686}.cls-18{fill:#5442e5}.cls-19{fill:#181f41}.cls-20{fill:#ff8891}.cls-21{fill:#ff6679}.cls-22{fill:#ff3e68}.cls-23{fill:#db1d4f}
        </style>
    </defs>
    <g id="img" transform="translate(-38.434 4.147)">
        <g id="그룹_4606" transform="translate(294.795 91.622)">
            <g id="그룹_4601">
                <path id="패스_252691" fill="#964ad1" d="M12491.7 395.445a2.941 2.941 0 0 1-2.864-3.012v-85.846a2.941 2.941 0 0 1 2.864-3.012l91.8-.03a2.015 2.015 0 0 1 2.016 2.015v87.9a2.015 2.015 0 0 1-2.016 2.014z" transform="translate(-12488.833 -303.545)"/>
            </g>
            <g id="그룹_4605" transform="translate(15.424 14.12)">
                <g id="그룹_4604">
                    <g id="그룹_4602" transform="translate(0 .448)">
                        <path id="패스_252692" d="M12568.893 413.909a32.916 32.916 0 1 0-32.917-32.917 33.027 33.027 0 0 0 32.917 32.917zm0-60.652a27.735 27.735 0 1 1-27.735 27.735 27.767 27.767 0 0 1 27.735-27.735z" class="cls-2" transform="translate(-12535.976 -348.076)"/>
                        <path id="패스_252693" d="M12584.486 421.92a25.335 25.335 0 1 0-25.336-25.335 25.362 25.362 0 0 0 25.336 25.335zm0-45.489a20.154 20.154 0 1 1-20.152 20.154 20.177 20.177 0 0 1 20.152-20.154z" class="cls-2" transform="translate(-12551.568 -363.669)"/>
                        <path id="패스_252694" d="M12600.327 430.059a17.633 17.633 0 1 0-17.633-17.633 17.653 17.653 0 0 0 17.633 17.633zm0-30.084a12.452 12.452 0 1 1-12.452 12.451 12.467 12.467 0 0 1 12.452-12.452z" class="cls-2" transform="translate(-12567.41 -379.509)"/>
                        <path id="패스_252695" d="M12593.644 413.909a33.025 33.025 0 0 0 24.128-10.526 2.591 2.591 0 0 0-3.8-3.525 27.735 27.735 0 1 1-20.33-46.6 2.591 2.591 0 1 0 0-5.181 32.916 32.916 0 1 0 0 65.833z" class="cls-3" transform="translate(-12560.726 -348.076)"/>
                        <path id="패스_252696" d="M12641.99 418.491a2.591 2.591 0 0 0 1.374-4.789 20.156 20.156 0 0 1 10.645-37.27 2.591 2.591 0 1 0 0-5.181 25.337 25.337 0 0 0-13.386 46.849 2.578 2.578 0 0 0 1.367.391z" class="cls-3" transform="translate(-12621.092 -363.669)"/>
                        <path id="패스_252697" d="M12646.307 430.059a2.591 2.591 0 1 0 0-5.181 12.452 12.452 0 1 1 0-24.9 2.591 2.591 0 1 0 0-5.181 17.633 17.633 0 0 0 0 35.266z" class="cls-3" transform="translate(-12613.39 -379.509)"/>
                    </g>
                    <g id="그룹_4603" transform="translate(18.358)">
                        <circle id="타원_509827" cx="3.045" cy="3.045" r="3.045" class="cls-4" transform="translate(12.046)"/>
                        <circle id="타원_509828" cx="3.045" cy="3.045" r="3.045" class="cls-4" transform="translate(12.046 7.576)"/>
                        <circle id="타원_509829" cx="3.045" cy="3.045" r="3.045" class="cls-4" transform="translate(12.046 15.278)"/>
                        <circle id="타원_509830" cx="3.045" cy="3.045" r="3.045" class="cls-4" transform="translate(12.046 45.363)"/>
                        <circle id="타원_509831" cx="3.045" cy="3.045" r="3.045" class="cls-4" transform="translate(33.743 50.948)"/>
                        <circle id="타원_509832" cx="3.045" cy="3.045" r="3.045" class="cls-4" transform="translate(0 50.02)"/>
                    </g>
                </g>
            </g>
        </g>
        <g id="그룹_4628" transform="translate(190.334)">
            <g id="그룹_4616">
                <path id="패스_252717" fill="#c7deff" d="M12698.708 143.6c-1.976 0-3.578-2.105-3.578-4.7V37.406c0-2.6 1.6-4.7 3.578-4.7l111.747-.048c1.392 0 2.519 1.408 2.519 3.145V140.5c0 1.737-1.127 3.145-2.519 3.145z" transform="translate(-12689.227 -36.802)"/>
            </g>
            <g id="그룹_4627" transform="translate(21.776 21.522)">
                <g id="그룹_4618">
                    <g id="그룹_4617">
                        <path id="패스_252718" d="M13002.337 160.042a4.4 4.4 0 0 0 4.406-4.406v-52.788a4.406 4.406 0 1 0-8.812 0v52.788a4.407 4.407 0 0 0 4.406 4.406z" class="cls-4" transform="translate(-12997.931 -98.441)"/>
                        <path id="패스_252719" d="M13002.337 142.613a4.405 4.405 0 0 0 4.406-4.407v-35.358a4.406 4.406 0 1 0-8.812 0v35.359a4.407 4.407 0 0 0 4.406 4.406z" class="cls-6" transform="translate(-12997.931 -98.441)"/>
                    </g>
                </g>
                <g id="그룹_4620" transform="translate(19.322)">
                    <g id="그룹_4619">
                        <path id="패스_252720" d="M12943.277 160.042a4.406 4.406 0 0 0 4.406-4.406v-52.788a4.406 4.406 0 1 0-8.812 0v52.788a4.406 4.406 0 0 0 4.406 4.406z" class="cls-4" transform="translate(-12938.871 -98.441)"/>
                        <path id="패스_252721" d="M12943.277 123.623a4.406 4.406 0 0 0 4.406-4.406v-16.369a4.406 4.406 0 1 0-8.812 0v16.369a4.406 4.406 0 0 0 4.406 4.406z" class="cls-7" transform="translate(-12938.871 -98.441)"/>
                    </g>
                </g>
                <g id="그룹_4622" transform="translate(38.643)">
                    <g id="그룹_4621">
                        <path id="패스_252722" d="M12884.219 160.042a4.406 4.406 0 0 0 4.406-4.406v-52.788a4.406 4.406 0 1 0-8.812 0v52.788a4.407 4.407 0 0 0 4.406 4.406z" class="cls-4" transform="translate(-12879.813 -98.441)"/>
                        <path id="패스_252723" d="M12884.219 141.985a4.406 4.406 0 0 0 4.406-4.407v-34.73a4.406 4.406 0 1 0-8.812 0v34.73a4.407 4.407 0 0 0 4.406 4.407z" class="cls-6" transform="translate(-12879.813 -98.441)"/>
                    </g>
                </g>
                <g id="그룹_4624" transform="translate(57.963)">
                    <g id="그룹_4623">
                        <path id="패스_252724" d="M12825.16 160.042a4.407 4.407 0 0 0 4.406-4.406v-52.788a4.407 4.407 0 0 0-8.814 0v52.788a4.407 4.407 0 0 0 4.408 4.406z" class="cls-4" transform="translate(-12820.752 -98.441)"/>
                        <path id="패스_252725" d="M12825.16 124.934a4.407 4.407 0 0 0 4.406-4.407v-17.679a4.407 4.407 0 0 0-8.814 0v17.679a4.407 4.407 0 0 0 4.408 4.407z" class="cls-6" transform="translate(-12820.752 -98.441)"/>
                    </g>
                </g>
                <g id="그룹_4626" transform="translate(77.285)">
                    <g id="그룹_4625">
                        <path id="패스_252726" d="M12766.1 160.042a4.406 4.406 0 0 0 4.407-4.406v-52.788a4.407 4.407 0 0 0-8.813 0v52.788a4.407 4.407 0 0 0 4.406 4.406z" class="cls-4" transform="translate(-12761.693 -98.441)"/>
                        <path id="패스_252727" d="M12766.1 139.992a4.406 4.406 0 0 0 4.407-4.406v-32.738a4.407 4.407 0 0 0-8.813 0v32.738a4.407 4.407 0 0 0 4.406 4.406z" class="cls-7" transform="translate(-12761.693 -98.441)"/>
                    </g>
                </g>
            </g>
        </g>
        <g id="그룹_4635" transform="translate(62 24.606)">
            <g id="그룹_4629">
                <path id="패스_252728" fill="#ec3490" d="M13415.443 398.265a3.112 3.112 0 0 1-3.041-3.178v-60.871a3.112 3.112 0 0 1 3.041-3.178l67.149-.032a2.132 2.132 0 0 1 2.139 2.125v63.04a2.132 2.132 0 0 1-2.139 2.125z" transform="translate(-13412.402 -331.006)"/>
            </g>
            <g id="그룹_4634" transform="translate(9.668 15.957)">
                <g id="그룹_4630">
                    <ellipse id="타원_509841" cx="3.177" cy="3.158" class="cls-4" rx="3.177" ry="3.158" transform="translate(46.639)"/>
                    <ellipse id="타원_509842" cx="3.177" cy="3.158" class="cls-4" rx="3.177" ry="3.158" transform="translate(34.98)"/>
                    <ellipse id="타원_509843" cx="3.177" cy="3.158" class="cls-9" rx="3.177" ry="3.158" transform="translate(23.32)"/>
                    <ellipse id="타원_509844" cx="3.177" cy="3.158" class="cls-4" rx="3.177" ry="3.158" transform="translate(11.66)"/>
                    <ellipse id="타원_509845" cx="3.177" cy="3.158" class="cls-4" rx="3.177" ry="3.158"/>
                </g>
                <g id="그룹_4631" transform="translate(0 7.344)">
                    <ellipse id="타원_509846" cx="3.177" cy="3.158" class="cls-9" rx="3.177" ry="3.158" transform="translate(46.639 2.343)"/>
                    <ellipse id="타원_509847" cx="3.177" cy="3.158" class="cls-10" rx="3.177" ry="3.158" transform="translate(34.98 2.343)"/>
                    <path id="패스_252729" d="M13475.92 413.231a5.5 5.5 0 1 0-5.535-5.5 5.524 5.524 0 0 0 5.535 5.5zm0-9.863a4.361 4.361 0 1 1-4.387 4.361 4.381 4.381 0 0 1 4.387-4.36z" class="cls-10" transform="translate(-13437.763 -402.228)"/>
                    <ellipse id="타원_509848" cx="3.177" cy="3.158" class="cls-11" rx="3.177" ry="3.158" transform="translate(23.32 2.343)"/>
                    <ellipse id="타원_509849" cx="3.177" cy="3.158" class="cls-9" rx="3.177" ry="3.158" transform="translate(11.66 2.343)"/>
                    <ellipse id="타원_509850" cx="3.177" cy="3.158" class="cls-9" rx="3.177" ry="3.158" transform="translate(0 2.343)"/>
                </g>
                <g id="그룹_4632" transform="translate(0 19.374)">
                    <ellipse id="타원_509851" cx="3.177" cy="3.158" class="cls-11" rx="3.177" ry="3.158" transform="translate(46.639)"/>
                    <ellipse id="타원_509852" cx="3.177" cy="3.158" class="cls-11" rx="3.177" ry="3.158" transform="translate(34.98)"/>
                    <ellipse id="타원_509853" cx="3.177" cy="3.158" class="cls-4" rx="3.177" ry="3.158" transform="translate(23.32)"/>
                    <ellipse id="타원_509854" cx="3.177" cy="3.158" class="cls-4" rx="3.177" ry="3.158" transform="translate(11.66)"/>
                    <ellipse id="타원_509855" cx="3.177" cy="3.158" class="cls-9" rx="3.177" ry="3.158"/>
                </g>
                <g id="그룹_4633" transform="translate(0 29.061)">
                    <ellipse id="타원_509856" cx="3.177" cy="3.158" class="cls-4" rx="3.177" ry="3.158" transform="translate(46.639)"/>
                    <ellipse id="타원_509857" cx="3.177" cy="3.158" class="cls-4" rx="3.177" ry="3.158" transform="translate(34.98)"/>
                    <ellipse id="타원_509858" cx="3.177" cy="3.158" class="cls-9" rx="3.177" ry="3.158" transform="translate(23.32)"/>
                    <ellipse id="타원_509859" cx="3.177" cy="3.158" class="cls-11" rx="3.177" ry="3.158" transform="translate(11.66)"/>
                    <ellipse id="타원_509860" cx="3.177" cy="3.158" class="cls-4" rx="3.177" ry="3.158"/>
                </g>
            </g>
        </g>
        <g id="그룹_4665" transform="translate(38.434 66.529)">
            <g id="그룹_4636" transform="translate(238.466 114.673)">
                <path id="패스_252730" d="M12656.3 756.11h6.194l1.8-167.21h-9.79z" class="cls-12" transform="translate(-12612.387 -588.9)"/>
                <path id="패스_252731" d="M12776.357 756.11h6.194l1.8-167.21h-9.791z" class="cls-12" transform="translate(-12774.56 -588.9)"/>
            </g>
            <g id="그룹_4656" transform="translate(43.144)">
                <g id="그룹_4637" transform="translate(21.263 163.257)">
                    <path id="패스_252732" d="M13176.455 843.241h6.194l11.426-115.866h-9.79z" class="cls-12" transform="translate(-13151.229 -727.375)"/>
                    <path id="패스_252733" d="M13248.355 843.241h6.193l11.426-115.866h-9.79z" class="cls-12" transform="translate(-13248.355 -727.375)"/>
                </g>
                <g id="그룹_4638" transform="translate(80.811 163.257)">
                    <path id="패스_252734" d="M13096.244 843.241h-6.192l-11.429-115.866h9.792z" class="cls-12" transform="translate(-13078.623 -727.375)"/>
                    <path id="패스_252735" d="M13024.343 843.241h-6.194l-11.427-115.866h9.791z" class="cls-12" transform="translate(-12981.495 -727.375)"/>
                </g>
                <path id="패스_252736" d="M13076.968 566.191h49.587a5.355 5.355 0 0 0 5.332-4.859l.908-9.815-21.43 3.358-43.263-67.128a11.466 11.466 0 0 0-11.122-8.67h-41.668c-4.359 0-5.9 2.98-4.185 6.988 5.951 13.879 12.139 28.522 12.139 50.54 10.151 15.595 53.702 29.586 53.702 29.586z" class="cls-13" transform="translate(-13010.441 -402.935)"/>
                <path id="패스_252737" d="M13118.284 479.077h41.667a11.47 11.47 0 0 1 11.123 8.67l28.564 44.324q-7.125 2.188-14.271 4.306c-10.594 3.133-21.229 6.1-31.972 8.686-4.546 1.094-9.109 2.073-13.625 3.284-5.888-3.653-10.867-7.642-13.535-11.741 0-22.018-6.187-36.662-12.138-50.54-1.717-4.009-.175-6.989 4.187-6.989z" class="cls-12" transform="translate(-13113.41 -402.935)"/>
                <path id="패스_252738" d="M13137.7 696.5h-27.842l-4.206-7.289h31.7z" class="cls-12" transform="translate(-13048.753 -539.346)"/>
                <g id="그룹_4642" transform="translate(32.734 101.489)">
                    <g id="그룹_4640" transform="translate(104.651 132.969)">
                        <path id="패스_252739" d="M12824.186 930.317l20.814 26.291s13.027 8.061 13.027 21.134h-59.219c0-15.624 2.15-21.134 2.15-21.134z" class="cls-9" transform="translate(-12798.806 -930.317)"/>
                        <path id="패스_252740" d="M12934.823 996.949c2.865.258 8.431 1.446 8.431 1.446s-.643-1.751-.643 17.44L12930.1 1021c0-15.624 2.151-21.134 2.151-21.134z" class="cls-14" transform="translate(-12930.098 -973.572)"/>
                        <g id="그룹_4639" transform="translate(0 42.063)">
                            <path id="패스_252741" d="M12798.9 1050.207h58.378a19.8 19.8 0 0 1 .75 5.362h-59.219c-.002-1.941.031-3.725.091-5.362z" class="cls-4" transform="translate(-12798.807 -1050.207)"/>
                        </g>
                        <path id="패스_252742" d="M12943.852 1050.407c.01 1.724.09 3.444.206 5.162h-12.721c0-1.941.033-3.725.091-5.363h12.424z" class="cls-15" transform="translate(-12931.336 -1008.144)"/>
                    </g>
                    <g id="그룹_4641">
                        <path id="패스_252743" d="M13056.795 555.993l46.08-4.673 6.363 16.5 18.694 7.313-12.02 31.08h-12.233c-25.768-3.777-39.434-3.57-44.748-8.578-8.073-7.61-6.025-22.453-2.136-41.642z" class="cls-16" transform="translate(-13053.378 -551.32)"/>
                        <path id="패스_252744" d="M12865.967 636.082l7.83.148 15.469 104.965 43.232-1.115s-15.738-68.52-27.311-109.527c-7.1-25.153-8.875-32.212-66.82-32.212" class="cls-16" transform="translate(-12782.506 -581.844)"/>
                        <path id="패스_252745" d="M13006.105 686.7a.556.556 0 0 0 .072 0 .524.524 0 0 0 .448-.592l-1.4-10.372a.527.527 0 0 0-1.044.141l1.4 10.372a.53.53 0 0 0 .524.451z" class="cls-17" transform="translate(-12914.811 -631.785)"/>
                    </g>
                </g>
                <g id="그룹_4645" transform="translate(55.364 118.029)">
                    <g id="그룹_4644" transform="translate(0 116.429)">
                        <path id="패스_252746" d="M13057.966 930.317l20.813 26.291s13.027 8.061 13.027 21.134h-59.221c0-15.624 2.151-21.134 2.151-21.134z" class="cls-9" transform="translate(-13032.585 -930.317)"/>
                        <path id="패스_252747" d="M13168.6 996.949c2.868.258 8.433 1.446 8.433 1.446s-.643-1.751-.643 17.44l-12.51 5.165c0-15.624 2.15-21.134 2.15-21.134z" class="cls-14" transform="translate(-13163.88 -973.572)"/>
                        <g id="그룹_4643" transform="translate(.001 42.063)">
                            <path id="패스_252748" d="M13032.679 1050.207h58.377a19.794 19.794 0 0 1 .751 5.362h-59.221c0-1.941.032-3.725.093-5.362z" class="cls-4" transform="translate(-13032.586 -1050.207)"/>
                        </g>
                        <path id="패스_252749" d="M13177.633 1050.407c.011 1.724.09 3.444.207 5.162h-12.723c0-1.941.034-3.725.093-5.363h12.423c0 .068-.002.134 0 .201z" class="cls-15" transform="translate(-13165.116 -1008.144)"/>
                    </g>
                    <path id="패스_252750" d="M13053.491 624.767c-9.271 34.068-21.726 82.94-29.029 117.482 19.243.587 28.665.5 45.311.5 4.65-40.992 9.494-70.136 14-111.143 2.767-25.153-2.241-30.372-49.74-31.642" class="cls-16" transform="translate(-13022.316 -599.439)"/>
                    <path id="패스_252751" d="M13072.632 636.69a.525.525 0 0 0 .522-.467q.311-2.731.62-5.532c1.139-10.371.987-17.784-3.287-22.685-5.532-6.343-17.383-8.75-46.965-9.542a.53.53 0 0 0-.539.512.524.524 0 0 0 .511.54c29.236.782 40.894 3.1 46.2 9.181 4.021 4.611 4.143 11.79 3.032 21.878q-.306 2.8-.617 5.528a.526.526 0 0 0 .463.582.541.541 0 0 0 .06.005z" class="cls-17" transform="translate(-13011.789 -598.465)"/>
                    <path id="패스_252752" d="M13111.546 683.23a.528.528 0 0 0 .508-.391c1.188-4.463 2.366-8.843 3.5-13.018a.526.526 0 0 0-1.015-.277c-1.138 4.177-2.316 8.558-3.507 13.024a.527.527 0 0 0 .511.662z" class="cls-17" transform="translate(-13083.873 -644.355)"/>
                </g>
                <g id="그룹_4649" transform="translate(21.39)">
                    <path id="패스_252753" d="M13163.718 365.762l7.428 1.816 7.426-1.816c4.658-1.138 7.9-10.31 7.9-14.74l1.269-12.1h-31.921v12.1c-.001 4.431 3.241 13.602 7.898 14.74z" class="cls-16" transform="translate(-13137.781 -311.952)"/>
                    <path id="패스_252754" d="M13069.217 412.6a15.561 15.561 0 0 1 10.208 7.89c6.088 11.569 8.4 23.093 15.629 43.5l-24.9 7.618-16.781-46.816z" class="cls-18" transform="translate(-13009.152 -359.78)"/>
                    <g id="그룹_4646" transform="translate(49.301 76.03)">
                        <path id="패스_252755" d="M13076.958 478.756l-11.386 3.147 11.7 32.651 20.619-6.309c-13.727-12.778-20.933-29.489-20.933-29.489z" class="cls-9" transform="translate(-13065.572 -478.756)"/>
                    </g>
                    <path id="패스_252756" d="M13236.135 353.128l-1.98 3.987c.721 4.684.751 6.953-2.11 10.957-3.228 4.518-2.281 8.846 3.8 12.4l10.15-6.325z" class="cls-11" transform="translate(-13222.14 -321.174)"/>
                    <path id="패스_252757" d="M13131.781 391.769s23.748 6.876 23.572 7.308.627 23.211.627 23.211c2.6 7.513 7.534 25.71 9.329 33.422a406.04 406.04 0 0 0-63.06 5.235c-1.211-10.718-2.172-24.74-2.554-34.892l-1.054-27.573 22.988-6.711z" class="cls-18" transform="translate(-13095.29 -346.258)"/>
                    <g id="그룹_4647" transform="translate(0 75.012)">
                        <path id="패스_252758" d="M13225.633 475.854l-11.388 3.146 11.7 32.651 17.76 1.3c-9.133-11.268-18.072-37.097-18.072-37.097z" class="cls-9" transform="translate(-13214.245 -475.854)"/>
                    </g>
                    <path id="패스_252759" d="M13107 511.73a.533.533 0 0 0 .12-.014.528.528 0 0 0 .394-.632c-1.816-7.8-6.727-25.9-9.347-33.475a.527.527 0 0 0-1 .344c2.612 7.551 7.506 25.594 9.316 33.37a.527.527 0 0 0 .517.407z" class="cls-19" transform="translate(-13036.979 -401.751)"/>
                    <path id="패스_252760" d="M13183.9 373.24s2.1 2.185 7.483 2.4 7.651-1.8 7.651-1.8l.507-12.786-15.135-.6z" class="cls-20" transform="translate(-13159.438 -325.93)"/>
                    <path id="패스_252761" d="M13199.545 361.054l-.163 4.1c-.8.818-10.1 2.057-11.477 2.338-3.916.8-4 5.745-4 5.745l.507-12.786z" class="cls-21" transform="translate(-13159.438 -325.93)"/>
                    <path id="패스_252762" d="M13192.269 379.846a14.333 14.333 0 0 0 7.717-1.5l-.268 6.78s-2.264 2.013-7.653 1.8-7.483-2.4-7.483-2.4l.265-6.685a14.571 14.571 0 0 0 7.422 2.005z" class="cls-18" transform="translate(-13160.117 -337.217)"/>
                    <ellipse id="타원_509861" cx="17.231" cy="18.292" class="cls-20" rx="17.231" ry="18.292" transform="translate(16.133 3.072)"/>
                    <path id="패스_252763" d="M13167.85 320.131a.526.526 0 0 0 .191-1.016 9.826 9.826 0 0 0-5.932.019.526.526 0 0 0 .47.942 9.142 9.142 0 0 1 5.077.019.536.536 0 0 0 .194.036z" class="cls-19" transform="translate(-13120.521 -298.804)"/>
                    <path id="패스_252764" d="M13198.847 320.131a.517.517 0 0 0 .19-.036 9.148 9.148 0 0 1 5.079-.019.526.526 0 0 0 .47-.942 9.826 9.826 0 0 0-5.932-.019.526.526 0 0 0 .192 1.016z" class="cls-19" transform="translate(-13169.829 -298.804)"/>
                    <g id="그룹_4648" transform="translate(31.385 20.838)">
                        <circle id="타원_509862" cx=".969" cy=".969" r=".969" class="cls-19" transform="translate(11.637 2.057)"/>
                        <path id="패스_252765" d="M13184.423 354.31a3.829 3.829 0 0 0 2.521-.694.526.526 0 1 0-.7-.786 3.1 3.1 0 0 1-1.822.427 3.051 3.051 0 0 1-1.827-.434.532.532 0 0 0-.738.061.521.521 0 0 0 .047.731 3.822 3.822 0 0 0 2.519.695z" class="cls-19" transform="translate(-13177.636 -341.732)"/>
                        <path id="패스_252766" d="M13186.122 329.813a.527.527 0 0 0 .378-.161.533.533 0 0 0 .14-.457l-1.308-7.314a.527.527 0 0 0-1.037.185l1.18 6.6-3.466-.482a.526.526 0 0 0-.146 1.043l4.186.581a.539.539 0 0 0 .073.005z" class="cls-19" transform="translate(-13177.052 -321.445)"/>
                        <circle id="타원_509863" cx=".969" cy=".969" r=".969" class="cls-19" transform="translate(0 2.057)"/>
                    </g>
                    <path id="패스_252767" d="M13138.8 312.349c1.988-1.26 2.638-2.218 2.857-3.258.064-.384.119-.786.161-1.214a28.617 28.617 0 0 0-.949-9.885 36.855 36.855 0 0 1 2.843-22.593c3.255-7.528 10.831-14.637 18.506-13.148 7.528-1.461 14.964 5.356 18.313 12.725l.015.031a22.852 22.852 0 0 1 .96 2.477c3.152 8.837 2.761 15.954 2.2 18.68a40.6 40.6 0 0 0-1.035 11.861 17.276 17.276 0 0 0 .371 2.256l.266 1.015a42.649 42.649 0 0 1 1.18 4.331c1.357 4.931-1.979 7.668-7.666 7.405-7.216-5.763-5.153-12.817.083-29.865 1.348-5.385 1.073-10.467 0-12.9a8.59 8.59 0 0 1-6.329-2.132l.425 2.309c-4.078-.74-5.892-2.6-6.8-4.994-.607 2.595-2.421 4.694-7.5 5.563l.478-1.623a7.654 7.654 0 0 1-5.1 1.349c-3.048 9.944 1.051 22.767 2.436 28.176 2.258 7.05 3.3 11.836-.272 13.692-8.191.991-9.7-11.743-15.443-10.251" class="cls-11" transform="translate(-13128.85 -262.052)"/>
                </g>
                <path id="패스_252768" d="M13239.522 443.324c-2.98-30.491 4.326-30.089 10.595-32.427 4.2 1.868 7.61 23.391 17.48 60.794 0 0-17.372 12.575-22.069 6.731s-4.842-23.189-6.006-35.098z" class="cls-18" transform="translate(-13225.374 -358.675)"/>
                <path id="패스_252769" d="M13280.93 419.656c-.838 6.152-.765 15.141.522 28.319 1.163 11.909 1.31 29.254 6.006 35.1 1.009 1.256 2.6 1.66 4.487 1.522-3.69 1.315-7.17 1.678-8.909-.486-4.7-5.844-4.843-23.189-6.007-35.1-1.897-19.423.378-26.311 3.901-29.355z" class="cls-9" transform="translate(-13262.881 -364.361)"/>
                <path id="패스_252770" d="M13247.307 513.411a.533.533 0 0 0 .135-.018.526.526 0 0 0 .374-.643c-3.175-12.032-5.717-22.573-7.763-31.042q-.889-3.694-1.682-6.953a.526.526 0 1 0-1.022.25q.794 3.255 1.683 6.95c2.044 8.474 4.589 19.02 7.767 31.063a.527.527 0 0 0 .508.393z" class="cls-19" transform="translate(-13205.083 -399.869)"/>
                <path id="패스_252771" d="M13184.228 557.035c29.588-8.438 33.206-17.417 33.206-17.417l-2.347-15.023s-14.121 2.74-37.8 11.269c-14.587 5.254-7.433 25.27 6.941 21.171z" class="cls-20" transform="translate(-13150.804 -432.482)"/>
                <path id="패스_252772" d="M13184.223 577.827c19.364-5.089 21.7-8.51 23.848-11.271l9.358.3s-3.617 8.979-33.206 17.417c-10.258 2.926-16.837-6.43-14.464-13.938 1.611 5.347 7.041 9.443 14.464 7.492z" class="cls-21" transform="translate(-13150.8 -459.722)"/>
                <g id="그룹_4652" transform="translate(53.344 90.82)">
                    <g id="그룹_4650" transform="translate(0 .295)">
                        <path id="패스_252773" d="M13158.326 527.056c-2.083-2.835-5.336-5.6-10.632-5.28-8.691.534-16.56 6.417-15.685 11.243 1.592 8.763 10.022 10.192 19.559 3.146" class="cls-20" transform="translate(-13131.943 -521.751)"/>
                    </g>
                    <path id="패스_252774" d="M13167.472 557.969a34.709 34.709 0 0 1-3.716-1.7c-1.108-.609-2.165-1.308-3.3-1.87l-.179-.085c-1.405 3.469-3.454 5.822-5.868 6.856 3.433 1.388 8.209.427 13.387-3.072-.106-.044-.217-.085-.324-.129z" class="cls-21" transform="translate(-13149.298 -542.594)"/>
                    <g id="그룹_4651" transform="translate(7.158)">
                        <path id="패스_252775" d="M13101.062 521.232c17.807-2.715 24.295 12.7 24.295 12.7a7.4 7.4 0 0 1-5.858 1.765c.142 2.638-2.648 3.645-5.942 1.536.144 2.331-3.321 2.136-6.943.466-.562 1.08-4 1.327-7.236-.807a57.256 57.256 0 0 0-6.381-7.205" class="cls-20" transform="translate(-13092.467 -520.911)"/>
                        <path id="패스_252776" d="M13170.6 553.234a.527.527 0 0 0 .423-.839 42.76 42.76 0 0 0-7.485-7.866.526.526 0 1 0-.643.833 41.661 41.661 0 0 1 7.281 7.658.527.527 0 0 0 .424.214z" class="cls-16" transform="translate(-13162.69 -536.172)"/>
                        <path id="패스_252777" d="M13118.309 541.995a.55.55 0 0 0 .117-.013.529.529 0 0 0 .4-.629c-.945-4.173-5.615-10.195-10-11.413a.526.526 0 1 0-.281 1.014c3.936 1.094 8.375 6.76 9.252 10.631a.525.525 0 0 0 .512.41z" class="cls-16" transform="translate(-13091.268 -526.759)"/>
                        <path id="패스_252778" d="M13134.757 545.76a.528.528 0 0 0 .512-.656 20.49 20.49 0 0 0-9.418-11.7.526.526 0 1 0-.456.948c3.266 1.571 7.7 6.478 8.854 11.008a.524.524 0 0 0 .508.4z" class="cls-16" transform="translate(-13113.656 -528.989)"/>
                        <path id="패스_252779" d="M13153.944 549.013a.508.508 0 0 0 .128-.016.527.527 0 0 0 .383-.64 17.707 17.707 0 0 0-8.746-10.759.527.527 0 0 0-.516.918 16.654 16.654 0 0 1 8.24 10.1.529.529 0 0 0 .511.397z" class="cls-16" transform="translate(-13139.804 -531.7)"/>
                    </g>
                </g>
                <path id="패스_252780" d="M13163.59 701.424a7.244 7.244 0 0 1 2.673-2.331 5.4 5.4 0 0 0 5.169 3.823l.539 3.018h-6.175z" class="cls-13" transform="translate(-13103.348 -545.759)"/>
                <path id="패스_252781" d="M13209.286 650.009l8.229 22.624-32.738.238c-5.286.038-9.937-4.564-11.325-11.215l-3.883-18.609h31.273c3.612 0 6.898 2.71 8.444 6.962z" class="cls-13" transform="translate(-13150.992 -509.376)"/>
                <path id="패스_252782" d="M13207.69 650.009s5.66 16.029 6.654 18.29 2 4.334 7.89 4.334c-5.725 0-39.055.238-39.055.238-5.288.038-9.934-4.564-11.321-11.215l-3.885-18.609h31.274c3.61 0 6.898 2.71 8.443 6.962z" class="cls-12" transform="translate(-13155.149 -509.376)"/>
                <g id="그룹_4655" transform="translate(104.894 90.931)">
                    <g id="그룹_4653" transform="translate(.041)">
                        <path id="패스_252783" d="M13002.391 535.1c3.431-3.2-3-11.861-5.352-13.028s-7.328-.974-11.082-.336c-3.55.6-7.766 1.89-10.452 4.688a7.694 7.694 0 0 0-2.419 3.97c-2.668 7.575 10.345 7.977 14.413 7.481s12.709-.74 14.892-2.775z" class="cls-20" transform="translate(-12972.729 -521.227)"/>
                        <path id="패스_252784" d="M12979.567 550.071c4.067-.5 15.541 1.511 17.725-.522a4.047 4.047 0 0 0 .316-.333q2.372 1.2 4.7 2.474a5.2 5.2 0 0 1-1.114 1.581c-2.182 2.034-10.823 2.279-14.892 2.775-3.489.425-11.978.535-13.94-4.526 3.038 1.253 4.983-1.178 7.205-1.449z" class="cls-21" transform="translate(-12971.532 -539.396)"/>
                        <path id="패스_252785" d="M12950.337 523.639c3.175 1.261 11.859 7.835 14.193 10.531a5.591 5.591 0 0 1-.9 1.449 3.635 3.635 0 0 1-1.232.98 5.49 5.49 0 0 1-3.822-.26 20.893 20.893 0 0 1-3.882-2.442c-1.456-1-2.772-2.117-4.072-3.214" class="cls-20" transform="translate(-12926.024 -522.793)"/>
                        <path id="패스_252786" d="M12962.562 529.262c2.854 1.88 8.668 5.709 11.373 8.031a5.59 5.59 0 0 1-.679 1.567 3.651 3.651 0 0 1-1.076 1.151 5.49 5.49 0 0 1-3.818.306 20.878 20.878 0 0 1-4.2-1.843c-1.589-.78-3.055-1.686-4.5-2.579" class="cls-20" transform="translate(-12938.698 -526.443)"/>
                        <path id="패스_252787" d="M12977.529 532.916c2.852 1.881 8.666 5.709 11.373 8.032a4.58 4.58 0 0 1-.5 1.259 3.357 3.357 0 0 1-.178.307 3.623 3.623 0 0 1-1.074 1.151 5.487 5.487 0 0 1-3.817.306 20.882 20.882 0 0 1-4.2-1.843c-1.587-.78-3.055-1.686-4.5-2.579" class="cls-20" transform="translate(-12958.918 -528.815)"/>
                        <path id="패스_252788" d="M12999.4 532.745c2.852 1.88 8.665 5.709 11.372 8.031a5.566 5.566 0 0 1-.681 1.567 3.625 3.625 0 0 1-1.074 1.151 5.489 5.489 0 0 1-3.817.307 20.981 20.981 0 0 1-4.2-1.843c-1.586-.78-3.054-1.686-4.5-2.579" class="cls-20" transform="translate(-12988.467 -528.704)"/>
                    </g>
                    <path id="패스_252789" d="M13024.341 548.346c-.425 3.654 3.688 5.811 6.542 6.376s5.411-.233 5.953-2.961-2.159-3.48-4.818-4.656c-2.764-1.221-7.407-1.559-7.677 1.241z" class="cls-20" transform="translate(-13024.311 -537.437)"/>
                    <g id="그룹_4654" transform="translate(4.883 2.955)">
                        <path id="패스_252790" d="M12966.279 541.031a.533.533 0 0 0 .141-.019 3.729 3.729 0 0 0 2.693-3.453.527.527 0 0 0-.183-.413 116.864 116.864 0 0 0-9.955-7.409.526.526 0 1 0-.58.878 117.15 117.15 0 0 1 9.641 7.152 2.623 2.623 0 0 1-1.9 2.23.527.527 0 0 0 .139 1.034z" class="cls-16" transform="translate(-12938.192 -529.65)"/>
                        <path id="패스_252791" d="M12983.732 543.053a.53.53 0 0 0 .357-.139 4.69 4.69 0 0 0 1.432-2.65.531.531 0 0 0-.182-.461 120.577 120.577 0 0 0-10.117-7.11c-.469-.307-.9-.589-1.277-.838a.526.526 0 1 0-.58.879c.379.25.811.533 1.28.84 2.96 1.94 7.386 4.839 9.771 6.828a3.7 3.7 0 0 1-1.043 1.739.527.527 0 0 0 .358.913z" class="cls-16" transform="translate(-12959.854 -531.024)"/>
                        <path id="패스_252792" d="M13005.1 543.342a.523.523 0 0 0 .412-.2 4.627 4.627 0 0 0 .928-2.092.534.534 0 0 0-.182-.463 121.714 121.714 0 0 0-10.316-7.556.527.527 0 0 0-.581.879c3.026 2 7.375 5.082 9.976 7.275a3.64 3.64 0 0 1-.648 1.3.526.526 0 0 0 .412.854z" class="cls-16" transform="translate(-12988.493 -531.789)"/>
                        <path id="패스_252793" d="M13030.554 549.032a.526.526 0 0 0 .524-.521c.021-1.853-2.823-3.345-7.461-5.626a.526.526 0 1 0-.465.945c3.229 1.588 6.887 3.387 6.873 4.67a.526.526 0 0 0 .521.532z" class="cls-16" transform="translate(-13022.858 -538.207)"/>
                    </g>
                </g>
            </g>
            <g id="그룹_4657" transform="translate(203.017 83.551)">
                <path id="사각형_757" d="M0 0h21.028v17.517a7.539 7.539 0 0 1-7.539 7.539h-5.95A7.539 7.539 0 0 1 0 17.517V0z" class="cls-18"/>
                <path id="패스_252794" d="M12835.989 520.876a8.911 8.911 0 1 1-8.911-8.911 8.91 8.91 0 0 1 8.911 8.911zm-3.253 0a5.658 5.658 0 1 0-5.658 5.659 5.658 5.658 0 0 0 5.658-5.659z" class="cls-18" transform="translate(-12806.05 -507.835)"/>
            </g>
            <g id="그룹_4661" transform="translate(0 108.553)">
                <g id="그룹_4658" transform="translate(7.988 6.12)">
                    <path id="패스_252795" d="M13313.229 756.11h6.193l1.8-167.21h-9.79z" class="cls-13" transform="translate(-13269.311 -588.9)"/>
                    <path id="패스_252796" d="M13433.282 756.11h6.192l1.8-167.21h-9.793z" class="cls-13" transform="translate(-13431.481 -588.9)"/>
                </g>
                <g id="그룹_4660">
                    <g id="그룹_4659">
                        <path id="사각형_758" d="M0 0H246.454V12.743H0z" class="cls-12" transform="translate(51.91)"/>
                        <path id="패스_252797" d="M12926.031 607.327h89.435a.526.526 0 0 0 0-1.053h-89.435a.526.526 0 1 0 0 1.053z" class="cls-17" transform="translate(-12820.692 -594.058)"/>
                        <path id="사각형_759" d="M0 0H66.293V12.743H0z" class="cls-13"/>
                    </g>
                </g>
            </g>
            <g id="그룹_4664" transform="translate(107.531 51.636)">
                <path id="패스_252798" d="M12918.136 409.227h57.689a1.357 1.357 0 0 1 1.315 1.688l-12.341 48.821a1.355 1.355 0 0 1-1.312 1.023h-57.687a1.354 1.354 0 0 1-1.313-1.688l12.338-48.821a1.356 1.356 0 0 1 1.311-1.023z" class="cls-22" transform="translate(-12882.025 -409.227)"/>
                <g id="그룹_4663">
                    <g id="그룹_4662" transform="translate(0 51.532)">
                        <path id="사각형_760" d="M0 0H59.214V5.385H0z" class="cls-23" transform="translate(24.133)"/>
                        <path id="사각형_761" d="M0 0H59.214V1.204H0z" class="cls-22" transform="translate(24.133)"/>
                        <path id="패스_252799" d="M13131.011 556.106l-22.928 2.776a1.371 1.371 0 0 0-1.206 1.36v1.249h24.134z" class="cls-22" transform="translate(-13106.877 -556.106)"/>
                    </g>
                    <path id="패스_252800" d="M12912.54 409.227h57.689a1.357 1.357 0 0 1 1.315 1.688l-12.339 48.821a1.359 1.359 0 0 1-1.315 1.023h-57.69a1.357 1.357 0 0 1-1.315-1.688l12.339-48.821a1.359 1.359 0 0 1 1.316-1.023z" class="cls-23" transform="translate(-12874.465 -409.227)"/>
                    <rect id="사각형_762" width="3.723" height="1.69" class="cls-16" rx=".845" transform="translate(26.506 53.969)"/>
                    <rect id="사각형_763" width="3.723" height="1.69" class="cls-16" rx=".845" transform="translate(33.846 53.969)"/>
                    <rect id="사각형_764" width="3.723" height="1.69" class="cls-16" rx=".845" transform="translate(77.589 53.969)"/>
                </g>
            </g>
        </g>
    </g>
</svg>
