<svg xmlns="http://www.w3.org/2000/svg" width="313.645" height="190.408" viewBox="0 0 313.645 190.408">
    <defs>
        <style>
            .cls-1{fill:#ff8891}.cls-2{fill:#ff5776}.cls-3{fill:#2950cc}.cls-4{fill:#181f41}.cls-5{fill:#ffb83b}.cls-6{fill:#161f43}.cls-7{fill:#ff808d}.cls-8{fill:#b8d0ff}.cls-9{fill:#fff}.cls-11{fill:#00e7ae}.cls-12{fill:#00ba89}.cls-13{fill:#a4f9ff}.cls-15{fill:#5442e5}.cls-19{fill:#222cdf}.cls-21{fill:#7dafff}.cls-22{fill:#e1ecff}.cls-23{fill:#31458c}.cls-25{fill:#27325b}
        </style>
    </defs>
    <g id="img" transform="translate(-9345.128 1419.522)">
        <g id="그룹_4671" transform="translate(9409.266 -1311.03)">
            <g id="그룹_4670">
                <path id="패스_252801" d="M9519.352-1162.194s2.358 1.5 8.188 1.5 8.187-1.5 8.187-1.5v-11.839h-16.374z" class="cls-1" transform="translate(-9519.352 1174.033)"/>
                <path id="패스_252802" d="M9535.726-1174.033v4.631c-1.646 1.654-9.865 1.564-11.341 1.865-4.2.856-5.033 5.344-5.033 5.344v-11.839z" class="cls-2" transform="translate(-9519.352 1174.033)"/>
                <path id="패스_252803" d="M9527.539-1152.891a45.126 45.126 0 0 0 8.187-.665v3.7s-2.356 1.5-8.187 1.5-8.187-1.5-8.187-1.5v-3.7a45.121 45.121 0 0 0 8.187.665z" class="cls-3" transform="translate(-9519.352 1161.693)"/>
            </g>
        </g>
        <path id="패스_252804" d="M9539.956-1144.172c3.344-.4 3.91-.934 6.782-1.025 22.689 5.378 27.216 5.655 34.6 20.073 3.3 6.059 5.926 12.872 8.054 16.023 9.737 3.628 8.616 21.072 3.664 25.16-5.793 4.781-21.245 2.4-21.245 2.4l-11.622-34.209h-20.232z" class="cls-3" transform="translate(-122.502 -154.374)"/>
        <path id="패스_252805" d="M9446.137-1144.172c-3.344-.4-3.91-.934-6.783-1.025-5.427 1.37-10.851 1.837-16.065 3.074-3.622.859-7.942 1.067-12.27 5.83-18.991 20.9-26.745 28.529-26.745 39.126 0 7.866 20.423 0 20.423 0l21.208-18.582h20.232z" class="cls-3" transform="translate(-28.683 -154.374)"/>
        <path id="패스_252806" d="M9472.446-1083.543c1.271 11.176 2.23 29.175 3.393 39.157h46.867c1.161-9.982 2.121-27.982 3.393-39.157" class="cls-3" transform="translate(-81.818 -191.529)"/>
        <path id="패스_252807" d="M9602.376-1064.39h-.052a.6.6 0 0 1-.543-.645l1.664-19.461a.593.593 0 0 1 .644-.543.6.6 0 0 1 .544.644l-1.664 19.461a.6.6 0 0 1-.593.544z" class="cls-4" transform="translate(-159.758 -190.625)"/>
        <path id="패스_252808" d="M9473.21-1064.272a.6.6 0 0 1-.594-.546c-.1-1.241-.181-2.443-.27-3.835-.219-3.462-.491-7.769-1.4-15.726a.6.6 0 0 1 .524-.66.6.6 0 0 1 .661.525c.908 7.987 1.182 12.311 1.4 15.786.087 1.386.163 2.583.268 3.81a.6.6 0 0 1-.545.644z" class="cls-4" transform="translate(-80.914 -190.624)"/>
        <g id="그룹_4675" transform="translate(9396.99 -1355.583)">
            <g id="그룹_4672" transform="translate(16.006)">
                <circle id="타원_509864" cx="8.871" cy="8.871" r="8.871" class="cls-5"/>
            </g>
            <path id="패스_252809" d="M9569.746-1199.819a5.7 5.7 0 0 0 4.921 4.913c2.822.341 5.328-1.819 6.107-4.468 1.176-3.987-1.522-8.143-5.89-7.306a6.548 6.548 0 0 0-5.138 6.861z" class="cls-1" transform="translate(-9537.42 1238.325)"/>
            <path id="패스_252810" d="M9499.392-1206.871a5.7 5.7 0 0 1-5.779 3.868c-2.835-.213-4.874-2.817-5.127-5.567-.38-4.139 3.072-7.694 7.2-6.026a6.548 6.548 0 0 1 3.706 7.725z" class="cls-1" transform="translate(-9488.457 1243.284)"/>
            <ellipse id="타원_509865" cx="16.381" cy="15.43" class="cls-1" rx="16.381" ry="15.43" transform="rotate(-84.413 28.95 21.125)"/>
            <g id="그룹_4674" transform="translate(12.391 27.794)">
                <path id="패스_252811" d="M9520.232-1211.337a.6.6 0 0 0 .411-.164 6.1 6.1 0 0 1 4.312-1.425.605.605 0 0 0 .608-.584.6.6 0 0 0-.585-.608 7.054 7.054 0 0 0-5.154 1.752.6.6 0 0 0-.022.843.591.591 0 0 0 .43.186z" class="cls-4" transform="translate(-9519.638 1214.949)"/>
                <path id="패스_252812" d="M9553.3-1214.172a.594.594 0 0 0 .5-.277.6.6 0 0 0-.186-.823 7.065 7.065 0 0 0-5.4-.72.6.6 0 0 0-.455.709.6.6 0 0 0 .71.455 6.1 6.1 0 0 1 4.506.563.591.591 0 0 0 .325.093z" class="cls-4" transform="translate(-9536.579 1216.208)"/>
                <g id="그룹_4673" transform="translate(2.755 3.535)">
                    <circle id="타원_509866" cx="1.085" cy="1.085" r="1.085" class="cls-6" transform="translate(10.371)"/>
                    <path id="패스_252813" d="M9534.313-1187.687a6.805 6.805 0 0 0 2.475-.463.6.6 0 0 0 .339-.772.6.6 0 0 0-.771-.339 5.956 5.956 0 0 1-6.293-1.421.6.6 0 0 0-.844 0 .6.6 0 0 0 0 .843 7.2 7.2 0 0 0 5.094 2.152z" class="cls-4" transform="translate(-9528.061 1197.397)"/>
                    <path id="패스_252814" d="M9540.492-1199.234h.045l1.957-.142a.594.594 0 0 0 .43-.233.586.586 0 0 0 .113-.476l-.7-3.628a.6.6 0 0 0-.7-.472.6.6 0 0 0-.471.7l.576 2.968-1.289.093a.6.6 0 0 0-.551.638.6.6 0 0 0 .59.552z" class="cls-4" transform="translate(-9534.602 1205.434)"/>
                    <circle id="타원_509867" cx="1.085" cy="1.085" r="1.085" class="cls-6" transform="translate(0 1.014)"/>
                </g>
            </g>
            <path id="패스_252815" d="M9582.268-1196.741h-.059a.6.6 0 0 1-.536-.651 3.053 3.053 0 0 1 2.356-2.77 2.485 2.485 0 0 1 2.23.861.6.6 0 0 1-.079.839.6.6 0 0 1-.84-.08 1.285 1.285 0 0 0-1.14-.44 1.89 1.89 0 0 0-1.341 1.707.6.6 0 0 1-.591.534z" class="cls-4" transform="translate(-9544.63 1234.348)"/>
            <path id="패스_252816" d="M9498.133-1204.073h-.059a.6.6 0 0 1-.533-.651c.078-.821-.219-1.732-.627-1.911a.609.609 0 0 0-.672.212.593.593 0 0 1-.84.035.593.593 0 0 1-.035-.842 1.775 1.775 0 0 1 2.027-.5c1.029.453 1.449 1.912 1.332 3.119a.6.6 0 0 1-.593.538z" class="cls-4" transform="translate(-9492.524 1238.976)"/>
            <path id="패스_252817" d="M9532.081-1256.391c-4.826-4.327-8.419-4.029-10.423-3.213-5.654-4.76-13.866 2.015-16.019 5.956-3.039 5.561-2.269 10.995-.7 17.633.828-4.233.832-6.355 2.06-9.867 2.605-2.236 6.472-4.88 10.163-5.14l-.048.069c2.946 3.969 7.323 8.427 14.627 7.837.835 3.864.905 5.22 1.6 9.879 0 0 1.77-4.806 2.154-6.326.805-3.153 2.929-11.137-3.414-16.828z" class="cls-5" transform="translate(-9497.561 1271.138)"/>
            <path id="패스_252818" d="M9544.983-1258.572a.591.591 0 0 1-.391-.147c-5.276-4.592-13.417-3.482-15.628-2.582a.6.6 0 0 1-.777-.327.6.6 0 0 1 .328-.777c2.485-1.011 11.1-2.228 16.859 2.788a.6.6 0 0 1 .059.841.6.6 0 0 1-.45.204z" class="cls-4" transform="translate(-9512.374 1272.387)"/>
        </g>
        <g id="그룹_4676" transform="translate(9353.188 -1262.051)">
            <path id="패스_252819" d="M9384.974-1028.127s26.688.129 29.127.129c6.511 0 8.283-4.093 8.283-11s-3.407-9.968-8.54-10.086c-4.817-.111-27.03-.19-27.03-.19-2.959.2-8.238 2.461-8.567 9.914s3.912 11.222 6.727 11.233z" class="cls-3" transform="translate(-9378.228 1049.871)"/>
            <path id="패스_252820" d="M9418.585-1049.583h-16.254a.6.6 0 0 1-.6-.6.6.6 0 0 1 .6-.6h16.254a.6.6 0 0 1 .6.6.6.6 0 0 1-.6.6z" class="cls-4" transform="translate(-9392.394 1050.775)"/>
        </g>
        <g id="그룹_4688" transform="translate(9381.253 -1283.544)">
            <path id="패스_252821" d="M9460.285-1038.72a20.3 20.3 0 0 1-3.525.877c-2.629-.3-7.742-1.3-7.9-10.2-.127-6.957 4.088-14.3 12.824-17.967 5.514-1.171 7.822 5.576 4.7 8.227 6.946 2.883-6.099 19.063-6.099 19.063z" class="cls-7" transform="translate(-9448.853 1081.529)"/>
            <path id="패스_252822" d="M9625.6-1057.05c-.792-2.019-4.161-7.126-9-7.46-3.445-.237-4.242 9.562-4.242 9.562s12.242 1.49 13.242-2.102z" class="cls-7" transform="translate(-9547.386 1080.548)"/>
            <g id="그룹_4681" transform="translate(10.41)">
                <path id="패스_252823" d="M9531.352-1062.757h-53.637a2.663 2.663 0 0 1-2.625-3.114l6.188-35.969a2.664 2.664 0 0 1 2.625-2.211h53.637a2.662 2.662 0 0 1 2.623 3.114l-6.186 35.969a2.664 2.664 0 0 1-2.625 2.211z" class="cls-8" transform="translate(-9475.051 1104.375)"/>
                <path id="패스_252824" d="M9601.1-1103.672h-3.4a.6.6 0 0 1-.6-.6.6.6 0 0 1 .6-.6h3.4a.6.6 0 0 1 .6.6.6.6 0 0 1-.6.6z" class="cls-9" transform="translate(-9548.602 1104.864)"/>
                <path id="패스_252825" d="M9616.441-1103.672h-3.4a.6.6 0 0 1-.6-.6.6.6 0 0 1 .6-.6h3.4a.6.6 0 0 1 .6.6.6.6 0 0 1-.6.6z" class="cls-9" transform="translate(-9557.847 1104.864)"/>
                <path id="패스_252826" d="M9629.708-1103.54a2.379 2.379 0 0 1 1.538-.169 7.7 7.7 0 0 1 3.021 2.4l-3.129.886-2.189-2.864" class="cls-8" transform="translate(-9567.795 1104.21)"/>
                <path id="패스_252827" d="M9535.661-1059.485h-53.639a2.663 2.663 0 0 1-2.624-3.114l6.187-35.969a2.664 2.664 0 0 1 2.625-2.211h53.637a2.662 2.662 0 0 1 2.624 3.114l-6.186 35.969a2.664 2.664 0 0 1-2.624 2.211z" class="cls-6" transform="translate(-9477.647 1102.403)"/>
                <path id="패스_252828" fill="#94fffa" d="M9538.623-1058.6h-51.381a1.732 1.732 0 0 1-1.706-2.024l5.719-33.312a1.73 1.73 0 0 1 1.705-1.437h51.382a1.731 1.731 0 0 1 1.706 2.024l-5.719 33.312a1.731 1.731 0 0 1-1.706 1.437z" transform="translate(-9481.354 1099.144)"/>
                <g id="그룹_4677" transform="translate(4.156 3.772)">
                    <path id="패스_252829" d="M9544.342-1095.372h-51.382a1.73 1.73 0 0 0-1.705 1.437l-5.719 33.312a1.732 1.732 0 0 0 1.706 2.024h35.843c.346-5.773.84-13.616 1.668-20.9l6.247 20.9h7.623a1.731 1.731 0 0 0 1.706-1.437l5.719-33.312a1.731 1.731 0 0 0-1.706-2.024z" class="cls-11" transform="translate(-9485.511 1095.372)"/>
                </g>
                <path id="패스_252830" d="M9583.363-1067.289a.614.614 0 0 1-.076 0 .6.6 0 0 1-.516-.666l.968-7.624a.6.6 0 0 1 .665-.517.6.6 0 0 1 .518.667l-.968 7.625a.6.6 0 0 1-.591.515z" class="cls-12" transform="translate(-9539.964 1087.534)"/>
                <path id="패스_252831" d="M9519.539-1085.311h-7.4a.6.6 0 0 1-.6-.6.6.6 0 0 1 .6-.6h7.4a.6.6 0 0 1 .6.6.6.6 0 0 1-.6.6z" class="cls-13" transform="translate(-9497.044 1093.799)"/>
                <path id="패스_252832" d="M9515.429-1080.671h-3.971a.6.6 0 0 1-.6-.6.6.6 0 0 1 .6-.6h3.971a.6.6 0 0 1 .6.6.6.6 0 0 1-.6.6z" class="cls-13" transform="translate(-9496.632 1091.003)"/>
                <path id="패스_252833" d="M9516.655-1076.03h-5.884a.6.6 0 0 1-.6-.6.6.6 0 0 1 .6-.6h5.884a.6.6 0 0 1 .6.6.6.6 0 0 1-.6.6z" class="cls-13" transform="translate(-9496.218 1088.206)"/>
                <path id="패스_252834" d="M9513.131-1071.39h-3.046a.6.6 0 0 1-.6-.6.6.6 0 0 1 .6-.6h3.046a.6.6 0 0 1 .6.6.6.6 0 0 1-.6.6z" class="cls-13" transform="translate(-9495.805 1085.41)"/>
                <path id="패스_252835" d="M9613.927-1086.51h-6a.6.6 0 0 1-.6-.6.6.6 0 0 1 .6-.6h6a.6.6 0 0 1 .6.6.6.6 0 0 1-.6.6z" class="cls-13" transform="translate(-9554.769 1094.522)"/>
                <path id="패스_252836" d="M9611.214-1081.87h-3.971a.6.6 0 0 1-.6-.6.6.6 0 0 1 .6-.6h3.971a.6.6 0 0 1 .6.6.6.6 0 0 1-.6.6z" class="cls-13" transform="translate(-9554.355 1091.725)"/>
                <g id="그룹_4680" transform="translate(6.521 9.986)">
                    <g id="그룹_4678" transform="translate(1.603 1.641)">
                        <path id="패스_252837" d="M9512.044-1047.386h-5.932a.4.4 0 0 1-.4-.4.4.4 0 0 1 .4-.4h5.932a.4.4 0 0 1 .4.4.4.4 0 0 1-.4.4z" class="cls-13" transform="translate(-9501.653 1059.079)"/>
                        <path id="패스_252838" d="M9503.275-1055.65a.4.4 0 0 1-.377-.268l-1.87-5.449a.4.4 0 0 1 .247-.5.4.4 0 0 1 .507.247l1.869 5.449a.4.4 0 0 1-.246.505.4.4 0 0 1-.13.016z" class="cls-13" transform="translate(-9498.816 1067.343)"/>
                        <path id="패스_252839" d="M9495.894-1041.937a.394.394 0 0 1-.237-.079.4.4 0 0 1-.081-.556l4.061-5.449a.4.4 0 0 1 .556-.081.4.4 0 0 1 .082.556l-4.062 5.449a.4.4 0 0 1-.319.16z" class="cls-13" transform="translate(-9495.496 1059.079)"/>
                        <path id="패스_252840" d="M9528.842-1050.2h-5.932a.4.4 0 0 1-.377-.268l-1.869-5.449a.392.392 0 0 1 .059-.366l4.059-5.449a.4.4 0 0 1 .32-.16h5.93a.394.394 0 0 1 .375.268l1.871 5.449a.4.4 0 0 1-.057.366l-4.061 5.449a.4.4 0 0 1-.318.16zm-5.648-.795h5.449l3.816-5.121-1.711-4.982h-5.448l-3.816 5.12z" class="cls-13" transform="translate(-9510.65 1067.342)"/>
                        <path id="패스_252841" d="M9553.986-1063.913h-5.93a.4.4 0 0 1-.377-.268l-1.871-5.449a.4.4 0 0 1 .057-.366l4.063-5.449a.4.4 0 0 1 .318-.16h5.932a.4.4 0 0 1 .377.269l1.869 5.449a.4.4 0 0 1-.057.366l-4.062 5.449a.393.393 0 0 1-.319.159zm-5.648-.795h5.449l3.816-5.121-1.711-4.982h-5.447l-3.816 5.121z" class="cls-13" transform="translate(-9525.802 1075.606)"/>
                        <path id="패스_252842" d="M9548.476-1036.489h-5.933a.4.4 0 0 1-.377-.268l-1.87-5.449a.4.4 0 0 1 .058-.367l4.062-5.449a.4.4 0 0 1 .319-.16h5.932a.4.4 0 0 1 .375.268l1.87 5.449a.4.4 0 0 1-.057.367l-4.062 5.449a.4.4 0 0 1-.317.16zm-5.648-.795h5.448l3.816-5.121-1.71-4.982h-5.448l-3.817 5.12z" class="cls-13" transform="translate(-9522.48 1059.079)"/>
                        <path id="패스_252843" d="M9573.622-1050.2h-5.932a.4.4 0 0 1-.377-.268l-1.871-5.449a.4.4 0 0 1 .058-.367l4.062-5.449a.4.4 0 0 1 .319-.16h5.931a.4.4 0 0 1 .377.268l1.869 5.449a.4.4 0 0 1-.057.366l-4.062 5.449a.4.4 0 0 1-.317.161zm-5.648-.795h5.448l3.816-5.121-1.711-4.982h-5.447l-3.816 5.12z" class="cls-13" transform="translate(-9537.635 1067.342)"/>
                        <path id="패스_252844" d="M9601.6-1047.386h-5.932a.4.4 0 0 1-.4-.4.4.4 0 0 1 .4-.4h5.932a.4.4 0 0 1 .4.4.4.4 0 0 1-.4.4z" class="cls-13" transform="translate(-9555.626 1059.079)"/>
                        <path id="패스_252845" d="M9610.6-1055.649a.4.4 0 0 1-.237-.079.4.4 0 0 1-.08-.556l4.061-5.448a.4.4 0 0 1 .557-.081.4.4 0 0 1 .082.556l-4.062 5.449a.4.4 0 0 1-.321.159z" class="cls-13" transform="translate(-9564.621 1067.342)"/>
                        <path id="패스_252846" d="M9612.47-1041.938a.4.4 0 0 1-.376-.268l-1.87-5.449a.4.4 0 0 1 .247-.505.4.4 0 0 1 .5.247l1.871 5.449a.4.4 0 0 1-.248.505.391.391 0 0 1-.124.021z" class="cls-13" transform="translate(-9564.621 1059.079)"/>
                    </g>
                    <g id="그룹_4679">
                        <ellipse id="타원_509868" cx="1.587" cy="1.28" class="cls-13" rx="1.587" ry="1.28" transform="rotate(-49.998 16.322 2.31)"/>
                        <ellipse id="타원_509869" cx="1.587" cy="1.28" class="cls-13" rx="1.587" ry="1.28" transform="rotate(-49.998 20.135 9.389)"/>
                        <ellipse id="타원_509870" cx="1.587" cy="1.28" class="cls-13" rx="1.587" ry="1.28" transform="rotate(-49.998 9.545 1.59)"/>
                        <ellipse id="타원_509871" cx="1.587" cy="1.28" class="cls-13" rx="1.587" ry="1.28" transform="rotate(-49.998 19.288 -4.05)"/>
                        <ellipse id="타원_509872" cx="1.587" cy="1.28" class="cls-13" rx="1.587" ry="1.28" transform="rotate(-49.998 26.066 -3.332)"/>
                        <ellipse id="타원_509873" cx="1.587" cy="1.28" class="cls-13" rx="1.587" ry="1.28" transform="rotate(-49.998 34.117 -35.851)"/>
                        <ellipse id="타원_509874" cx="1.587" cy="1.28" class="cls-13" rx="1.587" ry="1.28" transform="rotate(-49.998 37.082 -42.213)"/>
                        <ellipse id="타원_509875" cx="1.587" cy="1.28" class="cls-13" rx="1.587" ry="1.28" transform="rotate(-49.998 43.86 -41.493)"/>
                        <ellipse id="타원_509876" cx="1.587" cy="1.28" class="cls-13" rx="1.587" ry="1.28" transform="rotate(-49.998 37.929 -28.773)"/>
                        <ellipse id="타원_509877" cx="1.587" cy="1.28" class="cls-13" rx="1.587" ry="1.28" transform="rotate(-49.998 15.476 -11.13)"/>
                        <ellipse id="타원_509878" cx="1.587" cy="1.28" class="cls-13" rx="1.587" ry="1.28" transform="rotate(-49.998 18.442 -17.49)"/>
                        <ellipse id="타원_509879" cx="1.587" cy="1.28" class="cls-13" rx="1.587" ry="1.28" transform="rotate(-49.998 25.22 -16.77)"/>
                        <ellipse id="타원_509880" cx="1.587" cy="1.28" class="cls-13" rx="1.587" ry="1.28" transform="rotate(-49.998 19.288 -4.05)"/>
                        <ellipse id="타원_509881" cx="1.587" cy="1.28" class="cls-13" rx="1.587" ry="1.28" transform="rotate(-49.998 26.066 -3.332)"/>
                        <ellipse id="타원_509882" cx="1.587" cy="1.28" class="cls-13" rx="1.587" ry="1.28" transform="rotate(-49.998 29.032 -9.692)"/>
                        <ellipse id="타원_509883" cx="1.587" cy="1.28" class="cls-13" rx="1.587" ry="1.28" transform="rotate(-49.998 14.63 -24.57)"/>
                        <ellipse id="타원_509884" cx="1.587" cy="1.28" class="cls-13" rx="1.587" ry="1.28" transform="rotate(-49.998 17.595 -30.929)"/>
                        <ellipse id="타원_509885" cx="1.587" cy="1.28" class="cls-13" rx="1.587" ry="1.28" transform="rotate(-49.998 24.374 -30.21)"/>
                        <ellipse id="타원_509886" cx="1.587" cy="1.28" class="cls-13" rx="1.587" ry="1.28" transform="rotate(-49.998 18.442 -17.49)"/>
                        <ellipse id="타원_509887" cx="1.587" cy="1.28" class="cls-13" rx="1.587" ry="1.28" transform="rotate(-49.998 25.22 -16.77)"/>
                        <ellipse id="타원_509888" cx="1.587" cy="1.28" class="cls-13" rx="1.587" ry="1.28" transform="rotate(-49.998 28.186 -23.13)"/>
                        <ellipse id="타원_509889" cx="1.587" cy="1.28" class="cls-13" rx="1.587" ry="1.28" transform="rotate(-49.998 35.81 -8.973)"/>
                        <ellipse id="타원_509890" cx="1.587" cy="1.28" class="cls-13" rx="1.587" ry="1.28" transform="rotate(-49.998 38.776 -15.334)"/>
                        <ellipse id="타원_509891" cx="1.587" cy="1.28" class="cls-13" rx="1.587" ry="1.28" transform="rotate(-49.998 26.066 -3.332)"/>
                        <ellipse id="타원_509892" cx="1.587" cy="1.28" class="cls-13" rx="1.587" ry="1.28" transform="rotate(-49.998 29.032 -9.692)"/>
                        <ellipse id="타원_509893" cx="1.587" cy="1.28" class="cls-13" rx="1.587" ry="1.28" transform="rotate(-49.998 35.81 -8.973)"/>
                        <ellipse id="타원_509894" cx="1.587" cy="1.28" class="cls-13" rx="1.587" ry="1.28" transform="rotate(-49.998 25.22 -16.77)"/>
                        <ellipse id="타원_509895" cx="1.587" cy="1.28" class="cls-13" rx="1.587" ry="1.28" transform="rotate(-49.998 28.186 -23.13)"/>
                        <ellipse id="타원_509896" cx="1.587" cy="1.28" class="cls-13" rx="1.587" ry="1.28" transform="rotate(-49.998 34.963 -22.413)"/>
                        <ellipse id="타원_509897" cx="1.587" cy="1.28" class="cls-13" rx="1.587" ry="1.28" transform="rotate(-49.998 29.032 -9.692)"/>
                        <ellipse id="타원_509898" cx="1.587" cy="1.28" class="cls-13" rx="1.587" ry="1.28" transform="rotate(-49.998 35.81 -8.973)"/>
                        <ellipse id="타원_509899" cx="1.587" cy="1.28" class="cls-13" rx="1.587" ry="1.28" transform="rotate(-49.998 38.776 -15.334)"/>
                        <ellipse id="타원_509900" cx="1.587" cy="1.28" class="cls-13" rx="1.587" ry="1.28" transform="rotate(-49.998 34.963 -22.413)"/>
                        <ellipse id="타원_509901" cx="1.587" cy="1.28" class="cls-13" rx="1.587" ry="1.28" transform="rotate(-49.998 37.929 -28.773)"/>
                        <ellipse id="타원_509902" cx="1.587" cy="1.28" class="cls-13" rx="1.587" ry="1.28" transform="rotate(-49.998 38.776 -15.334)"/>
                        <ellipse id="타원_509903" cx="1.587" cy="1.28" class="cls-13" rx="1.587" ry="1.28" transform="rotate(-49.998 24.374 -30.21)"/>
                        <ellipse id="타원_509904" cx="1.587" cy="1.28" class="cls-13" rx="1.587" ry="1.28" transform="rotate(-49.998 27.34 -36.57)"/>
                        <ellipse id="타원_509905" cx="1.587" cy="1.28" class="cls-13" rx="1.587" ry="1.28" transform="rotate(-49.998 34.117 -35.851)"/>
                        <ellipse id="타원_509906" cx="1.587" cy="1.28" class="cls-13" rx="1.587" ry="1.28" transform="rotate(-49.998 28.186 -23.13)"/>
                        <ellipse id="타원_509907" cx="1.587" cy="1.28" class="cls-13" rx="1.587" ry="1.28" transform="rotate(-49.998 34.963 -22.413)"/>
                        <ellipse id="타원_509908" cx="1.587" cy="1.28" class="cls-13" rx="1.587" ry="1.28" transform="rotate(-49.998 37.929 -28.773)"/>
                        <ellipse id="타원_509909" cx="1.587" cy="1.28" class="cls-13" rx="1.587" ry="1.28" transform="rotate(-49.998 33.27 -49.291)"/>
                    </g>
                </g>
                <path id="패스_252847" d="M9544.951-1095.171a1.7 1.7 0 0 1 .038.756l-5.719 33.312a1.729 1.729 0 0 1-1.705 1.437h-51.38a1.728 1.728 0 0 1-.516-.08 1.732 1.732 0 0 0 1.668 1.268h51.382a1.73 1.73 0 0 0 1.705-1.437l5.719-33.312a1.729 1.729 0 0 0-1.192-1.944z" class="cls-12" transform="translate(-9481.451 1099.023)"/>
            </g>
            <g id="그룹_4683" transform="translate(62.252 22.589)">
                <g id="그룹_4682">
                    <path id="패스_252848" d="M9606.042-1029.6c.055-1.779.854-1.784 2.4-2.035-1.9-.115-2.721-.949-2.762-2.175-.061-1.775 1.043-2.578 2.593-2.829-1.9-.116-2.721-.95-2.762-2.176a2.572 2.572 0 0 1 2.372-2.789 2.12 2.12 0 0 1-1.981-2.079c-.078-2.286 2.511-2.949 4.766-2.9s6.479-.163 9.652.061a4.756 4.756 0 0 1 3.29 1.262 2.146 2.146 0 0 1 .414 2.442l-.258.42a1.867 1.867 0 0 0-.061 1.882l.471.845a1.871 1.871 0 0 1-.115 1.968l-.492.716c-.711 1.032.2 2.091.313 3.148a1.865 1.865 0 0 1-.3 1.319 5.254 5.254 0 0 0-.628.988c-.333.868.231 1.675.057 2.526a2.525 2.525 0 0 1-1.446 1.506 6.38 6.38 0 0 1-3.391.745 88.745 88.745 0 0 1-9.233-.455c-2.1-.19-2.941-1.102-2.899-2.39z" class="cls-7" transform="translate(-9605.514 1047.183)"/>
                    <path id="패스_252849" d="M9634.6-1046.766h-.009l-4.8-.059a.6.6 0 0 1-.59-.6.6.6 0 0 1 .6-.589h.007l4.807.059a.6.6 0 0 1 .588.6.6.6 0 0 1-.603.589z" class="cls-4" transform="translate(-9619.784 1048.017)"/>
                    <path id="패스_252850" d="M9621.854-1034.274h-.006l-11.691-.113a.6.6 0 0 1-.59-.6.583.583 0 0 1 .6-.59l11.692.112a.6.6 0 0 1 .59.6.6.6 0 0 1-.595.591z" class="cls-4" transform="translate(-9607.957 1040.521)"/>
                    <path id="패스_252851" d="M9621.563-1021.609h-.012l-10.048-.187a.6.6 0 0 1-.584-.607.606.606 0 0 1 .607-.585l10.047.188a.6.6 0 0 1 .585.607.6.6 0 0 1-.595.584z" class="cls-4" transform="translate(-9608.771 1032.934)"/>
                    <path id="패스_252852" d="M9622.351-1008.945h-.019l-10.445-.322a.6.6 0 0 1-.576-.614.593.593 0 0 1 .612-.577l10.445.322a.6.6 0 0 1 .577.614.6.6 0 0 1-.594.577z" class="cls-4" transform="translate(-9609.008 1025.384)"/>
                </g>
            </g>
            <g id="그룹_4687" transform="translate(6.099 22.254)">
                <g id="그룹_4686">
                    <g id="그룹_4685">
                        <g id="그룹_4684">
                            <path id="패스_252853" d="M9467.286-1009.46s10.127.58 12.442.724 4.174.993 3.952 3.322c-.122 1.313-1.1 2.089-3.273 1.977-10.148-.521-15.312-.224-16.205-4.381" class="cls-7" transform="translate(-9464.202 1025.117)"/>
                            <path id="패스_252854" d="M9471.984-1022.285s10.127.581 12.444.724 4.171.993 3.95 3.322c-.123 1.313-1.1 2.112-3.273 1.977s-13.905-.815-13.905-.815" class="cls-7" transform="translate(-9468.419 1032.846)"/>
                            <path id="패스_252855" d="M9473.441-1035.183l12.2.753c2.316.144 4.172.993 3.953 3.322-.125 1.312-1.1 2.112-3.274 1.977s-13.906-.815-13.906-.815" class="cls-7" transform="translate(-9469.149 1040.618)"/>
                            <path id="패스_252856" d="M9474.32-1047.362s9.246.4 11.561.542 4.932 1.039 4.711 3.369c-.123 1.312-1.1 2.112-3.273 1.977s-13.08-.936-13.08-.936" class="cls-7" transform="translate(-9470.25 1047.958)"/>
                            <path id="패스_252857" d="M9476.816-1047.526h-.027l-3.278-.143a.6.6 0 0 1-.57-.622.6.6 0 0 1 .622-.569l3.278.143a.6.6 0 0 1 .57.621.6.6 0 0 1-.595.57z" class="cls-4" transform="translate(-9469.467 1048.861)"/>
                        </g>
                    </g>
                    <path id="패스_252858" d="M9490.857-1034.21h-.04l-12.284-.817a.6.6 0 0 1-.557-.634.6.6 0 0 1 .635-.555l12.285.817a.6.6 0 0 1 .556.634.6.6 0 0 1-.595.555z" class="cls-4" transform="translate(-9472.502 1041.243)"/>
                    <path id="패스_252859" d="M9490.432-1021.2h-.034l-11.14-.643a.6.6 0 0 1-.561-.629.593.593 0 0 1 .629-.561l11.14.642a.6.6 0 0 1 .561.63.6.6 0 0 1-.595.561z" class="cls-4" transform="translate(-9472.937 1033.298)"/>
                    <path id="패스_252860" d="M9488.719-1008.623h-.041l-11.5-.765a.6.6 0 0 1-.555-.634.6.6 0 0 1 .635-.555l11.5.765a.6.6 0 0 1 .556.634.6.6 0 0 1-.595.555z" class="cls-4" transform="translate(-9471.689 1025.792)"/>
                </g>
            </g>
        </g>
        <path id="패스_252862" d="M9684.164-1218.314l-1.522-1.739-4.81-2.794s-.957-.116-1.833 1.437q-.015.023-.026.047a2.593 2.593 0 0 0 .807 3.365l2.706 1.922 7 1.9" class="cls-1" transform="translate(-204.28 -107.579)"/>
        <g id="그룹_4699" transform="translate(9456.088 -1401.365)">
            <path id="패스_252863" d="M9707.3-1037.983c-3.124.774-5.321 1.409-9.775 2.4a2.326 2.326 0 0 0-1.847 1.974 2.288 2.288 0 0 0-.013.234v.038a2.256 2.256 0 0 0 2.279 2.181h16.9c3.287 0 1.969-10.113 4.97-18.323l-14.186-2.724-1.755 7.959a7.4 7.4 0 0 1-4.031 4c-3.654 1.493-5.93 2.4-8.168 3.295-2.769 1.107-10.987 4.121-10.987 4.121s0 1.671 2.187 1.671h15.069" class="cls-1" transform="translate(-9663.397 1190.952)"/>
            <path id="패스_252864" d="M9718.765-1010.133a.6.6 0 0 0 .542-.347.6.6 0 0 0-.292-.791 1.574 1.574 0 0 1-.941-1.609 1.741 1.741 0 0 1 1.385-1.459c3.1-.689 5.135-1.212 7.1-1.718.871-.224 1.738-.447 2.69-.683a.6.6 0 0 0 .436-.722.6.6 0 0 0-.722-.435c-.957.237-1.826.461-2.7.686-1.955.5-3.978 1.024-7.061 1.708a2.9 2.9 0 0 0-2.31 2.494 2.759 2.759 0 0 0 1.626 2.819.59.59 0 0 0 .247.057z" class="cls-4" transform="translate(-9685.207 1170.286)"/>
            <path id="패스_252865" d="M9733.014-1162.241l19.819 3.814 16.015-75.579-23.01-7.261z" class="cls-15" transform="translate(-9694.933 1304.886)"/>
            <path id="패스_252866" d="M9809.943-1233.124l3.394-19.344s-11.154-23.433-16.607-33.609c-7.581-14.144-11.976-12.785-23.069-15.244l-8.783 2.716-5.134 5.437a178.636 178.636 0 0 0 2.2 21.28c1.864 10.962 6.334 17.586 20.48 37.469l14.372 7.9z" class="cls-15" transform="translate(-9711.041 1341.076)"/>
            <path id="패스_252867" d="M9783.764-1198.271a.594.594 0 0 0 .345-.11.6.6 0 0 0 .14-.831c-14.329-20.141-18.542-26.429-20.379-37.224l-.72-5.372a.6.6 0 0 0-.67-.512.6.6 0 0 0-.512.67l.724 5.393c1.877 11.04 6.441 17.854 20.585 37.736a.6.6 0 0 0 .487.25z" class="cls-4" transform="translate(-9712.378 1305.523)"/>
            <path id="패스_252868" fill="#ec3490" d="M9844.191-1178.38c12.672 6.79 21.353 29.38 29.891 68.885-27.42 5.432-63.14 7.808-63.14 7.808l2.337-58.645s14.538-8.952 30.912-18.048z" transform="translate(-9741.895 1266.988)"/>
            <g id="그룹_4694" transform="translate(26.458 5.87)">
                <g id="그룹_4691">
                    <g id="그룹_4689" transform="translate(16.3 23.738)">
                        <path id="패스_252869" d="M9750.727-1308.557a33.1 33.1 0 0 0 7.49-3.169 33.112 33.112 0 0 0 6.427-4.984l-5.945-10.147-13.916 8.153z" class="cls-1" transform="translate(-9744.782 1326.857)"/>
                    </g>
                    <path id="패스_252870" d="M9755.146-1317.434a16.727 16.727 0 0 0 5.777-5.627l-2.225-3.8-13.916 8.153 2.094 3.573a16.731 16.731 0 0 0 8.27-2.299z" class="cls-2" transform="translate(-9728.482 1350.595)"/>
                    <g id="그룹_4690">
                        <circle id="타원_509910" cx="16.812" cy="16.812" r="16.812" class="cls-1"/>
                    </g>
                </g>
                <g id="그룹_4693" transform="translate(.834 14.449)">
                    <circle id="타원_509911" cx="5.07" cy="5.07" r="5.07" class="cls-1" transform="translate(11.664)"/>
                    <path id="패스_252871" d="M9706.458-1333.033a.6.6 0 0 0 .595-.565 1.584 1.584 0 0 1 1.742-1.265.6.6 0 0 0 .6-.6.6.6 0 0 0-.6-.6 2.73 2.73 0 0 0-2.932 2.4.6.6 0 0 0 .564.626z" class="cls-4" transform="translate(-9705.862 1341.689)"/>
                    <g id="그룹_4692" transform="translate(2.335 9.603)">
                        <circle id="타원_509912" cx="1.036" cy="1.036" r="1.036" class="cls-6"/>
                    </g>
                </g>
            </g>
            <path id="패스_252872" fill="#48298f" d="M9716.608-1400.841c8.133-1.861 15.66 1.428 19.209 6.837 2.881 4.395 3.65 13.282 7.673 16.664 2.785 2.342 9.116 3.324 12.943 7.03 3.464 3.356 4.444 14 .6 17.842a19.325 19.325 0 0 0-10.881-4.7c-4.521-.646-7.2 0-15.749-.952-7.422-.822-14.375-10.853-16.616-14.967-4.441-8.156-7.389-9.256-9.079-9.263-2.087-.009-2.787 1.871-3.168 3.79-3.584-5.825-1.346-18.525 15.068-22.281z" transform="translate(-9675.081 1401.365)"/>
            <path id="패스_252873" d="M9726.912-1311.456a.587.587 0 0 0 .389-.146 3.616 3.616 0 0 0 1.434-3.081.591.591 0 0 0-.641-.548.594.594 0 0 0-.547.641 2.438 2.438 0 0 1-1.025 2.089.6.6 0 0 0-.061.841.6.6 0 0 0 .451.204z" class="cls-4" transform="translate(-9690.896 1349.46)"/>
            <path id="패스_252874" d="M9688.189-1229.545c-2.072-3.222-3-3.536-11.28-6.379a1.042 1.042 0 0 0-1.307.864 5.308 5.308 0 0 0 1.222 3.688l.518.689a3.972 3.972 0 0 0 .982.929l5.92 3.928" class="cls-1" transform="translate(-9660.318 1301.688)"/>
            <g id="그룹_4695" transform="translate(0 65.971)">
                <path id="패스_252875" d="M9649.315-1231.333l.532 3.372 26.442-4.493a1.455 1.455 0 0 0 1.21-1.665 1.455 1.455 0 0 0-1.665-1.21z" class="cls-6" transform="translate(-9644.494 1235.347)"/>
                <path id="패스_252876" d="M9637.192-1222.758a.888.888 0 0 1 .61-.986l4.2-1.5.532 3.372-4.457-.135a.887.887 0 0 1-.885-.751z" class="cls-6" transform="translate(-9637.182 1229.26)"/>
            </g>
            <g id="그룹_4697" transform="translate(2.353 63.794)">
                <g id="그룹_4696">
                    <path id="패스_252877" d="M9653.5-1214.589c2.48 1.121 10.349 4.149 13.72 4.528 3.3-2.162 6.11-8.306 6.945-12.56a66.235 66.235 0 0 0-6.466-11.1c-1.625-.091-4.314 1.106-7.489-.3-7.9-3.959-15.024-8.541-16.671-6.13-1.605 2.349.942 3.008 11.53 9.27-1.624.138-5.759 1.369-3.154 3.976a2.335 2.335 0 0 0-1.949 3.984c-1.589.387-3.056 5.35 3.534 8.332z" class="cls-1" transform="translate(-9643.104 1240.825)"/>
                </g>
                <path id="패스_252878" d="M9670.664-1217.294a.6.6 0 0 0 .524-.311.6.6 0 0 0-.238-.808l-4.921-2.679a.6.6 0 0 0-.808.239.6.6 0 0 0 .238.809l4.921 2.678a.589.589 0 0 0 .284.072z" class="cls-4" transform="translate(-9656.388 1228.977)"/>
                <path id="패스_252879" d="M9666.765-1204.931a.6.6 0 0 0 .533-.33.6.6 0 0 0-.268-.8l-2.377-1.184a.6.6 0 0 0-.8.268.6.6 0 0 0 .268.8l2.376 1.184a.6.6 0 0 0 .268.062z" class="cls-4" transform="translate(-9655.57 1220.626)"/>
                <path id="패스_252880" d="M9661.182-1195.084a.6.6 0 0 0 .514-.293.6.6 0 0 0-.21-.816l-1.7-1.006a.6.6 0 0 0-.817.21.6.6 0 0 0 .21.816l1.7 1.006a.585.585 0 0 0 .303.083z" class="cls-4" transform="translate(-9652.613 1214.585)"/>
                <path id="패스_252881" d="M9690.353-1221.207a.6.6 0 0 0 .522-.307.6.6 0 0 0-.234-.81l-5.092-2.815a.6.6 0 0 0-.811.233.6.6 0 0 0 .234.81l5.092 2.815a.592.592 0 0 0 .289.074z" class="cls-4" transform="translate(-9668.149 1231.417)"/>
            </g>
            <g id="그룹_4698" transform="translate(26.475 61.881)">
                <path id="패스_252882" d="M9739.613-1217.468c-7.523-3.788-21.5-8.938-30.223-12.3l-5.584 18.43c7.473 4.022 20.682 9.125 28.723 12.3 17.076 6.737 20.58 1.737 22.174-4.235 3.365-12.613 5.4-26.025 8.143-38.789l-22.52-3.576q-2.933 18.747-4.986 37.617" class="cls-15" transform="translate(-9703.807 1245.639)"/>
                <path id="패스_252883" d="M9767.148-1132.778a.6.6 0 0 0 .587-.5.6.6 0 0 0-.49-.685 39.587 39.587 0 0 1-8.766-2.59c-2.594-1.023-7.771-3.076-11.158-4.434a.6.6 0 0 0-.775.331.6.6 0 0 0 .33.775c3.391 1.359 8.57 3.413 11.165 4.437a40.689 40.689 0 0 0 9.01 2.658.6.6 0 0 0 .097.008z" class="cls-4" transform="translate(-9729.537 1182.598)"/>
            </g>
            <path id="패스_252884" d="M9766.8-1219.215a.6.6 0 0 0 .3-.081.593.593 0 0 0 .292-.443c1.087-8.883 2.341-17.87 3.724-26.713a.6.6 0 0 0-.5-.681.6.6 0 0 0-.682.5c-1.344 8.6-2.565 17.33-3.633 25.971l-11.558-4.819a.6.6 0 0 0-.78.321.6.6 0 0 0 .321.78l12.284 5.122a.59.59 0 0 0 .232.043z" class="cls-4" transform="translate(-9707.53 1308.424)"/>
            <path id="패스_252885" d="M9788.363-1174.589a.6.6 0 0 0 .348-.112.6.6 0 0 0 .136-.832l-2.935-4.085a.6.6 0 0 0-.831-.136.6.6 0 0 0-.137.832l2.935 4.085a.594.594 0 0 0 .484.248z" class="cls-4" transform="translate(-9726.16 1267.884)"/>
            <path id="패스_252886" d="M9831.869-1188.681a.6.6 0 0 0 .576-.447c1.992-7.707 3.54-15.791 5.038-23.608q.647-3.387 1.3-6.754a.6.6 0 0 0-.47-.7.6.6 0 0 0-.7.47q-.664 3.367-1.307 6.76c-1.493 7.8-3.038 15.864-5.021 23.534a.6.6 0 0 0 .429.726.584.584 0 0 0 .155.019z" class="cls-4" transform="translate(-9754.146 1292.191)"/>
            <g id="그룹_1328" transform="translate(-27.166 -15.178)">
                <path id="패스_2611" fill="#434dfe" d="M157.332 113h-24.888a11.9 11.9 0 1 0 0 23.777h7.466l8.155 3.9a1.292 1.292 0 0 0 .556.125 1.218 1.218 0 0 0 1.244-1.189v-2.832h7.466a11.9 11.9 0 1 0 0-23.777z" transform="translate(-114.829 -115.979)"/>
                <circle id="타원_509913" cx="2.5" cy="2.5" r="2.5" class="cls-19" transform="translate(27.524 6.538)"/>
                <circle id="타원_509914" cx="2.5" cy="2.5" r="2.5" class="cls-19" transform="translate(16.524 6.538)"/>
                <circle id="타원_509915" cx="2.5" cy="2.5" r="2.5" class="cls-19" transform="translate(38.524 6.538)"/>
            </g>
            <g id="그룹_1328-2" transform="translate(-40.237 20.481)">
                <path id="패스_2611-2" d="M129.981 113h19.963a9.937 9.937 0 1 1 0 19.874h-5.989l-6.541 3.256a1 1 0 0 1-1.444-.889v-2.367h-5.989a9.937 9.937 0 1 1 0-19.874z" class="cls-11" transform="translate(-117.368 -115.713)"/>
                <circle id="타원_509913-2" cx="2" cy="2" r="2" class="cls-12" transform="translate(20.595 4.879)"/>
                <circle id="타원_509916" cx="2" cy="2" r="2" class="cls-12" transform="translate(28.595 4.879)"/>
                <circle id="타원_509915-2" cx="2" cy="2" r="2" class="cls-12" transform="translate(12.595 4.879)"/>
            </g>
        </g>
        <path id="패스_252887" fill="#5c8eff" d="M9608.572-986.781v-6.208c0-3.452-2.762-6.25-2.314-6.25H9346.7c-7.262 0-10.023 2.8-10.023 6.25v6.208" transform="translate(8.451 -242.333)"/>
        <g id="그룹_4701" transform="translate(-5.298 -5.912)">
            <path id="패스_252888" d="M9978.376-1177.491l-3.656 19.782c-.04.218-.1.431-.149.642-.062.246-.139.487-.22.725-.006.015-.009.031-.016.047-.079.225-.168.445-.263.661-.011.026-.021.054-.034.08q-.138.308-.3.6c-.02.036-.037.072-.058.108-.1.186-.214.367-.328.545l-.086.129c-.111.167-.23.33-.354.49-.038.049-.075.1-.116.146-.118.149-.243.294-.369.436l-.148.158q-.187.2-.386.383l-.184.167c-.13.113-.258.225-.394.332-.073.059-.148.114-.224.171-.13.1-.26.192-.394.282-.088.058-.176.113-.265.168-.129.081-.258.16-.393.235-.1.056-.2.108-.307.161-.127.065-.255.131-.386.19-.114.052-.231.1-.35.146s-.249.1-.376.148-.264.085-.4.126-.236.077-.358.109c-.147.04-.3.069-.453.1-.109.023-.217.051-.327.07-.179.031-.362.052-.544.073-.087.01-.172.026-.26.033-.272.024-.547.037-.824.037h-15.706a3.619 3.619 0 0 1-3.265-2.051 3.63 3.63 0 0 1-.209-.534c-.031-.1-.057-.209-.078-.315a3.725 3.725 0 0 1-.076-.565 3.588 3.588 0 0 1 .06-.824l-11.9 64.329h49.905z" class="cls-21" transform="translate(-360.137 -133.562)"/>
            <path id="패스_252889" d="M10004.564-1240.422c-.167.021-.335.045-.5.072.165-.027.336-.05.5-.072z" class="cls-21" transform="translate(-400.692 -96.984)"/>
            <path id="패스_252890" d="M10001.364-1239.862c-.181.043-.361.09-.539.141.175-.051.359-.099.539-.141z" class="cls-21" transform="translate(-398.811 -97.31)"/>
            <path id="패스_252891" d="M9999.542-1239.238c-.086.028-.173.054-.258.083.086-.029.172-.055.258-.083z" class="cls-21" transform="translate(-397.915 -97.673)"/>
            <path id="패스_252892" d="M10002.6-1240.056c-.105.021-.21.039-.313.063.107-.024.213-.042.313-.063z" class="cls-21" transform="translate(-399.662 -97.197)"/>
            <path id="패스_252893" d="M10048.855-1240.632c-.109.005-.216.012-.321.021l-.1.008a5.691 5.691 0 0 0-.627.093c-.1.02-.19.042-.284.067l-.053.014c-.12.035-.234.074-.348.119l-.015.007a3.119 3.119 0 0 0-.31.143l-.041.022a3.455 3.455 0 0 0-.6.412l-.023.021a4.017 4.017 0 0 0-.545.581 10.308 10.308 0 0 0-1.431 2.941c-.479 1.386-.956 3.168-1.523 5.444l-3.056 16.539 5.813 87.524h21.945l-4.946-38.417a16.6 16.6 0 0 1 .095-5.115l-8.9-70.438h-4.367c-.126.006-.246.01-.363.014z" class="cls-22" transform="translate(-421.332 -96.857)"/>
            <path id="패스_252894" d="M10111.748-1169.964l-8.7-47.02 8.7 47.02z" class="cls-21" transform="translate(-458.227 -110.607)"/>
            <path id="패스_252895" d="M10085.007-1176.238a78.18 78.18 0 0 1 9.008-7.359.715.715 0 0 1 .285-.118l-8.7-47.019a12.183 12.183 0 0 0-1.242-3.516 12.327 12.327 0 0 0-.739-1.193c-.057-.08-.112-.159-.17-.237a12.158 12.158 0 0 0-9.8-4.961h-.619l8.894 70.438a11.187 11.187 0 0 1 3.083-6.035z" class="cls-21" transform="translate(-440.78 -96.857)"/>
            <path id="패스_252896" d="M10097.325-1084.166l4.971 38.607h16.591l-10.27-55.528a76.849 76.849 0 0 0-8.541 7c-3.126 3.104-3.065 7.548-2.751 9.921z" class="cls-21" transform="translate(-454.816 -177.969)"/>
            <path id="패스_252897" d="M9989.368-1233.583c-.112.1-.219.2-.326.295.107-.1.214-.2.326-.295z" class="cls-6" transform="translate(-391.962 -100.959)"/>
            <path id="패스_252898" d="M9988.165-1232.85c-.209.193-.414.391-.609.6.196-.21.401-.407.609-.6z" class="cls-6" transform="translate(-391.098 -101.385)"/>
            <path id="패스_252899" d="M9990.947-1236.333c-.048.029-.1.054-.145.083-.144.092-.288.188-.43.286-.221.153-.435.316-.645.483-.121.1-.243.2-.358.3s-.219.195-.325.294a12.191 12.191 0 0 1 1.903-1.446z" class="cls-6" transform="translate(-391.964 -99.361)"/>
            <path id="패스_252900" d="M9997.488-1238.739c-.038.016-.071.035-.108.051.232-.1.47-.2.711-.281-.203.069-.404.147-.603.23z" class="cls-6" transform="translate(-396.809 -97.829)"/>
            <path id="패스_252901" d="M9994.539-1237.352q.316-.18.647-.341c-.22.107-.436.221-.647.341z" class="cls-6" transform="translate(-395.157 -98.571)"/>
            <path id="패스_252902" d="M9965.331-1187.131h19.382a11.582 11.582 0 0 0 6.676-2.113c.055-.211.108-.424.149-.642l3.657-19.781-1.461-21.983H9972.9a12 12 0 0 1 1.125-1.2c-.208.193-.413.391-.607.6a12.21 12.21 0 0 0-1.56 2.073q-.268.449-.5.924c-.077.158-.15.318-.221.48-.115.267-.219.54-.314.817a12.188 12.188 0 0 0-.47 1.751l-4.648 25.138-2.48 13.406a4.443 4.443 0 0 0 2.106.53zm16.114-35.093c.183-1.364 1.119-2.47 2.091-2.47s1.609 1.1 1.43 2.461v.018c-.187 1.36-1.12 2.461-2.091 2.461s-1.612-1.106-1.43-2.47zm-5.372 6.349h10.641a2.447 2.447 0 0 1 2.447 2.446 2.447 2.447 0 0 1-2.447 2.446h-10.641a2.445 2.445 0 0 1-2.445-2.446 2.445 2.445 0 0 1 2.445-2.446zm-4.759 22.905l2.347-11.816a1.6 1.6 0 0 1 1.568-1.287h9.3a1.6 1.6 0 0 1 1.568 1.91l-.654 3.295v7.175a2.238 2.238 0 0 1-2.175 2.234 1.513 1.513 0 0 1-1.085.4h-9.3a1.593 1.593 0 0 1-1.238-.585 1.6 1.6 0 0 1-.331-1.325z" class="cls-6" transform="translate(-376.956 -101.386)"/>
            <path id="패스_252903" d="M9962.92-1143.551l2.479-13.406-2.7 14.594.22-1.188z" class="cls-6" transform="translate(-376.652 -145.496)"/>
            <path id="패스_252904" d="M9998.247-1238.974c-.205.073-.408.149-.608.232.2-.082.4-.158.6-.23z" class="cls-6" transform="translate(-396.959 -97.826)"/>
            <path id="패스_252905" d="M10042.121-1229.984h-6.039l1.46 21.983 3.059-16.539c.566-2.276 1.043-4.06 1.52-5.444z" class="cls-6" transform="translate(-419.303 -103.051)"/>
            <path id="패스_252906" d="M9966.692-1114.709a3.62 3.62 0 0 1-3.265-2.05 3.62 3.62 0 0 0 3.265 2.051h15.708c.279 0 .553-.013.824-.037-.271.024-.545.036-.824.036z" class="cls-22" transform="translate(-377.075 -168.861)"/>
            <path id="패스_252907" d="M9962.632-1124.561c.021.107.048.212.078.315a3.856 3.856 0 0 0 .209.534 3.623 3.623 0 0 0 3.265 2.05h15.706q.416 0 .825-.036c.088-.008.174-.023.261-.033.182-.021.363-.042.543-.073.11-.019.219-.047.328-.07.15-.032.3-.062.453-.1.12-.032.239-.072.357-.108s.266-.079.4-.126.25-.1.373-.148.235-.094.352-.146.257-.125.385-.19c.1-.053.206-.1.308-.16.133-.075.261-.155.392-.235.089-.056.177-.11.264-.168.135-.09.266-.185.394-.282.077-.056.152-.112.225-.171.134-.107.266-.218.393-.332.062-.055.124-.11.185-.167.133-.123.259-.252.385-.383.05-.052.1-.105.147-.159q.193-.212.373-.436l.114-.147c.124-.159.24-.322.354-.489l.084-.129q.174-.267.331-.545l.056-.108c.106-.2.208-.4.3-.6l.034-.08c.1-.217.184-.436.262-.661l.019-.046c.081-.238.154-.479.217-.725a11.578 11.578 0 0 1-6.675 2.113h-19.381a4.439 4.439 0 0 1-2.107-.531l-.22 1.189a3.758 3.758 0 0 0-.059.824 3.606 3.606 0 0 0 .07.559z" class="cls-22" transform="translate(-376.567 -161.908)"/>
            <path id="패스_252908" d="M9972.921-1124.944l-.22 1.188.22-1.189z" class="cls-22" transform="translate(-382.465 -164.103)"/>
            <path id="패스_252909" d="M10059.861-1240.55l-.088.007-.056.005q-.2.023-.384.058l-.067.014-.032.008a5.686 5.686 0 0 1 .627-.092z" class="cls-8" transform="translate(-432.759 -96.91)"/>
            <path id="패스_252911" d="M10061.3-1240.619h-.051l-.108.006c-.055 0-.107.009-.162.013.103-.007.209-.014.321-.019z" class="cls-8" transform="translate(-433.772 -96.87)"/>
            <path id="패스_252912" d="M10003.955-1240.25l-.077.012.077-.012z" class="cls-23" transform="translate(-400.586 -97.084)"/>
            <path id="패스_252913" d="M10002.189-1239.906l-.072.018z" class="cls-23" transform="translate(-399.562 -97.284)"/>
            <path id="패스_252914" d="M9999.209-1239.039l-.051.018.053-.018z" class="cls-23" transform="translate(-397.842 -97.788)"/>
            <path id="패스_252915" d="M10000.763-1239.526l-.041.012.043-.012z" class="cls-23" transform="translate(-398.75 -97.506)"/>
            <path id="패스_252916" d="M10058.821-1240.325c-.09.019-.18.041-.266.065.094-.026.188-.047.284-.068z" class="cls-23" transform="translate(-432.365 -97.039)"/>
            <path id="패스_252917" d="M10051.938-1237.007a10.215 10.215 0 0 0-1.432 2.941 10.233 10.233 0 0 1 1.432-2.941z" class="cls-23" transform="translate(-427.688 -98.969)"/>
            <path id="패스_252918" d="M10060.835-1240.57h-.104z" class="cls-23" transform="translate(-433.629 -96.899)"/>
            <path id="패스_252919" d="M9987.447-1237.378a11.935 11.935 0 0 0-1.126 1.2h20.839l-.3-4.463h-11.133c-.214 0-.424.007-.636.018-.064 0-.127.009-.189.013-.152.01-.3.023-.456.039l-.194.022c-.168.021-.336.044-.5.072l-.078.012-.039.006c-.1.018-.208.042-.312.063s-.211.039-.313.063l-.075.018c-.181.043-.36.09-.54.141l-.043.013-.084.025c-.087.026-.172.055-.258.083s-.173.054-.26.083l-.053.018-.027.009c-.241.086-.479.181-.713.281-.184.078-.362.166-.542.254q-.327.161-.646.341c-.133.075-.267.149-.4.229a12.078 12.078 0 0 0-1.9 1.445.064.064 0 0 0-.022.015z" class="cls-23" transform="translate(-390.381 -96.857)"/>
            <path id="패스_252920" d="M10006.184-1240.567q-.229.015-.454.039.225-.024.454-.039z" class="cls-23" transform="translate(-401.663 -96.9)"/>
            <path id="패스_252921" d="M9999.086-1238.974h-.006z" class="cls-23" transform="translate(-397.797 -97.826)"/>
            <path id="패스_252922" d="M10000.16-1239.436c-.088.026-.172.055-.258.083.086-.028.17-.057.258-.083z" class="cls-23" transform="translate(-398.274 -97.557)"/>
            <path id="패스_252923" d="M10007.9-1240.641c-.215 0-.425.007-.637.018.212-.011.422-.018.637-.018z" class="cls-23" transform="translate(-402.555 -96.857)"/>
            <path id="패스_252924" d="M10003.352-1240.207c-.1.019-.21.042-.312.063.1-.021.208-.045.313-.063z" class="cls-23" transform="translate(-400.098 -97.109)"/>
            <path id="패스_252925" d="M9993.592-1236.65c.13-.08.264-.154.4-.229-.137.079-.27.149-.4.229z" class="cls-23" transform="translate(-394.607 -99.044)"/>
            <path id="패스_252926" d="M9996.084-1238.044c.18-.088.359-.175.543-.254-.184.079-.363.166-.543.254z" class="cls-23" transform="translate(-396.055 -98.219)"/>
            <path id="패스_252927" d="M9989.012-1232.867l.014-.012z" class="cls-23" transform="translate(-391.945 -101.369)"/>
            <path id="패스_252928" d="M9989.025-1232.881l-.014.012z" class="cls-23" transform="translate(-391.944 -101.367)"/>
            <path id="패스_252929" d="M10005.459-1240.474l-.2.022.2-.022z" class="cls-23" transform="translate(-401.39 -96.954)"/>
            <path id="패스_252930" d="M10003.821-1240.222l-.036.006z" class="cls-23" transform="translate(-400.531 -97.101)"/>
            <path id="패스_252931" d="M9999.12-1239l-.026.009z" class="cls-23" transform="translate(-397.804 -97.813)"/>
            <path id="패스_252932" d="M10000.6-1239.5l-.086.025z" class="cls-23" transform="translate(-398.63 -97.523)"/>
            <path id="패스_252933" d="M10041.71-1236.178a10.262 10.262 0 0 1 1.433-2.941 4.076 4.076 0 0 1 .546-.581l.023-.021a3.313 3.313 0 0 1 .6-.412l.042-.022a3.019 3.019 0 0 1 .31-.143l.015-.007c.112-.045.228-.084.347-.119l.053-.014c.087-.024.175-.046.266-.065l.025-.134h-10l.3 4.463z" class="cls-23" transform="translate(-418.891 -96.857)"/>
            <path id="패스_252934" d="M10061.063-1240.6c-.072 0-.144.009-.214.015h.053c.055-.007.108-.015.161-.015z" class="cls-23" transform="translate(-433.699 -96.881)"/>
            <path id="패스_252937" d="M10062.1-1240.64h-.008c-.121 0-.238 0-.354.009.121-.005.241-.009.362-.009z" class="cls-23" transform="translate(-434.216 -96.858)"/>
            <path id="패스_252938" d="M10059.241-1240.347l-.052.01h.02z" class="cls-23" transform="translate(-432.733 -97.028)"/>
            <path id="패스_252939" d="M10060.637-1240.559l-.114.011.088-.007z" class="cls-23" transform="translate(-433.508 -96.905)"/>
            <path id="패스_252940" d="M10059.188-1240.507l.051-.01.068-.014c.123-.024.251-.043.382-.059l.056-.005.115-.011h.021c.071-.006.144-.011.216-.015l.108-.006h.05c.114-.005.232-.008.352-.009h-1.4l-.025.134z" class="cls-23" transform="translate(-432.73 -96.857)"/>
            <path id="패스_252941" d="M10061.74-1240.631c.115 0 .232-.008.354-.009-.121.001-.239.004-.354.009z" class="cls-23" transform="translate(-434.216 -96.858)"/>
            <path id="패스_252942" fill="#00c5ff" d="M9990.512-1187.421h10.641a2.447 2.447 0 0 0 2.447-2.446 2.447 2.447 0 0 0-2.447-2.447h-10.641a2.445 2.445 0 0 0-2.445 2.447 2.445 2.445 0 0 0 2.445 2.446z" transform="translate(-391.395 -124.946)"/>
            <path id="패스_252943" d="M10124.369-1103.4a.734.734 0 0 0 .185-1.021.733.733 0 0 0-.736-.3l.28 1.515z" class="cls-4" transform="translate(-470.297 -175.85)"/>
            <path id="패스_252944" d="M10103.928-1072.441a16.687 16.687 0 0 0-.095 5.115l4.945 38.417h.647z" class="cls-4" transform="translate(-458.593 -194.62)"/>
            <path id="패스_252945" d="M10124.1-1103.19l-.28-1.515z" class="cls-4" transform="translate(-470.297 -175.867)"/>
            <path id="패스_252946" d="M10106.359-1104.587a78.5 78.5 0 0 0-9.008 7.359 11.178 11.178 0 0 0-3.08 6.035l5.5 43.531h.834l-4.972-38.607c-.313-2.373-.374-6.817 2.752-9.917a77.039 77.039 0 0 1 8.539-7l-.279-1.515a.724.724 0 0 0-.286.114z" class="cls-4" transform="translate(-453.124 -175.867)"/>
            <path id="패스_252947" d="M10008.12-1208.434c.968 0 1.9-1.1 2.09-2.461-.15 1.089-.9 1.97-1.675 1.97s-1.29-.886-1.144-1.979.9-1.979 1.676-1.979 1.287.881 1.145 1.97c.179-1.36-.459-2.461-1.43-2.461s-1.908 1.106-2.092 2.47.456 2.47 1.43 2.47z" class="cls-23" transform="translate(-402.201 -112.705)"/>
            <path id="패스_252948" d="M10015.137-1207.479v-.009.009z" class="cls-6" transform="translate(-407.13 -116.121)"/>
            <path id="패스_252949" d="M10010.048-1212.2c-.777 0-1.527.886-1.675 1.979s.364 1.979 1.145 1.979 1.523-.881 1.672-1.97v-.018c.146-1.091-.364-1.97-1.142-1.97z" class="cls-6" transform="translate(-403.184 -113.387)"/>
            <path id="패스_252950" d="M9988.335-1155.614a2.241 2.241 0 0 1-.2-.912v-9.746a2.233 2.233 0 0 1 2.019-2.218v-.011h.113c.037 0 .072-.011.11-.011s.073.009.112.011h2.048l1.851-.011a2.24 2.24 0 0 1 2.241 2.24v2.571l.654-3.295a1.6 1.6 0 0 0-1.568-1.91h-9.3a1.6 1.6 0 0 0-1.565 1.287l-2.35 11.816a1.584 1.584 0 0 0 .334 1.326z" class="cls-25" transform="translate(-388.14 -138.551)"/>
            <path id="패스_252951" d="M9984.569-1133.868a1.6 1.6 0 0 1-1.237-.585 1.6 1.6 0 0 0 1.237.585z" class="cls-25" transform="translate(-388.643 -158.576)"/>
            <path id="패스_252952" d="M10008.506-1133.611a1.513 1.513 0 0 0 1.085-.4h-.039a1.591 1.591 0 0 1-1.046.4z" class="cls-6" transform="translate(-403.276 -158.833)"/>
            <path id="패스_252953" d="M9994.892-1135.838h-4.233v-.023a2.23 2.23 0 0 1-1.819-1.306l-5.507 1.136a1.6 1.6 0 0 0 1.237.585h9.3a1.591 1.591 0 0 0 1.046-.4c-.006.005-.016.008-.024.008z" class="cls-6" transform="translate(-388.643 -157)"/>
            <path id="패스_252954" d="M10011.581-1147.976v.019a1.623 1.623 0 0 1-.127.365v.009a1.5 1.5 0 0 1-.08.157 1.48 1.48 0 0 1-.271.357 2.239 2.239 0 0 0 2.176-2.234v-7.175l-1.323 6.648a16.764 16.764 0 0 1-.375 1.854z" class="cls-6" transform="translate(-404.78 -145.775)"/>
            <path id="패스_252955" d="M10005.522-1167.968c-.038 0-1.813.009-1.852.011h-2.048a2.235 2.235 0 0 1 2.13 2.229v9.746a.144.144 0 0 1 0 .029l2.693-.556 1.321-6.648v-2.571a2.24 2.24 0 0 0-2.244-2.24z" class="cls-6" transform="translate(-399.275 -139.097)"/>
            <path id="패스_252956" d="M10000.825-1167.941v.011c.036 0 .073-.01.112-.011z" class="cls-6" transform="translate(-398.811 -139.112)"/>
            <path id="패스_252957" d="M10012.07-1136.157v-.019a3.425 3.425 0 0 1-.13.384 1.577 1.577 0 0 0 .13-.365z" class="cls-6" transform="translate(-405.274 -157.575)"/>
            <path id="패스_252958" d="M10012.622-1140.6l-.368 1.854a16.753 16.753 0 0 0 .368-1.854z" class="cls-6" transform="translate(-405.453 -155.002)"/>
            <path id="패스_252959" d="M10011-1134.5h.04a1.476 1.476 0 0 0 .271-.357 1.566 1.566 0 0 1-.311.357z" class="cls-6" transform="translate(-404.725 -158.337)"/>
            <path id="패스_252960" d="M10000.825-1134.025h.224a2.229 2.229 0 0 1-.224-.023z" class="cls-6" transform="translate(-398.811 -158.812)"/>
            <path id="패스_252961" d="M10001.358-1137.835h4.039a1.617 1.617 0 0 0 .31-.361 1.464 1.464 0 0 0 .083-.165 3.055 3.055 0 0 0 .132-.384l.367-1.854-2.692.556a2.24 2.24 0 0 1-2.239 2.208z" class="cls-6" transform="translate(-399.12 -155.002)"/>
            <path id="패스_252962" d="M10011.824-1135.25v-.009c-.028.056-.052.113-.084.166.031-.051.06-.101.084-.157z" class="cls-6" transform="translate(-405.157 -158.108)"/>
            <path id="패스_252963" d="M9996.447-1156.377v-8.892a1.965 1.965 0 0 1 1.577-2.018v-.626a2.232 2.232 0 0 0-2.017 2.218v9.746a2.211 2.211 0 0 0 .2.913l.6-.125a2.216 2.216 0 0 1-.36-1.216z" class="cls-25" transform="translate(-396.011 -139.128)"/>
            <path id="패스_252964" d="M10001.2-1167.968c-.037 0-.073.009-.11.011h.223c-.035-.001-.07-.011-.113-.011z" class="cls-25" transform="translate(-398.967 -139.097)"/>
            <path id="패스_252965" d="M9998.3-1136.033v-.627a1.759 1.759 0 0 1-1.217-.8l-.6.124a2.23 2.23 0 0 0 1.817 1.303z" class="cls-25" transform="translate(-396.286 -156.827)"/>
            <path id="패스_252966" d="M10001.049-1167.329a1.934 1.934 0 0 1 1.8 2.044v8.892a2.306 2.306 0 0 1-.078.563l.515-.106a.289.289 0 0 0 0-.029v-9.746a2.236 2.236 0 0 0-2.129-2.229h-.223c-.039 0-.076.008-.112.011v.627a1.538 1.538 0 0 1 .227-.027z" class="cls-25" transform="translate(-398.811 -139.112)"/>
            <path id="패스_252967" d="M10001.049-1137.688a1.555 1.555 0 0 1-.224-.026v.627a2.194 2.194 0 0 0 .224.023 2.239 2.239 0 0 0 2.236-2.212l-.515.106a1.846 1.846 0 0 1-1.721 1.482z" class="cls-25" transform="translate(-398.811 -155.773)"/>
            <path id="패스_252968" d="M9997.741-1155.078a1.117 1.117 0 0 1 .893-1.1v-.707a1.606 1.606 0 0 1-1.386-1.588 1.606 1.606 0 0 1 1.386-1.588v-3.334a1.272 1.272 0 0 1-1.049-1.252 1.271 1.271 0 0 1 1.049-1.251v-.526a1.965 1.965 0 0 0-1.575 2.019v8.892a2.208 2.208 0 0 0 .359 1.215l.553-.114a1.1 1.1 0 0 1-.23-.666z" class="cls-6" transform="translate(-396.621 -139.998)"/>
            <path id="패스_252969" d="M9998.471-1137.735l-.552.114a1.759 1.759 0 0 0 1.217.8v-.493a1.113 1.113 0 0 1-.665-.421z" class="cls-6" transform="translate(-397.122 -156.669)"/>
            <path id="패스_252970" d="M10001.049-1165.95a1.273 1.273 0 0 1 1.272 1.274 1.273 1.273 0 0 1-1.272 1.274 1.286 1.286 0 0 1-.224-.022v3.334a1.542 1.542 0 0 1 .224-.023 1.611 1.611 0 0 1 1.61 1.61 1.611 1.611 0 0 1-1.61 1.61 1.614 1.614 0 0 1-.224-.022v.706a1.121 1.121 0 0 1 .224-.023 1.118 1.118 0 0 1 1.117 1.118 1.179 1.179 0 0 1-.035.265l.64-.132a2.3 2.3 0 0 0 .078-.562v-8.892a1.934 1.934 0 0 0-1.8-2.044 1.555 1.555 0 0 0-.224.026v.526a1.251 1.251 0 0 1 .224-.023z" class="cls-6" transform="translate(-398.811 -139.962)"/>
            <path id="패스_252971" d="M10002.771-1139.022l-.64.132a1.115 1.115 0 0 1-1.082.853 1.077 1.077 0 0 1-.224-.023v.493a1.555 1.555 0 0 0 .224.026 1.846 1.846 0 0 0 1.722-1.481z" class="cls-6" transform="translate(-398.811 -155.921)"/>
            <path id="패스_252972" d="M9998.314-1163.91a1.273 1.273 0 0 0 1.052 1.252v-2.5a1.272 1.272 0 0 0-1.052 1.248z" class="cls-25" transform="translate(-397.351 -140.728)"/>
            <path id="패스_252973" d="M10002.321-1163.941a1.273 1.273 0 0 0-1.272-1.274 1.263 1.263 0 0 0-.224.022v2.5a1.3 1.3 0 0 0 .224.022 1.273 1.273 0 0 0 1.272-1.27z" class="cls-25" transform="translate(-398.811 -140.697)"/>
            <path id="패스_252974" d="M9997.515-1149.634a1.605 1.605 0 0 0 1.386 1.588v-3.175a1.605 1.605 0 0 0-1.386 1.587z" class="cls-25" transform="translate(-396.887 -148.83)"/>
            <path id="패스_252975" d="M10002.659-1149.666a1.611 1.611 0 0 0-1.61-1.61 1.559 1.559 0 0 0-.224.023v3.175a1.632 1.632 0 0 0 .224.022 1.611 1.611 0 0 0 1.61-1.61z" class="cls-25" transform="translate(-398.811 -148.799)"/>
            <path id="패스_252976" d="M9999.584-1141.953a1.118 1.118 0 0 0-.9 1.1 1.1 1.1 0 0 0 .229.671l.666-.137z" class="cls-25" transform="translate(-397.569 -154.217)"/>
            <path id="패스_252977" d="M9999.237-1137.925a1.106 1.106 0 0 0 .663.424v-.561z" class="cls-25" transform="translate(-397.888 -156.478)"/>
            <path id="패스_252978" d="M10001.049-1142.007a1.121 1.121 0 0 0-.224.023v1.629l1.306-.269a1.181 1.181 0 0 0 .035-.265 1.118 1.118 0 0 0-1.117-1.118z" class="cls-25" transform="translate(-398.811 -154.186)"/>
            <path id="패스_252979" d="M10000.825-1137.875a1.086 1.086 0 0 0 .224.023 1.115 1.115 0 0 0 1.082-.853l-1.306.269z" class="cls-25" transform="translate(-398.811 -156.104)"/>
        </g>
    </g>
</svg>
