<svg xmlns="http://www.w3.org/2000/svg" width="336.068" height="213.658" viewBox="0 0 336.068 213.658">
    <defs>
        <clipPath id="clip-path">
            <path id="SVGID" d="M-846.1 2248.587v7.7c0 2.238-1.627 4.052-5.013 4.052s-5.013-1.814-5.013-4.052v-7.7z" class="cls-1" transform="translate(856.131 -2248.587)"/>
        </clipPath>
        <clipPath id="clip-path-2">
            <path id="SVGID-2" d="M-738.133 2248.587v7.7c0 2.238-1.627 4.052-5.013 4.052s-5.013-1.814-5.013-4.052v-7.7z" class="cls-1" transform="translate(748.16 -2248.587)"/>
        </clipPath>
        <clipPath id="clip-path-3">
            <path id="SVGID-3" d="M-811.058 2248.587v7.7c0 2.238-1.628 4.052-5.013 4.052s-5.013-1.814-5.013-4.052v-7.7z" class="cls-1" transform="translate(821.085 -2248.587)"/>
        </clipPath>
        <clipPath id="clip-path-4">
            <path id="SVGID-4" d="M-703.087 2236.338v10.5c0 2.238-1.627 4.052-5.013 4.052s-5.013-1.814-5.013-4.052v-7.7z" class="cls-1" transform="translate(713.114 -2236.338)"/>
        </clipPath>
        <clipPath id="clip-path-5">
            <path id="SVGID-5" d="M-1273.294 2002.191l-3.433 2.154a2.376 2.376 0 0 1-2.095.213l-3.5-1.307a2.935 2.935 0 0 1-3.5.329c-1.664-.918-1.286-2.6-.54-3.676s2.06-1.992 6.328-.919l1.7-2.588" class="cls-1" transform="translate(1286.991 -1996.397)"/>
        </clipPath>
        <clipPath id="clip-path-6">
            <path id="SVGID-6" d="M-1316.476 2061.65v13.526c0 2.354 1.712 4.263 5.274 4.263s5.274-1.908 5.274-4.263v-13.526z" class="cls-1" transform="translate(1316.476 -2061.65)"/>
        </clipPath>
        <clipPath id="clip-path-7">
            <path id="SVGID-7" d="M-1445.308 2021.91s5.6 3.525 6.074 7.434c1.074 8.891 2.811 15.719 16.29 16.8-8.219 3.161-26.958 1.19-26.958-13.145z" class="cls-1" transform="translate(1449.903 -2021.91)"/>
        </clipPath>
        <clipPath id="clip-path-8">
            <path id="SVGID-8" d="M-1348.565 1920.992c-5.123-4.485-7-11.355-7-16.725l-9.981-.3v14.584c-3.775 18.884 6.421 24.161 17.6 24.161 1.843-1.832 5.456-8.318 5.456-8.318-.001-6.115-2.567-10.769-6.075-13.402z" class="cls-1" transform="translate(1366.348 -1903.969)"/>
        </clipPath>
        <clipPath id="clip-path-9">
            <path id="SVGID-9" d="M-1335.2 2061.65v13.526c0 2.354 1.712 4.263 5.274 4.263s5.274-1.908 5.274-4.263v-13.526z" class="cls-1" transform="translate(1335.195 -2061.65)"/>
        </clipPath>
        <clipPath id="clip-path-10">
            <path id="SVGID-10" d="M-1287.408 2002.191l-3.433 2.154a2.376 2.376 0 0 1-2.095.213l-3.5-1.307a2.935 2.935 0 0 1-3.5.329c-1.664-.918-1.286-2.6-.541-3.676s2.06-1.992 6.328-.919l1.7-2.588" class="cls-1" transform="translate(1301.104 -1996.397)"/>
        </clipPath>
        <clipPath id="clip-path-11">
            <path id="SVGID-11" d="M-1544.505 2216.232v6.128c0 1.781 1.294 3.224 3.989 3.224s3.989-1.443 3.989-3.224v-6.128z" class="cls-1" transform="translate(1544.505 -2216.232)"/>
        </clipPath>
        <clipPath id="clip-path-12">
            <path id="SVGID-12" d="M-1630.415 2216.232v6.128c0 1.781 1.295 3.224 3.989 3.224s3.989-1.443 3.989-3.224v-6.128z" class="cls-1" transform="translate(1630.415 -2216.232)"/>
        </clipPath>
        <clipPath id="clip-path-13">
            <path id="SVGID-13" d="M-1572.391 2209.889v7.579c0 1.781 1.295 3.224 3.989 3.224s3.989-1.443 3.989-3.224v-7.579z" class="cls-1" transform="translate(1572.391 -2209.889)"/>
        </clipPath>
        <clipPath id="clip-path-14">
            <path id="SVGID-14" d="M-1658.3 2208.986v7.785c0 1.781 1.295 3.224 3.989 3.224s3.989-1.443 3.989-3.224v-6.129z" class="cls-1" transform="translate(1658.3 -2208.986)"/>
        </clipPath>
        <clipPath id="clip-path-15">
            <path id="SVGID-15" d="M-1387.2 2451.252l1.874 7.844s10.045 11.466 5.529 17.4c-3.262 4.285-15.494 5.315-19.6-3.957-3.95-1.441-4.707-3.028-5.7-7.31l-3.775-7.172z" class="cls-1" transform="translate(1408.868 -2451.252)"/>
        </clipPath>
        <clipPath id="clip-path-16">
            <path id="SVGID-16" d="M-1172.835 2446.089l21.9 7.551-3.877 7.445c-.9 3.488-5.93 5.514-9.792 8.705-4.6 3.8-9.7 6.321-13.94 3.481-10.794-7.234 1.462-18.088 4.532-20.5a58.093 58.093 0 0 0 1.177-6.682z" class="cls-1" transform="translate(1182.91 -2446.089)"/>
        </clipPath>
        <clipPath id="clip-path-17">
            <path id="SVGID-17" d="M-1462.784 2681.294l-3.378 10.891c-.981 3.165.524 6.443 5.312 7.928s7.885-.367 8.866-3.531l3.378-10.892z" class="cls-1" transform="translate(1466.446 -2681.294)"/>
        </clipPath>
        <clipPath id="clip-path-18">
            <path id="SVGID-18" d="M-1596.573 2722.783l-3.378 10.891c-.981 3.165.524 6.443 5.312 7.928s7.884-.367 8.865-3.531l3.378-10.892z" class="cls-1" transform="translate(1600.235 -2722.783)"/>
        </clipPath>
        <clipPath id="clip-path-19">
            <path id="SVGID-19" d="M-1506.21 2694.761l-3.378 10.891c-.981 3.164.524 6.443 5.312 7.928s7.884-.367 8.866-3.531l3.377-10.892z" class="cls-1" transform="translate(1509.872 -2694.761)"/>
        </clipPath>
        <clipPath id="clip-path-20">
            <path id="SVGID-20" d="M-1640 2736.25l-3.378 10.892c-.981 3.164.524 6.443 5.312 7.928s7.885-.367 8.866-3.531l3.377-10.892z" class="cls-1" transform="translate(1643.662 -2736.25)"/>
        </clipPath>
        <style>
            .cls-1{fill:none}.cls-2{fill:#ec3490}.cls-3{fill:#fff}.cls-4{fill:#ffb83b}.cls-5{fill:#00c3ff}.cls-6{fill:#48298f}.cls-7{fill:#e1ecff}.cls-10{fill:#5442e5}.cls-13{fill:#181f41}.cls-14{fill:#5c8eff}.cls-15{fill:#2369e5}.cls-22{fill:#00a8ba}.cls-25{fill:#00e7ae}.cls-28{fill:#db1d4f}.cls-29{fill:#ff3e68}.cls-31{fill:#ff8891}.cls-33{fill:#d91d4f}.cls-34{fill:#fd3e68}.cls-41{fill:#161f43}
        </style>
    </defs>
    <g id="img" transform="translate(-133.245 -15.01)">
        <g id="그룹_4229" transform="translate(133.245 31.047)">
            <g id="그룹_4204">
                <path id="사각형_681" d="M0 0h80.15v55.444a13.527 13.527 0 0 1-13.527 13.527h-53.1A13.527 13.527 0 0 1 0 55.444V0z" class="cls-2" transform="translate(0 3.175)"/>
                <g id="그룹_4203">
                    <g id="그룹_4201">
                        <path id="패스_252085" d="M-951.85 2039.509a1.427 1.427 0 0 1 1.427-1.427h77.3a1.427 1.427 0 0 1 1.427 1.427v2.547h-80.15z" class="cls-3" transform="translate(951.85 -2038.082)"/>
                    </g>
                    <g id="그룹_4202" transform="translate(69.922 1.222)">
                        <ellipse id="타원_509506" cx=".953" cy=".948" class="cls-2" rx=".953" ry=".948" transform="translate(6.46)"/>
                        <ellipse id="타원_509507" cx=".953" cy=".948" class="cls-4" rx=".953" ry=".948" transform="translate(3.23)"/>
                        <ellipse id="타원_509508" cx=".953" cy=".948" class="cls-5" rx=".953" ry=".948"/>
                    </g>
                </g>
            </g>
            <g id="그룹_4208" transform="translate(3.909 7.665)">
                <g id="그룹_4205" transform="translate(0 57.268)">
                    <path id="패스_252086" d="M-930.6 2322.81h70.776a.343.343 0 0 0 .343-.343.343.343 0 0 0-.343-.343H-930.6a.343.343 0 0 0-.343.343.343.343 0 0 0 .343.343z" class="cls-3" transform="translate(930.942 -2322.124)"/>
                </g>
                <g id="그룹_4207" transform="translate(70.776)">
                    <g id="그룹_4206">
                        <path id="패스_252087" d="M-930.6 2129.565a.343.343 0 0 0 .343-.343v-57.268a.343.343 0 0 0-.343-.343.343.343 0 0 0-.343.343v57.268a.343.343 0 0 0 .343.343z" class="cls-3" transform="translate(930.942 -2071.612)"/>
                    </g>
                </g>
            </g>
            <g id="그룹_4226" transform="translate(3.432 17.106)">
                <g id="그룹_4214" transform="translate(0 8.421)">
                    <path id="패스_252088" d="M-678.541 2195.687s-4.663 10.2-14.259 10.877c-1.065.074-.652 1.232-.038 1.728 4.849 3.923 14.1 2.594 16.125-.955l.905-9.52" class="cls-6" transform="translate(693.456 -2185.184)"/>
                    <path id="패스_252089" d="M-674.9 2225.859l-.452 4.752c-2.025 3.549-11.276 4.878-16.125.955 4.56 1.479 12.746-2.125 16.577-5.707z" class="cls-7" transform="translate(692.091 -2208.459)"/>
                    <path id="패스_252090" d="M-846.1 2248.587v7.7c0 2.238-1.627 4.052-5.013 4.052s-5.013-1.814-5.013-4.052v-7.7z" class="cls-6" transform="translate(900.941 -2225.991)"/>
                    <g id="그룹_4210" transform="translate(44.81 22.595)">
                        <g id="그룹_4209" clip-path="url(#clip-path)">
                            <circle id="타원_509509" cx="2.631" cy="2.631" r="2.631" class="cls-7" transform="translate(6.305 8.076)"/>
                            <circle id="타원_509510" cx="2.631" cy="2.631" r="2.631" class="cls-7" transform="translate(2.062 8.076)"/>
                        </g>
                    </g>
                    <path id="패스_252091" d="M-738.133 2248.587v7.7c0 2.238-1.627 4.052-5.013 4.052s-5.013-1.814-5.013-4.052v-7.7z" class="cls-6" transform="translate(768.288 -2225.991)"/>
                    <g id="그룹_4212" transform="translate(20.128 22.595)">
                        <g id="그룹_4211" clip-path="url(#clip-path-2)">
                            <circle id="타원_509511" cx="2.631" cy="2.631" r="2.631" class="cls-7" transform="translate(6.305 8.076)"/>
                            <circle id="타원_509512" cx="2.631" cy="2.631" r="2.631" class="cls-7" transform="translate(2.062 8.076)"/>
                        </g>
                    </g>
                    <path id="패스_252092" d="M-834.771 2149.745c16.026 0 21.36 11.316 21.36 22.6-3.056 4.185-8.725 3.9-14.4 3.9h-1.366c-10.612.893-16.931-.295-20.6-3.9h-6.354c0-11.284 5.331-22.6 21.36-22.6z" class="cls-10" transform="translate(868.247 -2149.745)"/>
                    <g id="그룹_4213" transform="translate(22.142 19.928)">
                        <path id="패스_252093" d="M-856.131 2239.22c3.808 1.666 9.242 2.113 16.931 1.466h1.366c5.61 0 11.215.275 14.295-3.769.069.886.1 1.777.1 2.668-3.056 4.185-8.725 3.9-14.4 3.9h-1.361c-7.689.647-13.123.2-16.931-1.466z" class="cls-3" transform="translate(856.131 -2236.917)"/>
                    </g>
                </g>
                <ellipse id="타원_509513" cx=".796" cy="1.146" class="cls-3" rx=".796" ry="1.146" transform="rotate(-122.485 14.044 2.317)"/>
                <g id="그룹_4217" transform="translate(36.456 30.673)">
                    <path id="패스_252094" d="M-811.058 2248.587v7.7c0 2.238-1.628 4.052-5.013 4.052s-5.013-1.814-5.013-4.052v-7.7z" class="cls-10" transform="translate(821.428 -2248.244)"/>
                    <g id="그룹_4216" transform="translate(.343 .343)">
                        <g id="그룹_4215" clip-path="url(#clip-path-3)">
                            <circle id="타원_509514" cx="2.631" cy="2.631" r="2.631" class="cls-3" transform="translate(6.305 8.076)"/>
                            <circle id="타원_509515" cx="2.631" cy="2.631" r="2.631" class="cls-3" transform="translate(2.062 8.076)"/>
                        </g>
                    </g>
                    <path id="패스_252095" d="M-822.242 2251.678a.343.343 0 0 0 .343-.343v-3.905a.343.343 0 0 0-.343-.343.343.343 0 0 0-.343.343v3.905a.343.343 0 0 0 .343.343z" class="cls-6" transform="translate(832.612 -2247.087)"/>
                    <path id="패스_252096" d="M-778.382 2251.678a.343.343 0 0 0 .343-.343v-3.905a.343.343 0 0 0-.343-.343.343.343 0 0 0-.343.343v3.905a.343.343 0 0 0 .343.343z" class="cls-6" transform="translate(778.725 -2247.087)"/>
                </g>
                <g id="그룹_4220" transform="translate(12.116 27.873)">
                    <path id="패스_252097" d="M-703.087 2236.338v10.5c0 2.238-1.627 4.052-5.013 4.052s-5.013-1.814-5.013-4.052v-7.7z" class="cls-10" transform="translate(713.114 -2235.995)"/>
                    <g id="그룹_4219" transform="translate(0 .343)">
                        <g id="그룹_4218" clip-path="url(#clip-path-4)">
                            <circle id="타원_509516" cx="2.631" cy="2.631" r="2.631" class="cls-3" transform="translate(6.305 10.877)"/>
                            <circle id="타원_509517" cx="2.631" cy="2.631" r="2.631" class="cls-3" transform="translate(2.062 10.877)"/>
                        </g>
                    </g>
                    <path id="패스_252098" d="M-714.271 2240.766a.343.343 0 0 0 .343-.343v-5.243a.343.343 0 0 0-.343-.343.343.343 0 0 0-.343.343v5.243a.343.343 0 0 0 .343.343z" class="cls-6" transform="translate(724.298 -2234.838)"/>
                </g>
                <g id="그룹_4225" transform="translate(33.675)">
                    <g id="그룹_4223">
                        <path id="패스_252099" d="M-891.577 2134.643a2.171 2.171 0 0 0 .8 3.422 2.423 2.423 0 0 0 2.845-.657c.853-1.126 1.43-3.585.423-4.348s-3.214.457-4.068 1.583z" class="cls-7" transform="translate(916.353 -2128.27)"/>
                        <path id="패스_252100" d="M-855.732 2116.923a2.17 2.17 0 0 0 2.992 1.843 2.422 2.422 0 0 0 1.541-2.481c-.2-1.4-1.533-3.541-2.785-3.366s-1.945 2.605-1.748 4.004z" class="cls-7" transform="translate(872.259 -2112.91)"/>
                        <path id="패스_252101" d="M-809.253 2132.562a2.17 2.17 0 0 0 3.448-.68 2.423 2.423 0 0 0-.554-2.867c-1.095-.893-3.531-1.558-4.33-.578s.341 3.232 1.436 4.125z" class="cls-7" transform="translate(816.396 -2124.513)"/>
                        <path id="패스_252102" d="M-786.371 2170.521a2.171 2.171 0 0 0 2.777-2.155 2.422 2.422 0 0 0-1.782-2.314c-1.379-.307-3.855.191-4.129 1.426s1.755 2.735 3.134 3.043z" class="cls-7" transform="translate(789.53 -2153.835)"/>
                        <path id="패스_252103" d="M-899.99 2138.065a13.9 13.9 0 0 1 13.963-13.83 13.9 13.9 0 0 1 13.963 13.83 13.78 13.78 0 0 1-.262 2.677 8.779 8.779 0 0 1 .91 3.854 8.1 8.1 0 0 1-7.866 8c-.029 0-.06 0-.089.005l-.116.007a29.914 29.914 0 0 1-11-1.435l-.039-.013-.018-.006a13.847 13.847 0 0 1-9.446-13.089z" class="cls-10" transform="translate(902.604 -2121.646)"/>
                        <path id="패스_252104" d="M-827.119 2146.918a.342.342 0 0 0 .246-.1.344.344 0 0 0-.007-.486l-.626-.609a47.877 47.877 0 0 0-5.525-4.824.343.343 0 0 0-.479.074.343.343 0 0 0 .074.479 47.364 47.364 0 0 1 5.451 4.761l.628.611a.341.341 0 0 0 .238.094z" class="cls-6" transform="translate(842.781 -2134.447)"/>
                        <path id="패스_252105" d="M-855.77 2137.467h.028a.343.343 0 0 0 .314-.369 26.211 26.211 0 0 0-1.539-6.952.343.343 0 0 0-.44-.2.344.344 0 0 0-.2.441 25.528 25.528 0 0 1 1.5 6.77.343.343 0 0 0 .337.31z" class="cls-6" transform="translate(876.931 -2126.031)"/>
                        <path id="패스_252106" d="M-883.353 2154.417a.342.342 0 0 0 .289-.158 17.113 17.113 0 0 0 2.253-5.2.343.343 0 0 0-.252-.414.343.343 0 0 0-.414.252 16.442 16.442 0 0 1-2.164 5 .343.343 0 0 0 .1.474.341.341 0 0 0 .188.046z" class="cls-6" transform="translate(908.264 -2140.465)"/>
                        <path id="패스_252107" d="M-815.037 2179.523a.343.343 0 0 0 .317-.212.343.343 0 0 0-.186-.448 27.759 27.759 0 0 0-7.3-1.9.339.339 0 0 0-.381.3.342.342 0 0 0 .3.381 27.08 27.08 0 0 1 7.115 1.851.343.343 0 0 0 .135.028z" class="cls-6" transform="translate(828.186 -2162.32)"/>
                        <path id="패스_252108" d="M-817.486 2210.747a.372.372 0 0 0 .049 0 28.9 28.9 0 0 1 5.248-.354.343.343 0 0 0 .343-.341.343.343 0 0 0-.341-.345 29.376 29.376 0 0 0-5.349.361.343.343 0 0 0-.291.388.343.343 0 0 0 .341.291z" class="cls-6" transform="translate(824.25 -2187.575)"/>
                        <path id="패스_252109" d="M-892.218 2178.015a.344.344 0 0 0 .121-.021.343.343 0 0 0 .2-.442 10.24 10.24 0 0 0-4.965-5.3.343.343 0 0 0-.449.182.343.343 0 0 0 .182.45 9.481 9.481 0 0 1 4.59 4.914.343.343 0 0 0 .321.217z" class="cls-6" transform="translate(922.457 -2158.662)"/>
                        <path id="패스_252110" d="M-903.507 2206.125a2.195 2.195 0 0 0 .109 3.49 2.307 2.307 0 0 0 2.811.314c1.019-.782 2.03-2.912 1.224-3.962s-3.125-.624-4.144.158z" class="cls-3" transform="translate(931.249 -2184.212)"/>
                        <path id="패스_252111" d="M-901.487 2213.62a4.932 4.932 0 0 0 2.039-1.979 4.247 4.247 0 0 1-1.511 3.147 2.307 2.307 0 0 1-2.811-.313 2.868 2.868 0 0 1-.548-.627 4.58 4.58 0 0 0 2.831-.228z" class="cls-7" transform="translate(931.619 -2189.07)"/>
                        <g id="그룹_4221" transform="translate(24.696 10.13)">
                            <path id="패스_252112" d="M-903.076 2158.743a2.559 2.559 0 0 0-1.2 2.647 3.067 3.067 0 0 0 1.775 2.372c1.784.748 3.19-.472 4.209-1.8.723-.94 2.057-2.966 1.143-4.157-.962-1.253-4.339-.281-5.927.938z" class="cls-3" transform="translate(904.317 -2157.221)"/>
                            <path id="패스_252113" d="M-898.767 2162.9a9.134 9.134 0 0 0 1.623-1.915c.558 1.207-.636 3.013-1.306 3.884-1.018 1.324-2.425 2.544-4.209 1.8a2.972 2.972 0 0 1-1.652-1.875 6.055 6.055 0 0 0 5.544-1.894z" class="cls-7" transform="translate(904.48 -2160.125)"/>
                        </g>
                        <circle id="타원_509518" cx=".795" cy=".795" r=".795" class="cls-13" transform="translate(22.876 21.13)"/>
                        <path id="패스_252114" d="M-890.6 2230.508a2.99 2.99 0 0 0 1.761-.612.343.343 0 0 0 .073-.479.342.342 0 0 0-.479-.073 1.9 1.9 0 0 1-2.613-.068.343.343 0 0 0-.485-.019.342.342 0 0 0-.019.484 2.366 2.366 0 0 0 1.762.767z" class="cls-13" transform="translate(918.163 -2202.589)"/>
                        <g id="그룹_4222" transform="translate(18.786 10.13)">
                            <path id="패스_252115" d="M-877.221 2158.743a2.559 2.559 0 0 0-1.2 2.647 3.068 3.068 0 0 0 1.775 2.372c1.784.748 3.19-.472 4.209-1.8.722-.94 2.057-2.966 1.143-4.157-.961-1.253-4.338-.281-5.927.938z" class="cls-3" transform="translate(878.461 -2157.221)"/>
                            <path id="패스_252116" d="M-872.912 2162.9a9.149 9.149 0 0 0 1.623-1.915c.558 1.207-.637 3.013-1.307 3.884-1.018 1.324-2.425 2.544-4.209 1.8a2.971 2.971 0 0 1-1.652-1.875 6.055 6.055 0 0 0 5.545-1.894z" class="cls-7" transform="translate(878.624 -2160.125)"/>
                        </g>
                    </g>
                    <g id="그룹_4224" transform="translate(2.271 8.505)">
                        <path id="패스_252117" d="M-836.823 2172.953a.343.343 0 0 0 .343-.333.343.343 0 0 0-.332-.353 29.329 29.329 0 0 1-8.409-1.464 13.513 13.513 0 0 1-9.238-12.774 13.336 13.336 0 0 1 2.219-7.381.343.343 0 0 0-.1-.475.343.343 0 0 0-.475.1 14.022 14.022 0 0 0-2.333 7.76 14.2 14.2 0 0 0 9.7 13.422 29.619 29.619 0 0 0 8.611 1.5z" class="cls-6" transform="translate(855.145 -2150.115)"/>
                    </g>
                </g>
            </g>
            <g id="그룹_4228" transform="translate(6.355 11.011)">
                <g id="그룹_4227" transform="translate(0 .567)">
                    <path id="패스_252118" d="M-705.649 2089.415h16.9a.343.343 0 0 0 .343-.343.343.343 0 0 0-.343-.343h-16.9a.343.343 0 0 0-.343.343.343.343 0 0 0 .343.343z" class="cls-3" transform="translate(705.992 -2088.729)"/>
                    <path id="패스_252119" d="M-705.649 2103.019h11.2a.343.343 0 0 0 .343-.343.343.343 0 0 0-.343-.343h-11.2a.343.343 0 0 0-.343.343.343.343 0 0 0 .343.343z" class="cls-3" transform="translate(711.695 -2099.223)"/>
                    <path id="패스_252120" d="M-714.177 2122.087a.343.343 0 0 0 .186-.055.344.344 0 0 0 .1-.474l-3.709-5.758a.343.343 0 0 0-.288-.157h-20.732a.343.343 0 0 0-.343.343.343.343 0 0 0 .343.343h20.546l3.608 5.6a.344.344 0 0 0 .289.158z" class="cls-3" transform="translate(738.963 -2109.49)"/>
                </g>
                <circle id="타원_509519" cx=".91" cy=".91" r=".91" class="cls-3" transform="translate(19.201)"/>
                <circle id="타원_509520" cx=".91" cy=".91" r=".91" class="cls-3" transform="translate(19.201 3.11)"/>
            </g>
        </g>
        <g id="그룹_4258" transform="translate(332.458 31.102)">
            <g id="그룹_4255">
                <g id="그룹_4233">
                    <path id="사각형_682" d="M0 0h66.1v55.5a13.527 13.527 0 0 1-13.531 13.53H13.527A13.527 13.527 0 0 1 0 55.5V0z" class="cls-4" transform="translate(0 2.708)"/>
                    <g id="그룹_4232">
                        <g id="그룹_4230">
                            <path id="패스_252121" d="M-1482.007 1836.563a1.217 1.217 0 0 1 1.217-1.217h63.663a1.217 1.217 0 0 1 1.217 1.217v2.172h-66.1z" class="cls-3" transform="translate(1482.007 -1835.346)"/>
                        </g>
                        <g id="그룹_4231" transform="translate(57.373 1.042)">
                            <ellipse id="타원_509521" cx=".813" cy=".809" class="cls-2" rx=".813" ry=".809" transform="translate(5.509)"/>
                            <ellipse id="타원_509522" cx=".813" cy=".809" class="cls-4" rx=".813" ry=".809" transform="translate(2.755)"/>
                            <ellipse id="타원_509523" cx=".813" cy=".809" class="cls-5" rx=".813" ry=".809"/>
                        </g>
                    </g>
                </g>
                <g id="그룹_4250" transform="translate(13.307 7.966)">
                    <circle id="타원_509524" cx="5.71" cy="5.71" r="5.71" class="cls-14" transform="translate(5.745)"/>
                    <circle id="타원_509525" cx="4.984" cy="4.984" r="4.984" class="cls-14" transform="translate(0 3.704)"/>
                    <path id="사각형_683" d="M0 0H6.792V9.969H0z" class="cls-14" transform="translate(4.984 3.704)"/>
                    <g id="그룹_4236" transform="translate(1.072 23.432)">
                        <path id="패스_252122" d="M-1273.294 2002.191l-3.433 2.154a2.376 2.376 0 0 1-2.095.213l-3.5-1.307a2.935 2.935 0 0 1-3.5.329c-1.664-.918-1.286-2.6-.54-3.676s2.06-1.992 6.328-.919l1.7-2.588" class="cls-15" transform="translate(1286.991 -1996.397)"/>
                        <g id="그룹_4235">
                            <g id="그룹_4234" clip-path="url(#clip-path-5)">
                                <circle id="타원_509526" cx="1.746" cy="1.746" r="1.746" class="cls-7" transform="translate(-1.689 5.014)"/>
                                <circle id="타원_509527" cx="1.746" cy="1.746" r="1.746" class="cls-7" transform="translate(.609 5.291)"/>
                            </g>
                        </g>
                        <path id="패스_252123" d="M-1261.645 2009.2a.292.292 0 0 0 .285-.227.293.293 0 0 0-.22-.351l-1.934-.443a.292.292 0 0 0-.35.22.292.292 0 0 0 .22.35l1.934.443a.286.286 0 0 0 .065.008z" class="cls-13" transform="translate(1270.542 -2005.876)"/>
                    </g>
                    <path id="패스_252124" d="M-1325.214 1904.266c0 5.37 1.88 12.24 7 16.725-5.662 4.392-16.983-2.438-16.983-2.438v-14.584" class="cls-14" transform="translate(1342.378 -1898.557)"/>
                    <path id="패스_252125" d="M-1226.309 1924.953l-.64 1.644a.427.427 0 0 1-.791.013l-.681-1.592z" class="cls-3" transform="translate(1229.659 -1915.45)"/>
                    <path id="패스_252126" d="M-1236.053 1924.953l-.64 1.644a.427.427 0 0 1-.791.013l-.68-1.592z" class="cls-3" transform="translate(1241.303 -1915.45)"/>
                    <path id="패스_252127" d="M-1245.8 1924.953l-.64 1.644a.427.427 0 0 1-.791.013l-.68-1.592z" class="cls-3" transform="translate(1252.947 -1915.45)"/>
                    <path id="패스_252128" d="M-1255.542 1924.953l-.64 1.644a.427.427 0 0 1-.791.013l-.68-1.592z" class="cls-3" transform="translate(1264.59 -1915.45)"/>
                    <path id="패스_252129" d="M-1260.526 1923.839l8.778-.127a.293.293 0 0 0 .288-.3.3.3 0 0 0-.3-.289l-8.778.127a.292.292 0 0 0-.288.3.293.293 0 0 0 .3.289z" class="cls-13" transform="translate(1261.121 -1913.979)"/>
                    <g id="그룹_4239" transform="translate(9.969 36.154)">
                        <path id="패스_252130" d="M-1316.476 2061.65v13.526c0 2.354 1.712 4.263 5.274 4.263s5.274-1.908 5.274-4.263v-13.526z" class="cls-15" transform="translate(1316.476 -2061.65)"/>
                        <g id="그룹_4238">
                            <g id="그룹_4237" clip-path="url(#clip-path-6)">
                                <circle id="타원_509528" cx="2.768" cy="2.768" r="2.768" class="cls-7" transform="translate(-1.62 13.919)"/>
                            </g>
                        </g>
                    </g>
                    <path id="패스_252131" d="M-1445.308 2021.91s5.6 3.525 6.074 7.434c1.074 8.891 2.811 15.719 16.29 16.8-8.219 3.161-26.958 1.19-26.958-13.145z" class="cls-14" transform="translate(1469.475 -1993.504)"/>
                    <g id="그룹_4241" transform="translate(19.572 28.406)">
                        <g id="그룹_4240" clip-path="url(#clip-path-7)">
                            <path id="패스_252132" d="M-1393.215 2075.827a52.106 52.106 0 0 1-8.966 4.236 15.753 15.753 0 0 0 11.167-2.052" class="cls-15" transform="translate(1408.667 -2065.315)"/>
                            <path id="패스_252133" d="M-1400.714 2094.8a52.089 52.089 0 0 1-7.347 6.659 15.75 15.75 0 0 0 10.089-5.21" class="cls-15" transform="translate(1416.773 -2080.593)"/>
                            <path id="패스_252134" d="M-1428.253 2108.829a52.16 52.16 0 0 1-6.678 7.331 15.754 15.754 0 0 0 9.545-6.15" class="cls-15" transform="translate(1449.425 -2091.883)"/>
                        </g>
                    </g>
                    <path id="패스_252135" d="M-1355.567 1978.775c6.493 0 13.076 6.045 13.076 15.843 0 0-3.613 6.486-5.456 8.318-11.18 0-21.376-5.277-17.6-24.161" class="cls-14" transform="translate(1372.731 -1958.779)"/>
                    <path id="패스_252136" d="M-1401.732 1976.5c-9.181-1.4-16.3-7.567-13.045-23.835v-6.323h-4.439v6.323c-3.252 16.268 3.863 22.437 13.044 23.835 2.636 8.088 12.7 10.629 20.476 10.026-6.769-.515-13.883-3.42-16.036-10.026z" class="cls-3" transform="translate(1426.399 -1932.667)"/>
                    <g id="그룹_4243" transform="translate(6.383 5.412)">
                        <g id="그룹_4242" clip-path="url(#clip-path-8)">
                            <path id="패스_252137" d="M-1332.538 1958.83a52.161 52.161 0 0 1-5.736 8.089 15.754 15.754 0 0 0 8.725-7.266" class="cls-15" transform="translate(1347.933 -1948.134)"/>
                            <path id="패스_252138" d="M-1353.134 1982.59a52.185 52.185 0 0 1-5.736 8.089 15.754 15.754 0 0 0 8.725-7.266" class="cls-15" transform="translate(1372.544 -1967.262)"/>
                            <path id="패스_252139" d="M-1374.674 2007.424a52.186 52.186 0 0 1-6.725 7.288 15.754 15.754 0 0 0 9.584-6.088" class="cls-15" transform="translate(1398.606 -1987.254)"/>
                        </g>
                    </g>
                    <g id="그룹_4246" transform="translate(13.618 36.154)">
                        <path id="패스_252140" d="M-1335.2 2061.65v13.526c0 2.354 1.712 4.263 5.274 4.263s5.274-1.908 5.274-4.263v-13.526z" class="cls-14" transform="translate(1335.195 -2061.65)"/>
                        <g id="그룹_4245">
                            <g id="그룹_4244" clip-path="url(#clip-path-9)">
                                <circle id="타원_509529" cx="2.768" cy="2.768" r="2.768" class="cls-3" transform="translate(-1.621 13.919)"/>
                            </g>
                        </g>
                    </g>
                    <path id="패스_252141" d="M-1282.3 2066.253a.292.292 0 0 0 .292-.292v-5.518a.292.292 0 0 0-.292-.292.292.292 0 0 0-.293.292v5.518a.292.292 0 0 0 .293.292z" class="cls-15" transform="translate(1295.916 -2024.289)"/>
                    <path id="패스_252142" d="M-1351.484 2085.654a.292.292 0 0 0 .292-.292v-7.556a7.272 7.272 0 0 0 2.917-3.1.293.293 0 0 0-.156-.383.292.292 0 0 0-.383.156 6.95 6.95 0 0 1-2.808 2.9.292.292 0 0 0-.156.258v7.727a.292.292 0 0 0 .294.29z" class="cls-15" transform="translate(1375.651 -2035.682)"/>
                    <circle id="타원_509530" cx=".397" cy=".397" r=".397" class="cls-13" transform="translate(10.672 3.183)"/>
                    <circle id="타원_509531" cx=".397" cy=".397" r=".397" class="cls-13" transform="translate(7.984 3.183)"/>
                    <circle id="타원_509532" cx=".397" cy=".397" r=".397" class="cls-13" transform="translate(1.984 6.094)"/>
                    <circle id="타원_509533" cx=".397" cy=".397" r=".397" class="cls-13" transform="translate(4.008 6.094)"/>
                    <g id="그룹_4249" transform="translate(3.824 23.14)">
                        <path id="패스_252143" d="M-1287.408 2002.191l-3.433 2.154a2.376 2.376 0 0 1-2.095.213l-3.5-1.307a2.935 2.935 0 0 1-3.5.329c-1.664-.918-1.286-2.6-.541-3.676s2.06-1.992 6.328-.919l1.7-2.588" class="cls-14" transform="translate(1301.104 -1996.105)"/>
                        <g id="그룹_4248" transform="translate(0 .292)">
                            <g id="그룹_4247" clip-path="url(#clip-path-10)">
                                <circle id="타원_509534" cx="1.746" cy="1.746" r="1.746" class="cls-3" transform="translate(-1.689 5.014)"/>
                                <circle id="타원_509535" cx="1.746" cy="1.746" r="1.746" class="cls-3" transform="translate(.609 5.291)"/>
                            </g>
                        </g>
                        <path id="패스_252144" d="M-1272.139 1998.07a.292.292 0 0 0 .245-.132l1.7-2.588a.292.292 0 0 0-.084-.4.293.293 0 0 0-.405.084l-1.586 2.416a10.156 10.156 0 0 0-4.282-.327.293.293 0 0 0-.228.345.293.293 0 0 0 .346.227 9.948 9.948 0 0 1 4.223.372.3.3 0 0 0 .071.003z" class="cls-15" transform="translate(1279.101 -1994.897)"/>
                        <path id="패스_252145" d="M-1297.412 2027.717a2.681 2.681 0 0 0 1.422-.406l3.433-2.154a.292.292 0 0 0 .092-.4.292.292 0 0 0-.4-.093l-3.433 2.154a2.1 2.1 0 0 1-1.837.187l-3.5-1.307a.293.293 0 0 0-.31.067 2.4 2.4 0 0 1-.507.355.292.292 0 0 0-.119.4.293.293 0 0 0 .4.119 3.3 3.3 0 0 0 .5-.328l3.333 1.245a2.653 2.653 0 0 0 .926.161z" class="cls-15" transform="translate(1306.408 -2018.822)"/>
                        <path id="패스_252146" d="M-1258.525 2026.475a.288.288 0 0 0 .183-.065 1.649 1.649 0 0 0 .595-1.213.292.292 0 0 0-.269-.314.29.29 0 0 0-.314.269 1.076 1.076 0 0 1-.379.8.292.292 0 0 0-.044.411.29.29 0 0 0 .228.112z" class="cls-15" transform="translate(1263.198 -2019.036)"/>
                        <path id="패스_252147" d="M-1275.759 2009.2a.293.293 0 0 0 .285-.227.293.293 0 0 0-.22-.351l-1.934-.443a.292.292 0 0 0-.35.22.292.292 0 0 0 .22.35l1.934.443a.288.288 0 0 0 .065.008z" class="cls-15" transform="translate(1284.655 -2005.584)"/>
                    </g>
                </g>
                <g id="그룹_4254" transform="translate(3.395 7.674)">
                    <g id="그룹_4251" transform="translate(0 58.773)">
                        <path id="패스_252148" d="M-1463.156 2176.753h58.5a.292.292 0 0 0 .292-.292.292.292 0 0 0-.292-.292h-58.5a.293.293 0 0 0-.292.292.292.292 0 0 0 .292.292z" class="cls-3" transform="translate(1463.449 -2176.168)"/>
                    </g>
                    <g id="그룹_4253" transform="translate(58.498)">
                        <g id="그룹_4252">
                            <path id="패스_252149" d="M-1463.156 1934.065a.292.292 0 0 0 .292-.292V1875a.292.292 0 0 0-.292-.292.292.292 0 0 0-.293.292v58.773a.292.292 0 0 0 .293.292z" class="cls-3" transform="translate(1463.449 -1874.707)"/>
                        </g>
                    </g>
                </g>
            </g>
            <g id="그룹_4257" transform="translate(34.834 13.919)">
                <g id="그룹_4256" transform="translate(0 .483)">
                    <path id="패스_252150" d="M-1420.73 1909.8h14.417a.292.292 0 0 0 .292-.292.292.292 0 0 0-.292-.292h-14.417a.293.293 0 0 0-.292.292.292.292 0 0 0 .292.292z" class="cls-3" transform="translate(1425.393 -1909.219)"/>
                    <path id="패스_252151" d="M-1420.73 1923.409h9.553a.292.292 0 0 0 .292-.292.292.292 0 0 0-.292-.292h-9.553a.292.292 0 0 0-.293.292.292.292 0 0 0 .293.292z" class="cls-3" transform="translate(1430.257 -1920.172)"/>
                    <path id="패스_252152" d="M-1438.666 1941.628a.29.29 0 0 0 .219-.1l4.255-4.812h17.81a.293.293 0 0 0 .292-.293.292.292 0 0 0-.292-.292h-17.942a.294.294 0 0 0-.219.1l-4.342 4.91a.293.293 0 0 0 .026.413.29.29 0 0 0 .193.074z" class="cls-3" transform="translate(1438.958 -1930.886)"/>
                </g>
                <circle id="타원_509536" cx=".776" cy=".776" r=".776" class="cls-3" transform="translate(20.746)"/>
                <circle id="타원_509537" cx=".776" cy=".776" r=".776" class="cls-3" transform="translate(20.746 2.652)"/>
            </g>
        </g>
        <g id="그룹_4285" transform="translate(230.948 31.047)">
            <g id="그룹_4262">
                <path id="사각형_684" d="M0 0h83.625v59.508A13.527 13.527 0 0 1 70.1 73.035H13.527A13.527 13.527 0 0 1 0 59.508V0z" class="cls-6" transform="translate(0 3.175)"/>
                <g id="그룹_4261">
                    <g id="그룹_4259">
                        <path id="패스_252153" d="M-1778.773 1978.13a1.427 1.427 0 0 1 1.426-1.427h80.772a1.427 1.427 0 0 1 1.427 1.427v2.547h-83.625z" class="cls-3" transform="translate(1778.773 -1976.703)"/>
                    </g>
                    <g id="그룹_4260" transform="translate(73.397 1.222)">
                        <ellipse id="타원_509538" cx=".953" cy=".948" class="cls-2" rx=".953" ry=".948" transform="translate(6.46)"/>
                        <ellipse id="타원_509539" cx=".953" cy=".948" class="cls-4" rx=".953" ry=".948" transform="translate(3.23)"/>
                        <ellipse id="타원_509540" cx=".953" cy=".948" class="cls-5" rx=".953" ry=".948"/>
                    </g>
                </g>
            </g>
            <g id="그룹_4271" transform="translate(3.81 12.679)">
                <g id="그룹_4270">
                    <path id="패스_252154" d="M-1731.5 2174.141s5.2 8.932 18.663 8.935a.73.73 0 0 1 .522 1.294c-7.69 3.989-19.029 1.865-20.64-.959l-.72-7.575" class="cls-22" transform="translate(1781.548 -2141.685)"/>
                    <path id="패스_252155" d="M-1730.975 2202.729c2.871 2.843 11.98 5.828 19.247 3.693-7.69 3.989-19.03 1.865-20.641-.959l-.113-1.188z" class="cls-3" transform="translate(1780.962 -2163.739)"/>
                    <path id="패스_252156" d="M-1544.505 2216.232v6.128c0 1.781 1.294 3.224 3.989 3.224s3.989-1.443 3.989-3.224v-6.128z" class="cls-22" transform="translate(1562.788 -2174.155)"/>
                    <g id="그룹_4264" transform="translate(18.283 42.077)">
                        <g id="그룹_4263" clip-path="url(#clip-path-11)">
                            <circle id="타원_509541" cx="2.093" cy="2.093" r="2.093" class="cls-7" transform="translate(-1.226 6.426)"/>
                            <circle id="타원_509542" cx="2.093" cy="2.093" r="2.093" class="cls-7" transform="translate(2.151 6.426)"/>
                        </g>
                    </g>
                    <path id="패스_252157" d="M-1630.415 2216.232v6.128c0 1.781 1.295 3.224 3.989 3.224s3.989-1.443 3.989-3.224v-6.128z" class="cls-22" transform="translate(1668.338 -2174.155)"/>
                    <g id="그룹_4266" transform="translate(37.922 42.077)">
                        <g id="그룹_4265" clip-path="url(#clip-path-12)">
                            <circle id="타원_509543" cx="2.093" cy="2.093" r="2.093" class="cls-7" transform="translate(-1.226 6.426)"/>
                            <circle id="타원_509544" cx="2.093" cy="2.093" r="2.093" class="cls-7" transform="translate(2.151 6.426)"/>
                        </g>
                    </g>
                    <path id="패스_252158" d="M-1654.422 2037.116c.54-2.926 3.068-5.033 6.911-4.945 4.821.111 6.327 4.86 7.773 10.93.151.453.3.925.448 1.417 1.623 5.4 3.365 13.484 6.736 14.071a18.262 18.262 0 0 1 9.532-2.327c12.751 0 17 9 17 17.979h-5.055c-2.922 2.869-7.95 3.815-16.394 3.1h-1.087c-3.931 0-7.858.17-10.414-1.985l-.01-.008q-.172-.146-.336-.307c-5.529-5.125-6.906-14.219-8.09-20.141-1.209-6.045-1.478-8.123-1.478-8.123s-7.366 2.064-9.1-2.757c-1.094-3.02.831-5.42 3.564-6.904z" class="cls-25" transform="translate(1658.3 -2032.168)"/>
                    <ellipse id="타원_509545" cx="1.1" cy=".634" class="cls-3" rx="1.1" ry=".634" transform="rotate(-144.856 7.39 -.557)"/>
                    <g id="그룹_4268" transform="translate(5.094 2.089)">
                        <path id="패스_252159" d="M-1452.708 2041.525c.06-.073.118-.148.182-.218-.009.045-.022.089-.031.134z" class="cls-3" transform="translate(1452.708 -2041.307)"/>
                        <g id="그룹_4267" transform="translate(4.316 11.689)">
                            <path id="패스_252160" d="M-1619.063 2098.309c1.691 8.2 2.961 23.473 17.357 22.808h1.087c5.251.442 9.181.243 12.1-.66v2.219c-3.03 1.326-7.354 1.681-13.472 1.166h-1.086c-3.931 0-7.858.17-10.414-1.985l-.01-.008c-.115-.1-.227-.2-.336-.307-5.528-5.125-6.906-14.219-8.091-20.141-1.209-6.045-1.478-8.123-1.478-8.123s2.141-.476 3.225-.84c.229 1.285.564 3.189 1.118 5.871z" class="cls-3" transform="translate(1623.402 -2092.438)"/>
                        </g>
                    </g>
                    <ellipse id="타원_509546" cx="4.169" cy="2.881" class="cls-22" rx="4.169" ry="2.881" transform="rotate(-159.706 22.896 12.411)"/>
                    <ellipse id="타원_509547" cx="2.57" cy="2.051" class="cls-22" rx="2.57" ry="2.051" transform="rotate(-173.021 16.872 14.26)"/>
                    <ellipse id="타원_509548" cx="2.334" cy="2.166" class="cls-22" rx="2.334" ry="2.166" transform="rotate(-141.55 25.513 11.941)"/>
                    <ellipse id="타원_509549" cx=".484" cy=".927" class="cls-22" rx=".484" ry=".927" transform="rotate(-97.513 27.113 -.734)"/>
                    <ellipse id="타원_509550" cx="1.375" cy="1.097" class="cls-22" rx="1.375" ry="1.097" transform="rotate(-173.021 18.289 15.416)"/>
                    <ellipse id="타원_509551" cx="2.52" cy="1.899" class="cls-22" rx="2.52" ry="1.899" transform="scale(-1) rotate(35.68 29.434 -86.906)"/>
                    <ellipse id="타원_509552" cx="1.067" cy=".744" class="cls-22" rx="1.067" ry=".744" transform="rotate(-154.96 24.398 9.012)"/>
                    <g id="그룹_4269" transform="translate(.619 3.748)">
                        <circle id="타원_509553" cx=".633" cy=".633" r=".633" class="cls-13" transform="translate(8.098)"/>
                        <circle id="타원_509554" cx=".633" cy=".633" r=".633" class="cls-13" transform="translate(5.163)"/>
                        <circle id="타원_509555" cx=".408" cy=".408" r=".408" class="cls-13" transform="translate(2.205 5.009)"/>
                        <circle id="타원_509556" cx=".408" cy=".408" r=".408" class="cls-13" transform="translate(.468 5.009)"/>
                        <path id="패스_252161" d="M-1449.955 2080.68a5.631 5.631 0 0 0 2.568-.575.343.343 0 0 0 .123-.469.343.343 0 0 0-.469-.124 4.632 4.632 0 0 1-3.394.278.343.343 0 0 0-.462.148.342.342 0 0 0 .148.462 3.367 3.367 0 0 0 1.486.28z" class="cls-13" transform="translate(1451.627 -2072.402)"/>
                    </g>
                </g>
            </g>
            <g id="그룹_4274" transform="translate(28.125 53.307)">
                <path id="패스_252162" d="M-1572.391 2209.889v7.579c0 1.781 1.295 3.224 3.989 3.224s3.989-1.443 3.989-3.224v-7.579z" class="cls-25" transform="translate(1572.734 -2209.889)"/>
                <g id="그룹_4273" transform="translate(.343)">
                    <g id="그룹_4272" clip-path="url(#clip-path-13)">
                        <circle id="타원_509557" cx="2.093" cy="2.093" r="2.093" class="cls-3" transform="translate(-1.226 7.876)"/>
                        <circle id="타원_509558" cx="2.093" cy="2.093" r="2.093" class="cls-3" transform="translate(2.151 7.876)"/>
                    </g>
                </g>
                <path id="패스_252163" d="M-1538.65 2215.091a.343.343 0 0 0 .343-.343v-4.125a.343.343 0 0 0-.343-.343.343.343 0 0 0-.343.343v4.125a.343.343 0 0 0 .343.343z" class="cls-22" transform="translate(1538.993 -2210.192)"/>
                <path id="패스_252164" d="M-1573.548 2215.091a.343.343 0 0 0 .343-.343v-4.125a.343.343 0 0 0-.343-.343.343.343 0 0 0-.343.343v4.125a.343.343 0 0 0 .343.343z" class="cls-22" transform="translate(1581.869 -2210.192)"/>
            </g>
            <g id="그룹_4277" transform="translate(47.764 52.758)">
                <path id="패스_252165" d="M-1658.3 2208.986v7.785c0 1.781 1.295 3.224 3.989 3.224s3.989-1.443 3.989-3.224v-6.129z" class="cls-25" transform="translate(1658.643 -2208.643)"/>
                <g id="그룹_4276" transform="translate(.343 .343)">
                    <g id="그룹_4275" clip-path="url(#clip-path-14)">
                        <circle id="타원_509559" cx="2.093" cy="2.093" r="2.093" class="cls-3" transform="translate(-1.225 8.083)"/>
                        <circle id="타원_509560" cx="2.093" cy="2.093" r="2.093" class="cls-3" transform="translate(2.151 8.083)"/>
                    </g>
                </g>
                <path id="패스_252166" d="M-1624.559 2211.772a.343.343 0 0 0 .343-.343v-3.6a.343.343 0 0 0-.343-.343.343.343 0 0 0-.343.343v3.6a.343.343 0 0 0 .343.343z" class="cls-22" transform="translate(1624.902 -2207.486)"/>
            </g>
            <g id="그룹_4284" transform="translate(7.94 11.355)">
                <g id="그룹_4281">
                    <g id="그룹_4278" transform="translate(0 57.268)">
                        <path id="패스_252167" d="M-1759.951 2277.572h70.776a.343.343 0 0 0 .343-.343.343.343 0 0 0-.343-.343h-70.776a.343.343 0 0 0-.343.343.343.343 0 0 0 .343.343z" class="cls-3" transform="translate(1760.294 -2276.886)"/>
                    </g>
                    <g id="그룹_4280" transform="translate(70.776)">
                        <g id="그룹_4279">
                            <path id="패스_252168" d="M-1759.951 2084.327a.343.343 0 0 0 .343-.343v-57.268a.343.343 0 0 0-.343-.343.343.343 0 0 0-.343.343v57.268a.343.343 0 0 0 .343.343z" class="cls-3" transform="translate(1760.294 -2026.373)"/>
                        </g>
                    </g>
                </g>
                <g id="그룹_4283" transform="translate(22.81 5.712)">
                    <g id="그룹_4282" transform="translate(0 .567)">
                        <path id="패스_252169" d="M-1651.08 2054.524h16.905a.343.343 0 0 0 .343-.343.343.343 0 0 0-.343-.343h-16.905a.343.343 0 0 0-.343.343.343.343 0 0 0 .343.343z" class="cls-3" transform="translate(1657.595 -2053.838)"/>
                        <path id="패스_252170" d="M-1651.08 2068.129h11.2a.343.343 0 0 0 .343-.343.343.343 0 0 0-.343-.343h-11.2a.343.343 0 0 0-.343.343.343.343 0 0 0 .343.343z" class="cls-3" transform="translate(1663.299 -2064.333)"/>
                        <path id="패스_252171" d="M-1665.425 2087.754a.34.34 0 0 0 .256-.115l5.521-6.2h20.579a.343.343 0 0 0 .343-.343.343.343 0 0 0-.343-.343h-20.731a.342.342 0 0 0-.256.115l-5.624 6.316a.343.343 0 0 0 .028.484.342.342 0 0 0 .227.086z" class="cls-3" transform="translate(1665.768 -2074.599)"/>
                    </g>
                    <circle id="타원_509561" cx=".91" cy=".91" r=".91" class="cls-3" transform="translate(25.373)"/>
                    <circle id="타원_509562" cx=".91" cy=".91" r=".91" class="cls-3" transform="translate(25.373 3.11)"/>
                </g>
            </g>
        </g>
        <g id="그룹_4334" transform="translate(239.859 15.01)">
            <g id="그룹_4287" transform="translate(0 109.469)">
                <g id="그룹_4286" transform="translate(2.056 9.713)">
                    <path id="패스_252172" d="M-1035.638 2595.559a3.931 3.931 0 0 0 6.089 2.04 4.562 4.562 0 0 0 2.244-4.937c-.733-2.365-3.794-5.579-6.1-4.779s-2.966 5.311-2.233 7.676z" class="cls-3" transform="translate(1035.921 -2552.985)"/>
                    <path id="패스_252173" d="M-1062.315 2582.162c1.086 2.165 3.914 3.034 6.328.91a4.635 4.635 0 0 0 1.416-5.27c-1.1-2.2-4.637-4.812-6.775-3.608s-2.071 5.77-.969 7.968z" class="cls-3" transform="translate(1069.669 -2542.735)"/>
                    <path id="패스_252174" d="M-1085.8 2563.021c1.276 2.046 4.169 2.625 6.381.267a4.663 4.663 0 0 0 .935-5.39c-1.3-2.076-5.048-4.322-7.069-2.906s-1.541 5.953-.247 8.029z" class="cls-3" transform="translate(1099.299 -2528.44)"/>
                    <path id="패스_252175" d="M-1105.253 2544.585c1.428 1.93 4.355 2.26 6.381-.279a4.675 4.675 0 0 0 .522-5.452c-1.449-1.959-5.361-3.876-7.267-2.294s-1.083 6.066.364 8.025z" class="cls-3" transform="translate(1123.89 -2514.712)"/>
                    <path id="패스_252176" d="M-1125.138 2522.74c1.949 1.322 4.815.609 5.935-2.5.781-2.166.138-4.416-1.207-5.328-1.979-1.342-6.269-1.782-7.574.379s.867 6.109 2.846 7.449z" class="cls-3" transform="translate(1150.388 -2498.315)"/>
                    <path id="패스_252177" d="M-1140.69 2492.641c1.949 1.322 4.815.609 5.935-2.5.781-2.167.138-4.416-1.207-5.328-1.979-1.342-6.269-1.782-7.574.379s.867 6.108 2.846 7.449z" class="cls-3" transform="translate(1169.77 -2476.068)"/>
                    <path id="패스_252178" d="M-1152.6 2463.536c2.126.969 4.845-.228 5.473-3.485.438-2.271-.541-4.382-2.008-5.049-2.158-.984-6.459-.68-7.416 1.677s1.791 5.873 3.951 6.857z" class="cls-3" transform="translate(1185.532 -2454.474)"/>
                </g>
                <path id="패스_252179" d="M-1185.145 2417.244c-3.089 14.831-13.117 42-39.295 52.779a2.192 2.192 0 0 0 .32 4.109c19.027 4.32 46.936-.5 55.943-31.234" class="cls-28" transform="translate(1225.727 -2417.244)"/>
            </g>
            <path id="패스_252180" d="M-1364.288 2292.774c8.086 1.167 9.006 8.489 11.6 19.794s6.786 29.05 6.786 29.05l-18.5 4.462s-5.255-21.693-7.943-34.438c-2.552-4.077-2.824-5.958-2.877-7.658-.258-8.053 3.722-12.25 10.934-11.21z" class="cls-6" transform="translate(1440.271 -2215.664)"/>
            <path id="패스_252181" d="M-1387.2 2451.252l1.874 7.844s10.045 11.466 5.529 17.4c-3.262 4.285-15.76 5.314-20.491-3.485a24.569 24.569 0 0 1-4.807-7.782l-3.775-7.172z" class="cls-29" transform="translate(1481.275 -2332.911)"/>
            <path id="패스_252182" d="M-1386.593 2481.087c-2.18-2.326-5.733-9.8-6.034-10.373l-5.5 1.725 3.775 7.173a24.577 24.577 0 0 0 4.807 7.781c4.183 7.781 14.438 7.876 19.012 4.832-7.184 2.564-13.159-5.741-16.06-11.138z" class="cls-28" transform="translate(1470.531 -2347.296)"/>
            <g id="그룹_4290" transform="translate(72.407 118.341)">
                <g id="그룹_4289" clip-path="url(#clip-path-15)">
                    <g id="그룹_4288" transform="translate(25.889 18.858)">
                        <path id="패스_252446" d="M2.555.05c1.411.027 2.591 1.993 2.636 4.39S4.128 8.759 2.717 8.731.126 6.738.081 4.341 1.144.022 2.555.05z" class="cls-3" transform="rotate(-159.335 3.292 4.606)"/>
                    </g>
                </g>
            </g>
            <path id="패스_252183" d="M-1315.746 2380.087a104.336 104.336 0 0 0-6.32 26.869h40.338s-.284-8-3.352-23.893" class="cls-13" transform="translate(1363.001 -2280.313)"/>
            <g id="그룹_4291" transform="translate(59.53 137.3)">
                <path id="사각형_685" d="M0 0H21.545V62.179H0z" class="cls-31"/>
                <path id="사각형_686" d="M0 0H21.545V12.217H0z" class="cls-3" transform="translate(0 49.962)"/>
                <path id="사각형_687" d="M0 0H21.545V2.656H0z" class="cls-29" transform="translate(0 53.356)"/>
                <path id="패스_252184" d="M-1355.89 2762.253v13.787h30.071a14.993 14.993 0 0 0-8.527-13.787z" class="cls-3" transform="translate(1355.89 -2700.074)"/>
            </g>
            <path id="패스_252185" d="M-1325.223 2477.517l-1.161 18.391h27.4l-1.063-16.941z" class="cls-13" transform="translate(1381.32 -2352.323)"/>
            <path id="패스_252186" d="M-1325.183 2466.206h.025a.384.384 0 0 0 .344-.416l-1.063-16.94c0-.028-.152-4.008-1.272-11.715a.373.373 0 0 0-.421-.327.388.388 0 0 0-.309.446c1.113 7.656 1.263 11.6 1.264 11.637l1.064 16.951a.379.379 0 0 0 .368.364z" class="cls-13" transform="translate(1407.518 -2322.231)"/>
            <g id="그룹_4292" transform="translate(33.303 137.3)">
                <path id="패스_252187" d="M-1233.3 2586.1h-24.284l3.4-62.179h24.284z" class="cls-31" transform="translate(1261.986 -2523.922)"/>
                <path id="패스_252188" d="M-1222.192 2727.644h-24.284l.669-12.217h24.284z" class="cls-3" transform="translate(1250.88 -2665.465)"/>
                <path id="패스_252189" d="M-1221.437 2731.091h-24.284l.145-2.656h24.284z" class="cls-29" transform="translate(1250.463 -2675.079)"/>
                <path id="패스_252190" d="M-1255.039 2762.253l-.755 13.787h27.933c.6-10.951-2.894-13.787-2.894-13.787z" class="cls-3" transform="translate(1259.443 -2700.074)"/>
                <path id="패스_252191" d="M-1215.072 2762.253l-.755 13.787h-27.933c.6-10.951 4.4-13.787 4.4-13.787z" class="cls-3" transform="translate(1243.76 -2700.074)"/>
            </g>
            <g id="그룹_4333" transform="translate(15.034)">
                <path id="패스_252192" d="M-1258.713 2585.385a.379.379 0 0 0 .368-.368l3.4-62.179a.385.385 0 0 0-.347-.413.378.378 0 0 0-.39.368l-3.4 62.178a.384.384 0 0 0 .347.414z" class="cls-13" transform="translate(1305.669 -2385.514)"/>
                <path id="패스_252193" d="M-1258.765 2483.052l-1.161 16.94h25.963l.234-16.949z" class="cls-13" transform="translate(1284.666 -2356.408)"/>
                <path id="패스_252194" fill="#354686" d="M-1265.021 2502.763a.379.379 0 0 0 .368-.36l1.21-15.718a.385.385 0 0 0-.338-.422.377.377 0 0 0-.4.358l-1.21 15.718a.385.385 0 0 0 .338.422z" transform="translate(1315.725 -2358.787)"/>
                <path id="패스_252195" d="M-1284.3 2289.761c1.2 11.347 1.956 24.953 3.131 36.908-10.066.485-26.052.485-39.749.054 1.158-10.363 2.519-26.319 4.422-37.312l10.333-1.963h12.772z" class="cls-6" transform="translate(1347.121 -2211.843)"/>
                <path id="패스_252196" d="M-1301.476 2437.431c7.305 0 14.088-.124 19.2-.37a.383.383 0 0 0 .352-.409.371.371 0 0 0-.386-.373c-9.79.471-25.753.492-39.721.054a.376.376 0 0 0-.38.379.383.383 0 0 0 .358.4c6.697.214 13.853.319 20.577.319z" class="cls-13" transform="translate(1348.252 -2321.843)"/>
                <path id="패스_252197" d="M-1195.044 2296.141c-8.125.807-9.335 8.081-12.371 19.261s-7.93 28.723-7.93 28.723l18.309 5.28s6.109-21.44 9.3-34.055c2.711-3.96 3.057-5.827 3.178-7.523.571-8.036-3.242-12.406-10.486-11.686z" class="cls-6" transform="translate(1224.462 -2218.21)"/>
                <path id="패스_252198" d="M-1203.342 2403.324a.373.373 0 0 0 .354-.279c.061-.214 6.147-21.59 9.3-34.067a.394.394 0 0 0-.261-.479.369.369 0 0 0-.452.277c-3.152 12.465-9.235 33.829-9.3 34.043a.4.4 0 0 0 .247.488.357.357 0 0 0 .112.017z" class="cls-13" transform="translate(1230.769 -2271.739)"/>
                <path id="패스_252199" d="M-1227.385 2003.962c-.686-2.876-4.073-6.967-6.872-6.218-2.278.609-3.462 4.237-3.454 7.117-2.114-1.805-5.512-3.092-7.383-1.6s-1.639 5.329-.578 7.98c-2.609-.795-6.212-.583-7.39 1.563s.44 5.585 2.39 7.592c-2.7.34-5.939 2.016-6.239 4.479-.276 2.269 2.025 4.562 4.365 5.732-2.574.478-5.43 2.092-5.71 4.4-.283 2.332 2.156 4.689 4.561 5.827-2.568.483-5.407 2.094-5.686 4.391-.318 2.615 2.789 5.263 5.431 6.185-2.553.649-5.338 2.474-5.471 4.809-.128 2.258 2.258 4.357 4.64 5.37-2.457.717-5.013 2.484-5.14 4.719-.174 3.052 4.25 5.818 7.045 6 2.753.176 5.344-2.331 4.807-6.251a5.984 5.984 0 0 0-2.4-4.156c1.907-.787 3.311-2.949 2.9-5.934a5.716 5.716 0 0 0-3.034-4.507c1.851-.723 3.272-2.738 3.062-5.635a5.955 5.955 0 0 0-2.316-4.453c2.032-.584 3.665-2.673 3.441-5.765a6.031 6.031 0 0 0-2.162-4.345c2.062-.557 3.734-2.656 3.508-5.782a6.409 6.409 0 0 0-1.222-3.378 5.224 5.224 0 0 0 3.925-3.872 6.546 6.546 0 0 0 .111-3.616 4.95 4.95 0 0 0 5.035-1.955 6.366 6.366 0 0 0 1.426-3.287 4.866 4.866 0 0 0 5.357.268 5.393 5.393 0 0 0 3.053-5.678z" class="cls-3" transform="translate(1278.221 -1997.654)"/>
                <path id="패스_252200" d="M-1329.823 2044.223c0-11.015-6.063-13.725-16.059-14-1.189-5.013-5.477-10.6-15.64-10.6-22.445 0-23.447 21.758-24.3 32.52l-2.035 40.722h41.831l-1.692-34.644c9.973-.288 17.895-2.999 17.895-13.998z" class="cls-29" transform="translate(1412.261 -2013.892)"/>
                <path id="패스_252201" d="M-1238.484 2019.69q-.9-.065-1.86-.066c-22.445 0-23.447 21.758-24.3 32.52l-2.035 40.722h3.943l2.035-40.722c.826-10.42 1.791-31.144 22.217-32.454z" class="cls-28" transform="translate(1291.084 -2013.892)"/>
                <g id="그룹_4293" transform="translate(53.766 31.474)">
                    <path id="패스_252202" d="M-1369.807 2118.294c-.426 1.972-.293 4.379.918 5.048 1.334.738 3.553-.869 4.8-2.554-.047 2.067.583 4.526 1.947 4.907 1.455.406 3.284-1.681 4.151-3.617.386 2.027 1.514 4.278 2.924 4.329 1.5.056 2.851-2.408 3.293-4.5.8 1.886 2.369 3.817 3.755 3.537 1.5-.3 2.3-3.091 2.271-5.247a42.626 42.626 0 0 1-24.059-1.903z" class="cls-3" transform="translate(1370.028 -2118.294)"/>
                </g>
                <g id="그룹_4294" transform="translate(72.745 15.431)">
                    <path id="패스_252203" d="M-1376.454 2058.9a3.345 3.345 0 0 0 1.254 5 3.089 3.089 0 0 0 3.925-.491c1.139-1.47 1.841-4.88.41-6.124s-4.45.145-5.589 1.615z" class="cls-3" transform="translate(1377.111 -2056.8)"/>
                    <path id="패스_252204" d="M-1373.33 2066.317a7.363 7.363 0 0 0 2.148-3.539 6.58 6.58 0 0 1-1.059 5.046 3.089 3.089 0 0 1-3.925.491 4.035 4.035 0 0 1-.944-.72 6.162 6.162 0 0 0 3.78-1.278z" class="cls-7" transform="translate(1378.076 -2061.219)"/>
                </g>
                <path id="패스_252205" d="M-1352.827 2103.218a36.334 36.334 0 0 0 10.383-1.411.4.4 0 0 0 .254-.484.367.367 0 0 0-.456-.268c-10.239 3.1-26.261 1.168-35.35-7.425a.355.355 0 0 0-.521.031.408.408 0 0 0 .03.552c6.554 6.199 16.631 9.005 25.66 9.005z" class="cls-13" transform="translate(1422.338 -2068.517)"/>
                <ellipse id="타원_509564" cx="1.111" cy="1.177" class="cls-13" rx="1.111" ry="1.177" transform="translate(51.77 14.276)"/>
                <ellipse id="타원_509565" cx="1.111" cy="1.177" class="cls-13" rx="1.111" ry="1.177" transform="translate(57.65 14.276)"/>
                <g id="그룹_4295" transform="translate(36.116 44.345)">
                    <ellipse id="타원_509566" cx="12.991" cy="14.243" class="cls-31" rx="12.991" ry="14.243"/>
                </g>
                <g id="그룹_4300" transform="translate(45.875 56.512)">
                    <g id="그룹_4297" transform="translate(11.285)">
                        <ellipse id="타원_509567" cx=".893" cy=".946" class="cls-13" rx=".893" ry=".946" transform="translate(.576 2.561)"/>
                        <g id="그룹_4296">
                            <path id="패스_252206" d="M-1296.76 2215.053c.65 0 1.572 0 2.2-.006a.381.381 0 0 0 .368-.393.381.381 0 0 0-.369-.39c-.628 0-1.549.005-2.2.006a.381.381 0 0 0-.369.392.381.381 0 0 0 .37.391z" class="cls-13" transform="translate(1297.13 -2214.264)"/>
                        </g>
                    </g>
                    <g id="그룹_4299">
                        <ellipse id="타원_509568" cx=".893" cy=".946" class="cls-13" rx=".893" ry=".946" transform="translate(.576 2.561)"/>
                        <g id="그룹_4298">
                            <path id="패스_252207" d="M-1250.932 2215.053c.65 0 1.572 0 2.2-.006a.381.381 0 0 0 .368-.393.381.381 0 0 0-.369-.39c-.628 0-1.548.005-2.2.006a.381.381 0 0 0-.369.392.381.381 0 0 0 .37.391z" class="cls-13" transform="translate(1251.301 -2214.264)"/>
                        </g>
                    </g>
                </g>
                <g id="그룹_4301" transform="translate(36.693 44.345)">
                    <path id="패스_252208" d="M-1286.268 2168.89a12.032 12.032 0 0 0-3.84-1.164 11.971 11.971 0 0 0-1.5-.1c-5.839 0-10.778 4.224-12.415 10.037 6.758 2 13.383-1.223 16.032-5.288a15.3 15.3 0 0 0 9.072 6.441 14.058 14.058 0 0 0-7.349-9.926z" class="cls-4" transform="translate(1304.027 -2167.628)"/>
                </g>
                <g id="그룹_4303" transform="translate(49.714 63.165)">
                    <g id="그룹_4302" transform="translate(.37 .391)">
                        <path id="패스_252209" d="M-1272.758 2247.009a6.189 6.189 0 0 0 .41-1.628h-5.105a6.188 6.188 0 0 0 .41 1.628 4.856 4.856 0 0 1 2.142-.439 4.856 4.856 0 0 1 2.143.439z" class="cls-33" transform="translate(1277.516 -2244.307)"/>
                        <path id="패스_252210" d="M-1272.479 2241.264h-5.23a7.788 7.788 0 0 0 .062 1.074h5.105a7.775 7.775 0 0 0 .063-1.074z" class="cls-3" transform="translate(1277.709 -2241.264)"/>
                        <path id="패스_252211" d="M-1273.644 2251.969a2.279 2.279 0 0 0 2.143-1.589 4.854 4.854 0 0 0-2.143-.439 4.852 4.852 0 0 0-2.142.439 2.279 2.279 0 0 0 2.142 1.589z" class="cls-34" transform="translate(1276.26 -2247.677)"/>
                    </g>
                    <path id="패스_252212" d="M-1276.225 2244.839a2.407 2.407 0 0 0 1.85-.806c1.2-1.317 1.137-3.785 1.134-3.89a.38.38 0 0 0-.369-.378h-5.23a.38.38 0 0 0-.369.378c0 .1-.068 2.573 1.134 3.89a2.409 2.409 0 0 0 1.85.806zm2.239-4.292a5.055 5.055 0 0 1-.921 2.943 1.694 1.694 0 0 1-1.318.566 1.693 1.693 0 0 1-1.318-.566 5.055 5.055 0 0 1-.922-2.943z" class="cls-13" transform="translate(1279.21 -2239.765)"/>
                </g>
                <g id="그룹_4307" transform="translate(0 116.994)">
                    <path id="패스_252213" d="M-1172.835 2446.089l21.9 7.551-3.877 7.445c-.9 3.488-5.93 5.514-9.792 8.705-4.6 3.8-9.7 6.321-13.94 3.481-10.794-7.234 1.462-18.088 4.532-20.5a58.093 58.093 0 0 0 1.177-6.682z" class="cls-29" transform="translate(1182.91 -2446.089)"/>
                    <path id="패스_252214" d="M-1173.671 2506.991c.978 5.491 3 10.611 7.585 9.67s1.479-10.333.861-13.095z" class="cls-29" transform="translate(1193.32 -2488.571)"/>
                    <g id="그룹_4306">
                        <g id="그룹_4305" clip-path="url(#clip-path-16)">
                            <g id="그룹_4304" transform="translate(-2.496 18.356)">
                                <ellipse id="타원_509569" cx="4.126" cy="4.371" class="cls-3" rx="4.126" ry="4.371"/>
                                <ellipse id="타원_509570" cx="4.126" cy="4.371" class="cls-3" rx="4.126" ry="4.371" transform="translate(5.465 3.211)"/>
                            </g>
                        </g>
                    </g>
                </g>
                <path id="패스_252215" d="M-1320.144 2371.585h.039a.386.386 0 0 0 .329-.43c-.553-5.623-1.02-11.694-1.472-17.565-.143-1.855-.285-3.706-.43-5.541a.377.377 0 0 0-.4-.358.386.386 0 0 0-.337.423c.145 1.834.287 3.685.43 5.539.452 5.875.92 11.95 1.474 17.583a.378.378 0 0 0 .367.349z" class="cls-13" transform="translate(1386.098 -2256.366)"/>
                <g id="그룹_4308" transform="translate(68.534 132.486)">
                    <path id="패스_252216" d="M-1372.421 2507.885c.6 5.551 1.568 11.978 6.91 10.222 4.463-1.467 2.409-8.334 1.98-11.135z" class="cls-29" transform="translate(1372.791 -2506.58)"/>
                    <path id="패스_252217" d="M-1368.321 2517.681a5.715 5.715 0 0 0 1.777-.311c4.188-1.377 3.113-6.947 2.471-10.275-.1-.5-.18-.931-.236-1.3a.371.371 0 0 0-.423-.324.39.39 0 0 0-.306.449c.058.381.143.819.241 1.327.63 3.267 1.583 8.2-1.966 9.371a3.553 3.553 0 0 1-3.294-.245c-2.086-1.44-2.695-5.556-3.14-9.648a.376.376 0 0 0-.409-.344.387.387 0 0 0-.325.434c.465 4.276 1.116 8.588 3.47 10.214a3.678 3.678 0 0 0 2.14.652z" class="cls-28" transform="translate(1373.933 -2505.47)"/>
                </g>
                <path id="패스_252218" d="M-1254.031 2775.323a.379.379 0 0 0 .368-.369c.6-11.031-2.889-14-3.038-14.12a.355.355 0 0 0-.518.073.407.407 0 0 0 .069.549c.031.026 3.327 2.9 2.75 13.454a.384.384 0 0 0 .348.413z" class="cls-13" transform="translate(1303.881 -2561.665)"/>
            </g>
        </g>
        <g id="그룹_4331" transform="translate(351.736 79.496)">
            <path id="패스_252219" d="M-1579.672 2373.5c-8.534-.529-9.767-16.6-3.972-33.042l16.016 1.363-2.465 28.961s-1.045 3.241-9.579 2.718z" class="cls-2" transform="translate(1628.608 -2315.493)"/>
            <path id="패스_252220" d="M-1492.05 2511.016l-11.85 3.984-9.868 25.4 9.775 3.936a10.321 10.321 0 0 0 13.629-6.254l5.339-15.718z" class="cls-31" transform="translate(1526.851 -2441.561)"/>
            <path id="패스_252221" d="M-1517.4 2414.261c-3.751 1.1-5.716 1.509-11.162 3.419-3.291 1.154-4.552 3.971-5.349 5.789-2.854 6.514-6.031 14.076-8.539 20.021 3.116 1.67 14.433 5.509 18.875 7.362l7.482-19.615" class="cls-4" transform="translate(1565.401 -2370.047)"/>
            <path id="패스_252222" d="M-1799.843 2750.04h21.47a9.674 9.674 0 0 0 4.417-1.067l1.59-.816a2.816 2.816 0 0 0 .558-4.635l-17.63-15.271a4.8 4.8 0 0 0-6.909.649l-7.822 9.877" class="cls-7" transform="translate(1888.411 -2601.259)"/>
            <path id="패스_252223" d="M-1732.664 2634.024c-.251 10.3-1.006 18.568-1.078 28.873-.083 11.819 3.279 18.364 17 18.364h18.477c6.423 0 10.642-5.344 10.381-11.762 0-.105-.009-.212-.015-.319-.307-5.972-4.389-10.627-10.37-10.627h-9.311" class="cls-13" transform="translate(1787.081 -2532.48)"/>
            <path id="패스_252224" d="M-1623.615 2602.992c.842-9.9 1.856-15.685 2.36-26.1a32.266 32.266 0 0 0-.392-6.823l-3.016-18.251-39.281.673c-.251 10.3-1.685 28.687-1.685 44.814 0 21.448 5.831 23.662 24.275 21.766" class="cls-13" transform="translate(1702.654 -2471.715)"/>
            <g id="그룹_4315" transform="translate(38.06)">
                <g id="그룹_4310" transform="translate(0 33.163)">
                    <path id="패스_252225" d="M-1622.53 2453.385c-15.265 1.413-33.538 1.733-43.475 1.733.685-10.133 1.3-22.329 2.731-34.942l7.206-5.914h14.9l14.809 9.873c1.213 6.781 3 22.412 3.832 29.25" class="cls-4" transform="translate(1666.005 -2403.209)"/>
                    <path id="패스_252226" d="M-1696.956 2420.369l14.9-6.108a69.091 69.091 0 0 1 12.781 2.131c6.517 1.936 9.432 10.581 13.935 22.358l-18.4 6.882-4.878-9.464" class="cls-4" transform="translate(1706.893 -2403.209)"/>
                    <path id="사각형_688" d="M0 0H14.897V11.052H0z" class="cls-31" transform="translate(10.117)"/>
                    <g id="그룹_4309" transform="translate(10.117 .717)">
                        <path id="패스_252227" fill="#ff6679" d="M-1595.928 2374.645v3.813a21.9 21.9 0 0 0 7.628 1.42 20.03 20.03 0 0 0 7.448-1.036v-4.2z" transform="translate(1595.928 -2374.645)"/>
                    </g>
                </g>
                <g id="그룹_4311" transform="translate(1.649 2.653)">
                    <circle id="타원_509571" cx="17.976" cy="17.976" r="17.976" class="cls-31"/>
                </g>
                <path id="패스_252228" d="M-1616.055 2260c-.811-6.2-5.145-10.994-11.677-13.4-14.631-4.853-25.417.555-28.387 9.184-.978 2.842-.058 4.42 1.76 4.416 4.327-.011 10.824.153 15.7 1.342a9.729 9.729 0 0 1 7.007 12.19c-2.615 9.236-3.72 17.29-2.933 22.351 1.892 12.166 16.889 3.669 17.427-1.017.507-4.421-1.91-7.182-3.156-11.251-1.495-4.881 1.2-8.04 3.013-12.292a22.675 22.675 0 0 0 1.246-11.523z" class="cls-2" transform="translate(1656.823 -2244.771)"/>
                <g id="그룹_4314" transform="translate(4.86 20.028)">
                    <circle id="타원_509572" cx=".993" cy=".993" r=".993" class="cls-13"/>
                    <circle id="타원_509573" cx=".993" cy=".993" r=".993" class="cls-13" transform="translate(10.72 .993)"/>
                    <g id="그룹_4313" transform="translate(2.507 5.454)">
                        <g id="그룹_4312" transform="translate(.394 .391)">
                            <path id="패스_252229" d="M-1548.84 2351.742a7.361 7.361 0 0 0 .75-1.96l-6.7-.7a7.342 7.342 0 0 0 .326 2.073 6.729 6.729 0 0 1 2.868-.248 6.727 6.727 0 0 1 2.756.835z" class="cls-33" transform="translate(1554.791 -2347.74)"/>
                            <path id="패스_252230" d="M-1548.713 2344.669l-3.43-.361-3.43-.361a9.13 9.13 0 0 0-.058 1.338l6.7.7a9.126 9.126 0 0 0 .218-1.316z" class="cls-3" transform="translate(1555.635 -2343.948)"/>
                            <path id="패스_252231" d="M-1549.308 2358.446a2.989 2.989 0 0 0 3.018-1.672 6.718 6.718 0 0 0-2.754-.839 6.726 6.726 0 0 0-2.868.248 2.988 2.988 0 0 0 2.604 2.263z" class="cls-34" transform="translate(1552.241 -2352.772)"/>
                        </g>
                        <path id="패스_252232" d="M-1553.446 2348.926a3.115 3.115 0 0 0 2.057-.743c1.717-1.438 1.95-4.465 1.96-4.593a.392.392 0 0 0-.35-.417l-3.43-.361-3.431-.361a.394.394 0 0 0-.428.335c-.018.127-.418 3.136.962 4.9a3.176 3.176 0 0 0 2.257 1.218 4 4 0 0 0 .403.022zm3.192-5.016a6.255 6.255 0 0 1-1.639 3.675 2.386 2.386 0 0 1-1.875.542 2.386 2.386 0 0 1-1.721-.919 6.252 6.252 0 0 1-.839-3.936z" class="cls-13" transform="translate(1557.136 -2342.45)"/>
                    </g>
                </g>
            </g>
            <g id="그룹_4327" transform="translate(0 39.476)">
                <g id="그룹_4326">
                    <path id="패스_252233" d="M-1752.129 2682.848s4.322 18.739 28.244 26.164c1.473.573.382 2.027-.7 2.46-15.865 2.851-33.927-7.048-35.234-12.954l2.895-13.858" class="cls-6" transform="translate(1829.18 -2608.043)"/>
                    <path id="패스_252234" d="M-1462.784 2681.294l-3.378 10.891c-.981 3.165.524 6.443 5.312 7.928s7.885-.367 8.866-3.531l3.378-10.892z" class="cls-6" transform="translate(1478.082 -2606.895)"/>
                    <g id="그룹_4317" transform="translate(11.636 74.399)">
                        <g id="그룹_4316" clip-path="url(#clip-path-17)">
                            <circle id="타원_509574" cx="3.895" cy="3.895" r="3.895" class="cls-7" transform="translate(-3.386 11.723)"/>
                            <circle id="타원_509575" cx="3.895" cy="3.895" r="3.895" class="cls-7" transform="translate(2.614 13.584)"/>
                        </g>
                    </g>
                    <path id="패스_252235" d="M-1596.573 2722.783l-3.378 10.891c-.981 3.165.524 6.443 5.312 7.928s7.884-.367 8.865-3.531l3.378-10.892z" class="cls-6" transform="translate(1646.772 -2637.56)"/>
                    <g id="그룹_4319" transform="translate(46.537 85.223)">
                        <g id="그룹_4318" clip-path="url(#clip-path-18)">
                            <circle id="타원_509576" cx="3.895" cy="3.895" r="3.895" class="cls-7" transform="translate(-3.386 11.724)"/>
                            <circle id="타원_509577" cx="3.895" cy="3.895" r="3.895" class="cls-7" transform="translate(2.614 13.584)"/>
                        </g>
                    </g>
                    <path id="패스_252236" d="M-1583.743 2688.623a84.916 84.916 0 0 1-1.894 9.8c-6.775 3.489-16.231 2.4-30.845-3.519l3.725-12.012" class="cls-10" transform="translate(1652.359 -2608.074)"/>
                    <g id="그룹_4320" transform="translate(15.298 49.923)">
                        <path id="패스_252237" d="M-1611.651 2589.359c-22.66-7.027-35.166 6.634-40.112 22.584l60.408 18.733c4.947-15.95 2.365-34.29-20.296-41.317z" class="cls-10" transform="translate(1651.763 -2587.467)"/>
                    </g>
                    <path id="패스_252238" d="M-1632.5 2721.739a.391.391 0 0 0 .391-.392c0-4.215-2.329-7.22-6.078-7.841-4.666-.775-8.232 1.359-9.54 5.7a.391.391 0 0 0 .262.488.392.392 0 0 0 .488-.262c1.706-5.669 6.626-5.5 8.663-5.159 3.4.563 5.423 3.206 5.423 7.07a.391.391 0 0 0 .391.396z" class="cls-6" transform="translate(1708.884 -2630.587)"/>
                    <path id="패스_252239" d="M-1491.189 2649.417s-5.68 5.118-6.671 8.316c2.486 7.258 10.627 9.342 18.648 11.829l3.725-12.012" class="cls-10" transform="translate(1513.158 -2583.333)"/>
                    <path id="패스_252240" d="M-1506.21 2694.761l-3.378 10.891c-.981 3.164.524 6.443 5.312 7.928s7.884-.367 8.866-3.531l3.377-10.892z" class="cls-10" transform="translate(1532.837 -2616.849)"/>
                    <path id="패스_252241" d="M-1497.738 2683.119a.392.392 0 0 0 .375-.279c1.3-4.338-.195-8.1-1.675-9.388a8.365 8.365 0 0 0-6.014-1.94c-2.014.133-5.634 1.182-7.239 6.71a.391.391 0 0 0 .267.485.391.391 0 0 0 .485-.267c1.4-4.816 4.328-6 6.539-6.147a7.586 7.586 0 0 1 5.449 1.75c1.284 1.116 2.629 4.612 1.439 8.572a.392.392 0 0 0 .262.488.4.4 0 0 0 .112.016z" class="cls-6" transform="translate(1538.304 -2599.651)"/>
                    <g id="그룹_4322" transform="translate(22.964 77.913)">
                        <g id="그룹_4321" clip-path="url(#clip-path-19)">
                            <circle id="타원_509578" cx="3.895" cy="3.895" r="3.895" class="cls-3" transform="translate(-3.386 11.723)"/>
                            <circle id="타원_509579" cx="3.895" cy="3.895" r="3.895" class="cls-3" transform="translate(2.614 13.584)"/>
                        </g>
                    </g>
                    <path id="패스_252242" d="M-1640 2736.25l-3.378 10.892c-.981 3.164.524 6.443 5.312 7.928s7.885-.367 8.866-3.531l3.377-10.892z" class="cls-10" transform="translate(1701.528 -2647.514)"/>
                    <g id="그룹_4324" transform="translate(57.866 88.736)">
                        <g id="그룹_4323" clip-path="url(#clip-path-20)">
                            <circle id="타원_509580" cx="3.895" cy="3.895" r="3.895" class="cls-3" transform="translate(-3.386 11.724)"/>
                            <circle id="타원_509581" cx="3.895" cy="3.895" r="3.895" class="cls-3" transform="translate(2.614 13.584)"/>
                        </g>
                    </g>
                    <path id="패스_252243" d="M-1455.72 2701.74a.391.391 0 0 0 .374-.275l1.474-4.754a.391.391 0 0 0-.258-.489.389.389 0 0 0-.49.258l-1.474 4.754a.391.391 0 0 0 .258.49.384.384 0 0 0 .116.016z" class="cls-6" transform="translate(1480.635 -2617.915)"/>
                    <path id="패스_252244" d="M-1510.068 2718.594a.391.391 0 0 0 .373-.276l1.474-4.753a.391.391 0 0 0-.258-.49.391.391 0 0 0-.49.258l-1.474 4.753a.39.39 0 0 0 .258.489.385.385 0 0 0 .117.019z" class="cls-6" transform="translate(1549.16 -2630.372)"/>
                    <path id="패스_252245" d="M-1590.423 2738.986a.391.391 0 0 0 .374-.275l1.071-3.453a.391.391 0 0 0-.258-.49.391.391 0 0 0-.49.258l-1.071 3.453a.39.39 0 0 0 .258.489.377.377 0 0 0 .116.018z" class="cls-6" transform="translate(1650.881 -2646.406)"/>
                    <path id="패스_252246" d="M-1479.479 2473.059c-7.554-12.2-4.9-29.6-3.718-41s1.85-15.251 1.85-15.251-14.228-.391-14.652-9.916c-.474-10.642 14.865-12.482 23.133-9.525s9.929 9.317 9.828 20.711c-.093 10.492-1.451 25.818 4.216 28.718l-5.272 13.533" class="cls-10" transform="translate(1496.011 -2396.095)"/>
                    <g id="그룹_4325" transform="translate(1.226 5.446)">
                        <circle id="타원_509582" cx="1.177" cy="1.177" r="1.177" class="cls-13" transform="translate(12.555 1.178)"/>
                        <circle id="타원_509583" cx="1.177" cy="1.177" r="1.177" class="cls-13" transform="translate(7.734)"/>
                        <path id="패스_252247" d="M-1380.662 2438.479a4.562 4.562 0 0 0 3.232-1.506.392.392 0 0 0-.014-.553.391.391 0 0 0-.553.014 3.473 3.473 0 0 1-3.495 1.125c-1.034-.361-1.678-1.418-1.813-2.975a.392.392 0 0 0-.423-.356.391.391 0 0 0-.356.424c.221 2.539 1.557 3.374 2.335 3.646a3.289 3.289 0 0 0 1.087.181z" class="cls-13" transform="translate(1384.088 -2429.726)"/>
                    </g>
                </g>
                <ellipse id="타원_509584" cx="2.047" cy="1.179" class="cls-3" rx="2.047" ry="1.179" transform="scale(-1) rotate(43.22 -3.306 -39.37)"/>
            </g>
            <g id="그룹_4328" transform="translate(37.422 88.892)">
                <path id="패스_252248" d="M-1606.9 2594.136a3.2 3.2 0 0 1-2.046-1.335 78.238 78.238 0 0 1 10.193-4.953 69.426 69.426 0 0 1 13.818-2.325c5.83 2.431 5.2 11.128 5.2 11.128s-1.988 1.9-7.9 2.255c-4.955 2-11.873 2.214-14.46-.086a5.644 5.644 0 0 1-3.548-2.038l.189-.1a7.2 7.2 0 0 1-2.53-2c.365-.182.727-.372 1.084-.546z" class="cls-31" transform="translate(1608.945 -2585.523)"/>
                <path id="패스_252249" d="M-1560.073 2625.956a.4.4 0 0 0 .136-.024l9.344-3.467a.391.391 0 0 0 .231-.5.393.393 0 0 0-.5-.231l-9.344 3.467a.391.391 0 0 0-.231.5.392.392 0 0 0 .364.255z" class="cls-41" transform="translate(1566.918 -2612.267)"/>
                <path id="패스_252250" d="M-1545.834 2616.618a.393.393 0 0 0 .155-.032l8.989-3.875a.391.391 0 0 0 .2-.514.392.392 0 0 0-.514-.205l-8.989 3.875a.391.391 0 0 0-.2.514.39.39 0 0 0 .359.237z" class="cls-41" transform="translate(1549.321 -2605.064)"/>
                <path id="패스_252251" d="M-1542.226 2606.856a.382.382 0 0 0 .143-.028l9.334-3.685a.392.392 0 0 0 .22-.508.391.391 0 0 0-.508-.22l-9.334 3.685a.391.391 0 0 0-.22.508.392.392 0 0 0 .365.248z" class="cls-41" transform="translate(1544.426 -2597.989)"/>
            </g>
            <path id="패스_252252" d="M-1694.662 2559.372l20.266-9.229 7.31 14.648s-15.951 6.62-24.406 6.145z" class="cls-31" transform="translate(1756.096 -2470.481)"/>
            <path id="패스_252253" d="M-1709.093 2526.641l-5.062-11.625 18.4-6.882s10.483 22.521-.6 25.607z" class="cls-31" transform="translate(1785.365 -2439.431)"/>
            <g id="그룹_4330" transform="translate(.882 81.119)">
                <g id="그룹_4329">
                    <path id="패스_252254" d="M-1407.09 2571.02c-.471-1.677-1.223-1.463-2.739-1.276 1.761-.631 2.333-1.648 2.083-2.825-.362-1.7-1.588-2.165-3.1-1.98 1.762-.631 2.333-1.647 2.083-2.824a2.4 2.4 0 0 0-2.886-2 2.183 2.183 0 0 0 1.371-2.519c-.466-2.2-3.055-2.117-5.162-1.456s-3.216.771-6.146 1.853a5.222 5.222 0 0 0-3.009 3.16c-.592 3.656 1.394 13.194 6.323 15.267.862.362 1.4.251 3.361-.22a37.74 37.74 0 0 0 5.659-2.114c1.931-.749 2.504-1.849 2.162-3.066z" class="cls-31" transform="translate(1424.701 -2555.729)"/>
                    <path id="패스_252255" d="M-1408.529 2573.961a.4.4 0 0 0 .114-.017l8.05-2.46a.392.392 0 0 0 .26-.489.391.391 0 0 0-.489-.26l-8.05 2.461a.391.391 0 0 0-.26.488.391.391 0 0 0 .375.277z" class="cls-41" transform="translate(1413.675 -2566.808)"/>
                    <path id="패스_252256" d="M-1411.113 2592.38a.378.378 0 0 0 .12-.019l6.487-2.081a.391.391 0 0 0 .253-.492.392.392 0 0 0-.492-.253l-6.487 2.082a.391.391 0 0 0-.253.492.391.391 0 0 0 .372.271z" class="cls-41" transform="translate(1418.496 -2580.702)"/>
                    <path id="패스_252257" d="M-1415.053 2610.926a.392.392 0 0 0 .126-.021l6.828-2.319a.391.391 0 0 0 .245-.5.391.391 0 0 0-.5-.244l-6.828 2.319a.392.392 0 0 0-.245.5.391.391 0 0 0 .374.265z" class="cls-41" transform="translate(1423.122 -2594.235)"/>
                </g>
            </g>
            <path id="패스_252258" d="M-1507.251 2493.066a.392.392 0 0 0 .39-.366l.064-1c.365-5.747.779-12.259 1.355-18.883a.391.391 0 0 0-.356-.424.393.393 0 0 0-.424.356c-.578 6.633-.992 13.151-1.357 18.9l-.064 1a.391.391 0 0 0 .366.415z" class="cls-41" transform="translate(1545.663 -2413.013)"/>
            <path id="패스_252259" d="M-1622.654 2506.985a.394.394 0 0 0 .179-.043.391.391 0 0 0 .168-.527l-4.878-9.464a.393.393 0 0 0-.527-.168.392.392 0 0 0-.168.527l4.878 9.463a.392.392 0 0 0 .348.212z" class="cls-41" transform="translate(1693.863 -2431.009)"/>
            <path id="패스_252260" d="M-1528.988 2311.7a.392.392 0 0 0 .387-.334.391.391 0 0 0-.329-.445l-2.482-.37a.389.389 0 0 0-.444.33.39.39 0 0 0 .329.444l2.482.37a.339.339 0 0 0 .057.005z" class="cls-13" transform="translate(1575.138 -2293.39)"/>
            <path id="패스_252261" d="M-1566.459 2316.871a.391.391 0 0 0 .39-.367.392.392 0 0 0-.367-.415l-2.579-.158a.392.392 0 0 0-.415.366.391.391 0 0 0 .367.415l2.579.158z" class="cls-13" transform="translate(1622.409 -2297.368)"/>
        </g>
    </g>
</svg>
