<svg xmlns="http://www.w3.org/2000/svg" id="prefix__ai_icon_3" width="124" height="124" viewBox="0 0 124 124">
    <defs>
        <style>
            .prefix__cls-1{fill:#fff}.prefix__cls-5{fill:none;stroke:#181f41;stroke-linecap:round;stroke-linejoin:round;stroke-width:2px}.prefix__cls-6{fill:#50505f;fill-rule:evenodd}
        </style>
    </defs>
    <circle id="prefix__illust_3-4" cx="62" cy="62" r="62" class="prefix__cls-1"/>
    <g id="prefix__그룹_1342" transform="translate(-100 -131.979)">
        <g id="prefix__그룹_1341">
            <path id="prefix__사각형_426" d="M131 158.979h26.08a4 4 0 0 1 4 4v17.966a4 4 0 0 1-4 4H131a4 4 0 0 1-4-4v-17.966a4 4 0 0 1 4-4z" style="fill:#0ea"/>
            <path id="prefix__사각형_427" d="M167.92 187.055H194a4 4 0 0 1 4 4v17.966a4 4 0 0 1-4 4h-26.08a4 4 0 0 1-4-4v-17.966a4 4 0 0 1 4-4z" style="fill:#434dfe"/>
            <g id="prefix__그룹_1337">
                <path id="prefix__패스_1852" d="M182.337 195.223l4.017 10.356a1 1 0 0 1-.453 1.34 1.013 1.013 0 0 1-.19.071 1.094 1.094 0 0 1-1.462-.507 1.138 1.138 0 0 1-.055-.136l-1.036-2.857h-4.5l-1.053 2.928a1.01 1.01 0 0 1-1.277.637.954.954 0 0 1-.151-.065.931.931 0 0 1-.7-1.118.981.981 0 0 1 .072-.2l4.017-10.446a1.353 1.353 0 0 1 1.375-1.053 1.372 1.372 0 0 1 1.396 1.05zm-2.054 3.785l-.946 2.589h3.143l-.929-2.589c-.3-.839-.464-1.357-.643-1.982-.196.715-.339 1.161-.625 1.982z" class="prefix__cls-1"/>
            </g>
            <g id="prefix__그룹_1338">
                <path id="prefix__패스_1853" d="M148.319 169.623a14.515 14.515 0 0 1-2.741 4.685 12.306 12.306 0 0 0 4.1 1.917.51.51 0 0 1 .286.8 11.442 11.442 0 0 0-.687 1.006.513.513 0 0 1-.58.227 12.864 12.864 0 0 1-4.772-2.409 15.094 15.094 0 0 1-4.667 2.424.515.515 0 0 1-.608-.235c-.166-.291-.385-.634-.6-.942a.509.509 0 0 1 .137-.708.538.538 0 0 1 .152-.07 13.268 13.268 0 0 0 4.108-1.932 16.413 16.413 0 0 1-2.662-4.765h-1.364a.512.512 0 0 1-.512-.512v-.867a.512.512 0 0 1 .512-.512h4.6v-1.51a.512.512 0 0 1 .512-.512h.972a.512.512 0 0 1 .512.512v1.51h4.665a.512.512 0 0 1 .512.512v.867a.512.512 0 0 1-.512.512zm-6.361 0a11.053 11.053 0 0 0 2.089 3.327 10.737 10.737 0 0 0 1.983-3.327z" style="fill:#181f41"/>
            </g>
            <g id="prefix__그룹_1339">
                <path id="prefix__패스_1854" d="M182.583 180.077V177.5a5.147 5.147 0 0 0-5.147-5.147h-9.007" class="prefix__cls-5"/>
                <path id="prefix__패스_1855" d="M171.223 176l-3.639-3.639 3.639-3.64" class="prefix__cls-5"/>
            </g>
            <g id="prefix__그룹_1340">
                <path id="prefix__패스_1856" d="M141.618 191.437v2.573a5.146 5.146 0 0 0 5.145 5.147h9.009" class="prefix__cls-5"/>
                <path id="prefix__패스_1857" d="M152.978 195.518l3.639 3.64-3.639 3.639" class="prefix__cls-5"/>
            </g>
        </g>
    </g>
    <g id="prefix__그룹_1718" data-name="그룹 1718">
        <path id="prefix__패스_2612" d="M53.192 96.009a1.157 1.157 0 1 0 1.151-1.249 1.158 1.158 0 0 0-1.151 1.249m3.546 0a2.231 2.231 0 0 1-2.168 2.385 1.619 1.619 0 0 1-1.318-.589v2.256h-1.2v-6.315h1.179v.5a1.611 1.611 0 0 1 1.336-.622 2.238 2.238 0 0 1 2.173 2.385m1.715 0a1.159 1.159 0 1 0 1.156-1.249 1.161 1.161 0 0 0-1.158 1.249zm2.274 2.267v-.5a1.631 1.631 0 0 1-1.341.617 2.4 2.4 0 0 1 0-4.77 1.621 1.621 0 0 1 1.341.622v-.5h1.18v4.531zm3.115-2.267a1.157 1.157 0 1 0 1.151-1.249 1.158 1.158 0 0 0-1.151 1.249m3.546 0a2.232 2.232 0 0 1-2.169 2.385 1.62 1.62 0 0 1-1.318-.589v2.256H62.7v-6.315h1.179v.5a1.611 1.611 0 0 1 1.336-.622 2.238 2.238 0 0 1 2.173 2.385m1.714 0a1.159 1.159 0 1 0 1.156-1.249 1.161 1.161 0 0 0-1.158 1.249zm2.275 2.267v-.5a1.631 1.631 0 0 1-1.341.617 2.4 2.4 0 0 1 0-4.77 1.621 1.621 0 0 1 1.341.622v-.5h1.179v4.531zm3-2.338a1.128 1.128 0 1 0 1.129-1.192 1.119 1.119 0 0 0-1.129 1.192m2.21-1.688v-.5h1.184v4.071a2.2 2.2 0 0 1-2.418 2.333A3.523 3.523 0 0 1 73.4 99.6l.43-1a2.619 2.619 0 0 0 1.48.463 1.147 1.147 0 0 0 1.276-1.2v-.231a1.683 1.683 0 0 1-1.378.613 2.328 2.328 0 0 1 0-4.625 1.677 1.677 0 0 1 1.387.626m3 1.759a1.192 1.192 0 1 0 1.188-1.249 1.179 1.179 0 0 0-1.188 1.249m3.615 0a2.423 2.423 0 1 1-2.427-2.385 2.343 2.343 0 0 1 2.427 2.385" class="prefix__cls-6" data-name="패스 2612"/>
        <g id="prefix__그룹_1717" data-name="그룹 1717" transform="translate(0 .035)">
            <path id="prefix__패스_2613" d="M48 96.016c-.795 0-2.29.009-2.29.009v-4.856h-.35a11.892 11.892 0 0 1-3.281-.2 1.609 1.609 0 0 0 .887 1.3 4.109 4.109 0 0 0-1 3.034 13.594 13.594 0 0 1-.248 2.734 11.766 11.766 0 0 1-.921 2.723 3.424 3.424 0 0 0 1.446.039v1.169c3.122 0 5.756-1.857 5.756-5.313v-.637" data-name="패스 2613" style="fill:#00a2ff;fill-rule:evenodd"/>
        </g>
        <path id="prefix__패스_2614" d="M45.707 94.834v2.307A2.949 2.949 0 0 0 48 96.05l-2.289-1.216" data-name="패스 2614" style="fill:#ffc600;fill-rule:evenodd"/>
        <path id="prefix__패스_2615" d="M45.707 97.142a2.5 2.5 0 0 1 0-5.009z" data-name="패스 2615" style="fill:#fafdfd;fill-rule:evenodd"/>
        <path id="prefix__패스_2616" d="M45.147 94.255a.575.575 0 0 1-.573.579.579.579 0 1 1 .573-.579" class="prefix__cls-6" data-name="패스 2616"/>
        <path id="prefix__패스_2617" d="M47.125 91.518a3.357 3.357 0 0 0-1.418-.315v3.631H49.1v-.2a3.435 3.435 0 0 0-1.975-3.117" data-name="패스 2617" style="fill:#1eda69;fill-rule:evenodd"/>
        <path id="prefix__패스_2618" d="M45 98.525a3.618 3.618 0 0 1-2.762 2.311V102a3.538 3.538 0 0 0 2.768-3.467" data-name="패스 2618" style="fill:#0087ff;fill-rule:evenodd"/>
    </g>
</svg>
