<svg xmlns="http://www.w3.org/2000/svg" id="prefix__data_graphic-2" width="307" height="184" viewBox="0 0 307 184">
    <defs>
        <style>
            .prefix__cls-1{fill:#fff}.prefix__cls-2{fill:#434dfe}.prefix__cls-3{opacity:.5}.prefix__cls-4{fill:#da478f}
        </style>
    </defs>
    <g id="prefix__그룹_1070">
        <path id="prefix__사각형_394" d="M10 0h287a10 10 0 0 1 10 10v164a10 10 0 0 1-10 10H10a10 10 0 0 1-10-10V10A10 10 0 0 1 10 0z" class="prefix__cls-1"/>
    </g>
    <g id="prefix__그룹_1071">
        <path id="prefix__패스_1591" d="M307 157.5H23.5a.5.5 0 0 1-.5-.5V0h1v156.5h283z" class="prefix__cls-2"/>
    </g>
    <g id="prefix__그룹_1072" class="prefix__cls-3">
        <path id="prefix__패스_1592" d="M303 20.11a.5.5 0 0 1 .5-.5.5.5 0 0 1 .5.5.5.5 0 0 1-.5.5.5.5 0 0 1-.5-.5zm-4 0a.5.5 0 0 1 .5-.5.5.5 0 0 1 .5.5.5.5 0 0 1-.5.5.5.5 0 0 1-.5-.5zm-4 0a.5.5 0 0 1 .5-.5.5.5 0 0 1 .5.5.5.5 0 0 1-.5.5.5.5 0 0 1-.5-.5zm-4 0a.5.5 0 0 1 .5-.5.5.5 0 0 1 .5.5.5.5 0 0 1-.5.5.5.5 0 0 1-.5-.5zm-4 0a.5.5 0 0 1 .5-.5.5.5 0 0 1 .5.5.5.5 0 0 1-.5.5.5.5 0 0 1-.5-.5zm-4 0a.5.5 0 0 1 .5-.5.5.5 0 0 1 .5.5.5.5 0 0 1-.5.5.5.5 0 0 1-.5-.5zm-4 0a.5.5 0 0 1 .5-.5.5.5 0 0 1 .5.5.5.5 0 0 1-.5.5.5.5 0 0 1-.5-.5zm-4 0a.5.5 0 0 1 .5-.5.5.5 0 0 1 .5.5.5.5 0 0 1-.5.5.5.5 0 0 1-.5-.5zm-4 0a.5.5 0 0 1 .5-.5.5.5 0 0 1 .5.5.5.5 0 0 1-.5.5.5.5 0 0 1-.5-.5zm-4 0a.5.5 0 0 1 .5-.5.5.5 0 0 1 .5.5.5.5 0 0 1-.5.5.5.5 0 0 1-.5-.5zm-4 0a.5.5 0 0 1 .5-.5.5.5 0 0 1 .5.5.5.5 0 0 1-.5.5.5.5 0 0 1-.5-.5zm-4 0a.5.5 0 0 1 .5-.5.5.5 0 0 1 .5.5.5.5 0 0 1-.5.5.5.5 0 0 1-.5-.5zm-4 0a.5.5 0 0 1 .5-.5.5.5 0 0 1 .5.5.5.5 0 0 1-.5.5.5.5 0 0 1-.5-.5zm-4 0a.5.5 0 0 1 .5-.5.5.5 0 0 1 .5.5.5.5 0 0 1-.5.5.5.5 0 0 1-.5-.5zm-4 0a.5.5 0 0 1 .5-.5.5.5 0 0 1 .5.5.5.5 0 0 1-.5.5.5.5 0 0 1-.5-.5zm-4 0a.5.5 0 0 1 .5-.5.5.5 0 0 1 .5.5.5.5 0 0 1-.5.5.5.5 0 0 1-.5-.5zm-4 0a.5.5 0 0 1 .5-.5.5.5 0 0 1 .5.5.5.5 0 0 1-.5.5.5.5 0 0 1-.5-.5zm-4 0a.5.5 0 0 1 .5-.5.5.5 0 0 1 .5.5.5.5 0 0 1-.5.5.5.5 0 0 1-.5-.5zm-4 0a.5.5 0 0 1 .5-.5.5.5 0 0 1 .5.5.5.5 0 0 1-.5.5.5.5 0 0 1-.5-.5zm-4 0a.5.5 0 0 1 .5-.5.5.5 0 0 1 .5.5.5.5 0 0 1-.5.5.5.5 0 0 1-.5-.5zm-4 0a.5.5 0 0 1 .5-.5.5.5 0 0 1 .5.5.5.5 0 0 1-.5.5.5.5 0 0 1-.5-.5zm-4 0a.5.5 0 0 1 .5-.5.5.5 0 0 1 .5.5.5.5 0 0 1-.5.5.5.5 0 0 1-.5-.5zm-4 0a.5.5 0 0 1 .5-.5.5.5 0 0 1 .5.5.5.5 0 0 1-.5.5.5.5 0 0 1-.5-.5zm-4 0a.5.5 0 0 1 .5-.5.5.5 0 0 1 .5.5.5.5 0 0 1-.5.5.5.5 0 0 1-.5-.5zm-4 0a.5.5 0 0 1 .5-.5.5.5 0 0 1 .5.5.5.5 0 0 1-.5.5.5.5 0 0 1-.5-.5zm-4 0a.5.5 0 0 1 .5-.5.5.5 0 0 1 .5.5.5.5 0 0 1-.5.5.5.5 0 0 1-.5-.5zm-4 0a.5.5 0 0 1 .5-.5.5.5 0 0 1 .5.5.5.5 0 0 1-.5.5.5.5 0 0 1-.5-.5zm-4 0a.5.5 0 0 1 .5-.5.5.5 0 0 1 .5.5.5.5 0 0 1-.5.5.5.5 0 0 1-.5-.5zm-4 0a.5.5 0 0 1 .5-.5.5.5 0 0 1 .5.5.5.5 0 0 1-.5.5.5.5 0 0 1-.5-.5zm-4 0a.5.5 0 0 1 .5-.5.5.5 0 0 1 .5.5.5.5 0 0 1-.5.5.5.5 0 0 1-.5-.5zm-4 0a.5.5 0 0 1 .5-.5.5.5 0 0 1 .5.5.5.5 0 0 1-.5.5.5.5 0 0 1-.5-.5zm-4 0a.5.5 0 0 1 .5-.5.5.5 0 0 1 .5.5.5.5 0 0 1-.5.5.5.5 0 0 1-.5-.5zm-4 0a.5.5 0 0 1 .5-.5.5.5 0 0 1 .5.5.5.5 0 0 1-.5.5.5.5 0 0 1-.5-.5zm-4 0a.5.5 0 0 1 .5-.5.5.5 0 0 1 .5.5.5.5 0 0 1-.5.5.5.5 0 0 1-.5-.5zm-4 0a.5.5 0 0 1 .5-.5.5.5 0 0 1 .5.5.5.5 0 0 1-.5.5.5.5 0 0 1-.5-.5zm-4 0a.5.5 0 0 1 .5-.5.5.5 0 0 1 .5.5.5.5 0 0 1-.5.5.5.5 0 0 1-.5-.5zm-4 0a.5.5 0 0 1 .5-.5.5.5 0 0 1 .5.5.5.5 0 0 1-.5.5.5.5 0 0 1-.5-.5zm-4 0a.5.5 0 0 1 .5-.5.5.5 0 0 1 .5.5.5.5 0 0 1-.5.5.5.5 0 0 1-.5-.5zm-4 0a.5.5 0 0 1 .5-.5.5.5 0 0 1 .5.5.5.5 0 0 1-.5.5.5.5 0 0 1-.5-.5zm-4 0a.5.5 0 0 1 .5-.5.5.5 0 0 1 .5.5.5.5 0 0 1-.5.5.5.5 0 0 1-.5-.5zm-4 0a.5.5 0 0 1 .5-.5.5.5 0 0 1 .5.5.5.5 0 0 1-.5.5.5.5 0 0 1-.5-.5zm-4 0a.5.5 0 0 1 .5-.5.5.5 0 0 1 .5.5.5.5 0 0 1-.5.5.5.5 0 0 1-.5-.5zm-4 0a.5.5 0 0 1 .5-.5.5.5 0 0 1 .5.5.5.5 0 0 1-.5.5.5.5 0 0 1-.5-.5zm-4 0a.5.5 0 0 1 .5-.5.5.5 0 0 1 .5.5.5.5 0 0 1-.5.5.5.5 0 0 1-.5-.5zm-4 0a.5.5 0 0 1 .5-.5.5.5 0 0 1 .5.5.5.5 0 0 1-.5.5.5.5 0 0 1-.5-.5zm-4 0a.5.5 0 0 1 .5-.5.5.5 0 0 1 .5.5.5.5 0 0 1-.5.5.5.5 0 0 1-.5-.5zm-4 0a.5.5 0 0 1 .5-.5.5.5 0 0 1 .5.5.5.5 0 0 1-.5.5.5.5 0 0 1-.5-.5zm-4 0a.5.5 0 0 1 .5-.5.5.5 0 0 1 .5.5.5.5 0 0 1-.5.5.5.5 0 0 1-.5-.5zm-4 0a.5.5 0 0 1 .5-.5.5.5 0 0 1 .5.5.5.5 0 0 1-.5.5.5.5 0 0 1-.5-.5zm-4 0a.5.5 0 0 1 .5-.5.5.5 0 0 1 .5.5.5.5 0 0 1-.5.5.5.5 0 0 1-.5-.5zm-4 0a.5.5 0 0 1 .5-.5.5.5 0 0 1 .5.5.5.5 0 0 1-.5.5.5.5 0 0 1-.5-.5zm-4 0a.5.5 0 0 1 .5-.5.5.5 0 0 1 .5.5.5.5 0 0 1-.5.5.5.5 0 0 1-.5-.5zm-4 0a.5.5 0 0 1 .5-.5.5.5 0 0 1 .5.5.5.5 0 0 1-.5.5.5.5 0 0 1-.5-.5zm-4 0a.5.5 0 0 1 .5-.5.5.5 0 0 1 .5.5.5.5 0 0 1-.5.5.5.5 0 0 1-.5-.5zm-4 0a.5.5 0 0 1 .5-.5.5.5 0 0 1 .5.5.5.5 0 0 1-.5.5.5.5 0 0 1-.5-.5zm-4 0a.5.5 0 0 1 .5-.5.5.5 0 0 1 .5.5.5.5 0 0 1-.5.5.5.5 0 0 1-.5-.5zm-4 0a.5.5 0 0 1 .5-.5.5.5 0 0 1 .5.5.5.5 0 0 1-.5.5.5.5 0 0 1-.5-.5zm-4 0a.5.5 0 0 1 .5-.5.5.5 0 0 1 .5.5.5.5 0 0 1-.5.5.5.5 0 0 1-.5-.5zm-4 0a.5.5 0 0 1 .5-.5.5.5 0 0 1 .5.5.5.5 0 0 1-.5.5.5.5 0 0 1-.5-.5zm-4 0a.5.5 0 0 1 .5-.5.5.5 0 0 1 .5.5.5.5 0 0 1-.5.5.5.5 0 0 1-.5-.5zm-4 0a.5.5 0 0 1 .5-.5.5.5 0 0 1 .5.5.5.5 0 0 1-.5.5.5.5 0 0 1-.5-.5zm-4 0a.5.5 0 0 1 .5-.5.5.5 0 0 1 .5.5.5.5 0 0 1-.5.5.5.5 0 0 1-.5-.5zm-4 0a.5.5 0 0 1 .5-.5.5.5 0 0 1 .5.5.5.5 0 0 1-.5.5.5.5 0 0 1-.5-.5zm-4 0a.5.5 0 0 1 .5-.5.5.5 0 0 1 .5.5.5.5 0 0 1-.5.5.5.5 0 0 1-.5-.5zm-4 0a.5.5 0 0 1 .5-.5.5.5 0 0 1 .5.5.5.5 0 0 1-.5.5.5.5 0 0 1-.5-.5zm-4 0a.5.5 0 0 1 .5-.5.5.5 0 0 1 .5.5.5.5 0 0 1-.5.5.5.5 0 0 1-.5-.5zm-4 0a.5.5 0 0 1 .5-.5.5.5 0 0 1 .5.5.5.5 0 0 1-.5.5.5.5 0 0 1-.5-.5zm-4 0a.5.5 0 0 1 .5-.5.5.5 0 0 1 .5.5.5.5 0 0 1-.5.5.5.5 0 0 1-.5-.5zm-4 0a.5.5 0 0 1 .5-.5.5.5 0 0 1 .5.5.5.5 0 0 1-.5.5.5.5 0 0 1-.5-.5zm-4 0a.5.5 0 0 1 .5-.5.5.5 0 0 1 .5.5.5.5 0 0 1-.5.5.5.5 0 0 1-.5-.5zm-4 0a.5.5 0 0 1 .5-.5.5.5 0 0 1 .5.5.5.5 0 0 1-.5.5.5.5 0 0 1-.5-.5z" class="prefix__cls-2"/>
    </g>
    <g id="prefix__그룹_1073" class="prefix__cls-3">
        <path id="prefix__패스_1593" d="M303 39.72a.5.5 0 0 1 .5-.5.508.508 0 0 1 .5.5.5.5 0 0 1-.5.5.5.5 0 0 1-.5-.5zm-4 0a.5.5 0 0 1 .5-.5.508.508 0 0 1 .5.5.5.5 0 0 1-.5.5.5.5 0 0 1-.5-.5zm-4 0a.5.5 0 0 1 .5-.5.508.508 0 0 1 .5.5.5.5 0 0 1-.5.5.5.5 0 0 1-.5-.5zm-4 0a.5.5 0 0 1 .5-.5.508.508 0 0 1 .5.5.5.5 0 0 1-.5.5.5.5 0 0 1-.5-.5zm-4 0a.5.5 0 0 1 .5-.5.508.508 0 0 1 .5.5.5.5 0 0 1-.5.5.5.5 0 0 1-.5-.5zm-4 0a.5.5 0 0 1 .5-.5.508.508 0 0 1 .5.5.5.5 0 0 1-.5.5.5.5 0 0 1-.5-.5zm-4 0a.5.5 0 0 1 .5-.5.508.508 0 0 1 .5.5.5.5 0 0 1-.5.5.5.5 0 0 1-.5-.5zm-4 0a.5.5 0 0 1 .5-.5.508.508 0 0 1 .5.5.5.5 0 0 1-.5.5.5.5 0 0 1-.5-.5zm-4 0a.5.5 0 0 1 .5-.5.508.508 0 0 1 .5.5.5.5 0 0 1-.5.5.5.5 0 0 1-.5-.5zm-4 0a.5.5 0 0 1 .5-.5.508.508 0 0 1 .5.5.5.5 0 0 1-.5.5.5.5 0 0 1-.5-.5zm-4 0a.5.5 0 0 1 .5-.5.508.508 0 0 1 .5.5.5.5 0 0 1-.5.5.5.5 0 0 1-.5-.5zm-4 0a.5.5 0 0 1 .5-.5.508.508 0 0 1 .5.5.5.5 0 0 1-.5.5.5.5 0 0 1-.5-.5zm-4 0a.5.5 0 0 1 .5-.5.508.508 0 0 1 .5.5.5.5 0 0 1-.5.5.5.5 0 0 1-.5-.5zm-4 0a.5.5 0 0 1 .5-.5.508.508 0 0 1 .5.5.5.5 0 0 1-.5.5.5.5 0 0 1-.5-.5zm-4 0a.5.5 0 0 1 .5-.5.508.508 0 0 1 .5.5.5.5 0 0 1-.5.5.5.5 0 0 1-.5-.5zm-4 0a.5.5 0 0 1 .5-.5.508.508 0 0 1 .5.5.5.5 0 0 1-.5.5.5.5 0 0 1-.5-.5zm-4 0a.5.5 0 0 1 .5-.5.508.508 0 0 1 .5.5.5.5 0 0 1-.5.5.5.5 0 0 1-.5-.5zm-4 0a.5.5 0 0 1 .5-.5.508.508 0 0 1 .5.5.5.5 0 0 1-.5.5.5.5 0 0 1-.5-.5zm-4 0a.5.5 0 0 1 .5-.5.508.508 0 0 1 .5.5.5.5 0 0 1-.5.5.5.5 0 0 1-.5-.5zm-4 0a.5.5 0 0 1 .5-.5.508.508 0 0 1 .5.5.5.5 0 0 1-.5.5.5.5 0 0 1-.5-.5zm-4 0a.5.5 0 0 1 .5-.5.508.508 0 0 1 .5.5.5.5 0 0 1-.5.5.5.5 0 0 1-.5-.5zm-4 0a.5.5 0 0 1 .5-.5.508.508 0 0 1 .5.5.5.5 0 0 1-.5.5.5.5 0 0 1-.5-.5zm-4 0a.5.5 0 0 1 .5-.5.5.5 0 0 1 .5.5.5.5 0 0 1-.5.5.5.5 0 0 1-.5-.5zm-4 0a.5.5 0 0 1 .5-.5.508.508 0 0 1 .5.5.5.5 0 0 1-.5.5.5.5 0 0 1-.5-.5zm-4 0a.5.5 0 0 1 .5-.5.508.508 0 0 1 .5.5.5.5 0 0 1-.5.5.5.5 0 0 1-.5-.5zm-4 0a.5.5 0 0 1 .5-.5.508.508 0 0 1 .5.5.5.5 0 0 1-.5.5.5.5 0 0 1-.5-.5zm-4 0a.5.5 0 0 1 .5-.5.508.508 0 0 1 .5.5.5.5 0 0 1-.5.5.5.5 0 0 1-.5-.5zm-4 0a.5.5 0 0 1 .5-.5.508.508 0 0 1 .5.5.5.5 0 0 1-.5.5.5.5 0 0 1-.5-.5zm-4 0a.5.5 0 0 1 .5-.5.508.508 0 0 1 .5.5.5.5 0 0 1-.5.5.5.5 0 0 1-.5-.5zm-4 0a.5.5 0 0 1 .5-.5.508.508 0 0 1 .5.5.5.5 0 0 1-.5.5.5.5 0 0 1-.5-.5zm-4 0a.5.5 0 0 1 .5-.5.508.508 0 0 1 .5.5.5.5 0 0 1-.5.5.5.5 0 0 1-.5-.5zm-4 0a.5.5 0 0 1 .5-.5.508.508 0 0 1 .5.5.5.5 0 0 1-.5.5.5.5 0 0 1-.5-.5zm-4 0a.5.5 0 0 1 .5-.5.508.508 0 0 1 .5.5.5.5 0 0 1-.5.5.5.5 0 0 1-.5-.5zm-4 0a.5.5 0 0 1 .5-.5.508.508 0 0 1 .5.5.5.5 0 0 1-.5.5.5.5 0 0 1-.5-.5zm-4 0a.5.5 0 0 1 .5-.5.508.508 0 0 1 .5.5.5.5 0 0 1-.5.5.5.5 0 0 1-.5-.5zm-4 0a.5.5 0 0 1 .5-.5.508.508 0 0 1 .5.5.5.5 0 0 1-.5.5.5.5 0 0 1-.5-.5zm-4 0a.5.5 0 0 1 .5-.5.508.508 0 0 1 .5.5.5.5 0 0 1-.5.5.5.5 0 0 1-.5-.5zm-4 0a.5.5 0 0 1 .5-.5.508.508 0 0 1 .5.5.5.5 0 0 1-.5.5.5.5 0 0 1-.5-.5zm-4 0a.5.5 0 0 1 .5-.5.508.508 0 0 1 .5.5.5.5 0 0 1-.5.5.5.5 0 0 1-.5-.5zm-4 0a.5.5 0 0 1 .5-.5.508.508 0 0 1 .5.5.5.5 0 0 1-.5.5.5.5 0 0 1-.5-.5zm-4 0a.5.5 0 0 1 .5-.5.508.508 0 0 1 .5.5.5.5 0 0 1-.5.5.5.5 0 0 1-.5-.5zm-4 0a.5.5 0 0 1 .5-.5.508.508 0 0 1 .5.5.5.5 0 0 1-.5.5.5.5 0 0 1-.5-.5zm-4 0a.5.5 0 0 1 .5-.5.508.508 0 0 1 .5.5.5.5 0 0 1-.5.5.5.5 0 0 1-.5-.5zm-4 0a.5.5 0 0 1 .5-.5.508.508 0 0 1 .5.5.5.5 0 0 1-.5.5.5.5 0 0 1-.5-.5zm-4 0a.5.5 0 0 1 .5-.5.508.508 0 0 1 .5.5.5.5 0 0 1-.5.5.5.5 0 0 1-.5-.5zm-4 0a.5.5 0 0 1 .5-.5.508.508 0 0 1 .5.5.5.5 0 0 1-.5.5.5.5 0 0 1-.5-.5zm-4 0a.5.5 0 0 1 .5-.5.508.508 0 0 1 .5.5.5.5 0 0 1-.5.5.5.5 0 0 1-.5-.5zm-4 0a.5.5 0 0 1 .5-.5.508.508 0 0 1 .5.5.5.5 0 0 1-.5.5.5.5 0 0 1-.5-.5zm-4 0a.5.5 0 0 1 .5-.5.508.508 0 0 1 .5.5.5.5 0 0 1-.5.5.5.5 0 0 1-.5-.5zm-4 0a.5.5 0 0 1 .5-.5.5.5 0 0 1 .5.5.5.5 0 0 1-.5.5.5.5 0 0 1-.5-.5zm-4 0a.5.5 0 0 1 .5-.5.508.508 0 0 1 .5.5.5.5 0 0 1-.5.5.5.5 0 0 1-.5-.5zm-4 0a.5.5 0 0 1 .5-.5.508.508 0 0 1 .5.5.5.5 0 0 1-.5.5.5.5 0 0 1-.5-.5zm-4 0a.5.5 0 0 1 .5-.5.508.508 0 0 1 .5.5.5.5 0 0 1-.5.5.5.5 0 0 1-.5-.5zm-4 0a.5.5 0 0 1 .5-.5.508.508 0 0 1 .5.5.5.5 0 0 1-.5.5.5.5 0 0 1-.5-.5zm-4 0a.5.5 0 0 1 .5-.5.508.508 0 0 1 .5.5.5.5 0 0 1-.5.5.5.5 0 0 1-.5-.5zm-4 0a.5.5 0 0 1 .5-.5.508.508 0 0 1 .5.5.5.5 0 0 1-.5.5.5.5 0 0 1-.5-.5zm-4 0a.5.5 0 0 1 .5-.5.508.508 0 0 1 .5.5.5.5 0 0 1-.5.5.5.5 0 0 1-.5-.5zm-4 0a.5.5 0 0 1 .5-.5.508.508 0 0 1 .5.5.5.5 0 0 1-.5.5.5.5 0 0 1-.5-.5zm-4 0a.5.5 0 0 1 .5-.5.508.508 0 0 1 .5.5.5.5 0 0 1-.5.5.5.5 0 0 1-.5-.5zm-4 0a.5.5 0 0 1 .5-.5.508.508 0 0 1 .5.5.5.5 0 0 1-.5.5.5.5 0 0 1-.5-.5zm-4 0a.5.5 0 0 1 .5-.5.508.508 0 0 1 .5.5.5.5 0 0 1-.5.5.5.5 0 0 1-.5-.5zm-4 0a.5.5 0 0 1 .5-.5.508.508 0 0 1 .5.5.5.5 0 0 1-.5.5.5.5 0 0 1-.5-.5zm-4 0a.5.5 0 0 1 .5-.5.508.508 0 0 1 .5.5.5.5 0 0 1-.5.5.5.5 0 0 1-.5-.5zm-4 0a.5.5 0 0 1 .5-.5.508.508 0 0 1 .5.5.5.5 0 0 1-.5.5.5.5 0 0 1-.5-.5zm-4 0a.5.5 0 0 1 .5-.5.508.508 0 0 1 .5.5.5.5 0 0 1-.5.5.5.5 0 0 1-.5-.5zm-4 0a.5.5 0 0 1 .5-.5.508.508 0 0 1 .5.5.5.5 0 0 1-.5.5.5.5 0 0 1-.5-.5zm-4 0a.5.5 0 0 1 .5-.5.508.508 0 0 1 .5.5.5.5 0 0 1-.5.5.5.5 0 0 1-.5-.5zm-4 0a.5.5 0 0 1 .5-.5.508.508 0 0 1 .5.5.5.5 0 0 1-.5.5.5.5 0 0 1-.5-.5zm-4 0a.5.5 0 0 1 .5-.5.508.508 0 0 1 .5.5.5.5 0 0 1-.5.5.5.5 0 0 1-.5-.5zm-4 0a.5.5 0 0 1 .5-.5.508.508 0 0 1 .5.5.5.5 0 0 1-.5.5.5.5 0 0 1-.5-.5zm-4 0a.5.5 0 0 1 .5-.5.5.5 0 0 1 .5.5.5.5 0 0 1-.5.5.5.5 0 0 1-.5-.5z" class="prefix__cls-2"/>
    </g>
    <g id="prefix__그룹_1074" class="prefix__cls-3">
        <path id="prefix__패스_1594" d="M303 59.33a.5.5 0 0 1 .5-.5.508.508 0 0 1 .5.5.5.5 0 0 1-.5.5.5.5 0 0 1-.5-.5zm-4 0a.5.5 0 0 1 .5-.5.508.508 0 0 1 .5.5.5.5 0 0 1-.5.5.5.5 0 0 1-.5-.5zm-4 0a.5.5 0 0 1 .5-.5.508.508 0 0 1 .5.5.5.5 0 0 1-.5.5.5.5 0 0 1-.5-.5zm-4 0a.5.5 0 0 1 .5-.5.508.508 0 0 1 .5.5.5.5 0 0 1-.5.5.5.5 0 0 1-.5-.5zm-4 0a.5.5 0 0 1 .5-.5.508.508 0 0 1 .5.5.5.5 0 0 1-.5.5.5.5 0 0 1-.5-.5zm-4 0a.5.5 0 0 1 .5-.5.508.508 0 0 1 .5.5.5.5 0 0 1-.5.5.5.5 0 0 1-.5-.5zm-4 0a.5.5 0 0 1 .5-.5.508.508 0 0 1 .5.5.5.5 0 0 1-.5.5.5.5 0 0 1-.5-.5zm-4 0a.5.5 0 0 1 .5-.5.508.508 0 0 1 .5.5.5.5 0 0 1-.5.5.5.5 0 0 1-.5-.5zm-4 0a.5.5 0 0 1 .5-.5.508.508 0 0 1 .5.5.5.5 0 0 1-.5.5.5.5 0 0 1-.5-.5zm-4 0a.5.5 0 0 1 .5-.5.508.508 0 0 1 .5.5.5.5 0 0 1-.5.5.5.5 0 0 1-.5-.5zm-4 0a.5.5 0 0 1 .5-.5.508.508 0 0 1 .5.5.5.5 0 0 1-.5.5.5.5 0 0 1-.5-.5zm-4 0a.5.5 0 0 1 .5-.5.508.508 0 0 1 .5.5.5.5 0 0 1-.5.5.5.5 0 0 1-.5-.5zm-4 0a.5.5 0 0 1 .5-.5.508.508 0 0 1 .5.5.5.5 0 0 1-.5.5.5.5 0 0 1-.5-.5zm-4 0a.5.5 0 0 1 .5-.5.508.508 0 0 1 .5.5.5.5 0 0 1-.5.5.5.5 0 0 1-.5-.5zm-4 0a.5.5 0 0 1 .5-.5.508.508 0 0 1 .5.5.5.5 0 0 1-.5.5.5.5 0 0 1-.5-.5zm-4 0a.5.5 0 0 1 .5-.5.508.508 0 0 1 .5.5.5.5 0 0 1-.5.5.5.5 0 0 1-.5-.5zm-4 0a.5.5 0 0 1 .5-.5.508.508 0 0 1 .5.5.5.5 0 0 1-.5.5.5.5 0 0 1-.5-.5zm-4 0a.5.5 0 0 1 .5-.5.508.508 0 0 1 .5.5.5.5 0 0 1-.5.5.5.5 0 0 1-.5-.5zm-4 0a.5.5 0 0 1 .5-.5.508.508 0 0 1 .5.5.5.5 0 0 1-.5.5.5.5 0 0 1-.5-.5zm-4 0a.5.5 0 0 1 .5-.5.508.508 0 0 1 .5.5.5.5 0 0 1-.5.5.5.5 0 0 1-.5-.5zm-4 0a.5.5 0 0 1 .5-.5.508.508 0 0 1 .5.5.5.5 0 0 1-.5.5.5.5 0 0 1-.5-.5zm-4 0a.5.5 0 0 1 .5-.5.508.508 0 0 1 .5.5.5.5 0 0 1-.5.5.5.5 0 0 1-.5-.5zm-4 0a.5.5 0 0 1 .5-.5.5.5 0 0 1 .5.5.5.5 0 0 1-.5.5.5.5 0 0 1-.5-.5zm-4 0a.5.5 0 0 1 .5-.5.508.508 0 0 1 .5.5.5.5 0 0 1-.5.5.5.5 0 0 1-.5-.5zm-4 0a.5.5 0 0 1 .5-.5.508.508 0 0 1 .5.5.5.5 0 0 1-.5.5.5.5 0 0 1-.5-.5zm-4 0a.5.5 0 0 1 .5-.5.508.508 0 0 1 .5.5.5.5 0 0 1-.5.5.5.5 0 0 1-.5-.5zm-4 0a.5.5 0 0 1 .5-.5.508.508 0 0 1 .5.5.5.5 0 0 1-.5.5.5.5 0 0 1-.5-.5zm-4 0a.5.5 0 0 1 .5-.5.508.508 0 0 1 .5.5.5.5 0 0 1-.5.5.5.5 0 0 1-.5-.5zm-4 0a.5.5 0 0 1 .5-.5.508.508 0 0 1 .5.5.5.5 0 0 1-.5.5.5.5 0 0 1-.5-.5zm-4 0a.5.5 0 0 1 .5-.5.508.508 0 0 1 .5.5.5.5 0 0 1-.5.5.5.5 0 0 1-.5-.5zm-4 0a.5.5 0 0 1 .5-.5.508.508 0 0 1 .5.5.5.5 0 0 1-.5.5.5.5 0 0 1-.5-.5zm-4 0a.5.5 0 0 1 .5-.5.508.508 0 0 1 .5.5.5.5 0 0 1-.5.5.5.5 0 0 1-.5-.5zm-4 0a.5.5 0 0 1 .5-.5.508.508 0 0 1 .5.5.5.5 0 0 1-.5.5.5.5 0 0 1-.5-.5zm-4 0a.5.5 0 0 1 .5-.5.508.508 0 0 1 .5.5.5.5 0 0 1-.5.5.5.5 0 0 1-.5-.5zm-4 0a.5.5 0 0 1 .5-.5.508.508 0 0 1 .5.5.5.5 0 0 1-.5.5.5.5 0 0 1-.5-.5zm-4 0a.5.5 0 0 1 .5-.5.508.508 0 0 1 .5.5.5.5 0 0 1-.5.5.5.5 0 0 1-.5-.5zm-4 0a.5.5 0 0 1 .5-.5.508.508 0 0 1 .5.5.5.5 0 0 1-.5.5.5.5 0 0 1-.5-.5zm-4 0a.5.5 0 0 1 .5-.5.508.508 0 0 1 .5.5.5.5 0 0 1-.5.5.5.5 0 0 1-.5-.5zm-4 0a.5.5 0 0 1 .5-.5.508.508 0 0 1 .5.5.5.5 0 0 1-.5.5.5.5 0 0 1-.5-.5zm-4 0a.5.5 0 0 1 .5-.5.508.508 0 0 1 .5.5.5.5 0 0 1-.5.5.5.5 0 0 1-.5-.5zm-4 0a.5.5 0 0 1 .5-.5.508.508 0 0 1 .5.5.5.5 0 0 1-.5.5.5.5 0 0 1-.5-.5zm-4 0a.5.5 0 0 1 .5-.5.508.508 0 0 1 .5.5.5.5 0 0 1-.5.5.5.5 0 0 1-.5-.5zm-4 0a.5.5 0 0 1 .5-.5.508.508 0 0 1 .5.5.5.5 0 0 1-.5.5.5.5 0 0 1-.5-.5zm-4 0a.5.5 0 0 1 .5-.5.508.508 0 0 1 .5.5.5.5 0 0 1-.5.5.5.5 0 0 1-.5-.5zm-4 0a.5.5 0 0 1 .5-.5.508.508 0 0 1 .5.5.5.5 0 0 1-.5.5.5.5 0 0 1-.5-.5zm-4 0a.5.5 0 0 1 .5-.5.508.508 0 0 1 .5.5.5.5 0 0 1-.5.5.5.5 0 0 1-.5-.5zm-4 0a.5.5 0 0 1 .5-.5.508.508 0 0 1 .5.5.5.5 0 0 1-.5.5.5.5 0 0 1-.5-.5zm-4 0a.5.5 0 0 1 .5-.5.508.508 0 0 1 .5.5.5.5 0 0 1-.5.5.5.5 0 0 1-.5-.5zm-4 0a.5.5 0 0 1 .5-.5.508.508 0 0 1 .5.5.5.5 0 0 1-.5.5.5.5 0 0 1-.5-.5zm-4 0a.5.5 0 0 1 .5-.5.5.5 0 0 1 .5.5.5.5 0 0 1-.5.5.5.5 0 0 1-.5-.5zm-4 0a.5.5 0 0 1 .5-.5.508.508 0 0 1 .5.5.5.5 0 0 1-.5.5.5.5 0 0 1-.5-.5zm-4 0a.5.5 0 0 1 .5-.5.508.508 0 0 1 .5.5.5.5 0 0 1-.5.5.5.5 0 0 1-.5-.5zm-4 0a.5.5 0 0 1 .5-.5.508.508 0 0 1 .5.5.5.5 0 0 1-.5.5.5.5 0 0 1-.5-.5zm-4 0a.5.5 0 0 1 .5-.5.508.508 0 0 1 .5.5.5.5 0 0 1-.5.5.5.5 0 0 1-.5-.5zm-4 0a.5.5 0 0 1 .5-.5.508.508 0 0 1 .5.5.5.5 0 0 1-.5.5.5.5 0 0 1-.5-.5zm-4 0a.5.5 0 0 1 .5-.5.508.508 0 0 1 .5.5.5.5 0 0 1-.5.5.5.5 0 0 1-.5-.5zm-4 0a.5.5 0 0 1 .5-.5.508.508 0 0 1 .5.5.5.5 0 0 1-.5.5.5.5 0 0 1-.5-.5zm-4 0a.5.5 0 0 1 .5-.5.508.508 0 0 1 .5.5.5.5 0 0 1-.5.5.5.5 0 0 1-.5-.5zm-4 0a.5.5 0 0 1 .5-.5.508.508 0 0 1 .5.5.5.5 0 0 1-.5.5.5.5 0 0 1-.5-.5zm-4 0a.5.5 0 0 1 .5-.5.508.508 0 0 1 .5.5.5.5 0 0 1-.5.5.5.5 0 0 1-.5-.5zm-4 0a.5.5 0 0 1 .5-.5.508.508 0 0 1 .5.5.5.5 0 0 1-.5.5.5.5 0 0 1-.5-.5zm-4 0a.5.5 0 0 1 .5-.5.508.508 0 0 1 .5.5.5.5 0 0 1-.5.5.5.5 0 0 1-.5-.5zm-4 0a.5.5 0 0 1 .5-.5.508.508 0 0 1 .5.5.5.5 0 0 1-.5.5.5.5 0 0 1-.5-.5zm-4 0a.5.5 0 0 1 .5-.5.508.508 0 0 1 .5.5.5.5 0 0 1-.5.5.5.5 0 0 1-.5-.5zm-4 0a.5.5 0 0 1 .5-.5.508.508 0 0 1 .5.5.5.5 0 0 1-.5.5.5.5 0 0 1-.5-.5zm-4 0a.5.5 0 0 1 .5-.5.508.508 0 0 1 .5.5.5.5 0 0 1-.5.5.5.5 0 0 1-.5-.5zm-4 0a.5.5 0 0 1 .5-.5.508.508 0 0 1 .5.5.5.5 0 0 1-.5.5.5.5 0 0 1-.5-.5zm-4 0a.5.5 0 0 1 .5-.5.508.508 0 0 1 .5.5.5.5 0 0 1-.5.5.5.5 0 0 1-.5-.5zm-4 0a.5.5 0 0 1 .5-.5.508.508 0 0 1 .5.5.5.5 0 0 1-.5.5.5.5 0 0 1-.5-.5zm-4 0a.5.5 0 0 1 .5-.5.508.508 0 0 1 .5.5.5.5 0 0 1-.5.5.5.5 0 0 1-.5-.5zm-4 0a.5.5 0 0 1 .5-.5.5.5 0 0 1 .5.5.5.5 0 0 1-.5.5.5.5 0 0 1-.5-.5z" class="prefix__cls-2"/>
    </g>
    <g id="prefix__그룹_1075" class="prefix__cls-3">
        <path id="prefix__패스_1595" d="M303 78.94a.493.493 0 0 1 .5-.49.5.5 0 0 1 .5.49.5.5 0 0 1-.5.5.5.5 0 0 1-.5-.5zm-4 0a.493.493 0 0 1 .5-.49.5.5 0 0 1 .5.49.5.5 0 0 1-.5.5.5.5 0 0 1-.5-.5zm-4 0a.493.493 0 0 1 .5-.49.5.5 0 0 1 .5.49.5.5 0 0 1-.5.5.5.5 0 0 1-.5-.5zm-4 0a.493.493 0 0 1 .5-.49.5.5 0 0 1 .5.49.5.5 0 0 1-.5.5.5.5 0 0 1-.5-.5zm-4 0a.493.493 0 0 1 .5-.49.5.5 0 0 1 .5.49.5.5 0 0 1-.5.5.5.5 0 0 1-.5-.5zm-4 0a.493.493 0 0 1 .5-.49.5.5 0 0 1 .5.49.5.5 0 0 1-.5.5.5.5 0 0 1-.5-.5zm-4 0a.493.493 0 0 1 .5-.49.5.5 0 0 1 .5.49.5.5 0 0 1-.5.5.5.5 0 0 1-.5-.5zm-4 0a.493.493 0 0 1 .5-.49.5.5 0 0 1 .5.49.5.5 0 0 1-.5.5.5.5 0 0 1-.5-.5zm-4 0a.493.493 0 0 1 .5-.49.5.5 0 0 1 .5.49.5.5 0 0 1-.5.5.5.5 0 0 1-.5-.5zm-4 0a.493.493 0 0 1 .5-.49.5.5 0 0 1 .5.49.5.5 0 0 1-.5.5.5.5 0 0 1-.5-.5zm-4 0a.493.493 0 0 1 .5-.49.5.5 0 0 1 .5.49.5.5 0 0 1-.5.5.5.5 0 0 1-.5-.5zm-4 0a.493.493 0 0 1 .5-.49.5.5 0 0 1 .5.49.5.5 0 0 1-.5.5.5.5 0 0 1-.5-.5zm-4 0a.493.493 0 0 1 .5-.49.5.5 0 0 1 .5.49.5.5 0 0 1-.5.5.5.5 0 0 1-.5-.5zm-4 0a.493.493 0 0 1 .5-.49.5.5 0 0 1 .5.49.5.5 0 0 1-.5.5.5.5 0 0 1-.5-.5zm-4 0a.493.493 0 0 1 .5-.49.5.5 0 0 1 .5.49.5.5 0 0 1-.5.5.5.5 0 0 1-.5-.5zm-4 0a.493.493 0 0 1 .5-.49.5.5 0 0 1 .5.49.5.5 0 0 1-.5.5.5.5 0 0 1-.5-.5zm-4 0a.493.493 0 0 1 .5-.49.5.5 0 0 1 .5.49.5.5 0 0 1-.5.5.5.5 0 0 1-.5-.5zm-4 0a.493.493 0 0 1 .5-.49.5.5 0 0 1 .5.49.5.5 0 0 1-.5.5.5.5 0 0 1-.5-.5zm-4 0a.493.493 0 0 1 .5-.49.5.5 0 0 1 .5.49.5.5 0 0 1-.5.5.5.5 0 0 1-.5-.5zm-4 0a.493.493 0 0 1 .5-.49.5.5 0 0 1 .5.49.5.5 0 0 1-.5.5.5.5 0 0 1-.5-.5zm-4 0a.493.493 0 0 1 .5-.49.5.5 0 0 1 .5.49.5.5 0 0 1-.5.5.5.5 0 0 1-.5-.5zm-4 0a.493.493 0 0 1 .5-.49.5.5 0 0 1 .5.49.5.5 0 0 1-.5.5.5.5 0 0 1-.5-.5zm-4 0a.493.493 0 0 1 .5-.49.493.493 0 0 1 .5.486.5.5 0 0 1-.5.5.5.5 0 0 1-.5-.496zm-4 0a.493.493 0 0 1 .5-.49.5.5 0 0 1 .5.49.5.5 0 0 1-.5.5.5.5 0 0 1-.5-.5zm-4 0a.493.493 0 0 1 .5-.49.5.5 0 0 1 .5.49.5.5 0 0 1-.5.5.5.5 0 0 1-.5-.5zm-4 0a.493.493 0 0 1 .5-.49.5.5 0 0 1 .5.49.5.5 0 0 1-.5.5.5.5 0 0 1-.5-.5zm-4 0a.493.493 0 0 1 .5-.49.5.5 0 0 1 .5.49.5.5 0 0 1-.5.5.5.5 0 0 1-.5-.5zm-4 0a.493.493 0 0 1 .5-.49.5.5 0 0 1 .5.49.5.5 0 0 1-.5.5.5.5 0 0 1-.5-.5zm-4 0a.493.493 0 0 1 .5-.49.5.5 0 0 1 .5.49.5.5 0 0 1-.5.5.5.5 0 0 1-.5-.5zm-4 0a.493.493 0 0 1 .5-.49.5.5 0 0 1 .5.49.5.5 0 0 1-.5.5.5.5 0 0 1-.5-.5zm-4 0a.493.493 0 0 1 .5-.49.5.5 0 0 1 .5.49.5.5 0 0 1-.5.5.5.5 0 0 1-.5-.5zm-4 0a.493.493 0 0 1 .5-.49.5.5 0 0 1 .5.49.5.5 0 0 1-.5.5.5.5 0 0 1-.5-.5zm-4 0a.493.493 0 0 1 .5-.49.5.5 0 0 1 .5.49.5.5 0 0 1-.5.5.5.5 0 0 1-.5-.5zm-4 0a.493.493 0 0 1 .5-.49.5.5 0 0 1 .5.49.5.5 0 0 1-.5.5.5.5 0 0 1-.5-.5zm-4 0a.493.493 0 0 1 .5-.49.5.5 0 0 1 .5.49.5.5 0 0 1-.5.5.5.5 0 0 1-.5-.5zm-4 0a.493.493 0 0 1 .5-.49.5.5 0 0 1 .5.49.5.5 0 0 1-.5.5.5.5 0 0 1-.5-.5zm-4 0a.493.493 0 0 1 .5-.49.5.5 0 0 1 .5.49.5.5 0 0 1-.5.5.5.5 0 0 1-.5-.5zm-4 0a.493.493 0 0 1 .5-.49.5.5 0 0 1 .5.49.5.5 0 0 1-.5.5.5.5 0 0 1-.5-.5zm-4 0a.493.493 0 0 1 .5-.49.5.5 0 0 1 .5.49.5.5 0 0 1-.5.5.5.5 0 0 1-.5-.5zm-4 0a.493.493 0 0 1 .5-.49.5.5 0 0 1 .5.49.5.5 0 0 1-.5.5.5.5 0 0 1-.5-.5zm-4 0a.493.493 0 0 1 .5-.49.5.5 0 0 1 .5.49.5.5 0 0 1-.5.5.5.5 0 0 1-.5-.5zm-4 0a.493.493 0 0 1 .5-.49.5.5 0 0 1 .5.49.5.5 0 0 1-.5.5.5.5 0 0 1-.5-.5zm-4 0a.493.493 0 0 1 .5-.49.5.5 0 0 1 .5.49.5.5 0 0 1-.5.5.5.5 0 0 1-.5-.5zm-4 0a.493.493 0 0 1 .5-.49.5.5 0 0 1 .5.49.5.5 0 0 1-.5.5.5.5 0 0 1-.5-.5zm-4 0a.493.493 0 0 1 .5-.49.5.5 0 0 1 .5.49.5.5 0 0 1-.5.5.5.5 0 0 1-.5-.5zm-4 0a.493.493 0 0 1 .5-.49.5.5 0 0 1 .5.49.5.5 0 0 1-.5.5.5.5 0 0 1-.5-.5zm-4 0a.493.493 0 0 1 .5-.49.5.5 0 0 1 .5.49.5.5 0 0 1-.5.5.5.5 0 0 1-.5-.5zm-4 0a.493.493 0 0 1 .5-.49.5.5 0 0 1 .5.49.5.5 0 0 1-.5.5.5.5 0 0 1-.5-.5zm-4 0a.493.493 0 0 1 .5-.49.5.5 0 0 1 .5.49.5.5 0 0 1-.5.5.5.5 0 0 1-.5-.5zm-4 0a.493.493 0 0 1 .5-.49.493.493 0 0 1 .5.486.5.5 0 0 1-.5.5.5.5 0 0 1-.5-.496zm-4 0a.493.493 0 0 1 .5-.49.5.5 0 0 1 .5.49.5.5 0 0 1-.5.5.5.5 0 0 1-.5-.5zm-4 0a.493.493 0 0 1 .5-.49.5.5 0 0 1 .5.49.5.5 0 0 1-.5.5.5.5 0 0 1-.5-.5zm-4 0a.493.493 0 0 1 .5-.49.5.5 0 0 1 .5.49.5.5 0 0 1-.5.5.5.5 0 0 1-.5-.5zm-4 0a.493.493 0 0 1 .5-.49.5.5 0 0 1 .5.49.5.5 0 0 1-.5.5.5.5 0 0 1-.5-.5zm-4 0a.493.493 0 0 1 .5-.49.5.5 0 0 1 .5.49.5.5 0 0 1-.5.5.5.5 0 0 1-.5-.5zm-4 0a.493.493 0 0 1 .5-.49.5.5 0 0 1 .5.49.5.5 0 0 1-.5.5.5.5 0 0 1-.5-.5zm-4 0a.493.493 0 0 1 .5-.49.5.5 0 0 1 .5.49.5.5 0 0 1-.5.5.5.5 0 0 1-.5-.5zm-4 0a.493.493 0 0 1 .5-.49.5.5 0 0 1 .5.49.5.5 0 0 1-.5.5.5.5 0 0 1-.5-.5zm-4 0a.493.493 0 0 1 .5-.49.5.5 0 0 1 .5.49.5.5 0 0 1-.5.5.5.5 0 0 1-.5-.5zm-4 0a.493.493 0 0 1 .5-.49.5.5 0 0 1 .5.49.5.5 0 0 1-.5.5.5.5 0 0 1-.5-.5zm-4 0a.493.493 0 0 1 .5-.49.5.5 0 0 1 .5.49.5.5 0 0 1-.5.5.5.5 0 0 1-.5-.5zm-4 0a.493.493 0 0 1 .5-.49.5.5 0 0 1 .5.49.5.5 0 0 1-.5.5.5.5 0 0 1-.5-.5zm-4 0a.493.493 0 0 1 .5-.49.5.5 0 0 1 .5.49.5.5 0 0 1-.5.5.5.5 0 0 1-.5-.5zm-4 0a.493.493 0 0 1 .5-.49.5.5 0 0 1 .5.49.5.5 0 0 1-.5.5.5.5 0 0 1-.5-.5zm-4 0a.493.493 0 0 1 .5-.49.5.5 0 0 1 .5.49.5.5 0 0 1-.5.5.5.5 0 0 1-.5-.5zm-4 0a.493.493 0 0 1 .5-.49.5.5 0 0 1 .5.49.5.5 0 0 1-.5.5.5.5 0 0 1-.5-.5zm-4 0a.493.493 0 0 1 .5-.49.5.5 0 0 1 .5.49.5.5 0 0 1-.5.5.5.5 0 0 1-.5-.5zm-4 0a.493.493 0 0 1 .5-.49.5.5 0 0 1 .5.49.5.5 0 0 1-.5.5.5.5 0 0 1-.5-.5zm-4 0a.493.493 0 0 1 .5-.49.5.5 0 0 1 .5.49.5.5 0 0 1-.5.5.5.5 0 0 1-.5-.5zm-4 0a.493.493 0 0 1 .5-.49.5.5 0 0 1 .5.49.5.5 0 0 1-.5.5.5.5 0 0 1-.5-.5zm-4 0a.493.493 0 0 1 .5-.49.493.493 0 0 1 .5.486.5.5 0 0 1-.5.5.5.5 0 0 1-.5-.496z" class="prefix__cls-2"/>
    </g>
    <g id="prefix__그룹_1076" class="prefix__cls-3">
        <path id="prefix__패스_1596" d="M303 98.56a.5.5 0 0 1 .5-.5.5.5 0 0 1 .5.5.508.508 0 0 1-.5.5.5.5 0 0 1-.5-.5zm-4 0a.5.5 0 0 1 .5-.5.5.5 0 0 1 .5.5.508.508 0 0 1-.5.5.5.5 0 0 1-.5-.5zm-4 0a.5.5 0 0 1 .5-.5.5.5 0 0 1 .5.5.508.508 0 0 1-.5.5.5.5 0 0 1-.5-.5zm-4 0a.5.5 0 0 1 .5-.5.5.5 0 0 1 .5.5.508.508 0 0 1-.5.5.5.5 0 0 1-.5-.5zm-4 0a.5.5 0 0 1 .5-.5.5.5 0 0 1 .5.5.508.508 0 0 1-.5.5.5.5 0 0 1-.5-.5zm-4 0a.5.5 0 0 1 .5-.5.5.5 0 0 1 .5.5.508.508 0 0 1-.5.5.5.5 0 0 1-.5-.5zm-4 0a.5.5 0 0 1 .5-.5.5.5 0 0 1 .5.5.508.508 0 0 1-.5.5.5.5 0 0 1-.5-.5zm-4 0a.5.5 0 0 1 .5-.5.5.5 0 0 1 .5.5.508.508 0 0 1-.5.5.5.5 0 0 1-.5-.5zm-4 0a.5.5 0 0 1 .5-.5.5.5 0 0 1 .5.5.508.508 0 0 1-.5.5.5.5 0 0 1-.5-.5zm-4 0a.5.5 0 0 1 .5-.5.5.5 0 0 1 .5.5.508.508 0 0 1-.5.5.5.5 0 0 1-.5-.5zm-4 0a.5.5 0 0 1 .5-.5.5.5 0 0 1 .5.5.508.508 0 0 1-.5.5.5.5 0 0 1-.5-.5zm-4 0a.5.5 0 0 1 .5-.5.5.5 0 0 1 .5.5.508.508 0 0 1-.5.5.5.5 0 0 1-.5-.5zm-4 0a.5.5 0 0 1 .5-.5.5.5 0 0 1 .5.5.508.508 0 0 1-.5.5.5.5 0 0 1-.5-.5zm-4 0a.5.5 0 0 1 .5-.5.5.5 0 0 1 .5.5.508.508 0 0 1-.5.5.5.5 0 0 1-.5-.5zm-4 0a.5.5 0 0 1 .5-.5.5.5 0 0 1 .5.5.508.508 0 0 1-.5.5.5.5 0 0 1-.5-.5zm-4 0a.5.5 0 0 1 .5-.5.5.5 0 0 1 .5.5.508.508 0 0 1-.5.5.5.5 0 0 1-.5-.5zm-4 0a.5.5 0 0 1 .5-.5.5.5 0 0 1 .5.5.508.508 0 0 1-.5.5.5.5 0 0 1-.5-.5zm-4 0a.5.5 0 0 1 .5-.5.5.5 0 0 1 .5.5.508.508 0 0 1-.5.5.5.5 0 0 1-.5-.5zm-4 0a.5.5 0 0 1 .5-.5.5.5 0 0 1 .5.5.508.508 0 0 1-.5.5.5.5 0 0 1-.5-.5zm-4 0a.5.5 0 0 1 .5-.5.5.5 0 0 1 .5.5.508.508 0 0 1-.5.5.5.5 0 0 1-.5-.5zm-4 0a.5.5 0 0 1 .5-.5.5.5 0 0 1 .5.5.508.508 0 0 1-.5.5.5.5 0 0 1-.5-.5zm-4 0a.5.5 0 0 1 .5-.5.5.5 0 0 1 .5.5.508.508 0 0 1-.5.5.5.5 0 0 1-.5-.5zm-4 0a.5.5 0 0 1 .5-.5.5.5 0 0 1 .5.5.5.5 0 0 1-.5.5.5.5 0 0 1-.5-.5zm-4 0a.5.5 0 0 1 .5-.5.5.5 0 0 1 .5.5.508.508 0 0 1-.5.5.5.5 0 0 1-.5-.5zm-4 0a.5.5 0 0 1 .5-.5.5.5 0 0 1 .5.5.508.508 0 0 1-.5.5.5.5 0 0 1-.5-.5zm-4 0a.5.5 0 0 1 .5-.5.5.5 0 0 1 .5.5.508.508 0 0 1-.5.5.5.5 0 0 1-.5-.5zm-4 0a.5.5 0 0 1 .5-.5.5.5 0 0 1 .5.5.508.508 0 0 1-.5.5.5.5 0 0 1-.5-.5zm-4 0a.5.5 0 0 1 .5-.5.5.5 0 0 1 .5.5.508.508 0 0 1-.5.5.5.5 0 0 1-.5-.5zm-4 0a.5.5 0 0 1 .5-.5.5.5 0 0 1 .5.5.508.508 0 0 1-.5.5.5.5 0 0 1-.5-.5zm-4 0a.5.5 0 0 1 .5-.5.5.5 0 0 1 .5.5.508.508 0 0 1-.5.5.5.5 0 0 1-.5-.5zm-4 0a.5.5 0 0 1 .5-.5.5.5 0 0 1 .5.5.508.508 0 0 1-.5.5.5.5 0 0 1-.5-.5zm-4 0a.5.5 0 0 1 .5-.5.5.5 0 0 1 .5.5.508.508 0 0 1-.5.5.5.5 0 0 1-.5-.5zm-4 0a.5.5 0 0 1 .5-.5.5.5 0 0 1 .5.5.508.508 0 0 1-.5.5.5.5 0 0 1-.5-.5zm-4 0a.5.5 0 0 1 .5-.5.5.5 0 0 1 .5.5.508.508 0 0 1-.5.5.5.5 0 0 1-.5-.5zm-4 0a.5.5 0 0 1 .5-.5.5.5 0 0 1 .5.5.508.508 0 0 1-.5.5.5.5 0 0 1-.5-.5zm-4 0a.5.5 0 0 1 .5-.5.5.5 0 0 1 .5.5.508.508 0 0 1-.5.5.5.5 0 0 1-.5-.5zm-4 0a.5.5 0 0 1 .5-.5.5.5 0 0 1 .5.5.508.508 0 0 1-.5.5.5.5 0 0 1-.5-.5zm-4 0a.5.5 0 0 1 .5-.5.5.5 0 0 1 .5.5.508.508 0 0 1-.5.5.5.5 0 0 1-.5-.5zm-4 0a.5.5 0 0 1 .5-.5.5.5 0 0 1 .5.5.508.508 0 0 1-.5.5.5.5 0 0 1-.5-.5zm-4 0a.5.5 0 0 1 .5-.5.5.5 0 0 1 .5.5.508.508 0 0 1-.5.5.5.5 0 0 1-.5-.5zm-4 0a.5.5 0 0 1 .5-.5.5.5 0 0 1 .5.5.508.508 0 0 1-.5.5.5.5 0 0 1-.5-.5zm-4 0a.5.5 0 0 1 .5-.5.5.5 0 0 1 .5.5.508.508 0 0 1-.5.5.5.5 0 0 1-.5-.5zm-4 0a.5.5 0 0 1 .5-.5.5.5 0 0 1 .5.5.508.508 0 0 1-.5.5.5.5 0 0 1-.5-.5zm-4 0a.5.5 0 0 1 .5-.5.5.5 0 0 1 .5.5.508.508 0 0 1-.5.5.5.5 0 0 1-.5-.5zm-4 0a.5.5 0 0 1 .5-.5.5.5 0 0 1 .5.5.508.508 0 0 1-.5.5.5.5 0 0 1-.5-.5zm-4 0a.5.5 0 0 1 .5-.5.5.5 0 0 1 .5.5.508.508 0 0 1-.5.5.5.5 0 0 1-.5-.5zm-4 0a.5.5 0 0 1 .5-.5.5.5 0 0 1 .5.5.508.508 0 0 1-.5.5.5.5 0 0 1-.5-.5zm-4 0a.5.5 0 0 1 .5-.5.5.5 0 0 1 .5.5.508.508 0 0 1-.5.5.5.5 0 0 1-.5-.5zm-4 0a.5.5 0 0 1 .5-.5.5.5 0 0 1 .5.5.508.508 0 0 1-.5.5.5.5 0 0 1-.5-.5zm-4 0a.5.5 0 0 1 .5-.5.5.5 0 0 1 .5.5.5.5 0 0 1-.5.5.5.5 0 0 1-.5-.5zm-4 0a.5.5 0 0 1 .5-.5.5.5 0 0 1 .5.5.508.508 0 0 1-.5.5.5.5 0 0 1-.5-.5zm-4 0a.5.5 0 0 1 .5-.5.5.5 0 0 1 .5.5.508.508 0 0 1-.5.5.5.5 0 0 1-.5-.5zm-4 0a.5.5 0 0 1 .5-.5.5.5 0 0 1 .5.5.508.508 0 0 1-.5.5.5.5 0 0 1-.5-.5zm-4 0a.5.5 0 0 1 .5-.5.5.5 0 0 1 .5.5.508.508 0 0 1-.5.5.5.5 0 0 1-.5-.5zm-4 0a.5.5 0 0 1 .5-.5.5.5 0 0 1 .5.5.508.508 0 0 1-.5.5.5.5 0 0 1-.5-.5zm-4 0a.5.5 0 0 1 .5-.5.5.5 0 0 1 .5.5.508.508 0 0 1-.5.5.5.5 0 0 1-.5-.5zm-4 0a.5.5 0 0 1 .5-.5.5.5 0 0 1 .5.5.508.508 0 0 1-.5.5.5.5 0 0 1-.5-.5zm-4 0a.5.5 0 0 1 .5-.5.5.5 0 0 1 .5.5.508.508 0 0 1-.5.5.5.5 0 0 1-.5-.5zm-4 0a.5.5 0 0 1 .5-.5.5.5 0 0 1 .5.5.508.508 0 0 1-.5.5.5.5 0 0 1-.5-.5zm-4 0a.5.5 0 0 1 .5-.5.5.5 0 0 1 .5.5.508.508 0 0 1-.5.5.5.5 0 0 1-.5-.5zm-4 0a.5.5 0 0 1 .5-.5.5.5 0 0 1 .5.5.508.508 0 0 1-.5.5.5.5 0 0 1-.5-.5zm-4 0a.5.5 0 0 1 .5-.5.5.5 0 0 1 .5.5.508.508 0 0 1-.5.5.5.5 0 0 1-.5-.5zm-4 0a.5.5 0 0 1 .5-.5.5.5 0 0 1 .5.5.508.508 0 0 1-.5.5.5.5 0 0 1-.5-.5zm-4 0a.5.5 0 0 1 .5-.5.5.5 0 0 1 .5.5.508.508 0 0 1-.5.5.5.5 0 0 1-.5-.5zm-4 0a.5.5 0 0 1 .5-.5.5.5 0 0 1 .5.5.508.508 0 0 1-.5.5.5.5 0 0 1-.5-.5zm-4 0a.5.5 0 0 1 .5-.5.5.5 0 0 1 .5.5.508.508 0 0 1-.5.5.5.5 0 0 1-.5-.5zm-4 0a.5.5 0 0 1 .5-.5.5.5 0 0 1 .5.5.508.508 0 0 1-.5.5.5.5 0 0 1-.5-.5zm-4 0a.5.5 0 0 1 .5-.5.5.5 0 0 1 .5.5.508.508 0 0 1-.5.5.5.5 0 0 1-.5-.5zm-4 0a.5.5 0 0 1 .5-.5.5.5 0 0 1 .5.5.508.508 0 0 1-.5.5.5.5 0 0 1-.5-.5zm-4 0a.5.5 0 0 1 .5-.5.5.5 0 0 1 .5.5.508.508 0 0 1-.5.5.5.5 0 0 1-.5-.5zm-4 0a.5.5 0 0 1 .5-.5.5.5 0 0 1 .5.5.5.5 0 0 1-.5.5.5.5 0 0 1-.5-.5z" class="prefix__cls-2"/>
    </g>
    <g id="prefix__그룹_1077" class="prefix__cls-3">
        <path id="prefix__패스_1597" d="M303 118.17a.5.5 0 0 1 .5-.5.5.5 0 0 1 .5.5.508.508 0 0 1-.5.5.5.5 0 0 1-.5-.5zm-4 0a.5.5 0 0 1 .5-.5.5.5 0 0 1 .5.5.508.508 0 0 1-.5.5.5.5 0 0 1-.5-.5zm-4 0a.5.5 0 0 1 .5-.5.5.5 0 0 1 .5.5.508.508 0 0 1-.5.5.5.5 0 0 1-.5-.5zm-4 0a.5.5 0 0 1 .5-.5.5.5 0 0 1 .5.5.508.508 0 0 1-.5.5.5.5 0 0 1-.5-.5zm-4 0a.5.5 0 0 1 .5-.5.5.5 0 0 1 .5.5.508.508 0 0 1-.5.5.5.5 0 0 1-.5-.5zm-4 0a.5.5 0 0 1 .5-.5.5.5 0 0 1 .5.5.508.508 0 0 1-.5.5.5.5 0 0 1-.5-.5zm-4 0a.5.5 0 0 1 .5-.5.5.5 0 0 1 .5.5.508.508 0 0 1-.5.5.5.5 0 0 1-.5-.5zm-4 0a.5.5 0 0 1 .5-.5.5.5 0 0 1 .5.5.508.508 0 0 1-.5.5.5.5 0 0 1-.5-.5zm-4 0a.5.5 0 0 1 .5-.5.5.5 0 0 1 .5.5.508.508 0 0 1-.5.5.5.5 0 0 1-.5-.5zm-4 0a.5.5 0 0 1 .5-.5.5.5 0 0 1 .5.5.508.508 0 0 1-.5.5.5.5 0 0 1-.5-.5zm-4 0a.5.5 0 0 1 .5-.5.5.5 0 0 1 .5.5.508.508 0 0 1-.5.5.5.5 0 0 1-.5-.5zm-4 0a.5.5 0 0 1 .5-.5.5.5 0 0 1 .5.5.508.508 0 0 1-.5.5.5.5 0 0 1-.5-.5zm-4 0a.5.5 0 0 1 .5-.5.5.5 0 0 1 .5.5.508.508 0 0 1-.5.5.5.5 0 0 1-.5-.5zm-4 0a.5.5 0 0 1 .5-.5.5.5 0 0 1 .5.5.508.508 0 0 1-.5.5.5.5 0 0 1-.5-.5zm-4 0a.5.5 0 0 1 .5-.5.5.5 0 0 1 .5.5.508.508 0 0 1-.5.5.5.5 0 0 1-.5-.5zm-4 0a.5.5 0 0 1 .5-.5.5.5 0 0 1 .5.5.508.508 0 0 1-.5.5.5.5 0 0 1-.5-.5zm-4 0a.5.5 0 0 1 .5-.5.5.5 0 0 1 .5.5.508.508 0 0 1-.5.5.5.5 0 0 1-.5-.5zm-4 0a.5.5 0 0 1 .5-.5.5.5 0 0 1 .5.5.508.508 0 0 1-.5.5.5.5 0 0 1-.5-.5zm-4 0a.5.5 0 0 1 .5-.5.5.5 0 0 1 .5.5.508.508 0 0 1-.5.5.5.5 0 0 1-.5-.5zm-4 0a.5.5 0 0 1 .5-.5.5.5 0 0 1 .5.5.508.508 0 0 1-.5.5.5.5 0 0 1-.5-.5zm-4 0a.5.5 0 0 1 .5-.5.5.5 0 0 1 .5.5.508.508 0 0 1-.5.5.5.5 0 0 1-.5-.5zm-4 0a.5.5 0 0 1 .5-.5.5.5 0 0 1 .5.5.508.508 0 0 1-.5.5.5.5 0 0 1-.5-.5zm-4 0a.5.5 0 0 1 .5-.5.5.5 0 0 1 .5.5.5.5 0 0 1-.5.5.5.5 0 0 1-.5-.5zm-4 0a.5.5 0 0 1 .5-.5.5.5 0 0 1 .5.5.508.508 0 0 1-.5.5.5.5 0 0 1-.5-.5zm-4 0a.5.5 0 0 1 .5-.5.5.5 0 0 1 .5.5.508.508 0 0 1-.5.5.5.5 0 0 1-.5-.5zm-4 0a.5.5 0 0 1 .5-.5.5.5 0 0 1 .5.5.508.508 0 0 1-.5.5.5.5 0 0 1-.5-.5zm-4 0a.5.5 0 0 1 .5-.5.5.5 0 0 1 .5.5.508.508 0 0 1-.5.5.5.5 0 0 1-.5-.5zm-4 0a.5.5 0 0 1 .5-.5.5.5 0 0 1 .5.5.508.508 0 0 1-.5.5.5.5 0 0 1-.5-.5zm-4 0a.5.5 0 0 1 .5-.5.5.5 0 0 1 .5.5.508.508 0 0 1-.5.5.5.5 0 0 1-.5-.5zm-4 0a.5.5 0 0 1 .5-.5.5.5 0 0 1 .5.5.508.508 0 0 1-.5.5.5.5 0 0 1-.5-.5zm-4 0a.5.5 0 0 1 .5-.5.5.5 0 0 1 .5.5.508.508 0 0 1-.5.5.5.5 0 0 1-.5-.5zm-4 0a.5.5 0 0 1 .5-.5.5.5 0 0 1 .5.5.508.508 0 0 1-.5.5.5.5 0 0 1-.5-.5zm-4 0a.5.5 0 0 1 .5-.5.5.5 0 0 1 .5.5.508.508 0 0 1-.5.5.5.5 0 0 1-.5-.5zm-4 0a.5.5 0 0 1 .5-.5.5.5 0 0 1 .5.5.508.508 0 0 1-.5.5.5.5 0 0 1-.5-.5zm-4 0a.5.5 0 0 1 .5-.5.5.5 0 0 1 .5.5.508.508 0 0 1-.5.5.5.5 0 0 1-.5-.5zm-4 0a.5.5 0 0 1 .5-.5.5.5 0 0 1 .5.5.508.508 0 0 1-.5.5.5.5 0 0 1-.5-.5zm-4 0a.5.5 0 0 1 .5-.5.5.5 0 0 1 .5.5.508.508 0 0 1-.5.5.5.5 0 0 1-.5-.5zm-4 0a.5.5 0 0 1 .5-.5.5.5 0 0 1 .5.5.508.508 0 0 1-.5.5.5.5 0 0 1-.5-.5zm-4 0a.5.5 0 0 1 .5-.5.5.5 0 0 1 .5.5.508.508 0 0 1-.5.5.5.5 0 0 1-.5-.5zm-4 0a.5.5 0 0 1 .5-.5.5.5 0 0 1 .5.5.508.508 0 0 1-.5.5.5.5 0 0 1-.5-.5zm-4 0a.5.5 0 0 1 .5-.5.5.5 0 0 1 .5.5.508.508 0 0 1-.5.5.5.5 0 0 1-.5-.5zm-4 0a.5.5 0 0 1 .5-.5.5.5 0 0 1 .5.5.508.508 0 0 1-.5.5.5.5 0 0 1-.5-.5zm-4 0a.5.5 0 0 1 .5-.5.5.5 0 0 1 .5.5.508.508 0 0 1-.5.5.5.5 0 0 1-.5-.5zm-4 0a.5.5 0 0 1 .5-.5.5.5 0 0 1 .5.5.508.508 0 0 1-.5.5.5.5 0 0 1-.5-.5zm-4 0a.5.5 0 0 1 .5-.5.5.5 0 0 1 .5.5.508.508 0 0 1-.5.5.5.5 0 0 1-.5-.5zm-4 0a.5.5 0 0 1 .5-.5.5.5 0 0 1 .5.5.508.508 0 0 1-.5.5.5.5 0 0 1-.5-.5zm-4 0a.5.5 0 0 1 .5-.5.5.5 0 0 1 .5.5.508.508 0 0 1-.5.5.5.5 0 0 1-.5-.5zm-4 0a.5.5 0 0 1 .5-.5.5.5 0 0 1 .5.5.508.508 0 0 1-.5.5.5.5 0 0 1-.5-.5zm-4 0a.5.5 0 0 1 .5-.5.5.5 0 0 1 .5.5.508.508 0 0 1-.5.5.5.5 0 0 1-.5-.5zm-4 0a.5.5 0 0 1 .5-.5.5.5 0 0 1 .5.5.5.5 0 0 1-.5.5.5.5 0 0 1-.5-.5zm-4 0a.5.5 0 0 1 .5-.5.5.5 0 0 1 .5.5.508.508 0 0 1-.5.5.5.5 0 0 1-.5-.5zm-4 0a.5.5 0 0 1 .5-.5.5.5 0 0 1 .5.5.508.508 0 0 1-.5.5.5.5 0 0 1-.5-.5zm-4 0a.5.5 0 0 1 .5-.5.5.5 0 0 1 .5.5.508.508 0 0 1-.5.5.5.5 0 0 1-.5-.5zm-4 0a.5.5 0 0 1 .5-.5.5.5 0 0 1 .5.5.508.508 0 0 1-.5.5.5.5 0 0 1-.5-.5zm-4 0a.5.5 0 0 1 .5-.5.5.5 0 0 1 .5.5.508.508 0 0 1-.5.5.5.5 0 0 1-.5-.5zm-4 0a.5.5 0 0 1 .5-.5.5.5 0 0 1 .5.5.508.508 0 0 1-.5.5.5.5 0 0 1-.5-.5zm-4 0a.5.5 0 0 1 .5-.5.5.5 0 0 1 .5.5.508.508 0 0 1-.5.5.5.5 0 0 1-.5-.5zm-4 0a.5.5 0 0 1 .5-.5.5.5 0 0 1 .5.5.508.508 0 0 1-.5.5.5.5 0 0 1-.5-.5zm-4 0a.5.5 0 0 1 .5-.5.5.5 0 0 1 .5.5.508.508 0 0 1-.5.5.5.5 0 0 1-.5-.5zm-4 0a.5.5 0 0 1 .5-.5.5.5 0 0 1 .5.5.508.508 0 0 1-.5.5.5.5 0 0 1-.5-.5zm-4 0a.5.5 0 0 1 .5-.5.5.5 0 0 1 .5.5.508.508 0 0 1-.5.5.5.5 0 0 1-.5-.5zm-4 0a.5.5 0 0 1 .5-.5.5.5 0 0 1 .5.5.508.508 0 0 1-.5.5.5.5 0 0 1-.5-.5zm-4 0a.5.5 0 0 1 .5-.5.5.5 0 0 1 .5.5.508.508 0 0 1-.5.5.5.5 0 0 1-.5-.5zm-4 0a.5.5 0 0 1 .5-.5.5.5 0 0 1 .5.5.508.508 0 0 1-.5.5.5.5 0 0 1-.5-.5zm-4 0a.5.5 0 0 1 .5-.5.5.5 0 0 1 .5.5.508.508 0 0 1-.5.5.5.5 0 0 1-.5-.5zm-4 0a.5.5 0 0 1 .5-.5.5.5 0 0 1 .5.5.508.508 0 0 1-.5.5.5.5 0 0 1-.5-.5zm-4 0a.5.5 0 0 1 .5-.5.5.5 0 0 1 .5.5.508.508 0 0 1-.5.5.5.5 0 0 1-.5-.5zm-4 0a.5.5 0 0 1 .5-.5.5.5 0 0 1 .5.5.508.508 0 0 1-.5.5.5.5 0 0 1-.5-.5zm-4 0a.5.5 0 0 1 .5-.5.5.5 0 0 1 .5.5.508.508 0 0 1-.5.5.5.5 0 0 1-.5-.5zm-4 0a.5.5 0 0 1 .5-.5.5.5 0 0 1 .5.5.508.508 0 0 1-.5.5.5.5 0 0 1-.5-.5zm-4 0a.5.5 0 0 1 .5-.5.5.5 0 0 1 .5.5.5.5 0 0 1-.5.5.5.5 0 0 1-.5-.5z" class="prefix__cls-2"/>
    </g>
    <g id="prefix__그룹_1078" class="prefix__cls-3">
        <path id="prefix__패스_1598" d="M303 137.78a.5.5 0 0 1 .5-.5.5.5 0 0 1 .5.5.508.508 0 0 1-.5.5.5.5 0 0 1-.5-.5zm-4 0a.5.5 0 0 1 .5-.5.5.5 0 0 1 .5.5.508.508 0 0 1-.5.5.5.5 0 0 1-.5-.5zm-4 0a.5.5 0 0 1 .5-.5.5.5 0 0 1 .5.5.508.508 0 0 1-.5.5.5.5 0 0 1-.5-.5zm-4 0a.5.5 0 0 1 .5-.5.5.5 0 0 1 .5.5.508.508 0 0 1-.5.5.5.5 0 0 1-.5-.5zm-4 0a.5.5 0 0 1 .5-.5.5.5 0 0 1 .5.5.508.508 0 0 1-.5.5.5.5 0 0 1-.5-.5zm-4 0a.5.5 0 0 1 .5-.5.5.5 0 0 1 .5.5.508.508 0 0 1-.5.5.5.5 0 0 1-.5-.5zm-4 0a.5.5 0 0 1 .5-.5.5.5 0 0 1 .5.5.508.508 0 0 1-.5.5.5.5 0 0 1-.5-.5zm-4 0a.5.5 0 0 1 .5-.5.5.5 0 0 1 .5.5.508.508 0 0 1-.5.5.5.5 0 0 1-.5-.5zm-4 0a.5.5 0 0 1 .5-.5.5.5 0 0 1 .5.5.508.508 0 0 1-.5.5.5.5 0 0 1-.5-.5zm-4 0a.5.5 0 0 1 .5-.5.5.5 0 0 1 .5.5.508.508 0 0 1-.5.5.5.5 0 0 1-.5-.5zm-4 0a.5.5 0 0 1 .5-.5.5.5 0 0 1 .5.5.508.508 0 0 1-.5.5.5.5 0 0 1-.5-.5zm-4 0a.5.5 0 0 1 .5-.5.5.5 0 0 1 .5.5.508.508 0 0 1-.5.5.5.5 0 0 1-.5-.5zm-4 0a.5.5 0 0 1 .5-.5.5.5 0 0 1 .5.5.508.508 0 0 1-.5.5.5.5 0 0 1-.5-.5zm-4 0a.5.5 0 0 1 .5-.5.5.5 0 0 1 .5.5.508.508 0 0 1-.5.5.5.5 0 0 1-.5-.5zm-4 0a.5.5 0 0 1 .5-.5.5.5 0 0 1 .5.5.508.508 0 0 1-.5.5.5.5 0 0 1-.5-.5zm-4 0a.5.5 0 0 1 .5-.5.5.5 0 0 1 .5.5.508.508 0 0 1-.5.5.5.5 0 0 1-.5-.5zm-4 0a.5.5 0 0 1 .5-.5.5.5 0 0 1 .5.5.508.508 0 0 1-.5.5.5.5 0 0 1-.5-.5zm-4 0a.5.5 0 0 1 .5-.5.5.5 0 0 1 .5.5.508.508 0 0 1-.5.5.5.5 0 0 1-.5-.5zm-4 0a.5.5 0 0 1 .5-.5.5.5 0 0 1 .5.5.508.508 0 0 1-.5.5.5.5 0 0 1-.5-.5zm-4 0a.5.5 0 0 1 .5-.5.5.5 0 0 1 .5.5.508.508 0 0 1-.5.5.5.5 0 0 1-.5-.5zm-4 0a.5.5 0 0 1 .5-.5.5.5 0 0 1 .5.5.508.508 0 0 1-.5.5.5.5 0 0 1-.5-.5zm-4 0a.5.5 0 0 1 .5-.5.5.5 0 0 1 .5.5.508.508 0 0 1-.5.5.5.5 0 0 1-.5-.5zm-4 0a.5.5 0 0 1 .5-.5.5.5 0 0 1 .5.5.5.5 0 0 1-.5.5.5.5 0 0 1-.5-.5zm-4 0a.5.5 0 0 1 .5-.5.5.5 0 0 1 .5.5.508.508 0 0 1-.5.5.5.5 0 0 1-.5-.5zm-4 0a.5.5 0 0 1 .5-.5.5.5 0 0 1 .5.5.508.508 0 0 1-.5.5.5.5 0 0 1-.5-.5zm-4 0a.5.5 0 0 1 .5-.5.5.5 0 0 1 .5.5.508.508 0 0 1-.5.5.5.5 0 0 1-.5-.5zm-4 0a.5.5 0 0 1 .5-.5.5.5 0 0 1 .5.5.508.508 0 0 1-.5.5.5.5 0 0 1-.5-.5zm-4 0a.5.5 0 0 1 .5-.5.5.5 0 0 1 .5.5.508.508 0 0 1-.5.5.5.5 0 0 1-.5-.5zm-4 0a.5.5 0 0 1 .5-.5.5.5 0 0 1 .5.5.508.508 0 0 1-.5.5.5.5 0 0 1-.5-.5zm-4 0a.5.5 0 0 1 .5-.5.5.5 0 0 1 .5.5.508.508 0 0 1-.5.5.5.5 0 0 1-.5-.5zm-4 0a.5.5 0 0 1 .5-.5.5.5 0 0 1 .5.5.508.508 0 0 1-.5.5.5.5 0 0 1-.5-.5zm-4 0a.5.5 0 0 1 .5-.5.5.5 0 0 1 .5.5.508.508 0 0 1-.5.5.5.5 0 0 1-.5-.5zm-4 0a.5.5 0 0 1 .5-.5.5.5 0 0 1 .5.5.508.508 0 0 1-.5.5.5.5 0 0 1-.5-.5zm-4 0a.5.5 0 0 1 .5-.5.5.5 0 0 1 .5.5.508.508 0 0 1-.5.5.5.5 0 0 1-.5-.5zm-4 0a.5.5 0 0 1 .5-.5.5.5 0 0 1 .5.5.508.508 0 0 1-.5.5.5.5 0 0 1-.5-.5zm-4 0a.5.5 0 0 1 .5-.5.5.5 0 0 1 .5.5.508.508 0 0 1-.5.5.5.5 0 0 1-.5-.5zm-4 0a.5.5 0 0 1 .5-.5.5.5 0 0 1 .5.5.508.508 0 0 1-.5.5.5.5 0 0 1-.5-.5zm-4 0a.5.5 0 0 1 .5-.5.5.5 0 0 1 .5.5.508.508 0 0 1-.5.5.5.5 0 0 1-.5-.5zm-4 0a.5.5 0 0 1 .5-.5.5.5 0 0 1 .5.5.508.508 0 0 1-.5.5.5.5 0 0 1-.5-.5zm-4 0a.5.5 0 0 1 .5-.5.5.5 0 0 1 .5.5.508.508 0 0 1-.5.5.5.5 0 0 1-.5-.5zm-4 0a.5.5 0 0 1 .5-.5.5.5 0 0 1 .5.5.508.508 0 0 1-.5.5.5.5 0 0 1-.5-.5zm-4 0a.5.5 0 0 1 .5-.5.5.5 0 0 1 .5.5.508.508 0 0 1-.5.5.5.5 0 0 1-.5-.5zm-4 0a.5.5 0 0 1 .5-.5.5.5 0 0 1 .5.5.508.508 0 0 1-.5.5.5.5 0 0 1-.5-.5zm-4 0a.5.5 0 0 1 .5-.5.5.5 0 0 1 .5.5.508.508 0 0 1-.5.5.5.5 0 0 1-.5-.5zm-4 0a.5.5 0 0 1 .5-.5.5.5 0 0 1 .5.5.508.508 0 0 1-.5.5.5.5 0 0 1-.5-.5zm-4 0a.5.5 0 0 1 .5-.5.5.5 0 0 1 .5.5.508.508 0 0 1-.5.5.5.5 0 0 1-.5-.5zm-4 0a.5.5 0 0 1 .5-.5.5.5 0 0 1 .5.5.508.508 0 0 1-.5.5.5.5 0 0 1-.5-.5zm-4 0a.5.5 0 0 1 .5-.5.5.5 0 0 1 .5.5.508.508 0 0 1-.5.5.5.5 0 0 1-.5-.5zm-4 0a.5.5 0 0 1 .5-.5.5.5 0 0 1 .5.5.508.508 0 0 1-.5.5.5.5 0 0 1-.5-.5zm-4 0a.5.5 0 0 1 .5-.5.5.5 0 0 1 .5.5.5.5 0 0 1-.5.5.5.5 0 0 1-.5-.5zm-4 0a.5.5 0 0 1 .5-.5.5.5 0 0 1 .5.5.508.508 0 0 1-.5.5.5.5 0 0 1-.5-.5zm-4 0a.5.5 0 0 1 .5-.5.5.5 0 0 1 .5.5.508.508 0 0 1-.5.5.5.5 0 0 1-.5-.5zm-4 0a.5.5 0 0 1 .5-.5.5.5 0 0 1 .5.5.508.508 0 0 1-.5.5.5.5 0 0 1-.5-.5zm-4 0a.5.5 0 0 1 .5-.5.5.5 0 0 1 .5.5.508.508 0 0 1-.5.5.5.5 0 0 1-.5-.5zm-4 0a.5.5 0 0 1 .5-.5.5.5 0 0 1 .5.5.508.508 0 0 1-.5.5.5.5 0 0 1-.5-.5zm-4 0a.5.5 0 0 1 .5-.5.5.5 0 0 1 .5.5.508.508 0 0 1-.5.5.5.5 0 0 1-.5-.5zm-4 0a.5.5 0 0 1 .5-.5.5.5 0 0 1 .5.5.508.508 0 0 1-.5.5.5.5 0 0 1-.5-.5zm-4 0a.5.5 0 0 1 .5-.5.5.5 0 0 1 .5.5.508.508 0 0 1-.5.5.5.5 0 0 1-.5-.5zm-4 0a.5.5 0 0 1 .5-.5.5.5 0 0 1 .5.5.508.508 0 0 1-.5.5.5.5 0 0 1-.5-.5zm-4 0a.5.5 0 0 1 .5-.5.5.5 0 0 1 .5.5.508.508 0 0 1-.5.5.5.5 0 0 1-.5-.5zm-4 0a.5.5 0 0 1 .5-.5.5.5 0 0 1 .5.5.508.508 0 0 1-.5.5.5.5 0 0 1-.5-.5zm-4 0a.5.5 0 0 1 .5-.5.5.5 0 0 1 .5.5.508.508 0 0 1-.5.5.5.5 0 0 1-.5-.5zm-4 0a.5.5 0 0 1 .5-.5.5.5 0 0 1 .5.5.508.508 0 0 1-.5.5.5.5 0 0 1-.5-.5zm-4 0a.5.5 0 0 1 .5-.5.5.5 0 0 1 .5.5.508.508 0 0 1-.5.5.5.5 0 0 1-.5-.5zm-4 0a.5.5 0 0 1 .5-.5.5.5 0 0 1 .5.5.508.508 0 0 1-.5.5.5.5 0 0 1-.5-.5zm-4 0a.5.5 0 0 1 .5-.5.5.5 0 0 1 .5.5.508.508 0 0 1-.5.5.5.5 0 0 1-.5-.5zm-4 0a.5.5 0 0 1 .5-.5.5.5 0 0 1 .5.5.508.508 0 0 1-.5.5.5.5 0 0 1-.5-.5zm-4 0a.5.5 0 0 1 .5-.5.5.5 0 0 1 .5.5.508.508 0 0 1-.5.5.5.5 0 0 1-.5-.5zm-4 0a.5.5 0 0 1 .5-.5.5.5 0 0 1 .5.5.508.508 0 0 1-.5.5.5.5 0 0 1-.5-.5zm-4 0a.5.5 0 0 1 .5-.5.5.5 0 0 1 .5.5.508.508 0 0 1-.5.5.5.5 0 0 1-.5-.5zm-4 0a.5.5 0 0 1 .5-.5.5.5 0 0 1 .5.5.5.5 0 0 1-.5.5.5.5 0 0 1-.5-.5z" class="prefix__cls-2"/>
    </g>
    <g id="prefix__그룹_1081" transform="translate(2)">
        <g id="prefix__그룹_1079">
            <path id="prefix__패스_1599" d="M8.735 17.413v4.9c0 .3-.239.44-.511.44s-.512-.136-.512-.44v-4.141l-1.031.592a.452.452 0 0 1-.622-.152l-.026-.048a.446.446 0 0 1 .135-.616l.025-.015 1.352-.752a1.326 1.326 0 0 1 .655-.208c.3 0 .535.136.535.44z" class="prefix__cls-2"/>
            <path id="prefix__패스_1600" d="M13.776 17.692l-2.087 3.015h1.655V19.4a.441.441 0 0 1 .5-.432.446.446 0 0 1 .5.386.344.344 0 0 1 0 .046v1.311h.488c.247 0 .344.192.344.416s-.1.407-.344.407h-.488v.792a.444.444 0 0 1-.454.435h-.046a.441.441 0 0 1-.5-.432v-.8H11.1c-.439 0-.631-.159-.631-.5 0-.112.016-.208.248-.544l2.3-3.318a.447.447 0 0 1 .619-.128l.012.008a.416.416 0 0 1 .184.56.424.424 0 0 1-.056.085z" class="prefix__cls-2"/>
            <path id="prefix__패스_1601" d="M8.735 37.013v4.9c0 .3-.239.44-.511.44s-.512-.136-.512-.44v-4.141l-1.031.592a.452.452 0 0 1-.622-.152l-.026-.048a.446.446 0 0 1 .135-.616l.025-.015 1.352-.752a1.326 1.326 0 0 1 .655-.208c.3 0 .535.136.535.44z" class="prefix__cls-2"/>
            <path id="prefix__패스_1602" d="M14.567 38v.088a2.423 2.423 0 0 1-.831 1.7l-1.687 1.671h2.423c.248 0 .359.192.359.424s-.111.424-.359.424h-3.047c-.5 0-.719-.176-.719-.552a.724.724 0 0 1 .264-.487l1.854-1.868c.592-.592.712-.9.712-1.3v-.04c0-.352-.271-.608-.823-.608a1.216 1.216 0 0 0-1.048.548.419.419 0 0 1-.583.106l-.024-.018a.439.439 0 0 1-.156-.6.328.328 0 0 1 .02-.031 2.055 2.055 0 0 1 1.774-.911c1.304-.013 1.871.675 1.871 1.454z" class="prefix__cls-2"/>
            <path id="prefix__패스_1603" d="M8.735 56.613v4.9c0 .3-.239.44-.511.44s-.512-.136-.512-.44v-4.14l-1.031.591a.452.452 0 0 1-.622-.152l-.026-.048a.446.446 0 0 1 .135-.616l.025-.015 1.352-.752a1.326 1.326 0 0 1 .655-.208c.3 0 .535.136.535.44z" class="prefix__cls-2"/>
            <path id="prefix__패스_1604" d="M14.9 58.892v.343c0 1.76-.647 2.759-2.127 2.759s-2.127-1-2.127-2.759v-.343c0-1.759.648-2.759 2.127-2.759s2.127 1 2.127 2.759zm-3.222.072v.2c0 1.319.264 1.862 1.1 1.862s1.1-.543 1.1-1.862v-.2c0-1.319-.264-1.863-1.1-1.863s-1.1.544-1.1 1.863z" class="prefix__cls-2"/>
            <path id="prefix__패스_1605" d="M14.623 77.316v.056a1.454 1.454 0 0 1-.783 1.207 1.381 1.381 0 0 1 .935 1.3v.1c0 .919-.695 1.615-1.974 1.615-1.327 0-2.024-.7-2.024-1.615v-.1a1.4 1.4 0 0 1 .944-1.3 1.419 1.419 0 0 1-.791-1.207v-.056a1.611 1.611 0 0 1 1.623-1.6 1.729 1.729 0 0 1 .216.016 1.643 1.643 0 0 1 1.841 1.416c.007.052.011.112.013.168zm-2.79 2.559v.04c0 .5.384.783.96.783s.927-.288.927-.783v-.04a.819.819 0 0 0-.927-.824c-.504 0-.96.24-.96.824zm.144-2.5v.04a.748.748 0 0 0 .751.745h.056a.728.728 0 0 0 .789-.661v-.122a.715.715 0 0 0-.672-.756.683.683 0 0 0-.128 0 .726.726 0 0 0-.8.649.835.835 0 0 0 0 .1z" class="prefix__cls-2"/>
            <path id="prefix__패스_1606" d="M14.319 95.6a.438.438 0 0 1 .2.586l-.007.014a.417.417 0 0 1-.53.259.376.376 0 0 1-.062-.027 2.386 2.386 0 0 0-.911-.168c-.609 0-1.12.4-1.208 1.575a1.753 1.753 0 0 1 1.3-.5 1.7 1.7 0 0 1 1.8 1.855v.12a1.868 1.868 0 0 1-1.84 1.895 2.045 2.045 0 0 1-.207-.008c-1.472 0-2.064-.96-2.064-2.439v-.288c0-2.542 1.032-3.134 2.287-3.134a2.653 2.653 0 0 1 1.242.26zm-2.5 3.6v.08a.907.907 0 0 0 .81.993.866.866 0 0 0 .2 0 .926.926 0 0 0 1.057-.773.907.907 0 0 0 .007-.227v-.048c0-.672-.32-.991-1.024-.991a.925.925 0 0 0-1.042.791.9.9 0 0 0-.007.172z" class="prefix__cls-2"/>
            <path id="prefix__패스_1607" d="M13.776 115.692l-2.087 3.015h1.655V117.4a.441.441 0 0 1 .5-.432.446.446 0 0 1 .5.386.344.344 0 0 1 0 .046v1.311h.488c.247 0 .344.192.344.416s-.1.407-.344.407h-.488v.792a.444.444 0 0 1-.454.435h-.046a.441.441 0 0 1-.5-.432v-.792H11.1c-.439 0-.631-.159-.631-.5 0-.112.016-.208.248-.544l2.3-3.318a.447.447 0 0 1 .619-.128l.012.008a.417.417 0 0 1 .176.563.393.393 0 0 1-.048.074z" class="prefix__cls-2"/>
            <path id="prefix__패스_1608" d="M14.567 136v.088a2.423 2.423 0 0 1-.831 1.7l-1.687 1.671h2.423c.248 0 .359.192.359.424s-.111.424-.359.424h-3.047c-.5 0-.719-.176-.719-.552a.724.724 0 0 1 .264-.487l1.854-1.871c.592-.592.712-.9.712-1.3v-.04c0-.352-.271-.608-.823-.608a1.216 1.216 0 0 0-1.048.544.419.419 0 0 1-.583.106l-.024-.018a.439.439 0 0 1-.156-.6.329.329 0 0 1 .02-.031 2.055 2.055 0 0 1 1.774-.911c1.304-.006 1.871.682 1.871 1.461z" class="prefix__cls-2"/>
            <path id="prefix__패스_1609" d="M14.9 156.892v.343c0 1.76-.647 2.759-2.127 2.759s-2.127-1-2.127-2.759v-.343c0-1.759.648-2.759 2.127-2.759s2.127 1 2.127 2.759zm-3.222.072v.2c0 1.319.264 1.862 1.1 1.862s1.1-.543 1.1-1.862v-.2c0-1.319-.264-1.863-1.1-1.863s-1.1.544-1.1 1.863z" class="prefix__cls-2"/>
        </g>
        <g id="prefix__그룹_1080">
            <path id="prefix__패스_1610" d="M8.735 17.413v4.9c0 .3-.239.44-.511.44s-.512-.136-.512-.44v-4.141l-1.031.592a.452.452 0 0 1-.622-.152l-.026-.048a.446.446 0 0 1 .135-.616l.025-.015 1.352-.752a1.326 1.326 0 0 1 .655-.208c.3 0 .535.136.535.44z" class="prefix__cls-2"/>
            <path id="prefix__패스_1611" d="M13.776 17.692l-2.087 3.015h1.655V19.4a.441.441 0 0 1 .5-.432.446.446 0 0 1 .5.386.344.344 0 0 1 0 .046v1.311h.488c.247 0 .344.192.344.416s-.1.407-.344.407h-.488v.792a.444.444 0 0 1-.454.435h-.046a.441.441 0 0 1-.5-.432v-.8H11.1c-.439 0-.631-.159-.631-.5 0-.112.016-.208.248-.544l2.3-3.318a.447.447 0 0 1 .619-.128l.012.008a.416.416 0 0 1 .184.56.424.424 0 0 1-.056.085z" class="prefix__cls-2"/>
            <path id="prefix__패스_1612" d="M8.735 37.013v4.9c0 .3-.239.44-.511.44s-.512-.136-.512-.44v-4.141l-1.031.592a.452.452 0 0 1-.622-.152l-.026-.048a.446.446 0 0 1 .135-.616l.025-.015 1.352-.752a1.326 1.326 0 0 1 .655-.208c.3 0 .535.136.535.44z" class="prefix__cls-2"/>
            <path id="prefix__패스_1613" d="M14.567 38v.088a2.423 2.423 0 0 1-.831 1.7l-1.687 1.671h2.423c.248 0 .359.192.359.424s-.111.424-.359.424h-3.047c-.5 0-.719-.176-.719-.552a.724.724 0 0 1 .264-.487l1.854-1.868c.592-.592.712-.9.712-1.3v-.04c0-.352-.271-.608-.823-.608a1.216 1.216 0 0 0-1.048.548.419.419 0 0 1-.583.106l-.024-.018a.439.439 0 0 1-.156-.6.328.328 0 0 1 .02-.031 2.055 2.055 0 0 1 1.774-.911c1.304-.013 1.871.675 1.871 1.454z" class="prefix__cls-2"/>
            <path id="prefix__패스_1614" d="M8.735 56.613v4.9c0 .3-.239.44-.511.44s-.512-.136-.512-.44v-4.14l-1.031.591a.452.452 0 0 1-.622-.152l-.026-.048a.446.446 0 0 1 .135-.616l.025-.015 1.352-.752a1.326 1.326 0 0 1 .655-.208c.3 0 .535.136.535.44z" class="prefix__cls-2"/>
            <path id="prefix__패스_1615" d="M14.9 58.892v.343c0 1.76-.647 2.759-2.127 2.759s-2.127-1-2.127-2.759v-.343c0-1.759.648-2.759 2.127-2.759s2.127 1 2.127 2.759zm-3.222.072v.2c0 1.319.264 1.862 1.1 1.862s1.1-.543 1.1-1.862v-.2c0-1.319-.264-1.863-1.1-1.863s-1.1.544-1.1 1.863z" class="prefix__cls-2"/>
            <path id="prefix__패스_1616" d="M14.623 77.316v.056a1.454 1.454 0 0 1-.783 1.207 1.381 1.381 0 0 1 .935 1.3v.1c0 .919-.695 1.615-1.974 1.615-1.327 0-2.024-.7-2.024-1.615v-.1a1.4 1.4 0 0 1 .944-1.3 1.419 1.419 0 0 1-.791-1.207v-.056a1.611 1.611 0 0 1 1.623-1.6 1.729 1.729 0 0 1 .216.016 1.643 1.643 0 0 1 1.841 1.416c.007.052.011.112.013.168zm-2.79 2.559v.04c0 .5.384.783.96.783s.927-.288.927-.783v-.04a.819.819 0 0 0-.927-.824c-.504 0-.96.24-.96.824zm.144-2.5v.04a.748.748 0 0 0 .751.745h.056a.728.728 0 0 0 .789-.661v-.122a.715.715 0 0 0-.672-.756.683.683 0 0 0-.128 0 .726.726 0 0 0-.8.649.835.835 0 0 0 0 .1z" class="prefix__cls-2"/>
            <path id="prefix__패스_1617" d="M14.319 95.6a.438.438 0 0 1 .2.586l-.007.014a.417.417 0 0 1-.53.259.376.376 0 0 1-.062-.027 2.386 2.386 0 0 0-.911-.168c-.609 0-1.12.4-1.208 1.575a1.753 1.753 0 0 1 1.3-.5 1.7 1.7 0 0 1 1.8 1.855v.12a1.868 1.868 0 0 1-1.84 1.895 2.045 2.045 0 0 1-.207-.008c-1.472 0-2.064-.96-2.064-2.439v-.288c0-2.542 1.032-3.134 2.287-3.134a2.653 2.653 0 0 1 1.242.26zm-2.5 3.6v.08a.907.907 0 0 0 .81.993.866.866 0 0 0 .2 0 .926.926 0 0 0 1.057-.773.907.907 0 0 0 .007-.227v-.048c0-.672-.32-.991-1.024-.991a.925.925 0 0 0-1.042.791.9.9 0 0 0-.007.172z" class="prefix__cls-2"/>
            <path id="prefix__패스_1618" d="M13.776 115.692l-2.087 3.015h1.655V117.4a.441.441 0 0 1 .5-.432.446.446 0 0 1 .5.386.344.344 0 0 1 0 .046v1.311h.488c.247 0 .344.192.344.416s-.1.407-.344.407h-.488v.792a.444.444 0 0 1-.454.435h-.046a.441.441 0 0 1-.5-.432v-.792H11.1c-.439 0-.631-.159-.631-.5 0-.112.016-.208.248-.544l2.3-3.318a.447.447 0 0 1 .619-.128l.012.008a.417.417 0 0 1 .176.563.393.393 0 0 1-.048.074z" class="prefix__cls-2"/>
            <path id="prefix__패스_1619" d="M14.567 136v.088a2.423 2.423 0 0 1-.831 1.7l-1.687 1.671h2.423c.248 0 .359.192.359.424s-.111.424-.359.424h-3.047c-.5 0-.719-.176-.719-.552a.724.724 0 0 1 .264-.487l1.854-1.871c.592-.592.712-.9.712-1.3v-.04c0-.352-.271-.608-.823-.608a1.216 1.216 0 0 0-1.048.544.419.419 0 0 1-.583.106l-.024-.018a.439.439 0 0 1-.156-.6.329.329 0 0 1 .02-.031 2.055 2.055 0 0 1 1.774-.911c1.304-.006 1.871.682 1.871 1.461z" class="prefix__cls-2"/>
            <path id="prefix__패스_1620" d="M14.9 156.892v.343c0 1.76-.647 2.759-2.127 2.759s-2.127-1-2.127-2.759v-.343c0-1.759.648-2.759 2.127-2.759s2.127 1 2.127 2.759zm-3.222.072v.2c0 1.319.264 1.862 1.1 1.862s1.1-.543 1.1-1.862v-.2c0-1.319-.264-1.863-1.1-1.863s-1.1.544-1.1 1.863z" class="prefix__cls-2"/>
        </g>
    </g>
    <g id="prefix__그룹_1084">
        <g id="prefix__그룹_1082">
            <path id="prefix__패스_1621" d="M59.05 164.021c.248 0 .359.2.359.432s-.111.431-.359.431h-2.375v1.608h2.207c.248 0 .359.2.359.431s-.111.432-.359.432h-2.207v1.959c0 .3-.239.44-.512.44s-.512-.136-.512-.44v-4.629c0-.5.168-.664.68-.664z" class="prefix__cls-2"/>
            <path id="prefix__패스_1622" d="M64.113 167.259v.016c0 .5-.168.664-.679.664h-2.271v.016a.943.943 0 0 0 1.071.975 2.452 2.452 0 0 0 1.1-.223.382.382 0 0 1 .516.159l.019.041a.412.412 0 0 1-.164.558 3.24 3.24 0 0 1-1.511.3 1.85 1.85 0 0 1-2.014-2.1v-.208a1.863 1.863 0 0 1 1.6-2.091 1.819 1.819 0 0 1 .4-.009 1.776 1.776 0 0 1 1.928 1.61 1.869 1.869 0 0 1 .005.292zm-2.95-.128v.056h1.983v-.08a.848.848 0 0 0-.772-.918.819.819 0 0 0-.2.007.894.894 0 0 0-1.007.935z" class="prefix__cls-2"/>
            <path id="prefix__패스_1623" d="M66.235 164.2v1.7a1.5 1.5 0 0 1 1.207-.528c1.152 0 1.719.728 1.719 2.1v.208c0 1.391-.7 2.1-1.766 2.1a1.3 1.3 0 0 1-1.184-.576h-.024v.152c0 .28-.232.408-.48.408s-.479-.128-.479-.408V164.2a.447.447 0 0 1 .466-.427h.034c.272 0 .507.136.507.427zm-.016 3.07v.744a1 1 0 0 0 1.048.9c.584 0 .9-.432.9-1.271v-.16c0-.823-.256-1.255-.92-1.255a.956.956 0 0 0-1.028 1.039z" class="prefix__cls-2"/>
            <path id="prefix__패스_1624" d="M71.395 169.474a.632.632 0 1 1-.632-.632.618.618 0 0 1 .632.6z" class="prefix__cls-2"/>
        </g>
        <g id="prefix__그룹_1083">
            <path id="prefix__패스_1625" d="M59.05 164.021c.248 0 .359.2.359.432s-.111.431-.359.431h-2.375v1.608h2.207c.248 0 .359.2.359.431s-.111.432-.359.432h-2.207v1.959c0 .3-.239.44-.512.44s-.512-.136-.512-.44v-4.629c0-.5.168-.664.68-.664z" class="prefix__cls-2"/>
            <path id="prefix__패스_1626" d="M64.113 167.259v.016c0 .5-.168.664-.679.664h-2.271v.016a.943.943 0 0 0 1.071.975 2.452 2.452 0 0 0 1.1-.223.382.382 0 0 1 .516.159l.019.041a.412.412 0 0 1-.164.558 3.24 3.24 0 0 1-1.511.3 1.85 1.85 0 0 1-2.014-2.1v-.208a1.863 1.863 0 0 1 1.6-2.091 1.819 1.819 0 0 1 .4-.009 1.776 1.776 0 0 1 1.928 1.61 1.869 1.869 0 0 1 .005.292zm-2.95-.128v.056h1.983v-.08a.848.848 0 0 0-.772-.918.819.819 0 0 0-.2.007.894.894 0 0 0-1.007.935z" class="prefix__cls-2"/>
            <path id="prefix__패스_1627" d="M66.235 164.2v1.7a1.5 1.5 0 0 1 1.207-.528c1.152 0 1.719.728 1.719 2.1v.208c0 1.391-.7 2.1-1.766 2.1a1.3 1.3 0 0 1-1.184-.576h-.024v.152c0 .28-.232.408-.48.408s-.479-.128-.479-.408V164.2a.447.447 0 0 1 .466-.427h.034c.272 0 .507.136.507.427zm-.016 3.07v.744a1 1 0 0 0 1.048.9c.584 0 .9-.432.9-1.271v-.16c0-.823-.256-1.255-.92-1.255a.956.956 0 0 0-1.028 1.039z" class="prefix__cls-2"/>
            <path id="prefix__패스_1628" d="M71.395 169.474a.632.632 0 1 1-.632-.632.618.618 0 0 1 .632.6z" class="prefix__cls-2"/>
        </g>
    </g>
    <g id="prefix__그룹_1087">
        <g id="prefix__그룹_1085">
            <path id="prefix__패스_1629" d="M98.9 164.445l1.8 4.637a.446.446 0 0 1-.2.6.452.452 0 0 1-.089.033.491.491 0 0 1-.655-.226.473.473 0 0 1-.025-.062l-.463-1.28h-2.012l-.473 1.312a.451.451 0 0 1-.57.285.527.527 0 0 1-.069-.029.419.419 0 0 1-.28-.592l1.8-4.677a.606.606 0 0 1 .616-.472.613.613 0 0 1 .62.471zm-.919 1.695l-.421 1.16h1.407l-.416-1.159c-.136-.376-.208-.608-.288-.888-.088.319-.152.519-.28.887z" class="prefix__cls-2"/>
            <path id="prefix__패스_1630" d="M105.741 167.459v.208c0 1.391-.7 2.1-1.766 2.1a1.378 1.378 0 0 1-1.16-.512v1.623c0 .288-.24.424-.5.424a.448.448 0 0 1-.5-.392v-5.09c0-.28.231-.408.479-.408s.488.128.488.408v.12a1.471 1.471 0 0 1 1.247-.576c1.145 0 1.712.728 1.712 2.095zm-2.942-.192v.744a1 1 0 0 0 1.048.9c.584 0 .895-.432.895-1.271v-.16c0-.823-.256-1.255-.92-1.255a.958.958 0 0 0-1.024.886.9.9 0 0 0 0 .156z" class="prefix__cls-2"/>
            <path id="prefix__패스_1631" d="M109.438 165.452a.426.426 0 0 1 .208.5c-.055.3-.263.48-.5.432a2.347 2.347 0 0 0-.4-.064.882.882 0 0 0-.864.9v2.105c0 .288-.24.424-.5.424a.448.448 0 0 1-.5-.392v-3.542c0-.28.232-.408.48-.408s.488.128.488.408v.28h.015a1.3 1.3 0 0 1 1.152-.736.886.886 0 0 1 .421.093z" class="prefix__cls-2"/>
            <path id="prefix__패스_1632" d="M111.671 169.474a.632.632 0 1 1-.632-.632.618.618 0 0 1 .632.6z" class="prefix__cls-2"/>
        </g>
        <g id="prefix__그룹_1086">
            <path id="prefix__패스_1633" d="M98.9 164.445l1.8 4.637a.446.446 0 0 1-.2.6.452.452 0 0 1-.089.033.491.491 0 0 1-.655-.226.473.473 0 0 1-.025-.062l-.463-1.28h-2.012l-.473 1.312a.451.451 0 0 1-.57.285.527.527 0 0 1-.069-.029.419.419 0 0 1-.28-.592l1.8-4.677a.606.606 0 0 1 .616-.472.613.613 0 0 1 .62.471zm-.919 1.695l-.421 1.16h1.407l-.416-1.159c-.136-.376-.208-.608-.288-.888-.088.319-.152.519-.28.887z" class="prefix__cls-2"/>
            <path id="prefix__패스_1634" d="M105.741 167.459v.208c0 1.391-.7 2.1-1.766 2.1a1.378 1.378 0 0 1-1.16-.512v1.623c0 .288-.24.424-.5.424a.448.448 0 0 1-.5-.392v-5.09c0-.28.231-.408.479-.408s.488.128.488.408v.12a1.471 1.471 0 0 1 1.247-.576c1.145 0 1.712.728 1.712 2.095zm-2.942-.192v.744a1 1 0 0 0 1.048.9c.584 0 .895-.432.895-1.271v-.16c0-.823-.256-1.255-.92-1.255a.958.958 0 0 0-1.024.886.9.9 0 0 0 0 .156z" class="prefix__cls-2"/>
            <path id="prefix__패스_1635" d="M109.438 165.452a.426.426 0 0 1 .208.5c-.055.3-.263.48-.5.432a2.347 2.347 0 0 0-.4-.064.882.882 0 0 0-.864.9v2.105c0 .288-.24.424-.5.424a.448.448 0 0 1-.5-.392v-3.542c0-.28.232-.408.48-.408s.488.128.488.408v.28h.015a1.3 1.3 0 0 1 1.152-.736.886.886 0 0 1 .421.093z" class="prefix__cls-2"/>
            <path id="prefix__패스_1636" d="M111.671 169.474a.632.632 0 1 1-.632-.632.618.618 0 0 1 .632.6z" class="prefix__cls-2"/>
        </g>
    </g>
    <g id="prefix__그룹_1090">
        <g id="prefix__그룹_1088">
            <path id="prefix__패스_1637" d="M138.019 164.413v3.654c0 1.223-.648 1.727-1.791 1.727a2.2 2.2 0 0 1-1.136-.312.44.44 0 0 1-.1-.614.415.415 0 0 1 .558-.182l.026.014a1.366 1.366 0 0 0 .648.16c.527 0 .767-.264.767-1.039v-3.406c0-.3.24-.44.512-.44s.516.134.516.438z" class="prefix__cls-2"/>
            <path id="prefix__패스_1638" d="M140.388 165.836v2.1c0 .767.359.967.831.967a.92.92 0 0 0 .941-.9.847.847 0 0 0-.007-.133v-2.031a.443.443 0 0 1 .5-.424.448.448 0 0 1 .5.392v3.542a.423.423 0 0 1-.434.412.342.342 0 0 1-.045 0c-.248 0-.481-.128-.481-.408v-.168h-.015a1.492 1.492 0 0 1-1.28.6 1.449 1.449 0 0 1-1.527-1.632v-2.31c0-.288.24-.424.5-.424a.448.448 0 0 1 .511.374.231.231 0 0 1 .006.043z" class="prefix__cls-2"/>
            <path id="prefix__패스_1639" d="M148.33 166.995v2.335c0 .288-.239.424-.5.424a.448.448 0 0 1-.5-.392V167.211c0-.768-.36-.967-.84-.967a.926.926 0 0 0-.956.9.993.993 0 0 0 .005.134v2.055c0 .288-.24.424-.5.424a.448.448 0 0 1-.5-.392v-3.542a.425.425 0 0 1 .436-.412.327.327 0 0 1 .044 0c.248 0 .48.128.48.408v.144h.016a1.509 1.509 0 0 1 1.295-.6 1.448 1.448 0 0 1 1.529 1.364 1.406 1.406 0 0 1-.009.268z" class="prefix__cls-2"/>
            <path id="prefix__패스_1640" d="M153.354 167.259v.016c0 .5-.167.664-.679.664H150.4v.016a.945.945 0 0 0 .906.983.92.92 0 0 0 .166-.008 2.438 2.438 0 0 0 1.1-.223.382.382 0 0 1 .516.159l.019.041a.412.412 0 0 1-.164.558 3.236 3.236 0 0 1-1.51.3 1.85 1.85 0 0 1-2.015-2.1v-.208a1.863 1.863 0 0 1 1.6-2.091 1.819 1.819 0 0 1 .4-.009 1.779 1.779 0 0 1 1.933 1.9zm-2.95-.128v.056h1.983v-.08a.848.848 0 0 0-.772-.918.819.819 0 0 0-.2.007.894.894 0 0 0-1 .768.931.931 0 0 0-.007.167z" class="prefix__cls-2"/>
        </g>
        <g id="prefix__그룹_1089">
            <path id="prefix__패스_1641" d="M138.019 164.413v3.654c0 1.223-.648 1.727-1.791 1.727a2.2 2.2 0 0 1-1.136-.312.44.44 0 0 1-.1-.614.415.415 0 0 1 .558-.182l.026.014a1.366 1.366 0 0 0 .648.16c.527 0 .767-.264.767-1.039v-3.406c0-.3.24-.44.512-.44s.516.134.516.438z" class="prefix__cls-2"/>
            <path id="prefix__패스_1642" d="M140.388 165.836v2.1c0 .767.359.967.831.967a.92.92 0 0 0 .941-.9.847.847 0 0 0-.007-.133v-2.031a.443.443 0 0 1 .5-.424.448.448 0 0 1 .5.392v3.542a.423.423 0 0 1-.434.412.342.342 0 0 1-.045 0c-.248 0-.481-.128-.481-.408v-.168h-.015a1.492 1.492 0 0 1-1.28.6 1.449 1.449 0 0 1-1.527-1.632v-2.31c0-.288.24-.424.5-.424a.448.448 0 0 1 .511.374.231.231 0 0 1 .006.043z" class="prefix__cls-2"/>
            <path id="prefix__패스_1643" d="M148.33 166.995v2.335c0 .288-.239.424-.5.424a.448.448 0 0 1-.5-.392V167.211c0-.768-.36-.967-.84-.967a.926.926 0 0 0-.956.9.993.993 0 0 0 .005.134v2.055c0 .288-.24.424-.5.424a.448.448 0 0 1-.5-.392v-3.542a.425.425 0 0 1 .436-.412.327.327 0 0 1 .044 0c.248 0 .48.128.48.408v.144h.016a1.509 1.509 0 0 1 1.295-.6 1.448 1.448 0 0 1 1.529 1.364 1.406 1.406 0 0 1-.009.268z" class="prefix__cls-2"/>
            <path id="prefix__패스_1644" d="M153.354 167.259v.016c0 .5-.167.664-.679.664H150.4v.016a.945.945 0 0 0 .906.983.92.92 0 0 0 .166-.008 2.438 2.438 0 0 0 1.1-.223.382.382 0 0 1 .516.159l.019.041a.412.412 0 0 1-.164.558 3.236 3.236 0 0 1-1.51.3 1.85 1.85 0 0 1-2.015-2.1v-.208a1.863 1.863 0 0 1 1.6-2.091 1.819 1.819 0 0 1 .4-.009 1.779 1.779 0 0 1 1.933 1.9zm-2.95-.128v.056h1.983v-.08a.848.848 0 0 0-.772-.918.819.819 0 0 0-.2.007.894.894 0 0 0-1 .768.931.931 0 0 0-.007.167z" class="prefix__cls-2"/>
        </g>
    </g>
    <g id="prefix__그룹_1093">
        <g id="prefix__그룹_1091">
            <path id="prefix__패스_1645" d="M179 164.445l1.8 4.637a.446.446 0 0 1-.2.6.452.452 0 0 1-.089.033.491.491 0 0 1-.655-.226.472.472 0 0 1-.025-.062l-.464-1.28h-2.016l-.471 1.312a.452.452 0 0 1-.572.285.577.577 0 0 1-.068-.029.418.418 0 0 1-.312-.5.368.368 0 0 1 .033-.091l1.8-4.677a.6.6 0 0 1 .615-.472.613.613 0 0 1 .624.47zm-.919 1.695l-.424 1.159h1.407l-.416-1.159c-.135-.376-.208-.608-.288-.888-.086.32-.149.52-.277.888z" class="prefix__cls-2"/>
            <path id="prefix__패스_1646" d="M182.875 165.836v2.1c0 .767.359.967.831.967a.921.921 0 0 0 .942-.9.973.973 0 0 0-.006-.132v-2.031c0-.288.24-.424.5-.424a.446.446 0 0 1 .5.39V169.35a.423.423 0 0 1-.434.412.342.342 0 0 1-.045 0c-.248 0-.481-.128-.481-.408v-.168h-.015a1.489 1.489 0 0 1-1.279.6 1.449 1.449 0 0 1-1.528-1.632v-2.31c0-.288.24-.424.5-.424a.449.449 0 0 1 .511.375l.004.041z" class="prefix__cls-2"/>
            <path id="prefix__패스_1647" d="M189.73 165.844h.008v-.024c0-.28.232-.408.488-.408s.48.128.48.408v3.766c0 1.223-.656 1.823-2.1 1.823a2.727 2.727 0 0 1-1.248-.312.433.433 0 0 1-.12-.6.381.381 0 0 1 .493-.22.453.453 0 0 1 .059.028 1.986 1.986 0 0 0 .832.231c.712 0 1.087-.28 1.087-.959v-.5h-.009a1.3 1.3 0 0 1-1.231.576c-1.112 0-1.7-.728-1.7-2.063v-.16c0-1.359.705-2.071 1.768-2.071a1.416 1.416 0 0 1 1.193.485zm-1.959 1.615v.112c0 .824.272 1.231.9 1.231a1.012 1.012 0 0 0 1.049-.972.952.952 0 0 0 0-.107v-.623a.906.906 0 0 0-.935-.876l-.072.005c-.638-.001-.942.431-.942 1.23z" class="prefix__cls-2"/>
            <path id="prefix__패스_1648" d="M193.171 169.474a.632.632 0 1 1-.632-.632.618.618 0 0 1 .632.6z" class="prefix__cls-2"/>
        </g>
        <g id="prefix__그룹_1092">
            <path id="prefix__패스_1649" d="M179 164.445l1.8 4.637a.446.446 0 0 1-.2.6.452.452 0 0 1-.089.033.491.491 0 0 1-.655-.226.472.472 0 0 1-.025-.062l-.464-1.28h-2.016l-.471 1.312a.452.452 0 0 1-.572.285.577.577 0 0 1-.068-.029.418.418 0 0 1-.312-.5.368.368 0 0 1 .033-.091l1.8-4.677a.6.6 0 0 1 .615-.472.613.613 0 0 1 .624.47zm-.919 1.695l-.424 1.159h1.407l-.416-1.159c-.135-.376-.208-.608-.288-.888-.086.32-.149.52-.277.888z" class="prefix__cls-2"/>
            <path id="prefix__패스_1650" d="M182.875 165.836v2.1c0 .767.359.967.831.967a.921.921 0 0 0 .942-.9.973.973 0 0 0-.006-.132v-2.031c0-.288.24-.424.5-.424a.446.446 0 0 1 .5.39V169.35a.423.423 0 0 1-.434.412.342.342 0 0 1-.045 0c-.248 0-.481-.128-.481-.408v-.168h-.015a1.489 1.489 0 0 1-1.279.6 1.449 1.449 0 0 1-1.528-1.632v-2.31c0-.288.24-.424.5-.424a.449.449 0 0 1 .511.375l.004.041z" class="prefix__cls-2"/>
            <path id="prefix__패스_1651" d="M189.73 165.844h.008v-.024c0-.28.232-.408.488-.408s.48.128.48.408v3.766c0 1.223-.656 1.823-2.1 1.823a2.727 2.727 0 0 1-1.248-.312.433.433 0 0 1-.12-.6.381.381 0 0 1 .493-.22.453.453 0 0 1 .059.028 1.986 1.986 0 0 0 .832.231c.712 0 1.087-.28 1.087-.959v-.5h-.009a1.3 1.3 0 0 1-1.231.576c-1.112 0-1.7-.728-1.7-2.063v-.16c0-1.359.705-2.071 1.768-2.071a1.416 1.416 0 0 1 1.193.485zm-1.959 1.615v.112c0 .824.272 1.231.9 1.231a1.012 1.012 0 0 0 1.049-.972.952.952 0 0 0 0-.107v-.623a.906.906 0 0 0-.935-.876l-.072.005c-.638-.001-.942.431-.942 1.23z" class="prefix__cls-2"/>
            <path id="prefix__패스_1652" d="M193.171 169.474a.632.632 0 1 1-.632-.632.618.618 0 0 1 .632.6z" class="prefix__cls-2"/>
        </g>
    </g>
    <g id="prefix__그룹_1096">
        <g id="prefix__그룹_1094">
            <path id="prefix__패스_1653" d="M222.393 166.7v.328c0 1.943-.9 2.767-2.448 2.767s-2.446-.824-2.446-2.767v-.328c0-1.943.9-2.766 2.446-2.766s2.448.822 2.448 2.766zm-3.863.08v.168c0 1.448.481 1.911 1.415 1.911s1.416-.463 1.416-1.911v-.168c0-1.447-.48-1.91-1.416-1.91s-1.415.462-1.415 1.91z" class="prefix__cls-2"/>
            <path id="prefix__패스_1654" d="M226.722 165.724a.43.43 0 0 1 .115.6l-.015.02a.394.394 0 0 1-.537.145l-.014-.009a1.7 1.7 0 0 0-.912-.232c-.656 0-.984.392-.984 1.223v.2c0 .791.36 1.215.992 1.215a1.975 1.975 0 0 0 .976-.232.4.4 0 0 1 .555.11.379.379 0 0 1 .02.034.449.449 0 0 1-.118.623 2.782 2.782 0 0 1-1.439.352 1.843 1.843 0 0 1-2-2.1v-.2a1.842 1.842 0 0 1 2-2.1 2.4 2.4 0 0 1 1.361.351z" class="prefix__cls-2"/>
            <path id="prefix__패스_1655" d="M229.25 164.717v.743h.84c.24 0 .351.192.351.416s-.111.416-.351.416h-.84v2.11c0 .352.12.512.392.512a1.026 1.026 0 0 0 .368-.064.344.344 0 0 1 .436.216.372.372 0 0 1 .012.048.4.4 0 0 1-.2.52 1.754 1.754 0 0 1-.7.136c-.951 0-1.311-.48-1.311-1.416v-2.062h-.4c-.239 0-.352-.192-.352-.416s.113-.416.352-.416h.4v-.743c0-.3.239-.432.5-.432a.445.445 0 0 1 .503.432z" class="prefix__cls-2"/>
            <path id="prefix__패스_1656" d="M232.53 169.474a.632.632 0 1 1-.632-.632.617.617 0 0 1 .632.6z" class="prefix__cls-2"/>
        </g>
        <g id="prefix__그룹_1095">
            <path id="prefix__패스_1657" d="M222.393 166.7v.328c0 1.943-.9 2.767-2.448 2.767s-2.446-.824-2.446-2.767v-.328c0-1.943.9-2.766 2.446-2.766s2.448.822 2.448 2.766zm-3.863.08v.168c0 1.448.481 1.911 1.415 1.911s1.416-.463 1.416-1.911v-.168c0-1.447-.48-1.91-1.416-1.91s-1.415.462-1.415 1.91z" class="prefix__cls-2"/>
            <path id="prefix__패스_1658" d="M226.722 165.724a.43.43 0 0 1 .115.6l-.015.02a.394.394 0 0 1-.537.145l-.014-.009a1.7 1.7 0 0 0-.912-.232c-.656 0-.984.392-.984 1.223v.2c0 .791.36 1.215.992 1.215a1.975 1.975 0 0 0 .976-.232.4.4 0 0 1 .555.11.379.379 0 0 1 .02.034.449.449 0 0 1-.118.623 2.782 2.782 0 0 1-1.439.352 1.843 1.843 0 0 1-2-2.1v-.2a1.842 1.842 0 0 1 2-2.1 2.4 2.4 0 0 1 1.361.351z" class="prefix__cls-2"/>
            <path id="prefix__패스_1659" d="M229.25 164.717v.743h.84c.24 0 .351.192.351.416s-.111.416-.351.416h-.84v2.11c0 .352.12.512.392.512a1.026 1.026 0 0 0 .368-.064.344.344 0 0 1 .436.216.372.372 0 0 1 .012.048.4.4 0 0 1-.2.52 1.754 1.754 0 0 1-.7.136c-.951 0-1.311-.48-1.311-1.416v-2.062h-.4c-.239 0-.352-.192-.352-.416s.113-.416.352-.416h.4v-.743c0-.3.239-.432.5-.432a.445.445 0 0 1 .503.432z" class="prefix__cls-2"/>
            <path id="prefix__패스_1660" d="M232.53 169.474a.632.632 0 1 1-.632-.632.617.617 0 0 1 .632.6z" class="prefix__cls-2"/>
        </g>
    </g>
    <g id="prefix__그룹_1099">
        <g id="prefix__그룹_1097">
            <path id="prefix__패스_1661" d="M259.519 164.021c1.655 0 2.518.759 2.518 2.694v.3c0 1.935-.863 2.7-2.518 2.7H258.2c-.511 0-.679-.16-.679-.664v-4.357c0-.5.168-.664.679-.664zm-.984 4.821h.848c1.167 0 1.623-.471 1.623-1.911v-.136c0-1.439-.456-1.911-1.623-1.911h-.848z" class="prefix__cls-2"/>
            <path id="prefix__패스_1662" d="M266.934 167.259v.016c0 .5-.168.664-.68.664h-2.271v.016a.945.945 0 0 0 .906.983.919.919 0 0 0 .166-.008 2.438 2.438 0 0 0 1.1-.223.382.382 0 0 1 .516.159l.019.041a.412.412 0 0 1-.164.558 3.236 3.236 0 0 1-1.51.3 1.85 1.85 0 0 1-2.015-2.1v-.208a1.863 1.863 0 0 1 1.6-2.091 1.819 1.819 0 0 1 .4-.009 1.777 1.777 0 0 1 1.928 1.612 1.844 1.844 0 0 1 .005.29zm-2.951-.128v.056h1.983v-.08a.848.848 0 0 0-.772-.918.819.819 0 0 0-.2.007.894.894 0 0 0-1.007.935z" class="prefix__cls-2"/>
            <path id="prefix__패스_1663" d="M271.183 165.724a.43.43 0 0 1 .115.6.148.148 0 0 1-.015.02.394.394 0 0 1-.537.145l-.014-.009a1.69 1.69 0 0 0-.913-.232c-.655 0-.983.392-.983 1.223v.2c0 .791.36 1.215.992 1.215a1.975 1.975 0 0 0 .976-.232.4.4 0 0 1 .555.11.378.378 0 0 1 .02.034.449.449 0 0 1-.118.623 2.786 2.786 0 0 1-1.44.352 1.843 1.843 0 0 1-2-2.1v-.2a1.842 1.842 0 0 1 2-2.1 2.4 2.4 0 0 1 1.362.351z" class="prefix__cls-2"/>
            <path id="prefix__패스_1664" d="M273.527 169.474a.632.632 0 1 1-.632-.632.617.617 0 0 1 .631.6l.001.032z" class="prefix__cls-2"/>
        </g>
        <g id="prefix__그룹_1098">
            <path id="prefix__패스_1665" d="M259.519 164.021c1.655 0 2.518.759 2.518 2.694v.3c0 1.935-.863 2.7-2.518 2.7H258.2c-.511 0-.679-.16-.679-.664v-4.357c0-.5.168-.664.679-.664zm-.984 4.821h.848c1.167 0 1.623-.471 1.623-1.911v-.136c0-1.439-.456-1.911-1.623-1.911h-.848z" class="prefix__cls-2"/>
            <path id="prefix__패스_1666" d="M266.934 167.259v.016c0 .5-.168.664-.68.664h-2.271v.016a.945.945 0 0 0 .906.983.919.919 0 0 0 .166-.008 2.438 2.438 0 0 0 1.1-.223.382.382 0 0 1 .516.159l.019.041a.412.412 0 0 1-.164.558 3.236 3.236 0 0 1-1.51.3 1.85 1.85 0 0 1-2.015-2.1v-.208a1.863 1.863 0 0 1 1.6-2.091 1.819 1.819 0 0 1 .4-.009 1.777 1.777 0 0 1 1.928 1.612 1.844 1.844 0 0 1 .005.29zm-2.951-.128v.056h1.983v-.08a.848.848 0 0 0-.772-.918.819.819 0 0 0-.2.007.894.894 0 0 0-1.007.935z" class="prefix__cls-2"/>
            <path id="prefix__패스_1667" d="M271.183 165.724a.43.43 0 0 1 .115.6.148.148 0 0 1-.015.02.394.394 0 0 1-.537.145l-.014-.009a1.69 1.69 0 0 0-.913-.232c-.655 0-.983.392-.983 1.223v.2c0 .791.36 1.215.992 1.215a1.975 1.975 0 0 0 .976-.232.4.4 0 0 1 .555.11.378.378 0 0 1 .02.034.449.449 0 0 1-.118.623 2.786 2.786 0 0 1-1.44.352 1.843 1.843 0 0 1-2-2.1v-.2a1.842 1.842 0 0 1 2-2.1 2.4 2.4 0 0 1 1.362.351z" class="prefix__cls-2"/>
            <path id="prefix__패스_1668" d="M273.527 169.474a.632.632 0 1 1-.632-.632.617.617 0 0 1 .631.6l.001.032z" class="prefix__cls-2"/>
        </g>
    </g>
    <g id="prefix__그룹_1100">
        <path id="prefix__사각형_395" d="M0 0H14V98H0z" class="prefix__cls-2" transform="translate(56.5 59)"/>
    </g>
    <g id="prefix__그룹_1101">
        <path id="prefix__사각형_396" d="M0 0H14V84H0z" class="prefix__cls-2" transform="translate(96.9 73)"/>
    </g>
    <g id="prefix__그룹_1102">
        <path id="prefix__사각형_397" d="M0 0H14V124H0z" class="prefix__cls-2" transform="translate(137.3 33)"/>
    </g>
    <g id="prefix__그룹_1103">
        <path id="prefix__사각형_398" d="M0 0H14V68H0z" class="prefix__cls-2" transform="translate(177.7 89)"/>
    </g>
    <g id="prefix__그룹_1104">
        <path id="prefix__사각형_399" d="M0 0H14V107H0z" class="prefix__cls-2" transform="translate(218.1 50)"/>
    </g>
    <g id="prefix__그룹_1105">
        <path id="prefix__사각형_400" d="M0 0H14V57H0z" class="prefix__cls-2" transform="translate(258.5 100)"/>
    </g>
    <g id="prefix__그룹_1106" class="prefix__cls-3">
        <path id="prefix__사각형_401" d="M0 0H14V29H0z" class="prefix__cls-1" transform="translate(56.5 59)"/>
    </g>
    <g id="prefix__그룹_1107" class="prefix__cls-3">
        <path id="prefix__사각형_402" d="M0 0H14V22H0z" class="prefix__cls-1" transform="translate(218.1 50)"/>
    </g>
    <g id="prefix__그룹_1108" class="prefix__cls-3">
        <path id="prefix__사각형_403" d="M0 0H14V31H0z" class="prefix__cls-1" transform="translate(96.9 73)"/>
    </g>
    <g id="prefix__그룹_1109" class="prefix__cls-3">
        <path id="prefix__사각형_404" d="M0 0H14V6H0z" class="prefix__cls-1" transform="translate(177.7 89)"/>
    </g>
    <g id="prefix__그룹_1110" class="prefix__cls-3">
        <path id="prefix__사각형_405" d="M0 0H14V11H0z" class="prefix__cls-1" transform="translate(258.5 100)"/>
    </g>
    <g id="prefix__그룹_1111" class="prefix__cls-3">
        <path id="prefix__사각형_406" d="M0 0H14V31H0z" class="prefix__cls-1" transform="translate(137.3 33)"/>
    </g>
    <g id="prefix__그룹_1112">
        <circle id="prefix__타원_34125" cx="3" cy="3" r="3" class="prefix__cls-4" transform="translate(60.5 128)"/>
    </g>
    <g id="prefix__그룹_1113">
        <circle id="prefix__타원_34126" cx="3" cy="3" r="3" class="prefix__cls-4" transform="translate(100.5 79)"/>
    </g>
    <g id="prefix__그룹_1114">
        <circle id="prefix__타원_34127" cx="3" cy="3" r="3" class="prefix__cls-4" transform="translate(141.3 72)"/>
    </g>
    <g id="prefix__그룹_1115">
        <circle id="prefix__타원_34128" cx="3" cy="3" r="3" class="prefix__cls-4" transform="translate(181.5 40)"/>
    </g>
    <g id="prefix__그룹_1116">
        <circle id="prefix__타원_34129" cx="3" cy="3" r="3" class="prefix__cls-4" transform="translate(222.1 47)"/>
    </g>
    <g id="prefix__그룹_1117">
        <circle id="prefix__타원_34130" cx="3" cy="3" r="3" class="prefix__cls-4" transform="translate(262.5 85)"/>
    </g>
    <g id="prefix__그룹_1118">
        <path id="prefix__패스_1669" d="M63.888 131.316l-.775-.633 40.121-49.147 40.561-6.51 41.073-32.058 40.364 7.063 41.108 38.1-.68.733-40.892-37.9-39.636-6.937-40.926 31.946-40.439 6.49z" class="prefix__cls-4"/>
    </g>
</svg>
