<svg xmlns="http://www.w3.org/2000/svg" id="prefix__sns_icon_active" width="50" height="50" viewBox="0 0 50 50">
    <defs>
        <style>
            .prefix__cls-1{fill:#434dfe}
        </style>
    </defs>
    <path id="prefix__패스_251839" d="M30 27a3.225 3.225 0 0 0-2.6 1.2l-4-2.3a2.769 2.769 0 0 0 .1-.9 2.769 2.769 0 0 0-.1-.9l4-2.3a3.471 3.471 0 1 0 .3-4.9 3.367 3.367 0 0 0-1.2 2.6v.5l-4.2 2.4a3.471 3.471 0 1 0-4.6 5.2 3.517 3.517 0 0 0 4.7 0l4.2 2.4v.5a3.5 3.5 0 0 0 7 0A3.631 3.631 0 0 0 30 27zm0-9a1.5 1.5 0 1 1-1.5 1.5A1.538 1.538 0 0 1 30 18zm-11.5 7a1.5 1.5 0 1 1 1.5 1.5 1.538 1.538 0 0 1-1.5-1.5zM30 32a1.5 1.5 0 1 1 1.5-1.5A1.538 1.538 0 0 1 30 32z" class="prefix__cls-1" data-name="패스 251839"/>
    <path id="prefix__패스_251840" d="M25 2A23 23 0 1 1 2 25 23 23 0 0 1 25 2m0-2a25 25 0 1 0 25 25A25 25 0 0 0 25 0z" class="prefix__cls-1" data-name="패스 251840"/>
</svg>
