<svg xmlns="http://www.w3.org/2000/svg" width="586.144" height="229.161" viewBox="0 0 586.144 229.161">
    <defs>
        <style>
            .prefix__cls-1{fill:#fff}.prefix__cls-2{fill:#0ea}.prefix__cls-3{fill:#00fea6}
        </style>
    </defs>
    <g id="prefix__그룹_1924" transform="translate(-120 -209)">
        <g id="prefix__그룹_1926" data-name="그룹 1926">
            <path id="prefix__패스_2619" d="M135.15 225.109v4.65h10.05c.721 0 1.051.57 1.051 1.26s-.33 1.289-1.051 1.289h-23.1c-.72 0-1.05-.6-1.05-1.289s.33-1.26 1.05-1.26h10.05v-4.65c0-.869.72-1.26 1.5-1.26s1.5.391 1.5 1.26zm.029-13.679v1.65a5.573 5.573 0 0 0 2.939 5.4c1.8 1.139 3.69 2.25 5.641 3.33a1.421 1.421 0 0 1-1.5 2.369c-1.891-1.051-3.84-2.189-5.52-3.27-2.01-1.291-2.881-2.34-3.061-3.09h-.029c-.211.811-1.08 1.859-3.09 3.15-1.68 1.078-3.6 2.219-5.52 3.27a1.451 1.451 0 0 1-1.5-2.43c1.949-1.08 3.84-2.191 5.639-3.33a5.57 5.57 0 0 0 2.94-5.4v-1.65c0-.9.72-1.289 1.53-1.289s1.531.389 1.531 1.29z" class="prefix__cls-1" data-name="패스 2619"/>
            <path id="prefix__패스_2620" d="M173.548 231.02c0 .689-.33 1.289-1.049 1.289H149.4c-.721 0-1.051-.6-1.051-1.289 0-.721.33-1.291 1.051-1.291h23.1c.718 0 1.048.571 1.048 1.291zm-2.7-18.78c0 .66-.33 1.23-1.051 1.23h-2.909v8.52h3.06c.689 0 1.02.57 1.02 1.26s-.33 1.23-1.02 1.23h-18c-.69 0-1.021-.541-1.021-1.23s.33-1.26 1.021-1.26h3.06v-8.52H152.1c-.719 0-1.049-.57-1.049-1.23 0-.689.33-1.26 1.049-1.26h17.7c.719 0 1.049.571 1.049 1.26zm-6.87 9.75v-8.52h-6.06v8.52z" class="prefix__cls-1" data-name="패스 2620"/>
            <path id="prefix__패스_2621" d="M200.848 231.02c0 .689-.33 1.289-1.05 1.289H176.7c-.72 0-1.05-.6-1.05-1.289 0-.721.33-1.291 1.05-1.291h23.1c.718 0 1.048.571 1.048 1.291zm-3.479-19.049c0 .689-.33 1.26-1.051 1.26h-13.68c-.479 0-.629.18-.629.629v2.91h14.009a1.091 1.091 0 0 1 1.05 1.23c0 .66-.33 1.23-1.05 1.23h-14.009v2.939c0 .449.149.629.629.629h14.189c.721 0 1.051.57 1.051 1.262s-.33 1.26-1.051 1.26h-15.449c-1.74 0-2.31-.51-2.31-2.221v-10.17c0-1.709.569-2.25 2.31-2.25h14.939c.722.001 1.052.6 1.052 1.292z" class="prefix__cls-1" data-name="패스 2621"/>
            <path id="prefix__패스_2622" d="M217.648 223.459c.03.691-.27 1.26-.93 1.32-1.68.121-3.39.211-5.1.27v7.35a1.47 1.47 0 0 1-2.91 0v-7.289c-1.68.031-3.39.031-5.07.031-.719 0-1.049-.57-1.049-1.262 0-.658.33-1.229 1.049-1.229 3.84 0 7.86-.031 12.93-.33.69-.06 1.051.45 1.08 1.139zm-1.23-8.01c0 3.15-2.011 5.4-6.21 5.4S204 218.6 204 215.449s2.01-5.369 6.209-5.369 6.209 2.22 6.209 5.369zm-9.69 0c0 1.682 1.021 2.91 3.48 2.91s3.48-1.229 3.48-2.91-1.021-2.908-3.48-2.908-3.48 1.229-3.48 2.908zm14.94-5.039v22.41c0 .779-.689 1.139-1.379 1.139s-1.381-.359-1.381-1.139v-3.72h-3.479c-.72 0-1.05-.57-1.05-1.26 0-.66.33-1.23 1.05-1.23h3.479v-16.2a1.4 1.4 0 0 1 2.76 0zm5.13-.24v23.58c0 .809-.69 1.17-1.41 1.17a1.227 1.227 0 0 1-1.381-1.17v-23.58a1.225 1.225 0 0 1 1.381-1.17c.72 0 1.412.359 1.412 1.17z" class="prefix__cls-1" data-name="패스 2622"/>
            <path id="prefix__패스_2623" d="M253.048 210.26v23.4c0 .869-.721 1.26-1.5 1.26a1.3 1.3 0 0 1-1.471-1.26v-12.9h-5.129c-.33 5.01-2.67 7.68-6.9 7.68-4.59 0-6.93-3.119-6.93-8.939s2.34-8.939 6.93-8.939c4.23 0 6.57 2.67 6.9 7.648h5.129v-7.949a1.3 1.3 0 0 1 1.471-1.26c.78-.001 1.5.39 1.5 1.259zm-19.019 9.24c0 4.08 1.14 6.3 4.02 6.3 2.91 0 4.05-2.219 4.05-6.3s-1.14-6.3-4.05-6.3c-2.881 0-4.02 2.22-4.02 6.3z" class="prefix__cls-1" data-name="패스 2623"/>
            <path id="prefix__패스_2624" d="M272.007 219.5c0 5.82-2.4 8.939-7.02 8.939S258 225.32 258 219.5s2.37-8.939 6.99-8.939 7.017 3.119 7.017 8.939zm-11.1 0c0 4.08 1.17 6.3 4.08 6.3 2.939 0 4.109-2.219 4.109-6.3s-1.17-6.3-4.109-6.3c-2.909 0-4.079 2.22-4.079 6.3zm17.968-9.24v4.381h3.09c.721 0 1.051.57 1.051 1.289s-.33 1.291-1.051 1.291h-3.09v4.26h3.09c.721 0 1.051.568 1.051 1.289s-.33 1.291-1.051 1.291h-3.09v9.6c0 .869-.719 1.26-1.5 1.26s-1.5-.391-1.5-1.26v-23.4c0-.869.72-1.26 1.5-1.26s1.501.39 1.501 1.259z" class="prefix__cls-1" data-name="패스 2624"/>
            <path id="prefix__패스_2625" d="M298.828 210.561v4.65c0 .449.18.6.63.6h14.1c.69 0 1.021.57 1.021 1.229 0 .691-.33 1.262-1.021 1.262h-7.14v2.729h10.109c.689 0 1.02.57 1.02 1.23s-.33 1.23-1.02 1.23h-23.159c-.69 0-1.021-.57-1.021-1.23s.33-1.23 1.021-1.23h10.11V218.3h-5.371c-1.739 0-2.279-.541-2.279-2.25v-5.49c0-.9.721-1.291 1.5-1.291s1.5.391 1.5 1.292zm15.3 17.279v2.219c0 1.711-.569 2.25-2.31 2.25h-12.691c-.33 0-.479.121-.479.451v1.23c0 .3.149.449.479.449H313.8a1.045 1.045 0 0 1 .99 1.17c0 .629-.33 1.17-.99 1.17h-15.753c-1.739 0-2.31-.541-2.31-2.25v-2.221c0-1.709.57-2.25 2.31-2.25h12.69c.329 0 .479-.148.479-.449v-1.2c0-.33-.149-.48-.479-.48h-14.1c-.66 0-.961-.541-.961-1.17 0-.6.3-1.17.961-1.17h15.179c1.741.001 2.31.54 2.31 2.251z" class="prefix__cls-1" data-name="패스 2625"/>
            <path id="prefix__패스_2626" d="M335.367 212.391c0 .689-.33 1.289-1.05 1.289h-4.89v2.82a7.03 7.03 0 0 0 2.279 5.82c1.261 1.289 2.521 2.49 3.51 3.33a1.269 1.269 0 0 1-.059 1.859 1.291 1.291 0 0 1-1.83.18c-.871-.779-1.951-1.83-3.181-3.029-1.71-1.74-2.1-2.461-2.22-3.09h-.026c-.15.689-.511 1.41-2.25 3.148-1.2 1.2-2.34 2.311-3.6 3.42a1.34 1.34 0 0 1-1.89-.27 1.269 1.269 0 0 1 .061-1.859c1.379-1.23 2.609-2.4 3.869-3.689a7.029 7.029 0 0 0 2.279-5.82v-2.82h-5.039c-.75 0-1.08-.6-1.08-1.289s.33-1.291 1.08-1.291h12.989c.718 0 1.048.6 1.048 1.291zm5.609-2.131v7.8h3.3c.779 0 1.109.57 1.109 1.289s-.33 1.32-1.109 1.32h-3.3v12.99c0 .869-.719 1.26-1.5 1.26s-1.5-.391-1.5-1.26v-23.4c0-.869.72-1.26 1.5-1.26s1.5.392 1.5 1.261z" class="prefix__cls-1" data-name="패스 2626"/>
            <path id="prefix__패스_2627" d="M364.8 211.641v4.529a7.5 7.5 0 0 0 2.431 5.91c1.2 1.289 2.43 2.49 3.45 3.449a1.27 1.27 0 0 1-.061 1.859 1.35 1.35 0 0 1-1.859.15c-.931-.869-1.95-1.889-3.09-3.09-1.74-1.8-2.25-2.58-2.371-3.24h-.029c-.15.721-.63 1.5-2.37 3.3-1.14 1.2-2.22 2.25-3.51 3.449a1.424 1.424 0 0 1-1.89-2.1c1.35-1.26 2.64-2.49 3.84-3.779a7.576 7.576 0 0 0 2.4-5.91v-4.529c0-.871.75-1.26 1.529-1.26.808.002 1.53.391 1.53 1.262zm12.27-1.381v23.4c0 .869-.719 1.26-1.529 1.26a1.33 1.33 0 0 1-1.5-1.26v-23.4a1.33 1.33 0 0 1 1.5-1.26c.806 0 1.525.391 1.525 1.26z" class="prefix__cls-1" data-name="패스 2627"/>
            <path id="prefix__패스_2628" d="M406.946 224.48c0 .689-.33 1.26-1.05 1.26H382.8c-.72 0-1.05-.57-1.05-1.26s.33-1.291 1.05-1.291h23.1c.716 0 1.046.6 1.046 1.291zm-3.09-13.109c0 .689-.33 1.289-1.05 1.289h-6.93v.539c0 1.291.72 2.221 2.7 3.09 1.891.811 3.6 1.5 5.37 2.16a1.2 1.2 0 0 1 .63 1.621 1.227 1.227 0 0 1-1.68.84c-1.65-.6-3.24-1.26-5.04-2.041-2.55-1.08-3.239-1.859-3.479-2.639h-.03c-.239.84-.931 1.619-3.51 2.7-1.771.779-3.39 1.439-5.04 2.041a1.374 1.374 0 0 1-1.05-2.522c1.771-.66 3.479-1.35 5.37-2.16 1.979-.869 2.7-1.8 2.7-3.09v-.539h-6.93c-.72 0-1.05-.6-1.05-1.289 0-.66.33-1.262 1.05-1.262h16.92c.719 0 1.049.602 1.049 1.262zm-15.689 17.789v4.08c0 .449.181.629.63.629h14.189c.721 0 1.05.57 1.05 1.26s-.329 1.291-1.05 1.291h-15.539c-1.74 0-2.28-.541-2.28-2.25v-5.01c0-.871.72-1.26 1.5-1.26s1.5.389 1.5 1.26z" class="prefix__cls-1" data-name="패스 2628"/>
            <path id="prefix__패스_2629" d="M423.686 215.961v.3c0 2.25-.96 4.08-2.97 6.18l-6.9 7.26h9.784c.721 0 1.051.57 1.051 1.26s-.33 1.26-1.051 1.26h-11.554c-1.561 0-2.189-.51-2.189-1.619 0-.51.27-.93.9-1.619l7.319-7.74c2.131-2.221 2.61-3.359 2.61-4.951v-.148c0-1.74-1.229-2.881-3.63-2.881a4.907 4.907 0 0 0-4.35 2.4 1.237 1.237 0 0 1-1.8.27 1.3 1.3 0 0 1-.42-1.859 7.446 7.446 0 0 1 6.51-3.51c4.53-.003 6.69 2.426 6.69 5.397z" class="prefix__cls-1" data-name="패스 2629"/>
        </g>
        <g id="prefix__그룹_1837" transform="translate(752.591 -189.604)">
            <g id="prefix__그룹_1838" transform="translate(-632.591 460.798)">
                <g id="prefix__그룹_1837-2">
                    <path id="prefix__패스_2459" d="M379.217 61.306a5.157 5.157 0 0 0 6.679-2.935L390 47.837c.106.007.208.031.316.031h24.142l4.09 10.5a5.159 5.159 0 0 0 9.614-3.744l-21.03-54a5.32 5.32 0 0 0-9.818 0l-21.03 54a5.158 5.158 0 0 0 2.935 6.679m23-44.855l8.217 21.1H394z" class="prefix__cls-2"/>
                    <path id="prefix__패스_2460" d="M443.246 61.656A5.157 5.157 0 0 0 448.4 56.5v-54a5.156 5.156 0 1 0-10.312 0v54a5.157 5.157 0 0 0 5.156 5.158" class="prefix__cls-2"/>
                    <path id="prefix__패스_2461" d="M400.625 154.8a5.155 5.155 0 0 0-5.156 5.156 5.158 5.158 0 0 0 5.156 5.16 31.88 31.88 0 0 0 0-63.76 5.155 5.155 0 0 0-5.156 5.156 5.158 5.158 0 0 0 5.156 5.158 21.565 21.565 0 1 1 0 43.13" class="prefix__cls-2"/>
                    <path id="prefix__패스_2462" d="M468.647 104.637a5.317 5.317 0 0 0-9.813 0l-21.032 54a5.158 5.158 0 1 0 9.614 3.742l4.1-10.534c.106.007.208.033.314.033h24.144l4.09 10.5a5.158 5.158 0 0 0 9.615-3.74zm-13.126 36.927l8.217-21.1 8.217 21.1z" class="prefix__cls-2"/>
                    <path id="prefix__패스_2463" d="M564.761 104.637a5.32 5.32 0 0 0-9.817 0l-21.03 54a5.159 5.159 0 1 0 9.616 3.742l4.1-10.534c.106.007.208.033.316.033h24.142l4.09 10.5a5.158 5.158 0 0 0 9.614-3.742zm-13.124 36.927l8.217-21.1 8.217 21.1z" class="prefix__cls-2"/>
                    <path id="prefix__패스_2464" d="M384.027 101.35a5.158 5.158 0 0 0-5.156 5.158v54a5.156 5.156 0 1 0 10.312 0v-54a5.158 5.158 0 0 0-5.156-5.158" class="prefix__cls-2"/>
                    <path id="prefix__패스_2465" d="M529.828 102.8h-36.064a5.157 5.157 0 0 0 0 10.314h12.88v47.391a5.156 5.156 0 1 0 10.312 0v-47.387h12.875a5.157 5.157 0 0 0 0-10.314" class="prefix__cls-2"/>
                    <path id="prefix__패스_2466" d="M207.17-2.307a5.163 5.163 0 0 0-6.679 2.935l-21.03 54a5.16 5.16 0 0 0 9.616 3.744l21.03-54A5.16 5.16 0 0 0 207.17-2.3" class="prefix__cls-2"/>
                    <path id="prefix__패스_2467" d="M136.432.628a5.321 5.321 0 0 0-9.818 0l-21.031 54a5.157 5.157 0 1 0 9.61 3.743l4.1-10.532c.106.005.208.031.316.031h24.142l4.091 10.5a5.159 5.159 0 0 0 9.614-3.744zM123.3 37.549l8.219-21.1 8.219 21.1z" class="prefix__cls-2"/>
                    <path id="prefix__패스_2468" d="M22.553-2.658a5.158 5.158 0 0 0 0 10.316 15.667 15.667 0 1 1 0 31.333 5.157 5.157 0 0 0 0 10.314 25.982 25.982 0 1 0 0-51.963" class="prefix__cls-2"/>
                    <path id="prefix__패스_2469" d="M5.156-2.658A5.158 5.158 0 0 0 0 2.5v56.982a5.157 5.157 0 0 0 5.156 5.158 5.157 5.157 0 0 0 5.156-5.158V2.5a5.156 5.156 0 0 0-5.156-5.158" class="prefix__cls-2"/>
                    <path id="prefix__패스_2470" d="M92.88 51.97H70.662V2.5a5.157 5.157 0 1 0-10.314 0v54.626a5.157 5.157 0 0 0 5.152 5.158h27.38a5.157 5.157 0 0 0 5.156-5.158 5.156 5.156 0 0 0-5.156-5.156" class="prefix__cls-2"/>
                    <path id="prefix__패스_2471" d="M317.378-.382a5.238 5.238 0 0 0-7.219 1.663v.007L287.3 37.926V4.059a5.24 5.24 0 0 0-9.638-2.851L253.485 38.5V4.39a5.241 5.241 0 0 0-10.485 0v51.829a5.241 5.241 0 0 0 9.638 2.851l24.173-37.293v34.441a5.242 5.242 0 0 0 9.688 2.773L319.05 6.83a5.243 5.243 0 0 0-1.672-7.221" class="prefix__cls-3"/>
                    <path id="prefix__패스_2472" d="M352.116-.382a5.235 5.235 0 0 0-7.215 1.66l-.006.01-32.572 52.2a5.241 5.241 0 0 0 8.889 5.556v-.006l32.57-52.2a5.239 5.239 0 0 0-1.668-7.219" class="prefix__cls-3"/>
                    <path id="prefix__패스_2473" d="M169.867 34.561a5.159 5.159 0 0 0 9.614-3.744L167.723.626a5.162 5.162 0 0 0-4.808-3.287 5.121 5.121 0 0 0-1.871.354 5.157 5.157 0 0 0-2.935 6.676z" class="prefix__cls-2"/>
                    <path id="prefix__패스_2474" d="M207.17 100.019a5.163 5.163 0 0 0-6.679 2.935l-21.03 54a5.16 5.16 0 0 0 9.616 3.744l21.03-54a5.162 5.162 0 0 0-2.937-6.679" class="prefix__cls-2"/>
                    <path id="prefix__패스_2475" d="M136.432 102.955a5.321 5.321 0 0 0-9.818 0l-21.031 54a5.155 5.155 0 0 0 2.932 6.676 5.107 5.107 0 0 0 1.869.354 5.162 5.162 0 0 0 4.808-3.287l4.1-10.534c.106.007.208.033.316.033h24.142l4.091 10.5a5.159 5.159 0 0 0 9.614-3.744zM123.3 139.882l8.219-21.1 8.219 21.1z" class="prefix__cls-2"/>
                    <path id="prefix__패스_2476" d="M22.553 99.669a5.158 5.158 0 0 0 0 10.316 15.666 15.666 0 1 1 0 31.331 5.158 5.158 0 0 0 0 10.316 25.982 25.982 0 1 0 0-51.963" class="prefix__cls-2"/>
                    <path id="prefix__패스_2477" d="M5.156 99.669A5.155 5.155 0 0 0 0 104.825v56.984a5.156 5.156 0 1 0 10.312 0v-56.984a5.156 5.156 0 0 0-5.156-5.156" class="prefix__cls-2"/>
                    <path id="prefix__패스_2478" d="M92.88 154.3H70.662v-49.473a5.157 5.157 0 0 0-10.314 0v54.63a5.158 5.158 0 0 0 5.158 5.158H92.88a5.159 5.159 0 0 0 0-10.317" class="prefix__cls-2"/>
                    <path id="prefix__패스_2479" d="M317.378 101.946a5.239 5.239 0 0 0-7.22 1.668L287.3 140.255v-33.864a5.241 5.241 0 0 0-9.638-2.851l-24.173 37.293v-34.11a5.24 5.24 0 0 0-5.239-5.239 5.241 5.241 0 0 0-5.25 5.239v51.831a5.241 5.241 0 0 0 9.638 2.851l24.173-37.294v34.443a5.241 5.241 0 0 0 9.688 2.771l32.548-52.161a5.244 5.244 0 0 0-1.672-7.221" class="prefix__cls-3"/>
                    <path id="prefix__패스_2480" d="M352.116 101.946a5.237 5.237 0 0 0-7.217 1.665v.007l-32.572 52.2a5.241 5.241 0 0 0 8.889 5.556v-.007l32.57-52.2a5.242 5.242 0 0 0-1.67-7.221" class="prefix__cls-3"/>
                    <path id="prefix__패스_2481" d="M169.867 136.888a5.159 5.159 0 0 0 9.614-3.744l-11.758-30.19a5.159 5.159 0 0 0-9.615 3.741z" class="prefix__cls-2"/>
                </g>
            </g>
        </g>
    </g>
</svg>
